<svg xmlns="http://www.w3.org/2000/svg" width="24" height="24" fill="none" viewBox="0 0 23 18"><path fill="#425061" fill-rule="evenodd" d="M14.492 4.66c0 .972.407 1.903 1.131 2.59a3.975 3.975 0 0 0 2.732 1.072 3.975 3.975 0 0 0 2.732-1.073 3.566 3.566 0 0 0 1.132-2.588c0-.971-.407-1.902-1.132-2.589A3.975 3.975 0 0 0 18.355 1a3.988 3.988 0 0 0-2.728 1.076A3.578 3.578 0 0 0 14.49 4.66Zm.86 0c0-.754.316-1.478.88-2.011a3.09 3.09 0 0 1 2.123-.834c.797 0 1.56.3 2.124.834.563.533.88 1.257.88 2.012 0 .754-.317 1.478-.88 2.012a3.09 3.09 0 0 1-2.124.833 3.103 3.103 0 0 1-2.12-.837 2.785 2.785 0 0 1-.883-2.008Zm2.981 4.137h.023c.317 0 .634-.034.945-.1l-.49 1.347a.668.668 0 0 1-.263.348.732.732 0 0 1-.432.125H7.321l.76 2.017c.017.077.092.13.174.123h9.274c.288 0 .521.222.521.494a.508.508 0 0 1-.52.494H8.254a1.26 1.26 0 0 1-.714-.223 1.154 1.154 0 0 1-.437-.58L3.303 2.739a.164.164 0 0 0-.174-.123H1.305a.508.508 0 0 1-.522-.494c0-.273.234-.494.522-.494h1.824c.257 0 .507.08.714.224.207.144.36.346.437.579l.695 1.872h9.034c-.011.119-.02.238-.02.359.002.176.015.352.04.526H5.3l1.694 4.507h10.99l.33-.898h.018Zm-9.058 5.157c-.426 0-.835.16-1.136.446-.302.286-.47.673-.47 1.077 0 .404.168.791.47 1.077.301.286.71.446 1.136.446.427 0 .835-.16 1.137-.446.301-.286.47-.673.47-1.077a1.48 1.48 0 0 0-.47-1.078 1.65 1.65 0 0 0-1.137-.445Zm0 2.058a.588.588 0 0 1-.541-.343.535.535 0 0 1 .127-.605.61.61 0 0 1 .639-.12c.22.085.362.288.362.513a.54.54 0 0 1-.171.393.601.601 0 0 1-.416.162Zm6.886-2.058c-.427 0-.835.16-1.137.446-.3.286-.47.673-.47 1.077 0 .404.17.791.47 1.077.302.286.71.446 1.137.446.426 0 .835-.16 1.136-.446.302-.286.471-.673.471-1.077a1.48 1.48 0 0 0-.47-1.078 1.65 1.65 0 0 0-1.137-.445Zm0 2.058a.588.588 0 0 1-.542-.343.535.535 0 0 1 .127-.605.61.61 0 0 1 .64-.12c.219.085.361.288.361.513.001.147-.06.289-.17.393a.601.601 0 0 1-.416.162Zm1.847-11.785V3.082a.307.307 0 0 1 .128-.26.374.374 0 0 1 .293-.122.337.337 0 0 1 .275.122.306.306 0 0 1 .128.26v1.18h1.245a.428.428 0 0 1 .421.399.428.428 0 0 1-.42.399H18.85v1.18a.337.337 0 0 1-.128.277.64.64 0 0 1-.31.087.428.428 0 0 1-.422-.399v-1.18h-1.245a.4.4 0 0 1-.293-.121.338.338 0 0 1-.128-.278.36.36 0 0 1 .128-.277.374.374 0 0 1 .293-.122h1.263Z" clip-rule="evenodd"/><path fill="#425061" d="M14.492 4.66h-.1.1Zm6.595 2.59.069.072-.069-.073Zm0-5.178L21.156 2l-.069.072ZM18.355 1V.9 1Zm-2.728 1.076-.069-.073.069.073Zm.605.573-.07-.073.07.073Zm-.88 2.012h-.1.1Zm5.127-2.012.069-.073-.07.073Zm0 4.024.069.073-.07-.073Zm-2.124.833v.1-.1Zm-2.12-.837.07-.072-.07.072Zm2.098 2.128.007-.1-.007.1Zm0 0-.007.1.007-.1Zm.023 0v.1-.1Zm.945-.1.094.035.061-.17-.176.038.02.098Zm-.49 1.347-.094-.034-.001.003.095.03Zm-.263.348.057.083-.057-.083Zm-.432.125.003-.1h-.003v.1Zm-10.795 0v-.1h-.144l.05.135.094-.035Zm.76 2.017.098-.022-.002-.007-.002-.006-.094.035Zm.174.123v-.1h-.007l.007.1Zm0 .988v.1-.1Zm-.714-.223.058-.082-.058.082Zm-.437-.58.095-.031-.002-.003-.093.035ZM3.303 2.739l-.099.022.005.013.094-.035Zm-.174-.123v.1h.007l-.007-.1Zm0-.988v-.1.1Zm.714.224-.057.082.057-.082Zm.437.579-.094.031v.003l.094-.034Zm.695 1.872-.093.035.024.065h.07v-.1Zm9.034 0 .1.01.01-.11h-.11v.1Zm-.02.359h-.1.1Zm.04.526v.1h.115l-.016-.114-.1.014Zm-8.728 0v-.1h-.144l.05.135.094-.035Zm1.694 4.507-.093.035.024.065h.07v-.1Zm10.99 0v.1h.07l.024-.066-.094-.034Zm.33-.898.002-.1-.072-.002-.024.067.093.035ZM8.138 14.4l.069.073-.07-.073Zm1.136-.446v.1-.1Zm-1.136 2.6-.069.073.069-.073Zm2.744-1.077h-.1.1Zm-.47-1.078.069-.072-.07.072Zm-1.68 1.27-.091.04.092-.04Zm.542.343v-.1.1Zm-.414-.948.069.072-.07-.072Zm.639-.12-.037.092.037-.093Zm.362.513h-.1.1Zm-.171.393.069.073-.07-.073Zm5.333-1.45-.068-.072.068.072Zm1.137-.446v.1-.1Zm-1.137 2.6-.068.073.068-.073Zm2.273 0-.068-.073.068.073Zm.471-1.077h-.1.1Zm-.47-1.078-.068.073.069-.073Zm-1.679 1.27-.091.04.091-.04Zm.542.343v-.1.1Zm-.415-.948.069.072-.069-.072Zm.64-.12-.037.092.036-.093Zm.361.513h-.1.1Zm-.17.393.068.073-.069-.073Zm1.43-11.623v.1h.1v-.1h-.1Zm0-1.145h.1v-.004l-.1.004Zm.129-.26.059.08.008-.006.008-.008-.075-.066Zm.293-.122-.004.1h.008l-.004-.1Zm.275.122-.078.063.008.01.01.008.06-.081Zm.128.26-.1-.004v.004h.1Zm0 1.18h-.1v.1h.1v-.1Zm1.245 0 .004-.1h-.004v.1Zm.421.399.1.004v-.008l-.1.004Zm-.42.399v.1h.003l-.004-.1Zm-1.228 0v-.1h-.1v.1h.1Zm0 1.18h-.1v.004l.1-.004Zm-.128.277.05.087.007-.004.006-.005-.063-.078Zm-.31.087-.005.1h.006l-.002-.1Zm-.422-.399h-.1v.004l.1-.004Zm0-1.18h.1v-.1h-.1v.1Zm-1.245 0v-.1h-.001v.1Zm-.293-.121.073-.07-.01-.008-.063.078Zm-.128-.278.1.005v-.006l-.1.001Zm.128-.277.065.076.01-.01-.075-.066Zm.293-.122-.004.1h.004v-.1Zm-1.053 2.95a3.466 3.466 0 0 1-1.1-2.516h-.2c0 .999.418 1.956 1.162 2.661l.138-.145Zm2.663 1.045c-1 0-1.958-.377-2.663-1.045l-.138.145a4.075 4.075 0 0 0 2.801 1.1v-.2Zm2.663-1.045a3.875 3.875 0 0 1-2.663 1.045v.2c1.05 0 2.057-.395 2.801-1.1l-.137-.145Zm1.1-2.516c0 .942-.394 1.848-1.1 2.516l.138.145a3.666 3.666 0 0 0 1.163-2.661h-.2Zm-1.1-2.516a3.466 3.466 0 0 1 1.1 2.516h.2c0-1-.418-1.957-1.162-2.661l-.137.145ZM18.355 1.1c1 0 1.958.376 2.663 1.045L21.157 2a4.075 4.075 0 0 0-2.8-1.1v.2Zm-2.66 1.048a3.887 3.887 0 0 1 2.66-1.048V.9a4.087 4.087 0 0 0-2.797 1.103l.138.145Zm-1.104 2.513c.004-.942.4-1.845 1.105-2.513l-.138-.145a3.678 3.678 0 0 0-1.166 2.657l.2.001Zm1.572-2.085a2.873 2.873 0 0 0-.911 2.085h.2c0-.726.305-1.424.848-1.94l-.137-.145Zm2.192-.86c-.821 0-1.61.308-2.192.86l.137.145a2.99 2.99 0 0 1 2.055-.806v-.2Zm2.193.86a3.19 3.19 0 0 0-2.193-.86v.2c.772 0 1.511.29 2.055.805l.138-.145Zm.91 2.085c0-.783-.328-1.533-.91-2.085l-.138.145c.544.516.849 1.213.849 1.94h.2Zm-.91 2.085c.582-.552.91-1.302.91-2.085h-.2c0 .726-.304 1.424-.848 1.94l.138.145Zm-2.193.86c.822 0 1.61-.309 2.193-.86L20.41 6.6a2.99 2.99 0 0 1-2.055.806v.2Zm-2.188-.864c.581.55 1.368.86 2.188.864v-.2a3.003 3.003 0 0 1-2.05-.81l-.138.146Zm-.915-2.08c.004.781.333 1.529.915 2.08l.137-.145a2.685 2.685 0 0 1-.852-1.937l-.2.001Zm3.087 4.035-.012.2.012-.2Zm.017 0h-.016l-.014.2h.03v-.2Zm.924-.097a4.508 4.508 0 0 1-.925.098v.2c.325-.001.65-.036.966-.103L19.28 8.6Zm-.375 1.478.49-1.346-.188-.069-.49 1.347.188.068Zm-.3.397a.768.768 0 0 0 .301-.4l-.19-.062a.568.568 0 0 1-.224.296l.113.166Zm-.492.142a.832.832 0 0 0 .492-.142l-.113-.166a.631.631 0 0 1-.373.108l-.006.2Zm-10.792 0h10.795v-.2H7.321v.2Zm.854 1.882-.76-2.017-.187.07.76 2.017.187-.07Zm.073.059c-.037.002-.064-.021-.07-.046l-.194.044c.028.129.15.21.278.201l-.014-.2Zm9.281 0H8.255v.2h9.274v-.2Zm.622.593c0-.333-.284-.594-.622-.594v.2c.238 0 .422.182.422.394h.2Zm-.622.594c.338 0 .622-.26.622-.594h-.2c0 .213-.184.394-.422.394v.2Zm-9.274 0h9.274v-.2H8.255v.2Zm-.77-.241c.223.156.493.24.77.241v-.2a1.16 1.16 0 0 1-.656-.205l-.115.164Zm-.476-.63c.085.253.251.474.475.63l.115-.164a1.054 1.054 0 0 1-.4-.529l-.19.063Zm-3.8-10.1L7.01 12.877l.187-.07-3.8-10.105-.188.07Zm-.073-.06c.037-.002.064.022.07.046l.195-.044a.264.264 0 0 0-.28-.2l.015.199Zm-1.831 0h1.824v-.2H1.305v.2Zm-.622-.593c0 .333.284.594.622.594v-.2c-.238 0-.422-.182-.422-.394h-.2Zm.622-.594c-.338 0-.622.26-.622.594h.2c0-.213.184-.394.422-.394v-.2Zm1.824 0H1.305v.2h1.824v-.2Zm.771.242a1.358 1.358 0 0 0-.77-.242l-.001.2c.237 0 .467.073.657.206l.114-.165Zm.475.629a1.253 1.253 0 0 0-.475-.63l-.114.165c.19.132.33.317.4.528l.19-.063Zm.694 1.87-.695-1.873-.187.07.695 1.872.187-.07Zm8.94-.066H4.975v.2h9.034v-.2Zm.08.459c0-.117.009-.232.02-.35l-.2-.018c-.01.12-.02.242-.02.368h.2Zm.039.512a3.82 3.82 0 0 1-.038-.513l-.2.001c0 .18.014.361.04.54l.198-.028ZM5.3 5.287h8.728v-.2H5.3v.2ZM7.089 9.66 5.395 5.152l-.188.07L6.902 9.73l.187-.07Zm10.896-.065H6.995v.2h10.99v-.2Zm.236-.833-.33.899.188.068.33-.898-.188-.069Zm.12-.064-.024-.001-.005.2h.014l.014-.2ZM8.207 14.473a1.553 1.553 0 0 1 1.067-.419v-.2c-.45 0-.884.17-1.205.474l.138.145Zm-.44 1.004c0-.375.158-.737.44-1.004l-.138-.145c-.32.304-.502.717-.502 1.15h.2Zm.44 1.004a1.383 1.383 0 0 1-.44-1.004h-.2c0 .432.181.846.502 1.15l.138-.146Zm1.067.419c-.401 0-.785-.151-1.067-.419l-.138.146c.32.303.754.473 1.205.473v-.2Zm1.068-.419a1.554 1.554 0 0 1-1.068.419v.2c.451 0 .885-.17 1.206-.473l-.138-.146Zm.44-1.004c0 .376-.158.737-.44 1.004l.138.146c.32-.304.502-.718.502-1.15h-.2Zm-.439-1.005c.282.267.44.63.439 1.005h.2a1.58 1.58 0 0 0-.501-1.15l-.138.145Zm-1.068-.418c.401 0 .786.15 1.068.418l.138-.145a1.75 1.75 0 0 0-1.207-.473v.2Zm-.634 1.655a.688.688 0 0 0 .633.403v-.2a.488.488 0 0 1-.45-.283l-.183.08Zm.15-.718a.635.635 0 0 0-.15.718l.183-.08a.435.435 0 0 1 .105-.493l-.138-.145Zm.744-.14a.71.71 0 0 0-.744.14l.138.145a.51.51 0 0 1 .533-.1l.073-.186Zm.426.606a.656.656 0 0 0-.426-.607l-.073.186c.184.072.299.24.299.42h.2Zm-.202.466a.639.639 0 0 0 .202-.467l-.2.001c0 .119-.05.234-.14.32l.138.146Zm-.485.19c.18 0 .355-.068.485-.19l-.138-.146a.501.501 0 0 1-.346.135l-.001.2Zm5.818-1.64a1.553 1.553 0 0 1 1.068-.419v-.2c-.451 0-.885.17-1.205.474l.137.145Zm-.44 1.004c0-.375.158-.737.44-1.004l-.137-.145c-.321.304-.502.717-.502 1.15h.2Zm.44 1.004a1.384 1.384 0 0 1-.44-1.004h-.2c0 .432.182.846.503 1.15l.137-.146Zm1.068.419c-.402 0-.786-.151-1.068-.419l-.137.146c.32.303.754.473 1.205.473v-.2Zm1.067-.419a1.553 1.553 0 0 1-1.067.419v.2c.451 0 .885-.17 1.205-.474l-.137-.145Zm.44-1.004c0 .376-.157.737-.44 1.004l.138.146c.32-.304.502-.718.502-1.15h-.2Zm-.438-1.005c.282.267.439.63.438 1.005h.2a1.58 1.58 0 0 0-.5-1.15l-.138.145Zm-1.069-.418c.402 0 .786.15 1.069.418l.137-.145a1.75 1.75 0 0 0-1.206-.473v.2Zm-.634 1.655a.688.688 0 0 0 .634.403v-.2a.488.488 0 0 1-.45-.283l-.184.08Zm.15-.718a.635.635 0 0 0-.15.718l.184-.08a.435.435 0 0 1 .104-.493l-.137-.145Zm.745-.14a.71.71 0 0 0-.745.14l.138.145a.51.51 0 0 1 .534-.1l.073-.186Zm.425.606a.656.656 0 0 0-.425-.607l-.073.186c.183.072.298.24.298.42h.2Zm-.202.466a.639.639 0 0 0 .202-.467l-.2.001c.001.119-.049.234-.14.32l.138.146Zm-.485.19c.181 0 .356-.068.485-.19l-.137-.146a.501.501 0 0 1-.347.135v.2Zm1.948-11.886V3.082h-.2v1.145h.2Zm0-1.15a.207.207 0 0 1 .087-.174l-.118-.162a.407.407 0 0 0-.17.345l.2-.008Zm.102-.189a.274.274 0 0 1 .215-.088l.008-.2a.474.474 0 0 0-.372.155l.15.133Zm.223-.088a.237.237 0 0 1 .193.085l.155-.126a.437.437 0 0 0-.356-.159l.008.2Zm.212.103c.059.042.09.108.087.175l.2.008a.406.406 0 0 0-.17-.345l-.117.162Zm.087.18v1.179h.2v-1.18h-.2Zm.1 1.279h1.245v-.2h-1.245v.2Zm1.242 0a.328.328 0 0 1 .324.303l.2-.008a.528.528 0 0 0-.517-.495l-.007.2Zm.324.295a.328.328 0 0 1-.324.303l.007.2a.528.528 0 0 0 .517-.495l-.2-.008Zm-.32.303H18.85v.2h1.227v-.2Zm-1.328.1v1.18h.2V5.06h-.2Zm0 1.184a.237.237 0 0 1-.09.195l.125.156a.437.437 0 0 0 .165-.36l-.2.01Zm-.078.187a.54.54 0 0 1-.263.073l.004.2a.74.74 0 0 0 .36-.1l-.101-.173Zm-.257.073a.328.328 0 0 1-.325-.303l-.2.008a.528.528 0 0 0 .517.495l.008-.2Zm-.325-.299v-1.18h-.2v1.18h.2Zm-.1-1.28h-1.245v.2h1.245v-.2Zm-1.246 0a.3.3 0 0 1-.22-.09l-.145.138a.5.5 0 0 0 .367.152l-.002-.2Zm-.23-.1a.237.237 0 0 1-.09-.194l-.2-.01a.437.437 0 0 0 .165.36l.125-.155Zm-.09-.2c-.001-.075.032-.148.093-.2l-.13-.152a.46.46 0 0 0-.163.354l.2-.002Zm.102-.21a.274.274 0 0 1 .215-.088l.008-.2a.474.474 0 0 0-.372.155l.15.133Zm.219-.088h1.263v-.2h-1.263v.2Z"/></svg>