<svg width="24" height="22" viewBox="0 0 24 22" fill="none" xmlns="http://www.w3.org/2000/svg">
<path d="M12.6427 13.1222L18.5801 2.83569L21.8165 4.7044C23.9062 5.91061 24.6197 8.57768 23.4135 10.6674L20.0666 16.4604C19.3107 17.7685 17.6459 18.2103 16.3377 17.4626L13.3391 15.7298C12.4303 15.1949 12.1161 14.0311 12.6427 13.1222Z" fill="url(#paint0_linear_775_18434)"/>
<path d="M12.0142 5.9783L4.63275 18.7707L7.8689 20.6394C9.9586 21.8456 12.6257 21.1321 13.8319 19.0424L18.6228 10.7436C19.3787 9.43544 18.9284 7.77065 17.6203 7.01473L14.6134 5.28189C13.7046 4.75526 12.5408 5.06943 12.0142 5.9783Z" fill="#FDBD00"/>
<path d="M18.5801 2.83558L16.2953 1.51034C13.6875 0.00679252 10.3494 0.898823 8.8373 3.50662L4.59009 10.8627C3.83416 12.1706 4.28444 13.8356 5.59261 14.5915L7.87745 15.9165C9.18562 16.6727 10.8504 16.2224 11.6063 14.9142L16.6775 6.13125C17.7308 4.30499 20.0583 3.68493 21.8846 4.7382" fill="#2DA94F"/>
<path d="M9.49978 5.66405L6.97711 4.21148C5.84725 3.56582 4.41175 3.94804 3.76633 5.06936L0.725319 10.3018C-0.769694 12.8757 0.122097 16.1714 2.70452 17.6664L4.62421 18.7706L6.96004 20.1127L7.97086 20.6988C6.1785 19.4926 5.60943 17.0888 6.70514 15.1947L7.48667 13.8441L10.3577 8.88337C11.0119 7.74498 10.6211 6.30948 9.49978 5.66405Z" fill="url(#paint1_linear_775_18434)"/>
<defs>
<linearGradient id="paint0_linear_775_18434" x1="14.1311" y1="8.95256" x2="22.9427" y2="12.1597" gradientUnits="userSpaceOnUse">
<stop stop-color="#D93025"/>
<stop offset="0.2" stop-color="#D93025"/>
<stop offset="0.6" stop-color="#EA4335"/>
<stop offset="1" stop-color="#EA4335"/>
</linearGradient>
<linearGradient id="paint1_linear_775_18434" x1="0.753821" y1="9.99022" x2="10.57" y2="13.563" gradientUnits="userSpaceOnUse">
<stop stop-color="#4285F4"/>
<stop offset="0.2" stop-color="#4285F4"/>
<stop offset="0.8" stop-color="#1B74E8"/>
<stop offset="1" stop-color="#1B74E8"/>
</linearGradient>
</defs>
</svg>
