<svg width="18" height="22" viewBox="0 0 18 22" fill="none" xmlns="http://www.w3.org/2000/svg">
<path d="M13.8012 4.60034H4.20117V9.40034H13.8012V4.60034Z" stroke="#3F5BD9" stroke-width="1.5" stroke-linecap="round" stroke-linejoin="round"/>
<path d="M17 19.8001V2.20015C17 1.75832 16.6418 1.40015 16.2 1.40015L1.8 1.40015C1.35817 1.40015 1 1.75832 1 2.20015L1 19.8001C1 20.242 1.35817 20.6001 1.8 20.6001H16.2C16.6418 20.6001 17 20.242 17 19.8001Z" stroke="#3F5BD9" stroke-width="1.5" stroke-linecap="round" stroke-linejoin="round"/>
<path d="M5.45078 13.0003C5.45078 13.2488 5.24931 13.4503 5.00078 13.4503C4.75225 13.4503 4.55078 13.2488 4.55078 13.0003C4.55078 12.7518 4.75225 12.5503 5.00078 12.5503C5.24931 12.5503 5.45078 12.7518 5.45078 13.0003Z" fill="#3F5BD9" stroke="#3F5BD9" stroke-width="1.5"/>
<path d="M9.44981 13.0003C9.44981 13.2488 9.24833 13.4503 8.99981 13.4503C8.75128 13.4503 8.5498 13.2488 8.5498 13.0003C8.5498 12.7518 8.75128 12.5503 8.99981 12.5503C9.24833 12.5503 9.44981 12.7518 9.44981 13.0003Z" fill="#3F5BD9" stroke="#3F5BD9" stroke-width="1.5"/>
<path d="M13.4503 13.0003C13.4503 13.2488 13.2488 13.4503 13.0003 13.4503C12.7518 13.4503 12.5503 13.2488 12.5503 13.0003C12.5503 12.7518 12.7518 12.5503 13.0003 12.5503C13.2488 12.5503 13.4503 12.7518 13.4503 13.0003Z" fill="#3F5BD9" stroke="#3F5BD9" stroke-width="1.5"/>
<path d="M5.45078 17C5.45078 17.2486 5.24931 17.45 5.00078 17.45C4.75225 17.45 4.55078 17.2486 4.55078 17C4.55078 16.7515 4.75225 16.55 5.00078 16.55C5.24931 16.55 5.45078 16.7515 5.45078 17Z" fill="#3F5BD9" stroke="#3F5BD9" stroke-width="1.5"/>
<path d="M9.44981 17C9.44981 17.2486 9.24833 17.45 8.99981 17.45C8.75128 17.45 8.5498 17.2486 8.5498 17C8.5498 16.7515 8.75128 16.55 8.99981 16.55C9.24833 16.55 9.44981 16.7515 9.44981 17Z" fill="#3F5BD9" stroke="#3F5BD9" stroke-width="1.5"/>
<path d="M13.4503 17C13.4503 17.2486 13.2488 17.45 13.0003 17.45C12.7518 17.45 12.5503 17.2486 12.5503 17C12.5503 16.7515 12.7518 16.55 13.0003 16.55C13.2488 16.55 13.4503 16.7515 13.4503 17Z" fill="#3F5BD9" stroke="#3F5BD9" stroke-width="1.5"/>
</svg>
