<svg xmlns="http://www.w3.org/2000/svg" fill="none" preserveAspectRatio="none" viewBox="0 0 268 62"><mask id="a" width="268" height="62" x="0" y="0" maskUnits="userSpaceOnUse" style="mask-type:alpha"><path fill="#D9D9D9" d="M0 0h268v62H0z"/></mask><g clip-path="url(#b)" mask="url(#a)"><path fill="url(#c)" d="M-.03 4a4 4 0 0 1 4-4h259.999a4 4 0 0 1 4 4v58h-268V4Z"/><ellipse cx="281.5" cy="-43.222" fill="#fff" fill-opacity=".48" rx="99.628" ry="83.856"/><ellipse cx="21.5" cy="116.778" fill="#3F5BD9" fill-opacity=".08" rx="99.628" ry="83.856"/></g><defs><linearGradient id="c" x1="11.136" x2="262.097" y1="45.447" y2="-7.02" gradientUnits="userSpaceOnUse"><stop stop-color="#3F5BD9" stop-opacity=".08"/><stop offset="1" stop-color="#3F5BD9" stop-opacity=".16"/></linearGradient><clipPath id="b"><path fill="#fff" d="M-.03 4a4 4 0 0 1 4-4h259.999a4 4 0 0 1 4 4v58h-268V4Z"/></clipPath></defs></svg>