<svg width="352" height="119" viewBox="0 0 352 119" fill="none" xmlns="http://www.w3.org/2000/svg">
<g filter="url(#filter0_d_576_3481)">
<g clip-path="url(#clip0_576_3481)">
<rect x="4" y="3.5" width="344" height="110" rx="8" fill="#D5C3F0"/>
<mask id="mask0_576_3481" style="mask-type:alpha" maskUnits="userSpaceOnUse" x="4" y="3" width="344" height="123">
<rect x="4.5" y="4" width="343" height="121" rx="3.5" fill="#D9D9D9" stroke="black"/>
</mask>
<g mask="url(#mask0_576_3481)">
<circle opacity="0.15" cx="298.848" cy="64.5" r="105" fill="#F4F6FB"/>
<circle opacity="0.2" cx="334.938" cy="64.5" r="105" fill="#F4F6FB"/>
<path opacity="0.5" d="M317.993 121.919L323.4 103.818L295.546 86.0459L245.309 121.919H317.993Z" fill="#181F29" fill-opacity="0.3"/>
<path fill-rule="evenodd" clip-rule="evenodd" d="M322.832 105.702V105.707L319.085 108.165L290.683 90.2073L290.381 17.1309L293.691 14.9496C294.355 14.3504 295.368 14.1621 296.254 14.6633L321.505 28.9496C322.885 29.7302 323.738 31.1929 323.738 32.7781V103.923C323.738 104.682 323.37 105.313 322.832 105.702Z" fill="#808691"/>
<path d="M289.497 89.4851L289.497 18.8966C289.497 17.212 291.313 16.1528 292.779 16.9823L318.031 31.2687C319.41 32.0493 320.263 33.5119 320.263 35.0972V106.242C320.263 107.943 318.416 109 316.95 108.138L291.667 93.2773C290.323 92.4872 289.497 91.0444 289.497 89.4851Z" fill="#ACB2BD"/>
<path d="M289.71 89.4851L289.71 18.8966C289.71 17.3748 291.35 16.418 292.675 17.1673L317.926 31.4537C319.239 32.1965 320.051 33.5885 320.051 35.0972V106.242C320.051 107.779 318.382 108.734 317.057 107.955L291.775 93.0941C290.496 92.3421 289.71 90.9691 289.71 89.4851Z" stroke="#181F29" stroke-opacity="0.3" stroke-width="0.4251"/>
<path d="M292.519 86.3162L292.519 24.6591C292.519 23.1081 294.2 22.1406 295.541 22.9196L314.211 33.7653C315.448 34.4842 316.211 35.8066 316.213 37.2379L316.31 99.0162C316.313 100.571 314.626 101.54 313.284 100.756L294.513 89.7901C293.278 89.0687 292.519 87.7462 292.519 86.3162Z" fill="#181F29" fill-opacity="0.3" stroke="url(#paint0_linear_576_3481)" stroke-width="0.6"/>
<path opacity="0.3" d="M226.93 35.6899L294.095 22.6902C294.598 22.5927 295.12 22.6807 295.564 22.9378L314.135 33.698C315.446 34.4575 316.254 35.8573 316.255 37.3723L316.312 98.9826C316.312 99.1661 316.288 99.3487 316.242 99.5261L306.068 138.137C306.068 138.137 243.277 122.131 229.067 95.7152C217.982 75.1074 226.93 35.6899 226.93 35.6899Z" fill="url(#paint1_linear_576_3481)"/>
<path fill-rule="evenodd" clip-rule="evenodd" d="M304.623 48.1014C309.788 51.4525 312.814 57.2708 312.59 63.424L312.416 68.2015C312.356 69.8621 311.482 71.2032 310.259 71.9843L301.283 78.688L285.178 58.8715L283.639 57.8628C280.094 55.5398 277.568 52.0518 276.42 48.0958L269.439 39.5063L278.87 34.814C278.939 34.7778 279.009 34.7431 279.079 34.7098L279.18 34.6599L279.182 34.6626C280.825 33.9253 282.82 33.9574 284.55 35.0795L304.623 48.1014Z" fill="#E8EBF1"/>
<path d="M312.59 63.424L312.778 63.4308L312.59 63.424ZM304.623 48.1014L304.725 47.9438L304.623 48.1014ZM312.416 68.2015L312.228 68.1947L312.416 68.2015ZM310.259 71.9843L310.146 71.8334L310.158 71.826L310.259 71.9843ZM301.283 78.688L301.396 78.8385L301.251 78.9464L301.137 78.8065L301.283 78.688ZM285.178 58.8715L285.281 58.7144L285.305 58.7304L285.324 58.7531L285.178 58.8715ZM283.639 57.8628L283.742 57.7057L283.639 57.8628ZM276.42 48.0958L276.566 47.9774L276.59 48.0069L276.6 48.0435L276.42 48.0958ZM269.439 39.5063L269.293 39.6247L269.145 39.4426L269.355 39.3381L269.439 39.5063ZM278.87 34.814L278.957 34.9805L278.954 34.9822L278.87 34.814ZM279.079 34.7098L279.163 34.878L279.16 34.8796L279.079 34.7098ZM279.18 34.6599L279.096 34.4917L279.227 34.4263L279.323 34.5381L279.18 34.6599ZM279.182 34.6626L279.259 34.834L279.13 34.8916L279.039 34.7844L279.182 34.6626ZM284.55 35.0795L284.448 35.2371L284.55 35.0795ZM312.402 63.4172C312.624 57.33 309.631 51.5741 304.521 48.259L304.725 47.9438C309.946 51.3308 313.004 57.2116 312.778 63.4308L312.402 63.4172ZM312.228 68.1947L312.402 63.4172L312.778 63.4308L312.604 68.2084L312.228 68.1947ZM310.158 71.826C311.332 71.0758 312.17 69.7895 312.228 68.1947L312.604 68.2084C312.541 69.9348 311.631 71.3306 310.36 72.1426L310.158 71.826ZM301.171 78.5375L310.146 71.8338L310.371 72.1348L301.396 78.8385L301.171 78.5375ZM285.324 58.7531L301.429 78.5695L301.137 78.8065L285.032 58.99L285.324 58.7531ZM283.742 57.7057L285.281 58.7144L285.075 59.0287L283.536 58.02L283.742 57.7057ZM276.6 48.0435C277.736 51.9571 280.235 55.4076 283.742 57.7057L283.536 58.02C279.953 55.6719 277.399 52.1466 276.24 48.1482L276.6 48.0435ZM269.585 39.3878L276.566 47.9774L276.274 48.2143L269.293 39.6247L269.585 39.3878ZM278.954 34.9822L269.523 39.6744L269.355 39.3381L278.786 34.6458L278.954 34.9822ZM279.16 34.8796C279.091 34.9118 279.024 34.9455 278.957 34.9804L278.783 34.6475C278.854 34.6102 278.926 34.5743 278.999 34.5399L279.16 34.8796ZM279.263 34.8281L279.163 34.8779L278.996 34.5416L279.096 34.4917L279.263 34.8281ZM279.039 34.7844L279.037 34.7817L279.323 34.5381L279.325 34.5407L279.039 34.7844ZM284.448 35.2371C282.775 34.1521 280.848 34.1209 279.259 34.834L279.105 34.4912C280.802 33.7297 282.865 33.7626 284.652 34.9219L284.448 35.2371ZM304.521 48.259L284.448 35.2371L284.652 34.9219L304.725 47.9438L304.521 48.259Z" fill="#425061"/>
<path d="M303.374 69.1063C303.596 63.0192 300.603 57.2633 295.493 53.9482L273.559 39.719C270.831 37.9494 267.215 39.8274 267.093 43.0767L266.9 48.2635C266.673 54.3279 269.638 60.0685 274.714 63.3948L297.509 78.3336C299.882 79.8881 303.042 78.2543 303.145 75.4201L303.374 69.1063Z" fill="#E8EBF1" stroke="#425061" stroke-width="0.375717"/>
<path d="M300.942 67.9552C301.134 62.6285 298.491 57.5984 293.994 54.7357L274.961 42.6177C272.513 41.0587 269.297 42.7469 269.189 45.6477L269.033 49.8639C268.836 55.1713 271.455 60.1885 275.921 63.0614L295.691 75.7763C297.834 77.1546 300.663 75.6763 300.755 73.1298L300.942 67.9552Z" fill="#425061"/>
<path d="M289.74 63.8938L289.61 66.5415L291.959 68.1138L292.087 65.5138L289.74 63.8938Z" fill="#21C7DB"/>
<path d="M289.745 58.4785L289.615 61.1262L291.964 62.6984L292.092 60.0984L289.745 58.4785Z" fill="#21C7DB"/>
<path d="M294.396 61.6676L294.266 64.3153L296.615 65.8876L296.743 63.2876L294.396 61.6676Z" fill="#21C7DB"/>
<path d="M292.176 57.4464L292.046 60.0941L294.395 61.6664L294.523 59.0664L292.176 57.4464Z" fill="#21C7DB"/>
<path d="M272.448 46.9581L272.318 49.6058L274.667 51.1781L274.795 48.5781L272.448 46.9581Z" fill="#21C7DB"/>
<path d="M277.099 50.1462L276.969 52.7939L279.318 54.3662L279.446 51.7662L277.099 50.1462Z" fill="#21C7DB"/>
<path d="M274.88 45.925L274.75 48.5728L277.099 50.145L277.227 47.545L274.88 45.925Z" fill="#21C7DB"/>
<path d="M289.489 69.2349L289.62 66.5643L278.917 59.624L279.045 57.0143L276.862 55.5294L276.729 58.2371L278.917 59.624L278.784 62.3179L289.489 69.2349Z" fill="#21C7DB"/>
<path fill-rule="evenodd" clip-rule="evenodd" d="M331.234 51.3087L308.602 37.5729C307.965 37.1678 306.85 36.7378 306.025 37.1405L306.021 37.1357L303.272 38.6138L305.091 45.8549V48.981C305.083 50.0293 305.523 52.1887 307.134 53.9866L308.136 57.9747L307.819 65.5186L311.794 63.3305L313.838 61.2447L330.222 71.1022C330.614 71.3377 331.042 71.5001 331.488 71.5836C331.625 71.6764 331.837 71.694 332.096 71.6478C332.128 71.6486 332.159 71.649 332.191 71.649L332.218 71.622C333.582 71.2935 336.01 69.4075 335.992 67.3625C335.96 63.8662 335.979 60.6348 335.992 59.4561C336.097 57.7666 335.292 53.7717 331.234 51.3087Z" fill="#21C7DB"/>
<path d="M305.956 39.2627L328.588 52.9985C332.646 55.4616 333.451 59.4564 333.346 61.146C333.333 62.3246 333.314 65.5561 333.346 69.0523C333.378 72.5486 330.816 71.9129 329.532 71.1581L312.351 60.7672L308.05 64.9545V58.2132L306.114 57.0573C303.155 55.1616 302.435 52.0098 302.445 50.6709V40.201C302.949 37.9843 304.995 38.6519 305.956 39.2627Z" fill="#80E0EA" stroke="#F4F6FB" stroke-width="0.491712"/>
<path d="M328.792 64.5105V63.0165C328.792 62.5454 328.546 62.1087 328.143 61.8649L308.029 49.7011C307.58 49.4299 307.007 49.7528 307.007 50.2769V51.8107C307.007 52.2824 307.255 52.7197 307.659 52.9633L327.772 65.0868C328.22 65.3571 328.792 65.0342 328.792 64.5105Z" fill="#00AFC3"/>
<path d="M320.612 53.1715L307.179 45.0776" stroke="#21C7DB" stroke-width="0.80748" stroke-linecap="round"/>
<path d="M325.121 57.8414L314.229 51.1683" stroke="#21C7DB" stroke-width="0.80748" stroke-linecap="round"/>
<path d="M312.625 50.331L307.109 46.9901" stroke="#21C7DB" stroke-width="0.80748" stroke-linecap="round"/>
</g>
</g>
</g>
<defs>
<filter id="filter0_d_576_3481" x="0" y="0.5" width="352" height="118" filterUnits="userSpaceOnUse" color-interpolation-filters="sRGB">
<feFlood flood-opacity="0" result="BackgroundImageFix"/>
<feColorMatrix in="SourceAlpha" type="matrix" values="0 0 0 0 0 0 0 0 0 0 0 0 0 0 0 0 0 0 127 0" result="hardAlpha"/>
<feOffset dy="1"/>
<feGaussianBlur stdDeviation="2"/>
<feComposite in2="hardAlpha" operator="out"/>
<feColorMatrix type="matrix" values="0 0 0 0 0.0941176 0 0 0 0 0.121569 0 0 0 0 0.160784 0 0 0 0.08 0"/>
<feBlend mode="normal" in2="BackgroundImageFix" result="effect1_dropShadow_576_3481"/>
<feBlend mode="normal" in="SourceGraphic" in2="effect1_dropShadow_576_3481" result="shape"/>
</filter>
<linearGradient id="paint0_linear_576_3481" x1="291.323" y1="49.9776" x2="303.105" y2="46.3669" gradientUnits="userSpaceOnUse">
<stop offset="0.00612151" stop-color="#515151"/>
<stop offset="1" stop-opacity="0"/>
</linearGradient>
<linearGradient id="paint1_linear_576_3481" x1="309.396" y1="59.8426" x2="220.367" y2="86.5405" gradientUnits="userSpaceOnUse">
<stop stop-color="#21C7DB"/>
<stop offset="0.615904" stop-color="#1D9196" stop-opacity="0.3"/>
<stop offset="1" stop-color="white" stop-opacity="0"/>
</linearGradient>
<clipPath id="clip0_576_3481">
<rect x="4" y="3.5" width="344" height="110" rx="8" fill="white"/>
</clipPath>
</defs>
</svg>
