<svg width="74" height="64" viewBox="0 0 74 64" fill="none" xmlns="http://www.w3.org/2000/svg">
<path fill-rule="evenodd" clip-rule="evenodd" d="M21.7533 26.5246L62.067 2.0575C63.2011 1.33598 65.186 0.570051 66.6564 1.28705L66.6642 1.27855L66.7289 1.32387C66.9121 1.42049 67.0867 1.54108 67.25 1.68869L71.4212 4.60885L68.32 16.9018V22.3785C68.3341 24.2435 67.5534 28.0832 64.6918 31.2835L62.8968 38.3985V50.9776L57.3503 48.0518L53.3605 43.8625L23.5549 61.7825C22.8578 62.2017 22.0943 62.4907 21.3014 62.6394C21.0568 62.8051 20.6784 62.8366 20.2163 62.7538C20.1599 62.7553 20.1033 62.756 20.0468 62.756L19.9991 62.708C17.5696 62.1228 13.2445 58.7634 13.2776 55.1208C13.3343 48.893 13.3012 43.137 13.2776 41.0375C13.0908 38.0279 14.5243 30.912 21.7533 26.5246Z" fill="#A8B6FA"/>
<path d="M62.067 2.0575L62.3265 2.48503L62.3354 2.47937L62.067 2.0575ZM21.7533 26.5246L21.4939 26.0972L21.7533 26.5246ZM66.6564 1.28705L66.4372 1.73647L66.772 1.89975L67.0243 1.62561L66.6564 1.28705ZM66.6642 1.27855L66.9509 0.868949L66.5925 0.618022L66.2962 0.939991L66.6642 1.27855ZM66.7289 1.32387L66.4422 1.73347L66.4679 1.75146L66.4956 1.7661L66.7289 1.32387ZM67.25 1.68869L66.9148 2.05966L66.9378 2.08048L66.9633 2.09829L67.25 1.68869ZM71.4212 4.60885L71.906 4.73116L71.9904 4.39694L71.708 4.19925L71.4212 4.60885ZM68.32 16.9018L67.8352 16.7795L67.82 16.8397V16.9018H68.32ZM68.32 22.3785H67.82L67.82 22.3823L68.32 22.3785ZM64.6918 31.2835L64.3191 30.9502L64.2371 31.0419L64.207 31.1611L64.6918 31.2835ZM62.8968 38.3985L62.412 38.2761L62.3968 38.3364V38.3985H62.8968ZM62.8968 50.9776L62.6636 51.4198L63.3968 51.8067V50.9776H62.8968ZM57.3503 48.0518L56.9882 48.3966L57.0447 48.4558L57.117 48.494L57.3503 48.0518ZM53.3605 43.8625L53.7226 43.5177L53.4463 43.2275L53.1029 43.434L53.3605 43.8625ZM23.5549 61.7825L23.8126 62.2111H23.8126L23.5549 61.7825ZM21.3014 62.6394L21.2092 62.1479L21.107 62.1671L21.0209 62.2255L21.3014 62.6394ZM20.2163 62.7538L20.3045 62.2617L20.2546 62.2527L20.2039 62.254L20.2163 62.7538ZM20.0468 62.756L19.6923 63.1086L19.8389 63.256H20.0468V62.756ZM19.9991 62.708L20.3536 62.3554L20.2538 62.2551L20.1162 62.2219L19.9991 62.708ZM13.2776 55.1208L12.7777 55.1163L13.2776 55.1208ZM13.2776 41.0375L13.7776 41.0318L13.7775 41.0191L13.7767 41.0065L13.2776 41.0375ZM61.8076 1.63006L21.4939 26.0972L22.0127 26.952L62.3264 2.48494L61.8076 1.63006ZM66.8755 0.83764C65.9974 0.409459 65.0036 0.439885 64.1218 0.645949C63.2351 0.853184 62.4035 1.25082 61.7986 1.63563L62.3354 2.47937C62.8646 2.14267 63.5926 1.79657 64.3494 1.61971C65.1112 1.44168 65.8449 1.44764 66.4372 1.73647L66.8755 0.83764ZM66.2962 0.939991L66.2884 0.948493L67.0243 1.62561L67.0321 1.61711L66.2962 0.939991ZM67.0157 0.914268L66.9509 0.868949L66.3774 1.68815L66.4422 1.73347L67.0157 0.914268ZM67.5853 1.31772C67.3906 1.14177 67.1816 0.997373 66.9622 0.881636L66.4956 1.7661C66.6425 1.84361 66.7828 1.94039 66.9148 2.05966L67.5853 1.31772ZM71.708 4.19925L67.5368 1.27909L66.9633 2.09829L71.1345 5.01846L71.708 4.19925ZM68.8048 17.0241L71.906 4.73116L70.9364 4.48655L67.8352 16.7795L68.8048 17.0241ZM68.82 22.3785V16.9018H67.82V22.3785H68.82ZM65.0645 31.6167C68.0218 28.3095 68.8348 24.3433 68.82 22.3747L67.82 22.3823C67.8333 24.1437 67.085 27.8569 64.3191 30.9502L65.0645 31.6167ZM63.3817 38.5208L65.1766 31.4058L64.207 31.1611L62.412 38.2761L63.3817 38.5208ZM63.3968 50.9776V38.3985H62.3968V50.9776H63.3968ZM57.117 48.494L62.6636 51.4198L63.1301 50.5354L57.5836 47.6095L57.117 48.494ZM52.9984 44.2073L56.9882 48.3966L57.7124 47.7069L53.7226 43.5177L52.9984 44.2073ZM23.8126 62.2111L53.6182 44.291L53.1029 43.434L23.2973 61.354L23.8126 62.2111ZM21.3935 63.1308C22.2446 62.9712 23.0643 62.661 23.8126 62.2111L23.2973 61.354C22.6514 61.7424 21.9439 62.0102 21.2092 62.1479L21.3935 63.1308ZM20.1282 63.246C20.6305 63.336 21.1729 63.3305 21.5819 63.0533L21.0209 62.2255C20.9407 62.2798 20.7263 62.3372 20.3045 62.2617L20.1282 63.246ZM20.0468 63.256C20.1075 63.256 20.1682 63.2552 20.2288 63.2537L20.2039 62.254C20.1516 62.2553 20.0992 62.256 20.0468 62.256V63.256ZM19.6446 63.0607L19.6923 63.1086L20.4013 62.4033L20.3536 62.3554L19.6446 63.0607ZM12.7777 55.1163C12.7593 57.1322 13.9391 59.0051 15.363 60.4161C16.7888 61.829 18.5547 62.8744 19.882 63.1941L20.1162 62.2219C19.014 61.9564 17.4027 61.0295 16.0668 59.7058C14.7291 58.3801 13.7628 56.7521 13.7776 55.1254L12.7777 55.1163ZM12.7777 41.0431C12.8012 43.1396 12.8342 48.8922 12.7777 55.1163L13.7776 55.1254C13.8343 48.8938 13.8012 43.1344 13.7776 41.0318L12.7777 41.0431ZM21.4939 26.0972C14.0729 30.6011 12.5828 37.9156 12.7786 41.0684L13.7767 41.0065C13.5987 38.1402 14.9757 31.2229 22.0127 26.952L21.4939 26.0972Z" fill="#3F5BD9"/>
<path d="M66.7467 5.13123L26.433 29.5983C19.204 33.9857 17.7705 41.1017 17.9573 44.1112C17.9809 46.2107 18.014 51.9667 17.9573 58.1946C17.9007 64.4224 22.4631 63.2901 24.7513 61.9454L55.3552 43.4365L63.0163 50.8952V38.887L66.465 36.8281C71.736 33.4513 73.0177 27.8372 72.9997 25.4522V6.80248C72.1023 2.854 68.4571 4.04311 66.7467 5.13123Z" fill="#D1D8F6" stroke="#3F5BD9"/>
<path d="M26.1025 50.3888V47.1519C26.1025 46.4519 26.4686 45.8028 27.0676 45.4405L63.3892 23.4753C64.0556 23.0723 64.9066 23.5521 64.9066 24.331V27.6396C64.9066 28.3407 64.5395 28.9906 63.9391 29.3525L27.6188 51.2452C26.9523 51.647 26.1025 51.167 26.1025 50.3888Z" fill="#A8B6FA" stroke="#3F5BD9"/>
<path d="M40.6733 29.8431L64.6 15.4258" stroke="#3F5BD9" stroke-width="1.2" stroke-linecap="round"/>
<path d="M32.6409 38.1586L52.0429 26.272" stroke="#3F5BD9" stroke-width="1.2" stroke-linecap="round"/>
<path d="M54.8989 24.7815L64.7246 18.8306" stroke="#3F5BD9" stroke-width="1.2" stroke-linecap="round"/>
<path fill-rule="evenodd" clip-rule="evenodd" d="M10.7755 42.9829C13.6235 41.4418 15.5143 39.4746 16.1818 38.5469C17.9419 36.432 21.6178 30.9905 22.24 26.144C22.559 23.6595 22.4013 21.6401 22.0666 20.094L23.2181 17.7598L19.7058 15.6263C16.9093 13.3978 12.7083 15.2886 10.9832 16.6474C7.38105 19.4308 5.00688 22.2143 2.63273 27.0036C0.258566 31.7928 0.465419 38.3113 1.15911 40.1433C1.45507 40.925 2.18032 42.3636 3.45032 43.3473L3.44084 43.3648L3.57871 43.4438C3.87688 43.6611 4.20362 43.8528 4.56031 44.0056L9.01347 46.5547L10.7755 42.9829Z" fill="#F9BA4D"/>
<path d="M10.7755 42.9829L10.5375 42.5431L10.3975 42.6189L10.327 42.7617L10.7755 42.9829ZM16.1818 38.5469L15.7975 38.2271L15.7862 38.2406L15.7759 38.2549L16.1818 38.5469ZM22.24 26.144L21.7441 26.0803L22.24 26.144ZM22.0666 20.094L21.6182 19.8728L21.541 20.0292L21.5779 20.1998L22.0666 20.094ZM23.2181 17.7598L23.6665 17.981L23.8691 17.5702L23.4776 17.3324L23.2181 17.7598ZM19.7058 15.6263L19.3942 16.0174L19.419 16.0372L19.4462 16.0537L19.7058 15.6263ZM10.9832 16.6474L11.289 17.043L11.2926 17.0401L10.9832 16.6474ZM2.63273 27.0036L3.0807 27.2257L2.63273 27.0036ZM1.15911 40.1433L1.62671 39.9663L1.15911 40.1433ZM3.45032 43.3473L3.89034 43.5847L4.0917 43.2116L3.75649 42.952L3.45032 43.3473ZM3.44084 43.3648L3.00082 43.1274L2.76924 43.5565L3.19245 43.7988L3.44084 43.3648ZM3.57871 43.4438L3.87323 43.0397L3.85099 43.0235L3.82711 43.0098L3.57871 43.4438ZM4.56031 44.0056L4.8087 43.5717L4.78371 43.5574L4.75725 43.5461L4.56031 44.0056ZM9.01347 46.5547L8.76508 46.9886L9.22661 47.2528L9.46188 46.7759L9.01347 46.5547ZM11.0134 43.4226C13.9271 41.846 15.8755 39.8287 16.5877 38.8389L15.7759 38.2549C15.153 39.1206 13.3199 41.0375 10.5375 42.5431L11.0134 43.4226ZM16.5661 38.8668C17.4664 37.7851 18.8438 35.8691 20.0766 33.6093C21.3065 31.3545 22.4135 28.7194 22.7359 26.2077L21.7441 26.0803C21.4443 28.4151 20.4023 30.924 19.1987 33.1304C17.9979 35.3316 16.6574 37.1939 15.7975 38.2271L16.5661 38.8668ZM22.7359 26.2077C23.062 23.6679 22.9023 21.5911 22.5553 19.9882L21.5779 20.1998C21.9003 21.689 22.0559 23.6512 21.7441 26.0803L22.7359 26.2077ZM22.515 20.3152L23.6665 17.981L22.7697 17.5386L21.6182 19.8728L22.515 20.3152ZM23.4776 17.3324L19.9654 15.199L19.4462 16.0537L22.9585 18.1871L23.4776 17.3324ZM20.0174 15.2353C18.4557 13.9907 16.5292 13.9216 14.8328 14.3038C13.1371 14.6859 11.5886 15.534 10.6738 16.2546L11.2926 17.0401C12.1029 16.4019 13.5174 15.6253 15.0526 15.2794C16.5872 14.9336 18.1594 15.0334 19.3942 16.0174L20.0174 15.2353ZM10.6775 16.2517C7.01428 19.0824 4.59194 21.9256 2.18475 26.7815L3.0807 27.2257C5.42182 22.5031 7.74782 19.7793 11.2889 17.043L10.6775 16.2517ZM2.18475 26.7815C0.958607 29.2549 0.407444 32.1528 0.246508 34.6503C0.165844 35.902 0.182556 37.0632 0.264625 38.033C0.345816 38.9925 0.493588 39.7977 0.691505 40.3204L1.62671 39.9663C1.47778 39.573 1.33957 38.8764 1.26106 37.9487C1.18344 37.0314 1.16676 35.92 1.24444 34.7146C1.40019 32.2975 1.93268 29.5415 3.0807 27.2257L2.18475 26.7815ZM0.691505 40.3204C1.00365 41.1448 1.77161 42.6795 3.14416 43.7426L3.75649 42.952C2.58903 42.0478 1.9065 40.7052 1.62671 39.9663L0.691505 40.3204ZM3.01031 43.1098L3.00082 43.1274L3.88086 43.6023L3.89034 43.5847L3.01031 43.1098ZM3.19245 43.7988L3.33032 43.8777L3.82711 43.0098L3.68923 42.9309L3.19245 43.7988ZM3.2842 43.8478C3.6098 44.0851 3.96902 44.2962 4.36337 44.4652L4.75725 43.5461C4.43821 43.4093 4.14395 43.237 3.87323 43.0397L3.2842 43.8478ZM4.31192 44.4396L8.76508 46.9886L9.26186 46.1207L4.8087 43.5717L4.31192 44.4396ZM9.46188 46.7759L11.2239 43.2041L10.327 42.7617L8.56506 46.3335L9.46188 46.7759Z" fill="white"/>
<path d="M24.8444 19.405C22.2247 15.2298 16.9306 17.5084 14.9384 19.0775C11.3363 21.861 8.67878 24.5142 6.58794 29.4338C4.48131 34.3905 4.07731 39.0637 5.26879 42.6165C5.79619 44.1891 7.97968 48.2633 12.8508 46.2985C16.7477 44.7266 19.3798 41.887 20.137 40.9771C22.3993 38.2588 25.2528 33.4692 25.875 28.6227C26.4972 23.7761 25.626 20.6506 24.8444 19.405Z" fill="#FFD810" stroke="white"/>
<path d="M22.6209 22.6611C20.7432 19.5716 16.9487 21.2577 15.5209 22.4188C12.9391 24.4785 11.0344 26.4418 9.53582 30.0821C8.02593 33.7498 7.73637 37.2078 8.59034 39.8368C8.96835 41.0005 10.5333 44.0152 14.0246 42.5613C16.8177 41.3982 18.7042 39.2969 19.2469 38.6237C20.8684 36.6123 22.9136 33.0681 23.3596 29.4819C23.8055 25.8956 23.181 23.5829 22.6209 22.6611Z" fill="#F9BA4D"/>
<path d="M19.9408 34.0619L13.4078 39.6782C13.1561 39.8946 12.7577 39.7286 12.7298 39.3979C12.6873 38.8938 12.636 38.3059 12.6116 37.8535C12.5613 36.9243 12.7551 36.0609 13.4521 35.4438C14.0098 34.9502 15.1986 33.3994 15.4509 32.9407C15.5619 32.6661 15.5443 32.0963 15.5443 32.0963C15.5443 32.0963 14.4433 32.0963 14.1911 31.1101C12.7915 31.3529 12.7065 29.5214 13.5678 29.2082L13.5678 28.5545C13.6538 27.7122 13.7358 26.3475 15.4509 25.6743C16.9671 25.0791 18.1275 25.8283 18.1738 26.6849C19.5023 26.5515 19.3159 28.7074 18.5314 28.5545C18.4183 29.9927 17.863 30.6433 17.5764 30.979L17.5748 30.981C17.5042 31.0637 17.4683 31.1689 17.4683 31.2776L17.4683 31.6331C17.4742 31.7423 18.5484 31.5447 19.3923 31.3529C19.9723 31.2211 20.2889 31.6331 20.2889 32.0963L20.2889 33.3036C20.2889 33.595 20.1618 33.8719 19.9408 34.0619Z" fill="white" stroke="white" stroke-width="0.4"/>
<path d="M13.2913 15.3223L17.2132 17.7201" stroke="white"/>
<path d="M2.71563 27.166L6.50117 29.4687M0.795079 35.0089L4.67152 37.3866M0.735352 37.3866L4.67152 39.7795" stroke="white"/>
</svg>
