<svg width="78" height="68" viewBox="0 0 78 68" fill="none" xmlns="http://www.w3.org/2000/svg">
<path fill-rule="evenodd" clip-rule="evenodd" d="M23.168 28.2364L65.6038 2.48133C66.7977 1.72182 68.8871 0.915565 70.4348 1.67035L70.4431 1.66139L70.5114 1.70918C70.704 1.81084 70.8877 1.9377 71.0596 2.09297L75.4506 5.167L72.186 18.1073V23.872C72.2008 25.8352 71.3791 29.8769 68.3669 33.2456L66.4774 40.7353V53.9766L60.6389 50.8968L56.4391 46.487L25.0646 65.3503C24.3307 65.7915 23.527 66.0958 22.6923 66.2523C22.4349 66.4267 22.0366 66.4598 21.5502 66.3727C21.4908 66.3742 21.4313 66.375 21.3717 66.375L21.3216 66.3245C18.7642 65.7085 14.2114 62.1723 14.2462 58.3379C14.3058 51.7823 14.2711 45.7233 14.2462 43.5132C14.0495 40.3452 15.5585 32.8548 23.168 28.2364Z" fill="#A8B6FA"/>
<path d="M65.6038 2.48133L65.8633 2.90886L65.8722 2.9032L65.6038 2.48133ZM23.168 28.2364L22.9086 27.809L23.168 28.2364ZM70.4348 1.67035L70.2157 2.11976L70.5505 2.28305L70.8028 2.00891L70.4348 1.67035ZM70.4431 1.66139L70.7298 1.25178L70.3714 1.00086L70.0752 1.32283L70.4431 1.66139ZM70.5114 1.70918L70.2246 2.11878L70.2503 2.13676L70.278 2.15139L70.5114 1.70918ZM71.0596 2.09297L70.7244 2.46396L70.7474 2.48477L70.7728 2.50257L71.0596 2.09297ZM75.4506 5.167L75.9354 5.28931L76.0197 4.95508L75.7373 4.7574L75.4506 5.167ZM72.186 18.1073L71.7012 17.985L71.686 18.0452V18.1073H72.186ZM72.186 23.872H71.686L71.686 23.8758L72.186 23.872ZM68.3669 33.2456L67.9942 32.9124L67.9122 33.0041L67.8821 33.1233L68.3669 33.2456ZM66.4774 40.7353L65.9926 40.613L65.9774 40.6732V40.7353H66.4774ZM66.4774 53.9766L66.2442 54.4189L66.9774 54.8057V53.9766H66.4774ZM60.6389 50.8968L60.2769 51.2416L60.3333 51.3008L60.4057 51.339L60.6389 50.8968ZM56.4391 46.487L56.8012 46.1421L56.5249 45.852L56.1815 46.0584L56.4391 46.487ZM25.0646 65.3503L24.8069 64.9218L25.0646 65.3503ZM22.6923 66.2523L22.6002 65.7608L22.4979 65.78L22.4118 65.8383L22.6923 66.2523ZM21.5502 66.3727L21.6384 65.8806L21.5885 65.8716L21.5378 65.8729L21.5502 66.3727ZM21.3717 66.375L21.0172 66.7276L21.1638 66.875H21.3717V66.375ZM21.3216 66.3245L21.676 65.9719L21.5762 65.8716L21.4386 65.8384L21.3216 66.3245ZM14.2462 58.3379L14.7462 58.3425L14.2462 58.3379ZM14.2462 43.5132L14.7462 43.5076L14.7461 43.4949L14.7453 43.4822L14.2462 43.5132ZM65.3444 2.0539L22.9086 27.809L23.4275 28.6638L65.8633 2.90877L65.3444 2.0539ZM70.654 1.22094C69.7372 0.773866 68.6979 0.804926 67.7729 1.0211C66.8428 1.23844 65.9702 1.65565 65.3355 2.05946L65.8722 2.9032C66.4313 2.5475 67.2004 2.18183 68.0004 1.99486C68.8055 1.80673 69.5847 1.81205 70.2157 2.11976L70.654 1.22094ZM70.0752 1.32283L70.0669 1.33179L70.8028 2.00891L70.811 1.99995L70.0752 1.32283ZM70.7981 1.29957L70.7298 1.25178L70.1563 2.07099L70.2246 2.11878L70.7981 1.29957ZM71.3948 1.72198C71.1916 1.53839 70.9736 1.38773 70.7447 1.26696L70.278 2.15139C70.4345 2.23395 70.5839 2.33701 70.7244 2.46396L71.3948 1.72198ZM75.7373 4.7574L71.3463 1.68337L70.7728 2.50257L75.1638 5.5766L75.7373 4.7574ZM72.6708 18.2296L75.9354 5.28931L74.9657 5.04469L71.7012 17.985L72.6708 18.2296ZM72.686 23.872V18.1073H71.686V23.872H72.686ZM68.7397 33.5789C71.8475 30.1032 72.7016 25.935 72.686 23.8682L71.686 23.8758C71.7001 25.7354 70.9107 29.6507 67.9942 32.9124L68.7397 33.5789ZM66.9623 40.8576L68.8517 33.368L67.8821 33.1233L65.9926 40.613L66.9623 40.8576ZM66.9774 53.9766V40.7353H65.9774V53.9766H66.9774ZM60.4057 51.339L66.2442 54.4189L66.7107 53.5344L60.8722 50.4545L60.4057 51.339ZM56.0771 46.8318L60.2769 51.2416L61.001 50.5519L56.8012 46.1421L56.0771 46.8318ZM25.3222 65.7788L56.6968 46.9155L56.1815 46.0584L24.8069 64.9218L25.3222 65.7788ZM22.7844 66.7437C23.6773 66.5763 24.5372 66.2508 25.3222 65.7788L24.8069 64.9218C24.1243 65.3322 23.3766 65.6153 22.6002 65.7608L22.7844 66.7437ZM21.4621 66.8649C21.9887 66.9592 22.5509 66.952 22.9728 66.6662L22.4118 65.8383C22.3188 65.9014 22.0844 65.9605 21.6384 65.8806L21.4621 66.8649ZM21.3717 66.875C21.4355 66.875 21.4991 66.8742 21.5627 66.8726L21.5378 65.8729C21.4824 65.8743 21.4271 65.875 21.3717 65.875V66.875ZM20.9671 66.6771L21.0172 66.7276L21.7262 66.0224L21.676 65.9719L20.9671 66.6771ZM13.7463 58.3334C13.7271 60.4452 14.9633 62.4103 16.4599 63.8933C17.9584 65.3782 19.8133 66.4755 21.2045 66.8106L21.4386 65.8384C20.2725 65.5575 18.5723 64.5787 17.1638 63.1829C15.7533 61.7852 14.7306 60.065 14.7462 58.3425L13.7463 58.3334ZM13.7463 43.5188C13.7711 45.7259 13.8058 51.7815 13.7463 58.3334L14.7462 58.3425C14.8058 51.783 14.7711 45.7206 14.7462 43.5076L13.7463 43.5188ZM22.9086 27.809C15.1071 32.5438 13.5416 40.233 13.7472 43.5442L14.7453 43.4822C14.5575 40.4575 16.0099 33.1657 23.4275 28.6638L22.9086 27.809Z" fill="#3F5BD9"/>
<path d="M70.5299 5.71702L28.0941 31.4721C20.4845 36.0904 18.9756 43.5809 19.1723 46.7489C19.1971 48.9589 19.2319 55.018 19.1723 61.5736C19.1127 68.1293 23.9152 66.9373 26.3239 65.5219L58.5388 46.0386L66.6031 53.89V41.2497L70.2334 39.0824C75.7819 35.5279 77.131 29.6182 77.112 27.1077V7.47624C76.1674 3.31991 72.3303 4.57162 70.5299 5.71702Z" fill="#D1D8F6" stroke="#3F5BD9"/>
<path d="M27.7461 53.45V49.8902C27.7461 49.1901 28.1121 48.541 28.7111 48.1788L67.0754 24.9783C67.7418 24.5752 68.5928 25.0551 68.5928 25.834V29.4696C68.5928 30.1707 68.2257 30.8205 67.6253 31.1825L29.2623 54.3064C28.5958 54.7081 27.7461 54.2282 27.7461 53.45Z" fill="#A8B6FA" stroke="#3F5BD9"/>
<path d="M43.084 31.7294L68.2701 16.5532" stroke="#3F5BD9" stroke-width="1.2" stroke-linecap="round"/>
<path d="M34.6287 40.4828L55.052 27.9705" stroke="#3F5BD9" stroke-width="1.2" stroke-linecap="round"/>
<path d="M58.0583 26.4016L68.4012 20.1374" stroke="#3F5BD9" stroke-width="1.2" stroke-linecap="round"/>
<path fill-rule="evenodd" clip-rule="evenodd" d="M11.6124 45.5609C14.6103 43.9387 16.6006 41.868 17.3032 40.8915C19.156 38.6652 23.0254 32.9373 23.6803 27.8357C24.0161 25.2205 23.8501 23.0947 23.4978 21.4672L24.71 19.0101L21.0126 16.7642C18.0689 14.4186 13.6468 16.4089 11.831 17.8391C8.03921 20.7691 5.54007 23.6992 3.04094 28.7405C0.541805 33.7819 0.759547 40.6434 1.48975 42.5719C1.8013 43.3948 2.56474 44.9091 3.90162 45.9446L3.89165 45.963L4.03655 46.046C4.35051 46.2748 4.69457 46.4767 5.07019 46.6376L9.75763 49.3208L11.6124 45.5609Z" fill="#F9BA4D"/>
<path d="M11.6124 45.5609L11.3744 45.1211L11.2344 45.1969L11.164 45.3397L11.6124 45.5609ZM17.3032 40.8915L16.9189 40.5716L16.9077 40.5852L16.8974 40.5995L17.3032 40.8915ZM23.6803 27.8357L24.1763 27.8993L23.6803 27.8357ZM23.4978 21.4672L23.0494 21.246L22.9722 21.4025L23.0092 21.573L23.4978 21.4672ZM24.71 19.0101L25.1584 19.2313L25.361 18.8205L24.9695 18.5828L24.71 19.0101ZM21.0126 16.7642L20.701 17.1553L20.7258 17.1751L20.753 17.1916L21.0126 16.7642ZM11.831 17.8391L12.1367 18.2348L12.1404 18.2319L11.831 17.8391ZM3.04094 28.7405L3.48892 28.9626L3.04094 28.7405ZM1.48975 42.5719L1.95736 42.3949L1.48975 42.5719ZM3.90162 45.9446L4.34164 46.182L4.543 45.8089L4.20778 45.5492L3.90162 45.9446ZM3.89165 45.963L3.45164 45.7256L3.22005 46.1547L3.64326 46.397L3.89165 45.963ZM4.03655 46.046L4.33107 45.6419L4.30883 45.6257L4.28494 45.612L4.03655 46.046ZM5.07019 46.6376L5.31858 46.2037L5.29358 46.1894L5.26711 46.178L5.07019 46.6376ZM9.75763 49.3208L9.50924 49.7547L9.97077 50.0189L10.206 49.542L9.75763 49.3208ZM11.8503 46.0006C14.9139 44.3429 16.9618 42.2221 17.7091 41.1835L16.8974 40.5995C16.2394 41.514 14.3067 43.5344 11.3744 45.1211L11.8503 46.0006ZM17.6875 41.2113C18.6341 40.074 20.0831 38.0586 21.3799 35.6813C22.6739 33.3091 23.8374 30.5387 24.1763 27.8993L23.1844 27.772C22.8683 30.2343 21.7697 32.8786 20.502 35.2024C19.2372 37.5211 17.8251 39.4828 16.9189 40.5716L17.6875 41.2113ZM24.1763 27.8993C24.5191 25.2288 24.3511 23.0458 23.9865 21.3615L23.0092 21.573C23.3492 23.1437 23.513 25.2121 23.1844 27.772L24.1763 27.8993ZM23.9462 21.6884L25.1584 19.2313L24.2615 18.7889L23.0494 21.246L23.9462 21.6884ZM24.9695 18.5828L21.2721 16.3369L20.753 17.1916L24.4504 19.4374L24.9695 18.5828ZM21.3242 16.3732C19.6888 15.0701 17.6703 14.9966 15.8889 15.3979C14.1083 15.7992 12.4818 16.6901 11.5216 17.4463L12.1404 18.2319C12.9961 17.5579 14.4885 16.7385 16.1088 16.3735C17.7283 16.0086 19.3926 16.1127 20.701 17.1553L21.3242 16.3732ZM11.5253 17.4435C7.67244 20.4207 5.12513 23.4104 2.59296 28.5184L3.48892 28.9626C5.95502 23.9879 8.40598 21.1176 12.1367 18.2348L11.5253 17.4435ZM2.59296 28.5184C1.30433 31.1179 0.724649 34.1646 0.555378 36.7914C0.470546 38.1078 0.488137 39.3288 0.57441 40.3483C0.659804 41.3574 0.815102 42.2022 1.02215 42.749L1.95736 42.3949C1.7993 41.9775 1.65355 41.2413 1.57085 40.264C1.48902 39.297 1.47146 38.1259 1.55331 36.8557C1.7174 34.3093 2.27841 31.4045 3.48892 28.9626L2.59296 28.5184ZM1.02215 42.749C1.34988 43.6145 2.15603 45.225 3.59546 46.3399L4.20778 45.5492C2.97345 44.5933 2.25272 43.175 1.95736 42.3949L1.02215 42.749ZM3.4616 45.7071L3.45164 45.7256L4.33167 46.2005L4.34164 46.182L3.4616 45.7071ZM3.64326 46.397L3.78815 46.4799L4.28494 45.612L4.14005 45.5291L3.64326 46.397ZM3.74202 46.45C4.08343 46.6989 4.45998 46.9201 4.87327 47.0972L5.26711 46.178C4.92916 46.0332 4.61759 45.8508 4.33107 45.6419L3.74202 46.45ZM4.8218 47.0716L9.50924 49.7547L10.006 48.8868L5.31858 46.2037L4.8218 47.0716ZM10.206 49.542L12.0608 45.7821L11.164 45.3397L9.30922 49.0996L10.206 49.542Z" fill="white"/>
<path d="M26.4219 20.7422C23.6643 16.3471 18.0915 18.7457 15.9945 20.3975C12.2027 23.3275 9.40533 26.1203 7.20443 31.2988C4.98691 36.5165 4.56164 41.4356 5.81584 45.1755C6.371 46.8309 8.66943 51.1196 13.797 49.0513C17.899 47.3967 20.6696 44.4076 21.4667 43.4498C23.8481 40.5884 26.8519 35.5467 27.5068 30.445C28.1617 25.3433 27.2446 22.0534 26.4219 20.7422Z" fill="#FFD810" stroke="white"/>
<path d="M24.0812 24.1695C22.1047 20.9173 18.1105 22.6922 16.6075 23.9144C13.8898 26.0825 11.8848 28.1491 10.3073 31.981C8.71797 35.8419 8.41316 39.4819 9.31209 42.2492C9.70999 43.4742 11.3574 46.6476 15.0324 45.1172C17.9725 43.8929 19.9583 41.681 20.5296 40.9723C22.2365 38.855 24.3893 35.1243 24.8588 31.3492C25.3282 27.5742 24.6708 25.1397 24.0812 24.1695Z" fill="#F9BA4D"/>
<path d="M21.2785 36.1547L14.3508 42.1104C14.0991 42.3268 13.701 42.1606 13.6732 41.8298C13.6278 41.29 13.5716 40.6507 13.5451 40.1617C13.4922 39.1836 13.6962 38.2747 14.4299 37.6252C15.0169 37.1056 16.2683 35.4731 16.5339 34.9903C16.6508 34.7012 16.6322 34.1015 16.6322 34.1015C16.6322 34.1015 15.4733 34.1015 15.2078 33.0633C13.7345 33.3189 13.645 31.391 14.5517 31.0614L14.5517 30.3732C14.6422 29.4866 14.7285 28.05 16.5339 27.3414C18.13 26.7149 19.3513 27.5035 19.4001 28.4051C20.7985 28.2648 20.6024 30.5341 19.7765 30.3732C19.6575 31.8871 19.073 32.572 18.7713 32.9254L18.7639 32.9341C18.6933 33.0168 18.6575 33.1221 18.6575 33.2308L18.6575 33.6139C18.6637 33.7288 19.7945 33.5208 20.6828 33.3189C21.2933 33.1802 21.6266 33.6139 21.6266 34.1015L21.6266 35.3964C21.6266 35.6878 21.4995 35.9648 21.2785 36.1547Z" fill="white" stroke="white" stroke-width="0.4"/>
<path d="M14.2605 16.4444L18.3889 18.9685" stroke="white"/>
<path d="M3.12822 28.9119L7.11303 31.3358M1.10657 37.1676L5.18707 39.6705M1.0437 39.6705L5.18707 42.1893" stroke="white"/>
</svg>
