<svg width="82" height="60" viewBox="0 0 82 60" fill="none" xmlns="http://www.w3.org/2000/svg">
<g filter="url(#filter0_d_2021_8718)">
<path d="M31.7123 19.9862L11.7344 16.3197C11.1938 16.2205 10.8219 15.6958 11.0138 15.1807C11.8905 12.8277 14.1306 12.5516 15.5151 12.4082C15.5564 12.4039 15.5896 12.3755 15.6012 12.3356C16.0862 10.6545 18.2519 8.08825 21.485 8.07026C25.5253 8.04777 27.7171 11.2064 28.2092 12.8737C28.2196 12.9089 28.2484 12.935 28.2842 12.9435C31.9103 13.8039 33.0307 17.3269 32.6972 19.3786C32.6234 19.8321 32.1642 20.0691 31.7123 19.9862Z" fill="white"/>
</g>
<g filter="url(#filter1_d_2021_8718)">
<path d="M76.3929 16.0227L55.1779 11.3696C54.6139 11.2459 54.2658 10.6634 54.5501 10.1608C55.9547 7.67635 59.5062 6.53523 60.9374 6.50344C60.9789 6.50251 61.0138 6.47782 61.0295 6.43938C61.6912 4.82401 64.2163 2.71107 67.4333 3.03278C71.4544 3.43492 73.1336 7.81526 73.4435 9.54693C73.45 9.58311 73.476 9.6115 73.5107 9.62361C77.0369 10.8549 77.9087 13.6968 77.3847 15.5114C77.2645 15.9275 76.8159 16.1155 76.3929 16.0227Z" fill="white"/>
</g>
<g filter="url(#filter2_d_2021_8718)">
<path d="M68.1879 25.1305L62.9142 49.1438L27.0544 40.7717C27.2189 40.0898 31.5698 19.1349 31.7902 18.1061C32.0089 17.085 32.8878 16.7947 33.757 16.8929C44.2976 18.651 65.2923 23.1184 66.6505 23.3337C68.0087 23.5489 68.2414 24.6212 68.1879 25.1305Z" fill="#4B69ED"/>
<path d="M68.1879 25.1305L62.9142 49.1438L27.0544 40.7717C27.2189 40.0898 31.5698 19.1349 31.7902 18.1061C32.0089 17.085 32.8878 16.7947 33.757 16.8929C44.2976 18.651 65.2923 23.1184 66.6505 23.3337C68.0087 23.5489 68.2414 24.6212 68.1879 25.1305Z" stroke="white" stroke-width="0.6"/>
</g>
<path d="M38.3376 35.3598L41.833 5.70434C41.9867 4.40006 43.3011 3.57207 44.5458 3.99547L62.7763 10.1969C63.7036 10.5123 64.2856 11.434 64.1711 12.4058L60.619 42.5419C60.4629 43.8669 59.112 44.6948 57.8584 44.2339L39.6846 37.5518C38.783 37.2203 38.2253 36.3127 38.3376 35.3598Z" fill="white" stroke="#9EB1FD" stroke-width="0.413731"/>
<path d="M37.7708 36.283L40.3732 6.53252C40.4876 5.22414 41.7766 4.35615 43.0335 4.74111L61.441 10.3791C62.3774 10.6659 62.9869 11.5692 62.9016 12.544L60.257 42.7767C60.1407 44.1058 58.8153 44.9749 57.5484 44.5527L39.183 38.4325C38.2719 38.1289 37.6871 37.2389 37.7708 36.283Z" fill="white" stroke="#9EB1FD" stroke-width="0.413731"/>
<path d="M37.0883 37.1835L38.9386 7.37445C39.0199 6.06353 40.2866 5.16253 41.5529 5.51492L60.096 10.6755C61.0394 10.938 61.6714 11.8253 61.6108 12.802L59.7305 43.0942C59.6479 44.4258 58.3448 45.3289 57.0676 44.9395L38.5544 39.2958C37.6359 39.0158 37.0289 38.1412 37.0883 37.1835Z" fill="white" stroke="#9EB1FD" stroke-width="0.413731"/>
<path d="M36.6361 38.357L37.4779 8.50009C37.5149 7.1871 38.7504 6.24282 40.0278 6.55123L58.7337 11.0677C59.6853 11.2974 60.347 12.1623 60.3194 13.1405L59.464 43.4813C59.4264 44.8151 58.1545 45.7627 56.8649 45.4177L38.1727 40.4173C37.2453 40.1692 36.6091 39.3162 36.6361 38.357Z" fill="white" stroke="#9EB1FD" stroke-width="0.413731"/>
<path d="M36.117 39.4403L36.0807 9.57026C36.0791 8.2567 37.2863 7.27564 38.5721 7.54551L57.4019 11.4974C58.3599 11.6985 59.0466 12.5431 59.0478 13.5217L59.0846 43.8759C59.0862 45.2102 57.8428 46.1957 56.5437 45.8896L37.7134 41.4535C36.7791 41.2334 36.1181 40.3999 36.117 39.4403Z" fill="white" stroke="#9EB1FD" stroke-width="0.413731"/>
<path d="M46.1006 18.1678C44.5348 18.6242 43.0348 19.6014 42.4803 20.0329C42.0304 23.3808 42.1275 30.1227 46.1153 30.308C50.103 30.4933 52.0242 28.436 52.7279 26.2086L47.5326 23.4361L46.1006 18.1678Z" fill="url(#paint0_linear_2021_8718)"/>
<path d="M50.7643 27.4485L52.6808 26.2454C51.1114 30.4471 46.7237 30.5966 44.726 30.1461L50.7643 27.4485Z" fill="#F0B756"/>
<path d="M44.297 19.1363C44.2976 19.1361 44.2981 19.1363 44.2981 19.1363C44.2981 19.1363 44.2987 19.1363 44.2992 19.1366C44.2996 19.1369 44.3001 19.1372 44.3004 19.1375C44.3007 19.138 44.3011 19.1385 44.3012 19.1393L45.8815 24.5397C45.896 24.5895 45.9294 24.6314 45.9745 24.6563L50.8694 27.3643C50.8702 27.3648 50.8705 27.3651 50.8708 27.3656C50.8712 27.3659 50.8715 27.3664 50.8716 27.3668C50.8718 27.3673 50.8718 27.3678 50.8718 27.3678C50.8718 27.3678 50.8716 27.3681 50.8715 27.3686C50.4417 28.1489 49.776 28.7878 49.0422 29.2899C48.2863 29.8069 47.4181 30.1239 46.5146 30.2129C45.6111 30.3017 44.7001 30.1599 43.862 29.7996C43.0238 29.4395 42.2845 28.8721 41.7096 28.1477C41.1347 27.423 40.742 26.5638 40.5664 25.6458C40.3908 24.7281 40.4377 23.7799 40.7031 22.8857C40.9685 21.9914 41.4439 21.1787 42.0873 20.5196C42.7073 19.8842 43.4649 19.4104 44.297 19.1363Z" fill="#F9BA4D" stroke="url(#paint1_linear_2021_8718)" stroke-width="0.346102"/>
<path d="M46.5863 17.1197L45.1921 18.0179L46.7446 23.1237L47.8993 22.7675C49.1775 22.3417 49.8952 22.1474 51.4588 21.626L52.3969 20.9332C51.6861 17.7043 48.146 17.0023 46.5863 17.1197Z" fill="url(#paint2_linear_2021_8718)"/>
<path d="M48.7846 18.4708L48.7847 18.4708C49.4821 18.7726 51.0363 19.7552 51.3801 21.5475C51.3802 21.5483 51.3802 21.5491 51.3796 21.5503C51.379 21.5515 51.3779 21.5523 51.3766 21.5528L46.7085 23.1346C46.705 23.1357 46.7014 23.1338 46.7003 23.1303L45.2627 18.0906C45.2621 18.0887 45.2624 18.0872 45.263 18.0863C45.2633 18.0858 45.2635 18.0855 45.2636 18.0855C45.2636 18.0855 45.2638 18.0853 45.2644 18.0852C46.3139 17.8238 47.7984 18.044 48.7846 18.4708Z" fill="#FE3A34"/>
<path d="M46.7003 23.1303C46.7014 23.1338 46.705 23.1357 46.7085 23.1346L51.3766 21.5528C51.3779 21.5523 51.379 21.5515 51.3796 21.5503C51.3802 21.5491 51.3802 21.5483 51.3801 21.5475C51.0363 19.7552 49.4821 18.7726 48.7847 18.4708L48.7846 18.4708C47.7984 18.044 46.3139 17.8238 45.2644 18.0852C45.2638 18.0853 45.2636 18.0855 45.2636 18.0855C45.2635 18.0855 45.2633 18.0858 45.263 18.0863C45.2624 18.0872 45.2621 18.0887 45.2627 18.0906L46.7003 23.1303ZM46.7003 23.1303L46.6096 23.1568" stroke="url(#paint3_linear_2021_8718)" stroke-width="0.346102"/>
<path d="M48.0556 23.7581L47.3306 24.2763L52.0643 26.8848L52.9746 26.1859C53.5886 24.2385 53.157 22.5242 52.9697 22.1244L48.0556 23.7581Z" fill="url(#paint4_linear_2021_8718)"/>
<path d="M52.0429 26.8008C52.039 26.809 52.0281 26.8139 52.0174 26.8082L47.3835 24.3722C47.3671 24.3636 47.3691 24.3394 47.3866 24.3338L52.4433 22.7004C52.4553 22.6964 52.4661 22.7039 52.4684 22.7141C52.7737 24.1503 52.5128 25.8223 52.0429 26.8008Z" fill="#6785F9" stroke="url(#paint5_linear_2021_8718)" stroke-width="0.288418"/>
<path d="M49.9328 12.642L43.0689 11.2975C43.0333 11.2905 43.0006 11.3194 43.0007 11.3577C43.0007 11.3874 43.0198 11.4126 43.0474 11.4177C45.3478 11.845 49.8692 12.7524 49.9175 12.7581C49.9782 12.7652 49.987 12.7159 49.987 12.7109C49.9869 12.6771 49.9641 12.6481 49.9328 12.642Z" fill="#CBD5FF" stroke="#CBD5FF" stroke-width="0.413731"/>
<path d="M55.2632 15.162L43.123 12.7614C43.0602 12.749 43.0024 12.8005 43.0025 12.8688C43.0025 12.9219 43.0362 12.9669 43.0851 12.9761C47.1538 13.739 55.1507 15.3592 55.2361 15.3693C55.3435 15.382 55.359 15.294 55.359 15.285C55.3589 15.2247 55.3186 15.173 55.2632 15.162Z" fill="#CBD5FF" stroke="#CBD5FF" stroke-width="0.413731"/>
<path d="M55.2647 16.4682L43.1246 14.0677C43.0618 14.0552 43.004 14.1068 43.004 14.1751C43.0041 14.2281 43.0378 14.2732 43.0867 14.2823C47.1554 15.0452 55.1522 16.6654 55.2377 16.6756C55.3451 16.6883 55.3606 16.6002 55.3606 16.5912C55.3605 16.5309 55.3202 16.4792 55.2647 16.4682Z" fill="#CBD5FF" stroke="#CBD5FF" stroke-width="0.413731"/>
<ellipse cx="1.60464" cy="1.854" rx="1.60464" ry="1.854" transform="matrix(1 -0.000109301 0.00121276 0.999999 38.8408 10.6105)" fill="#CBD5FF"/>
<g filter="url(#filter3_d_2021_8718)">
<path d="M26.6474 40.8497L23.9959 23.093C23.9454 22.5033 24.0519 21.2965 25.639 21.733C27.2261 22.1695 40.273 24.8525 46.7015 26.6066L49.1686 24.8325C49.4359 24.645 50.1569 24.3117 50.9019 24.4792C51.6469 24.6467 56.5581 25.5801 58.9206 26.0259C59.5219 26.1263 60.7212 26.6106 60.7071 27.7447C60.6662 29.6677 62.4522 44.4576 63.0792 49.3559L26.6474 40.8497Z" fill="url(#paint6_linear_2021_8718)" shape-rendering="crispEdges"/>
<path d="M46.6225 26.896L46.7605 26.9337L46.8766 26.8502L49.3409 25.0781C49.3413 25.0778 49.3417 25.0775 49.3422 25.0772C49.5716 24.9169 50.2048 24.63 50.8361 24.7719C51.5878 24.9409 56.507 25.8758 58.8649 26.3207L58.8649 26.3207L58.8712 26.3218C59.1366 26.3661 59.5396 26.4978 59.8665 26.7391C60.1866 26.9753 60.4123 27.2972 60.4072 27.7399C60.3967 28.2442 60.5033 29.5499 60.6738 31.2734C60.8455 33.0091 61.0847 35.1929 61.3446 37.4686C61.8358 41.7686 62.4015 46.4005 62.727 48.9656L26.914 40.6039L24.2941 23.0583C24.2713 22.7794 24.2955 22.4256 24.4512 22.1972C24.5224 22.0928 24.6236 22.0101 24.7817 21.9686C24.9471 21.9252 25.1949 21.922 25.5595 22.0223C26.1011 22.1712 27.9484 22.5759 30.3981 23.1126C31.5812 23.3718 32.9049 23.6618 34.2898 23.9686C38.5545 24.9134 43.4163 26.0212 46.6225 26.896Z" stroke="white" stroke-width="0.6" shape-rendering="crispEdges"/>
</g>
<g filter="url(#filter4_d_2021_8718)">
<path d="M52.5342 42.2423L48.4453 41.6766V51.9282L52.5342 52.6062V42.2423Z" fill="#21C7DB" stroke="white" stroke-width="0.4" stroke-linecap="round" stroke-linejoin="round"/>
<path d="M55.2946 40.7144L51.2621 40.1487L48.4453 41.6084L52.5348 42.1741L55.2946 40.7144Z" fill="#21C7DB" stroke="white" stroke-width="0.4" stroke-linecap="round" stroke-linejoin="round"/>
<path d="M55.2942 40.7145L52.5348 42.1743V52.6109L55.2942 51.0167V40.7145Z" fill="#069DAF" stroke="white" stroke-width="0.4" stroke-linecap="round" stroke-linejoin="round"/>
</g>
<g filter="url(#filter5_d_2021_8718)">
<path d="M61.8554 37.9915L57.7666 37.433V53.6647L61.8554 54.3449V37.9915Z" fill="#21C7DB" stroke="white" stroke-width="0.4" stroke-linecap="round" stroke-linejoin="round"/>
<path d="M64.6129 36.601L60.5834 36.0623L57.7666 37.4525L61.8561 37.9914L64.6129 36.601Z" fill="#21C7DB" stroke="white" stroke-width="0.4" stroke-linecap="round" stroke-linejoin="round"/>
<path d="M64.6129 36.6006L61.8564 37.9908V54.3445L64.6129 52.8956V36.6006Z" fill="#069DAF" stroke="white" stroke-width="0.4" stroke-linecap="round" stroke-linejoin="round"/>
</g>
<g filter="url(#filter6_d_2021_8718)">
<path d="M71.1745 33.9607L67.0857 33.2083V55.3363L71.1745 56.0002V33.9607Z" fill="#21C7DB" stroke="white" stroke-width="0.4" stroke-linecap="round" stroke-linejoin="round"/>
<path d="M73.932 32.0867L69.9025 31.3607L67.0857 33.2344L71.1752 33.9603L73.932 32.0867Z" fill="#21C7DB" stroke="white" stroke-width="0.4" stroke-linecap="round" stroke-linejoin="round"/>
<path d="M73.9317 32.0869L71.1749 33.9606V56.0001L73.9317 54.0475V32.0869Z" fill="#069DAF" stroke="white" stroke-width="0.4" stroke-linecap="round" stroke-linejoin="round"/>
</g>
<path d="M2.2313 27.2683L2.70313 27.6862L2.70779 28.0978L2.71429 28.6713L2.08957 28.1389L2.0772 27.0469C3.65414 26.7209 5.90989 26.221 8.12326 25.663C10.2136 25.1361 12.3017 24.5487 13.7412 23.9998L13.744 24.2454C11.8453 24.9007 7.58534 26.1953 3.39768 27.0345L2.2313 27.2683ZM2.04867 28.104C2.04872 28.104 2.04877 28.1041 2.04882 28.1041L2.04867 28.104L1.97195 28.194L2.04867 28.104Z" fill="#C53F3F" stroke="#C53F3F" stroke-width="1.18243"/>
<path d="M14.601 24.0348L15.802 24.7298L15.8121 25.6256L15.8115 25.6256L14.3818 24.6399L14.601 24.0348Z" fill="#C53F3F" stroke="#C53F3F" stroke-width="1.18243"/>
<mask id="path-34-inside-1_2021_8718" fill="white">
<path d="M3.3664 28.0804L3.96214 28.0735C4.02744 28.0727 4.08098 28.1251 4.08172 28.1904L4.10034 29.8335C4.10108 29.8988 4.04874 29.9524 3.98344 29.9531L3.3877 29.9601C3.3224 29.9608 3.26887 29.9085 3.26813 29.8432L3.24951 28.2001C3.24877 28.1348 3.3011 28.0812 3.3664 28.0804Z"/>
</mask>
<path d="M3.94874 26.8911L3.35301 26.8981L3.3798 29.2628L3.97554 29.2558L3.94874 26.8911ZM2.06716 28.2138L2.08578 29.857L4.45048 29.8294L4.43186 28.1863L2.06716 28.2138ZM3.4011 31.1424L3.99684 31.1355L3.97004 28.7708L3.37431 28.7777L3.4011 31.1424ZM5.28269 29.8197L5.26407 28.1766L2.89937 28.2041L2.91799 29.8473L5.28269 29.8197ZM3.99684 31.1355C4.71513 31.1271 5.29083 30.538 5.28269 29.8197L2.91799 29.8473C2.91133 29.2596 3.38235 28.7776 3.97004 28.7708L3.99684 31.1355ZM2.08578 29.857C2.09392 30.5753 2.68281 31.1508 3.4011 31.1424L3.37431 28.7777C3.962 28.7709 4.44382 29.2417 4.45048 29.8294L2.08578 29.857ZM3.35301 26.8981C2.63471 26.9065 2.05902 27.4955 2.06716 28.2138L4.43186 28.1863C4.43852 28.774 3.9675 29.2559 3.3798 29.2628L3.35301 26.8981ZM3.97554 29.2558C3.38785 29.2627 2.90603 28.7918 2.89937 28.2041L5.26407 28.1766C5.25593 27.4583 4.66704 26.8828 3.94874 26.8911L3.97554 29.2558Z" fill="#A23232" mask="url(#path-34-inside-1_2021_8718)"/>
<mask id="path-36-inside-2_2021_8718" fill="white">
<path d="M15.7112 24.3671L16.3069 24.3602C16.3722 24.3594 16.4258 24.4117 16.4265 24.477L16.4451 26.1202C16.4459 26.1855 16.3935 26.2391 16.3282 26.2398L15.7325 26.2468C15.6672 26.2475 15.6137 26.1952 15.6129 26.1299L15.5943 24.4867C15.5936 24.4214 15.6459 24.3679 15.7112 24.3671Z"/>
</mask>
<path d="M16.2935 23.1778L15.6978 23.1848L15.7246 25.5495L16.3203 25.5425L16.2935 23.1778ZM14.4119 24.5005L14.4306 26.1437L16.7953 26.1161L16.7766 24.473L14.4119 24.5005ZM15.7459 27.4291L16.3416 27.4222L16.3148 25.0575L15.7191 25.0644L15.7459 27.4291ZM17.6275 26.1064L17.6089 24.4632L15.2442 24.4908L15.2628 26.134L17.6275 26.1064ZM16.3416 27.4222C17.0599 27.4138 17.6356 26.8247 17.6275 26.1064L15.2628 26.134C15.2561 25.5463 15.7271 25.0643 16.3148 25.0575L16.3416 27.4222ZM14.4306 26.1437C14.4387 26.862 15.0276 27.4375 15.7459 27.4291L15.7191 25.0644C16.3068 25.0576 16.7886 25.5284 16.7953 26.1161L14.4306 26.1437ZM15.6978 23.1848C14.9795 23.1931 14.4038 23.7822 14.4119 24.5005L16.7766 24.473C16.7833 25.0606 16.3123 25.5426 15.7246 25.5495L15.6978 23.1848ZM16.3203 25.5425C15.7326 25.5494 15.2508 25.0785 15.2442 24.4908L17.6089 24.4632C17.6007 23.745 17.0118 23.1694 16.2935 23.1778L16.3203 25.5425Z" fill="#A23232" mask="url(#path-36-inside-2_2021_8718)"/>
<g filter="url(#filter7_d_2021_8718)">
<ellipse cx="1.42234" cy="1.54509" rx="1.42234" ry="1.54509" transform="matrix(0.996971 -0.0777766 0.0774509 0.996996 10.8521 48.8414)" fill="#425061"/>
<ellipse cx="1.19755" cy="1.54509" rx="1.19755" ry="1.54509" transform="matrix(0.996971 -0.0777766 0.0774509 0.996996 10.8521 48.8414)" fill="#5D687C"/>
<g filter="url(#filter8_i_2021_8718)">
<ellipse cx="0.828977" cy="1.06955" rx="0.828977" ry="1.06955" transform="matrix(0.996971 -0.0777766 0.0774509 0.996996 11.1863 49.2926)" fill="url(#paint7_linear_2021_8718)"/>
</g>
</g>
<g filter="url(#filter9_d_2021_8718)">
<ellipse cx="1.42234" cy="1.54509" rx="1.42234" ry="1.54509" transform="matrix(0.996971 -0.0777766 0.0774509 0.996996 23.5892 50.4887)" fill="#425061"/>
<ellipse cx="1.19755" cy="1.54509" rx="1.19755" ry="1.54509" transform="matrix(0.996971 -0.0777766 0.0774509 0.996996 23.5892 50.4887)" fill="#5D687C"/>
<g filter="url(#filter10_i_2021_8718)">
<ellipse cx="0.828977" cy="1.06955" rx="0.828977" ry="1.06955" transform="matrix(0.996971 -0.0777766 0.0774509 0.996996 23.9231 50.9393)" fill="url(#paint8_linear_2021_8718)"/>
</g>
</g>
<g filter="url(#filter11_d_2021_8718)">
<ellipse cx="1.42234" cy="1.54509" rx="1.42234" ry="1.54509" transform="matrix(0.996971 -0.0777766 0.0774509 0.996996 26.9572 46.9171)" fill="#425061"/>
<ellipse cx="1.19755" cy="1.54509" rx="1.19755" ry="1.54509" transform="matrix(0.996971 -0.0777766 0.0774509 0.996996 26.9572 46.9171)" fill="#5D687C"/>
<g filter="url(#filter12_i_2021_8718)">
<ellipse cx="0.828977" cy="1.06955" rx="0.828977" ry="1.06955" transform="matrix(0.996971 -0.0777766 0.0774509 0.996996 27.2911 47.368)" fill="url(#paint9_linear_2021_8718)"/>
</g>
</g>
<g filter="url(#filter13_d_2021_8718)">
<ellipse cx="1.42234" cy="1.54509" rx="1.42234" ry="1.54509" transform="matrix(0.996971 -0.0777766 0.0774509 0.996996 18.5626 45.0212)" fill="#425061"/>
<ellipse cx="1.19755" cy="1.54509" rx="1.19755" ry="1.54509" transform="matrix(0.996971 -0.0777766 0.0774509 0.996996 18.5626 45.0212)" fill="#5D687C"/>
<g filter="url(#filter14_i_2021_8718)">
<ellipse cx="0.828977" cy="1.06955" rx="0.828977" ry="1.06955" transform="matrix(0.996971 -0.0777766 0.0774509 0.996996 18.8964 45.4717)" fill="url(#paint10_linear_2021_8718)"/>
</g>
</g>
<g filter="url(#filter15_d_2021_8718)">
<path d="M9.48971 47.2116L13.1884 43.5543C13.1984 43.5444 13.2102 43.5363 13.223 43.5306L19.3561 40.7728C19.4591 40.7265 19.5622 40.8373 19.5086 40.9368L17.7905 44.1241C17.7532 44.1933 17.7926 44.279 17.8695 44.2957L32.0491 47.3743C32.1483 47.3959 32.176 47.5242 32.0945 47.5848L28.7551 50.0673C28.7302 50.0859 28.6989 50.0938 28.6681 50.0895L9.55639 47.4128C9.45946 47.3992 9.42009 47.2805 9.48971 47.2116Z" stroke="#425061" shape-rendering="crispEdges"/>
</g>
<g filter="url(#filter16_d_2021_8718)">
<path d="M17.491 32.2494L6.9536 35.6365C6.83699 35.674 6.84724 35.8423 6.96754 35.8652L27.4098 39.7679C27.4335 39.7725 27.458 39.7696 27.4801 39.7598L34.8766 36.4659C34.9803 36.4197 34.9658 36.2682 34.8552 36.2427L17.5538 32.2467C17.533 32.2419 17.5113 32.2428 17.491 32.2494Z" stroke="#425061" stroke-width="0.4" shape-rendering="crispEdges"/>
</g>
<g filter="url(#filter17_d_2021_8718)">
<path d="M17.7841 36.197L8.35966 39.3134C8.24129 39.3526 8.25617 39.5245 8.3795 39.5427L27.0695 42.2928C27.0877 42.2955 27.1062 42.2939 27.1237 42.2881L34.1095 39.9911C34.2238 39.9535 34.2155 39.7891 34.098 39.7633L17.8466 36.1938C17.8259 36.1892 17.8043 36.1903 17.7841 36.197Z" stroke="#425061" stroke-width="0.4" shape-rendering="crispEdges"/>
</g>
<path d="M16.1672 24.7314C16.0683 24.6822 15.9483 24.7225 15.899 24.8214C15.8498 24.9203 15.89 25.0403 15.9889 25.0895L16.1672 24.7314ZM15.9889 25.0895C16.573 25.3802 17.1527 25.7907 17.5896 26.3938C18.0249 26.9947 18.327 27.7986 18.3393 28.8921L18.7393 28.8874C18.7261 27.7173 18.4009 26.8318 17.9136 26.1591C17.428 25.4887 16.7899 25.0413 16.1672 24.7314L15.9889 25.0895Z" fill="#425061"/>
<path d="M16.169 25.6236C16.0871 25.5495 15.9607 25.5558 15.8865 25.6376C15.8123 25.7195 15.8186 25.846 15.9004 25.9201L16.169 25.6236ZM15.9004 25.9201C16.9293 26.8519 16.9658 28.1259 16.9717 28.65L17.3717 28.6454C17.3657 28.1142 17.3346 26.6792 16.169 25.6236L15.9004 25.9201Z" fill="#425061"/>
<path d="M3.88428 29.3288C3.79306 29.2665 3.66862 29.29 3.60633 29.3812C3.54403 29.4725 3.56748 29.5969 3.65869 29.6592L3.88428 29.3288ZM3.65869 29.6592C3.96956 29.8714 4.33877 30.3003 4.6106 30.8133C4.88283 31.327 5.03901 31.8903 4.96752 32.3681L5.36312 32.4272C5.45234 31.8309 5.25648 31.1777 4.96405 30.6259C4.67122 30.0733 4.26315 29.5874 3.88428 29.3288L3.65869 29.6592Z" fill="#425061"/>
<g filter="url(#filter18_d_2021_8718)">
<path d="M26.8256 36.4959L5.41647 32.5062C5.22624 32.4707 4.94108 32.3763 5.05977 32.2234C5.1736 32.0767 5.52004 31.8988 6.08044 31.7386C9.15872 30.8583 15.5047 29.037 16.2622 28.7935C16.7729 28.6294 17.1829 28.6353 17.4489 28.6859C17.6417 28.7225 17.8211 28.8006 18.0109 28.8503C23.4073 30.2627 33.888 32.9927 34.7973 33.1771C35.4389 33.3073 35.4803 33.5773 35.3529 33.8027C35.2396 34.0032 35.0138 34.1016 34.799 34.1848C32.8845 34.9268 29.459 36.251 28.8539 36.4722C28.2131 36.7065 27.2347 36.5856 26.8256 36.4959Z" stroke="#425061" stroke-width="0.4" shape-rendering="crispEdges"/>
</g>
<g filter="url(#filter19_d_2021_8718)">
<path d="M27.7659 36.6904L26.8036 43.2711C26.6968 44.0018 27.431 44.5675 28.1103 44.2778L32.6927 42.3242C33.4161 42.0158 33.9391 41.368 34.0879 40.5958L35.4417 33.5736" stroke="#425061" stroke-width="0.4"/>
</g>
<g filter="url(#filter20_d_2021_8718)">
<path d="M22.065 35.6385L22.0649 43.1289C22.0649 43.8114 22.7656 44.269 23.3907 43.9948L28.6192 41.7009C29.4006 41.3581 29.9368 40.6211 30.0226 39.7722L30.777 32.3025" stroke="#425061" stroke-width="0.4"/>
</g>
<g filter="url(#filter21_d_2021_8718)">
<path d="M16.2682 34.5686L17.7302 42.7212C17.8393 43.3298 18.4935 43.6716 19.0556 43.4136L24.148 41.0766C24.928 40.7187 25.453 39.9664 25.5199 39.1109L26.1505 31.0437" stroke="#425061" stroke-width="0.4"/>
</g>
<g filter="url(#filter22_d_2021_8718)">
<path d="M10.7356 33.4281L13.2666 42.2407C13.4264 42.7971 14.0439 43.0805 14.5701 42.8391L19.7477 40.463C20.5408 40.099 21.0692 39.3279 21.1224 38.457L21.6497 29.8163" stroke="#425061" stroke-width="0.4"/>
</g>
<g filter="url(#filter23_d_2021_8718)">
<path d="M5.05913 32.3177L9.12082 41.7864C9.32258 42.2567 9.86189 42.4811 10.3379 42.2928L16.5255 39.845C17.5055 39.4573 18.1109 38.4681 18.0102 37.4192L17.1641 28.6058" stroke="#425061" stroke-width="0.4"/>
</g>
<path d="M3.82797 28.4146C3.72376 28.378 3.60959 28.4328 3.57297 28.5371C3.53635 28.6413 3.59114 28.7554 3.69535 28.792L3.82797 28.4146ZM3.69535 28.792C3.97125 28.8889 4.59177 29.2397 5.15683 29.8769C5.71778 30.5095 6.21687 31.4161 6.2733 32.6255L6.67286 32.6067C6.61142 31.2897 6.06589 30.2991 5.45615 29.6115C4.85052 28.9285 4.17426 28.5362 3.82797 28.4146L3.69535 28.792Z" fill="#425061"/>
<defs>
<filter id="filter0_d_2021_8718" x="6.96265" y="5.07013" width="29.7904" height="19.9324" filterUnits="userSpaceOnUse" color-interpolation-filters="sRGB">
<feFlood flood-opacity="0" result="BackgroundImageFix"/>
<feColorMatrix in="SourceAlpha" type="matrix" values="0 0 0 0 0 0 0 0 0 0 0 0 0 0 0 0 0 0 127 0" result="hardAlpha"/>
<feOffset dy="1"/>
<feGaussianBlur stdDeviation="2"/>
<feComposite in2="hardAlpha" operator="out"/>
<feColorMatrix type="matrix" values="0 0 0 0 0.0941176 0 0 0 0 0.121569 0 0 0 0 0.160784 0 0 0 0.08 0"/>
<feBlend mode="normal" in2="BackgroundImageFix" result="effect1_dropShadow_2021_8718"/>
<feBlend mode="normal" in="SourceGraphic" in2="effect1_dropShadow_2021_8718" result="shape"/>
</filter>
<filter id="filter1_d_2021_8718" x="50.4489" y="0" width="31.0759" height="21.0459" filterUnits="userSpaceOnUse" color-interpolation-filters="sRGB">
<feFlood flood-opacity="0" result="BackgroundImageFix"/>
<feColorMatrix in="SourceAlpha" type="matrix" values="0 0 0 0 0 0 0 0 0 0 0 0 0 0 0 0 0 0 127 0" result="hardAlpha"/>
<feOffset dy="1"/>
<feGaussianBlur stdDeviation="2"/>
<feComposite in2="hardAlpha" operator="out"/>
<feColorMatrix type="matrix" values="0 0 0 0 0.0941176 0 0 0 0 0.121569 0 0 0 0 0.160784 0 0 0 0.08 0"/>
<feBlend mode="normal" in2="BackgroundImageFix" result="effect1_dropShadow_2021_8718"/>
<feBlend mode="normal" in="SourceGraphic" in2="effect1_dropShadow_2021_8718" result="shape"/>
</filter>
<filter id="filter2_d_2021_8718" x="22.6919" y="13.5749" width="49.803" height="40.9301" filterUnits="userSpaceOnUse" color-interpolation-filters="sRGB">
<feFlood flood-opacity="0" result="BackgroundImageFix"/>
<feColorMatrix in="SourceAlpha" type="matrix" values="0 0 0 0 0 0 0 0 0 0 0 0 0 0 0 0 0 0 127 0" result="hardAlpha"/>
<feOffset dy="1"/>
<feGaussianBlur stdDeviation="2"/>
<feComposite in2="hardAlpha" operator="out"/>
<feColorMatrix type="matrix" values="0 0 0 0 0.0941176 0 0 0 0 0.121569 0 0 0 0 0.160784 0 0 0 0.08 0"/>
<feBlend mode="normal" in2="BackgroundImageFix" result="effect1_dropShadow_2021_8718"/>
<feBlend mode="normal" in="SourceGraphic" in2="effect1_dropShadow_2021_8718" result="shape"/>
</filter>
<filter id="filter3_d_2021_8718" x="19.9867" y="18.6399" width="47.0925" height="35.716" filterUnits="userSpaceOnUse" color-interpolation-filters="sRGB">
<feFlood flood-opacity="0" result="BackgroundImageFix"/>
<feColorMatrix in="SourceAlpha" type="matrix" values="0 0 0 0 0 0 0 0 0 0 0 0 0 0 0 0 0 0 127 0" result="hardAlpha"/>
<feOffset dy="1"/>
<feGaussianBlur stdDeviation="2"/>
<feComposite in2="hardAlpha" operator="out"/>
<feColorMatrix type="matrix" values="0 0 0 0 0.0941176 0 0 0 0 0.121569 0 0 0 0 0.160784 0 0 0 0.08 0"/>
<feBlend mode="normal" in2="BackgroundImageFix" result="effect1_dropShadow_2021_8718"/>
<feBlend mode="normal" in="SourceGraphic" in2="effect1_dropShadow_2021_8718" result="shape"/>
</filter>
<filter id="filter4_d_2021_8718" x="46.2454" y="38.9486" width="11.2493" height="16.8622" filterUnits="userSpaceOnUse" color-interpolation-filters="sRGB">
<feFlood flood-opacity="0" result="BackgroundImageFix"/>
<feColorMatrix in="SourceAlpha" type="matrix" values="0 0 0 0 0 0 0 0 0 0 0 0 0 0 0 0 0 0 127 0" result="hardAlpha"/>
<feOffset dy="1"/>
<feGaussianBlur stdDeviation="1"/>
<feComposite in2="hardAlpha" operator="out"/>
<feColorMatrix type="matrix" values="0 0 0 0 0 0 0 0 0 0 0 0 0 0 0 0 0 0 0.25 0"/>
<feBlend mode="normal" in2="BackgroundImageFix" result="effect1_dropShadow_2021_8718"/>
<feBlend mode="normal" in="SourceGraphic" in2="effect1_dropShadow_2021_8718" result="shape"/>
</filter>
<filter id="filter5_d_2021_8718" x="55.5667" y="34.8623" width="11.2463" height="22.6826" filterUnits="userSpaceOnUse" color-interpolation-filters="sRGB">
<feFlood flood-opacity="0" result="BackgroundImageFix"/>
<feColorMatrix in="SourceAlpha" type="matrix" values="0 0 0 0 0 0 0 0 0 0 0 0 0 0 0 0 0 0 127 0" result="hardAlpha"/>
<feOffset dy="1"/>
<feGaussianBlur stdDeviation="1"/>
<feComposite in2="hardAlpha" operator="out"/>
<feColorMatrix type="matrix" values="0 0 0 0 0 0 0 0 0 0 0 0 0 0 0 0 0 0 0.25 0"/>
<feBlend mode="normal" in2="BackgroundImageFix" result="effect1_dropShadow_2021_8718"/>
<feBlend mode="normal" in="SourceGraphic" in2="effect1_dropShadow_2021_8718" result="shape"/>
</filter>
<filter id="filter6_d_2021_8718" x="64.8857" y="30.1607" width="11.2463" height="29.0396" filterUnits="userSpaceOnUse" color-interpolation-filters="sRGB">
<feFlood flood-opacity="0" result="BackgroundImageFix"/>
<feColorMatrix in="SourceAlpha" type="matrix" values="0 0 0 0 0 0 0 0 0 0 0 0 0 0 0 0 0 0 127 0" result="hardAlpha"/>
<feOffset dy="1"/>
<feGaussianBlur stdDeviation="1"/>
<feComposite in2="hardAlpha" operator="out"/>
<feColorMatrix type="matrix" values="0 0 0 0 0 0 0 0 0 0 0 0 0 0 0 0 0 0 0.25 0"/>
<feBlend mode="normal" in2="BackgroundImageFix" result="effect1_dropShadow_2021_8718"/>
<feBlend mode="normal" in="SourceGraphic" in2="effect1_dropShadow_2021_8718" result="shape"/>
</filter>
<filter id="filter7_d_2021_8718" x="8.96564" y="47.7267" width="6.84729" height="7.10526" filterUnits="userSpaceOnUse" color-interpolation-filters="sRGB">
<feFlood flood-opacity="0" result="BackgroundImageFix"/>
<feColorMatrix in="SourceAlpha" type="matrix" values="0 0 0 0 0 0 0 0 0 0 0 0 0 0 0 0 0 0 127 0" result="hardAlpha"/>
<feOffset dy="1"/>
<feGaussianBlur stdDeviation="1"/>
<feComposite in2="hardAlpha" operator="out"/>
<feColorMatrix type="matrix" values="0 0 0 0 0 0 0 0 0 0 0 0 0 0 0 0 0 0 0.25 0"/>
<feBlend mode="normal" in2="BackgroundImageFix" result="effect1_dropShadow_2021_8718"/>
<feBlend mode="normal" in="SourceGraphic" in2="effect1_dropShadow_2021_8718" result="shape"/>
</filter>
<filter id="filter8_i_2021_8718" x="11.2649" y="49.2262" width="1.66138" height="6.13666" filterUnits="userSpaceOnUse" color-interpolation-filters="sRGB">
<feFlood flood-opacity="0" result="BackgroundImageFix"/>
<feBlend mode="normal" in="SourceGraphic" in2="BackgroundImageFix" result="shape"/>
<feColorMatrix in="SourceAlpha" type="matrix" values="0 0 0 0 0 0 0 0 0 0 0 0 0 0 0 0 0 0 127 0" result="hardAlpha"/>
<feOffset dy="4"/>
<feGaussianBlur stdDeviation="2"/>
<feComposite in2="hardAlpha" operator="arithmetic" k2="-1" k3="1"/>
<feColorMatrix type="matrix" values="0 0 0 0 0 0 0 0 0 0 0 0 0 0 0 0 0 0 0.25 0"/>
<feBlend mode="normal" in2="shape" result="effect1_innerShadow_2021_8718"/>
</filter>
<filter id="filter9_d_2021_8718" x="21.7028" y="49.374" width="6.84723" height="7.10526" filterUnits="userSpaceOnUse" color-interpolation-filters="sRGB">
<feFlood flood-opacity="0" result="BackgroundImageFix"/>
<feColorMatrix in="SourceAlpha" type="matrix" values="0 0 0 0 0 0 0 0 0 0 0 0 0 0 0 0 0 0 127 0" result="hardAlpha"/>
<feOffset dy="1"/>
<feGaussianBlur stdDeviation="1"/>
<feComposite in2="hardAlpha" operator="out"/>
<feColorMatrix type="matrix" values="0 0 0 0 0 0 0 0 0 0 0 0 0 0 0 0 0 0 0.25 0"/>
<feBlend mode="normal" in2="BackgroundImageFix" result="effect1_dropShadow_2021_8718"/>
<feBlend mode="normal" in="SourceGraphic" in2="effect1_dropShadow_2021_8718" result="shape"/>
</filter>
<filter id="filter10_i_2021_8718" x="24.0017" y="50.8728" width="1.66138" height="6.13666" filterUnits="userSpaceOnUse" color-interpolation-filters="sRGB">
<feFlood flood-opacity="0" result="BackgroundImageFix"/>
<feBlend mode="normal" in="SourceGraphic" in2="BackgroundImageFix" result="shape"/>
<feColorMatrix in="SourceAlpha" type="matrix" values="0 0 0 0 0 0 0 0 0 0 0 0 0 0 0 0 0 0 127 0" result="hardAlpha"/>
<feOffset dy="4"/>
<feGaussianBlur stdDeviation="2"/>
<feComposite in2="hardAlpha" operator="arithmetic" k2="-1" k3="1"/>
<feColorMatrix type="matrix" values="0 0 0 0 0 0 0 0 0 0 0 0 0 0 0 0 0 0 0.25 0"/>
<feBlend mode="normal" in2="shape" result="effect1_innerShadow_2021_8718"/>
</filter>
<filter id="filter11_d_2021_8718" x="25.0708" y="45.8024" width="6.84717" height="7.10526" filterUnits="userSpaceOnUse" color-interpolation-filters="sRGB">
<feFlood flood-opacity="0" result="BackgroundImageFix"/>
<feColorMatrix in="SourceAlpha" type="matrix" values="0 0 0 0 0 0 0 0 0 0 0 0 0 0 0 0 0 0 127 0" result="hardAlpha"/>
<feOffset dy="1"/>
<feGaussianBlur stdDeviation="1"/>
<feComposite in2="hardAlpha" operator="out"/>
<feColorMatrix type="matrix" values="0 0 0 0 0 0 0 0 0 0 0 0 0 0 0 0 0 0 0.25 0"/>
<feBlend mode="normal" in2="BackgroundImageFix" result="effect1_dropShadow_2021_8718"/>
<feBlend mode="normal" in="SourceGraphic" in2="effect1_dropShadow_2021_8718" result="shape"/>
</filter>
<filter id="filter12_i_2021_8718" x="27.3698" y="47.3016" width="1.66138" height="6.13666" filterUnits="userSpaceOnUse" color-interpolation-filters="sRGB">
<feFlood flood-opacity="0" result="BackgroundImageFix"/>
<feBlend mode="normal" in="SourceGraphic" in2="BackgroundImageFix" result="shape"/>
<feColorMatrix in="SourceAlpha" type="matrix" values="0 0 0 0 0 0 0 0 0 0 0 0 0 0 0 0 0 0 127 0" result="hardAlpha"/>
<feOffset dy="4"/>
<feGaussianBlur stdDeviation="2"/>
<feComposite in2="hardAlpha" operator="arithmetic" k2="-1" k3="1"/>
<feColorMatrix type="matrix" values="0 0 0 0 0 0 0 0 0 0 0 0 0 0 0 0 0 0 0.25 0"/>
<feBlend mode="normal" in2="shape" result="effect1_innerShadow_2021_8718"/>
</filter>
<filter id="filter13_d_2021_8718" x="16.6761" y="43.9066" width="6.84729" height="7.10526" filterUnits="userSpaceOnUse" color-interpolation-filters="sRGB">
<feFlood flood-opacity="0" result="BackgroundImageFix"/>
<feColorMatrix in="SourceAlpha" type="matrix" values="0 0 0 0 0 0 0 0 0 0 0 0 0 0 0 0 0 0 127 0" result="hardAlpha"/>
<feOffset dy="1"/>
<feGaussianBlur stdDeviation="1"/>
<feComposite in2="hardAlpha" operator="out"/>
<feColorMatrix type="matrix" values="0 0 0 0 0 0 0 0 0 0 0 0 0 0 0 0 0 0 0.25 0"/>
<feBlend mode="normal" in2="BackgroundImageFix" result="effect1_dropShadow_2021_8718"/>
<feBlend mode="normal" in="SourceGraphic" in2="effect1_dropShadow_2021_8718" result="shape"/>
</filter>
<filter id="filter14_i_2021_8718" x="18.975" y="45.4052" width="1.66138" height="6.13666" filterUnits="userSpaceOnUse" color-interpolation-filters="sRGB">
<feFlood flood-opacity="0" result="BackgroundImageFix"/>
<feBlend mode="normal" in="SourceGraphic" in2="BackgroundImageFix" result="shape"/>
<feColorMatrix in="SourceAlpha" type="matrix" values="0 0 0 0 0 0 0 0 0 0 0 0 0 0 0 0 0 0 127 0" result="hardAlpha"/>
<feOffset dy="4"/>
<feGaussianBlur stdDeviation="2"/>
<feComposite in2="hardAlpha" operator="arithmetic" k2="-1" k3="1"/>
<feColorMatrix type="matrix" values="0 0 0 0 0 0 0 0 0 0 0 0 0 0 0 0 0 0 0.25 0"/>
<feBlend mode="normal" in2="shape" result="effect1_innerShadow_2021_8718"/>
</filter>
<filter id="filter15_d_2021_8718" x="4.95392" y="37.26" width="31.6887" height="18.3307" filterUnits="userSpaceOnUse" color-interpolation-filters="sRGB">
<feFlood flood-opacity="0" result="BackgroundImageFix"/>
<feColorMatrix in="SourceAlpha" type="matrix" values="0 0 0 0 0 0 0 0 0 0 0 0 0 0 0 0 0 0 127 0" result="hardAlpha"/>
<feOffset dy="1"/>
<feGaussianBlur stdDeviation="2"/>
<feComposite in2="hardAlpha" operator="out"/>
<feColorMatrix type="matrix" values="0 0 0 0 0.0941176 0 0 0 0 0.121569 0 0 0 0 0.160784 0 0 0 0.08 0"/>
<feBlend mode="normal" in2="BackgroundImageFix" result="effect1_dropShadow_2021_8718"/>
<feBlend mode="normal" in="SourceGraphic" in2="effect1_dropShadow_2021_8718" result="shape"/>
</filter>
<filter id="filter16_d_2021_8718" x="2.67151" y="29.0437" width="36.4753" height="15.9263" filterUnits="userSpaceOnUse" color-interpolation-filters="sRGB">
<feFlood flood-opacity="0" result="BackgroundImageFix"/>
<feColorMatrix in="SourceAlpha" type="matrix" values="0 0 0 0 0 0 0 0 0 0 0 0 0 0 0 0 0 0 127 0" result="hardAlpha"/>
<feOffset dy="1"/>
<feGaussianBlur stdDeviation="2"/>
<feComposite in2="hardAlpha" operator="out"/>
<feColorMatrix type="matrix" values="0 0 0 0 0.0941176 0 0 0 0 0.121569 0 0 0 0 0.160784 0 0 0 0.08 0"/>
<feBlend mode="normal" in2="BackgroundImageFix" result="effect1_dropShadow_2021_8718"/>
<feBlend mode="normal" in="SourceGraphic" in2="effect1_dropShadow_2021_8718" result="shape"/>
</filter>
<filter id="filter17_d_2021_8718" x="4.07843" y="32.991" width="34.3124" height="14.5031" filterUnits="userSpaceOnUse" color-interpolation-filters="sRGB">
<feFlood flood-opacity="0" result="BackgroundImageFix"/>
<feColorMatrix in="SourceAlpha" type="matrix" values="0 0 0 0 0 0 0 0 0 0 0 0 0 0 0 0 0 0 127 0" result="hardAlpha"/>
<feOffset dy="1"/>
<feGaussianBlur stdDeviation="2"/>
<feComposite in2="hardAlpha" operator="out"/>
<feColorMatrix type="matrix" values="0 0 0 0 0.0941176 0 0 0 0 0.121569 0 0 0 0 0.160784 0 0 0 0.08 0"/>
<feBlend mode="normal" in2="BackgroundImageFix" result="effect1_dropShadow_2021_8718"/>
<feBlend mode="normal" in="SourceGraphic" in2="effect1_dropShadow_2021_8718" result="shape"/>
</filter>
<filter id="filter18_d_2021_8718" x="0.831604" y="25.4544" width="38.7794" height="16.3537" filterUnits="userSpaceOnUse" color-interpolation-filters="sRGB">
<feFlood flood-opacity="0" result="BackgroundImageFix"/>
<feColorMatrix in="SourceAlpha" type="matrix" values="0 0 0 0 0 0 0 0 0 0 0 0 0 0 0 0 0 0 127 0" result="hardAlpha"/>
<feOffset dy="1"/>
<feGaussianBlur stdDeviation="2"/>
<feComposite in2="hardAlpha" operator="out"/>
<feColorMatrix type="matrix" values="0 0 0 0 0.0941176 0 0 0 0 0.121569 0 0 0 0 0.160784 0 0 0 0.08 0"/>
<feBlend mode="normal" in2="BackgroundImageFix" result="effect1_dropShadow_2021_8718"/>
<feBlend mode="normal" in="SourceGraphic" in2="effect1_dropShadow_2021_8718" result="shape"/>
</filter>
<filter id="filter19_d_2021_8718" x="22.5931" y="30.5358" width="17.0449" height="19.0197" filterUnits="userSpaceOnUse" color-interpolation-filters="sRGB">
<feFlood flood-opacity="0" result="BackgroundImageFix"/>
<feColorMatrix in="SourceAlpha" type="matrix" values="0 0 0 0 0 0 0 0 0 0 0 0 0 0 0 0 0 0 127 0" result="hardAlpha"/>
<feOffset dy="1"/>
<feGaussianBlur stdDeviation="2"/>
<feComposite in2="hardAlpha" operator="out"/>
<feColorMatrix type="matrix" values="0 0 0 0 0.0941176 0 0 0 0 0.121569 0 0 0 0 0.160784 0 0 0 0.08 0"/>
<feBlend mode="normal" in2="BackgroundImageFix" result="effect1_dropShadow_2021_8718"/>
<feBlend mode="normal" in="SourceGraphic" in2="effect1_dropShadow_2021_8718" result="shape"/>
</filter>
<filter id="filter20_d_2021_8718" x="17.8649" y="29.2825" width="17.111" height="19.9933" filterUnits="userSpaceOnUse" color-interpolation-filters="sRGB">
<feFlood flood-opacity="0" result="BackgroundImageFix"/>
<feColorMatrix in="SourceAlpha" type="matrix" values="0 0 0 0 0 0 0 0 0 0 0 0 0 0 0 0 0 0 127 0" result="hardAlpha"/>
<feOffset dy="1"/>
<feGaussianBlur stdDeviation="2"/>
<feComposite in2="hardAlpha" operator="out"/>
<feColorMatrix type="matrix" values="0 0 0 0 0.0941176 0 0 0 0 0.121569 0 0 0 0 0.160784 0 0 0 0.08 0"/>
<feBlend mode="normal" in2="BackgroundImageFix" result="effect1_dropShadow_2021_8718"/>
<feBlend mode="normal" in="SourceGraphic" in2="effect1_dropShadow_2021_8718" result="shape"/>
</filter>
<filter id="filter21_d_2021_8718" x="12.0714" y="28.0281" width="18.2785" height="20.6725" filterUnits="userSpaceOnUse" color-interpolation-filters="sRGB">
<feFlood flood-opacity="0" result="BackgroundImageFix"/>
<feColorMatrix in="SourceAlpha" type="matrix" values="0 0 0 0 0 0 0 0 0 0 0 0 0 0 0 0 0 0 127 0" result="hardAlpha"/>
<feOffset dy="1"/>
<feGaussianBlur stdDeviation="2"/>
<feComposite in2="hardAlpha" operator="out"/>
<feColorMatrix type="matrix" values="0 0 0 0 0.0941176 0 0 0 0 0.121569 0 0 0 0 0.160784 0 0 0 0.08 0"/>
<feBlend mode="normal" in2="BackgroundImageFix" result="effect1_dropShadow_2021_8718"/>
<feBlend mode="normal" in="SourceGraphic" in2="effect1_dropShadow_2021_8718" result="shape"/>
</filter>
<filter id="filter22_d_2021_8718" x="6.5434" y="26.8042" width="19.306" height="21.3216" filterUnits="userSpaceOnUse" color-interpolation-filters="sRGB">
<feFlood flood-opacity="0" result="BackgroundImageFix"/>
<feColorMatrix in="SourceAlpha" type="matrix" values="0 0 0 0 0 0 0 0 0 0 0 0 0 0 0 0 0 0 127 0" result="hardAlpha"/>
<feOffset dy="1"/>
<feGaussianBlur stdDeviation="2"/>
<feComposite in2="hardAlpha" operator="out"/>
<feColorMatrix type="matrix" values="0 0 0 0 0.0941176 0 0 0 0 0.121569 0 0 0 0 0.160784 0 0 0 0.08 0"/>
<feBlend mode="normal" in2="BackgroundImageFix" result="effect1_dropShadow_2021_8718"/>
<feBlend mode="normal" in="SourceGraphic" in2="effect1_dropShadow_2021_8718" result="shape"/>
</filter>
<filter id="filter23_d_2021_8718" x="0.875305" y="25.5866" width="21.3458" height="21.9728" filterUnits="userSpaceOnUse" color-interpolation-filters="sRGB">
<feFlood flood-opacity="0" result="BackgroundImageFix"/>
<feColorMatrix in="SourceAlpha" type="matrix" values="0 0 0 0 0 0 0 0 0 0 0 0 0 0 0 0 0 0 127 0" result="hardAlpha"/>
<feOffset dy="1"/>
<feGaussianBlur stdDeviation="2"/>
<feComposite in2="hardAlpha" operator="out"/>
<feColorMatrix type="matrix" values="0 0 0 0 0.0941176 0 0 0 0 0.121569 0 0 0 0 0.160784 0 0 0 0.08 0"/>
<feBlend mode="normal" in2="BackgroundImageFix" result="effect1_dropShadow_2021_8718"/>
<feBlend mode="normal" in="SourceGraphic" in2="effect1_dropShadow_2021_8718" result="shape"/>
</filter>
<linearGradient id="paint0_linear_2021_8718" x1="47.5048" y1="18.1676" x2="51.2977" y2="27.0102" gradientUnits="userSpaceOnUse">
<stop stop-color="#FFD68C"/>
<stop offset="1" stop-color="#F0B756"/>
</linearGradient>
<linearGradient id="paint1_linear_2021_8718" x1="48.8594" y1="29.7157" x2="43.477" y2="19.7783" gradientUnits="userSpaceOnUse">
<stop stop-color="#F3C16A" stop-opacity="0.96"/>
<stop offset="1" stop-color="white" stop-opacity="0.49"/>
</linearGradient>
<linearGradient id="paint2_linear_2021_8718" x1="50.4269" y1="19.328" x2="42.6241" y2="17.7662" gradientUnits="userSpaceOnUse">
<stop stop-color="#F55A5B"/>
<stop offset="1" stop-color="#E8524E" stop-opacity="0"/>
</linearGradient>
<linearGradient id="paint3_linear_2021_8718" x1="46.5792" y1="22.5336" x2="47.5949" y2="16.435" gradientUnits="userSpaceOnUse">
<stop stop-color="#F55A5B"/>
<stop offset="1" stop-color="white" stop-opacity="0"/>
</linearGradient>
<linearGradient id="paint4_linear_2021_8718" x1="51.7415" y1="23.7587" x2="54.5467" y2="21.8085" gradientUnits="userSpaceOnUse">
<stop stop-color="#597AFA"/>
<stop offset="1" stop-color="white"/>
</linearGradient>
<linearGradient id="paint5_linear_2021_8718" x1="53.2472" y1="21.0173" x2="50.6859" y2="23.241" gradientUnits="userSpaceOnUse">
<stop stop-color="white" stop-opacity="0.09"/>
<stop offset="1" stop-color="#7C96F8"/>
</linearGradient>
<linearGradient id="paint6_linear_2021_8718" x1="43.5329" y1="26.7632" x2="44.3211" y2="58.8952" gradientUnits="userSpaceOnUse">
<stop stop-color="#9EB1FD"/>
<stop offset="1" stop-color="#9EB1FD" stop-opacity="0"/>
</linearGradient>
<linearGradient id="paint7_linear_2021_8718" x1="0.36927" y1="-0.0183889" x2="1.47672" y2="2.14945" gradientUnits="userSpaceOnUse">
<stop stop-color="#B2C1DD"/>
<stop offset="1" stop-color="#2A394E"/>
</linearGradient>
<linearGradient id="paint8_linear_2021_8718" x1="0.36927" y1="-0.0183889" x2="1.47672" y2="2.14945" gradientUnits="userSpaceOnUse">
<stop stop-color="#B2C1DD"/>
<stop offset="1" stop-color="#2A394E"/>
</linearGradient>
<linearGradient id="paint9_linear_2021_8718" x1="0.36927" y1="-0.0183889" x2="1.47672" y2="2.14945" gradientUnits="userSpaceOnUse">
<stop stop-color="#B2C1DD"/>
<stop offset="1" stop-color="#2A394E"/>
</linearGradient>
<linearGradient id="paint10_linear_2021_8718" x1="0.36927" y1="-0.0183889" x2="1.47672" y2="2.14945" gradientUnits="userSpaceOnUse">
<stop stop-color="#B2C1DD"/>
<stop offset="1" stop-color="#2A394E"/>
</linearGradient>
</defs>
</svg>
