<svg width="81" height="57" viewBox="0 0 81 57" fill="none" xmlns="http://www.w3.org/2000/svg">
<path d="M32.4569 17.9488L11.3337 14.0722C10.7669 13.9682 10.3773 13.4182 10.5775 12.8779C11.5019 10.3843 13.8727 10.0923 15.3371 9.94064C15.3804 9.93616 15.4152 9.9064 15.4273 9.86456C15.9395 8.0883 18.2278 5.37629 21.6442 5.35728C25.9137 5.33352 28.2296 8.67148 28.7492 10.433C28.7601 10.47 28.7903 10.4973 28.8278 10.5062C32.6633 11.4161 33.8458 15.1452 33.49 17.3122C33.4119 17.7874 32.9305 18.0358 32.4569 17.9488Z" fill="white"/>
<path d="M79.666 13.761L57.2358 8.84138C56.6445 8.71169 56.2797 8.10124 56.5767 7.57376C58.058 4.94306 61.8172 3.73505 63.3305 3.70172C63.374 3.70076 63.4105 3.67488 63.427 3.63457C64.1259 1.92771 66.794 -0.305318 70.1934 0.0346394C74.4425 0.459572 76.2167 5.08861 76.5439 6.91796C76.5507 6.95589 76.578 6.98564 76.6144 6.99834C80.3443 8.30056 81.2636 11.3083 80.7064 13.2253C80.5796 13.6613 80.1095 13.8583 79.666 13.761Z" fill="white"/>
<path d="M70.9907 23.3827L65.4185 48.7552L27.5291 39.9092C27.7029 39.1887 32.2999 17.0478 32.5328 15.9607C32.764 14.8818 33.6925 14.5751 34.611 14.6789C45.7481 16.5365 67.9311 21.2568 69.3662 21.4842C70.8013 21.7116 71.0471 22.8446 70.9907 23.3827Z" fill="#4B69ED" stroke="white" stroke-width="0.628982"/>
<path d="M39.4495 34.2044L43.1468 2.83605C43.308 1.46877 44.6859 0.600788 45.9907 1.04463L65.2862 7.60833C66.2584 7.93903 66.8685 8.90524 66.7484 9.92395L62.9911 41.8011C62.8274 43.19 61.4113 44.058 60.0971 43.5748L40.8616 36.5023C39.9164 36.1548 39.3318 35.2034 39.4495 34.2044Z" fill="white" stroke="#9EB1FD" stroke-width="0.433715"/>
<path d="M38.8507 35.1803L41.6034 3.71137C41.7234 2.33978 43.0747 1.42987 44.3923 1.83343L63.8752 7.80077C64.8568 8.10143 65.4957 9.0484 65.4063 10.0703L62.6089 42.0496C62.487 43.4429 61.0975 44.354 59.7694 43.9114L40.3312 37.4336C39.376 37.1153 38.763 36.1824 38.8507 35.1803Z" fill="white" stroke="#9EB1FD" stroke-width="0.433715"/>
<path d="M38.1301 36.1314L40.0872 4.60056C40.1725 3.22633 41.5004 2.28181 42.8278 2.65121L62.4543 8.11327C63.4432 8.38848 64.1058 9.31862 64.0422 10.3424L62.0533 42.3847C61.9667 43.7807 60.6006 44.7273 59.2617 44.3192L39.667 38.3457C38.7041 38.0522 38.0677 37.1354 38.1301 36.1314Z" fill="white" stroke="#9EB1FD" stroke-width="0.433715"/>
<path d="M37.6525 37.3713L38.5429 5.78984C38.5817 4.41344 39.8769 3.42354 41.216 3.74685L61.0147 8.52714C62.0123 8.76801 62.7059 9.6747 62.677 10.7001L61.7722 42.7938C61.7328 44.192 60.3995 45.1853 59.0476 44.8237L39.2633 39.5312C38.2911 39.2711 37.6241 38.3768 37.6525 37.3713Z" fill="white" stroke="#9EB1FD" stroke-width="0.433715"/>
<path d="M37.1045 38.5162L37.0662 6.92089C37.0646 5.54389 38.33 4.51544 39.678 4.79834L59.6078 8.98113C60.6121 9.19189 61.332 10.0773 61.3332 11.1032L61.3722 43.211C61.3739 44.6098 60.0704 45.6428 58.7085 45.322L38.7781 40.6268C37.7987 40.396 37.1058 39.5222 37.1045 38.5162Z" fill="white" stroke="#9EB1FD" stroke-width="0.433715"/>
<path d="M47.6534 16.0259C45.9991 16.5082 44.4141 17.5407 43.8283 17.9966C43.3529 21.534 43.4555 28.6575 47.669 28.8533C51.8825 29.0491 53.9123 26.8753 54.6559 24.5219L49.1665 21.5924L47.6534 16.0259Z" fill="url(#paint0_linear_2229_3739)"/>
<path d="M52.5811 25.8321L54.606 24.5608C52.9478 29.0004 48.3118 29.1583 46.201 28.6824L52.5811 25.8321Z" fill="#F0B756"/>
<path d="M45.7479 17.0495C45.7486 17.0493 45.7491 17.0495 45.7491 17.0495C45.7491 17.0495 45.7497 17.0495 45.7502 17.0498C45.7507 17.0502 45.7512 17.0505 45.7516 17.0508C45.7519 17.0513 45.7522 17.0518 45.7524 17.0527L47.4221 22.7587C47.4374 22.8114 47.4728 22.8557 47.5204 22.8819L52.6924 25.7432C52.6932 25.7437 52.6935 25.7441 52.6939 25.7446C52.6942 25.7449 52.6945 25.7454 52.6947 25.7459C52.6949 25.7464 52.6949 25.7469 52.6949 25.7469C52.6949 25.7469 52.6947 25.7472 52.6945 25.7478C52.2404 26.5723 51.5371 27.2473 50.7617 27.7778C49.963 28.3241 49.0457 28.659 48.0911 28.753C47.1364 28.8469 46.1738 28.697 45.2883 28.3164C44.4027 27.9359 43.6216 27.3364 43.0141 26.5709C42.4067 25.8053 41.9918 24.8974 41.8062 23.9275C41.6207 22.9578 41.6702 21.9559 41.9506 21.0111C42.231 20.0663 42.7333 19.2076 43.4132 18.5111C44.0683 17.8398 44.8687 17.3391 45.7479 17.0495Z" fill="#F9BA4D" stroke="url(#paint1_linear_2229_3739)" stroke-width="0.362819"/>
<path d="M48.1669 14.9185L46.6938 15.8675L48.3341 21.2623L49.5542 20.886C50.9047 20.4361 51.6631 20.2308 53.3152 19.6799L54.3063 18.9479C53.5553 15.5362 49.8148 14.7945 48.1669 14.9185Z" fill="url(#paint2_linear_2229_3739)"/>
<path d="M50.4893 16.3462L50.4895 16.3462C51.2263 16.6651 52.8685 17.7033 53.2317 19.5971C53.2319 19.5979 53.2319 19.5988 53.2312 19.5999C53.2306 19.6013 53.2294 19.6021 53.2281 19.6026L48.2957 21.274C48.2921 21.2751 48.2882 21.2731 48.2871 21.2694L46.7681 15.9445C46.7674 15.9424 46.7678 15.9409 46.7684 15.9399C46.7688 15.9394 46.7689 15.9391 46.7691 15.9391C46.7691 15.9391 46.7692 15.9389 46.7699 15.9387C47.8788 15.6626 49.4473 15.8952 50.4893 16.3462Z" fill="#FE3A34"/>
<path d="M48.2871 21.2694C48.2882 21.2731 48.2921 21.2751 48.2957 21.274L53.2281 19.6026C53.2294 19.6021 53.2306 19.6013 53.2312 19.5999C53.2319 19.5988 53.2319 19.5979 53.2317 19.5971C52.8685 17.7033 51.2263 16.6651 50.4895 16.3462L50.4893 16.3462C49.4473 15.8952 47.8788 15.6626 46.7699 15.9387C46.7692 15.9389 46.7691 15.9391 46.7691 15.9391C46.7689 15.9391 46.7688 15.9394 46.7684 15.9399C46.7678 15.9409 46.7674 15.9424 46.7681 15.9445L48.2871 21.2694ZM48.2871 21.2694L48.1913 21.2974" stroke="url(#paint3_linear_2229_3739)" stroke-width="0.362819"/>
<path d="M49.719 21.9329L48.953 22.4803L53.9546 25.2364L54.9164 24.4981C55.5652 22.4404 55.1091 20.6291 54.9112 20.2066L49.719 21.9329Z" fill="url(#paint4_linear_2229_3739)"/>
<path d="M53.9323 25.1478C53.9281 25.1564 53.9166 25.1616 53.9053 25.1556L49.0091 22.5817C48.9918 22.5727 48.9939 22.5471 49.0124 22.5412L54.3553 20.8153C54.3679 20.8111 54.3794 20.819 54.3818 20.8297C54.7044 22.3473 54.4287 24.1139 53.9323 25.1478Z" fill="#6785F9" stroke="url(#paint5_linear_2229_3739)" stroke-width="0.302349"/>
<path d="M51.7024 10.1875L44.45 8.76696C44.4125 8.7596 44.378 8.7901 44.378 8.83051C44.378 8.86192 44.3982 8.88851 44.4274 8.89393C46.858 9.34544 51.6352 10.3042 51.6863 10.3102C51.7505 10.3177 51.7597 10.2656 51.7597 10.2603C51.7597 10.2246 51.7356 10.194 51.7024 10.1875Z" fill="#CBD5FF" stroke="#CBD5FF" stroke-width="0.433715"/>
<path d="M57.3347 12.8504L44.5074 10.314C44.441 10.3008 44.3799 10.3553 44.38 10.4274C44.3801 10.4835 44.4157 10.5311 44.4674 10.5408C48.7663 11.3468 57.2158 13.0587 57.3061 13.0694C57.4196 13.0829 57.436 12.9898 57.436 12.9804C57.4359 12.9166 57.3933 12.862 57.3347 12.8504Z" fill="#CBD5FF" stroke="#CBD5FF" stroke-width="0.433715"/>
<path d="M57.3361 14.2303L44.5089 11.6938C44.4425 11.6807 44.3814 11.7352 44.3815 11.8073C44.3816 11.8634 44.4172 11.911 44.4688 11.9206C48.7678 12.7267 57.2173 14.4386 57.3075 14.4493C57.4211 14.4628 57.4374 14.3697 57.4374 14.3602C57.4373 14.2965 57.3948 14.2419 57.3361 14.2303Z" fill="#CBD5FF" stroke="#CBD5FF" stroke-width="0.433715"/>
<ellipse cx="1.69546" cy="1.95894" rx="1.69546" ry="1.95894" transform="matrix(1 -0.000109301 0.00121276 0.999999 39.9827 8.04126)" fill="#CBD5FF"/>
<path d="M48.3501 25.2853L48.2054 25.2458C44.8178 24.3215 39.6807 23.151 35.1747 22.1527C33.7112 21.8285 32.3126 21.5221 31.0625 21.2482C28.4742 20.6812 26.5225 20.2536 25.9503 20.0962C25.5648 19.9902 25.3025 19.9936 25.1273 20.0395C24.9595 20.0835 24.8521 20.1713 24.7766 20.282C24.6116 20.5242 24.5861 20.8987 24.6101 21.1936L27.3786 39.734L65.2238 48.5702C64.8799 45.8606 64.2819 40.9642 63.7627 36.4189C63.488 34.0145 63.2353 31.7071 63.0539 29.8731C62.8737 28.0522 62.7612 26.6728 62.7722 26.14M48.3501 25.2853L52.7265 22.6946L52.6575 23.0015C53.4516 23.18 58.6492 24.1678 61.1406 24.6379L61.1406 24.6379L61.1471 24.639C61.4279 24.6859 61.8541 24.8252 62.1999 25.0804C62.5386 25.3303 62.7776 25.6712 62.7722 26.14M48.3501 25.2853L48.4718 25.1977L51.0756 23.3254M48.3501 25.2853L51.0769 23.3245M62.7722 26.14C62.7722 26.1395 62.7722 26.1389 62.7722 26.1383L63.0866 26.145L62.7722 26.1411C62.7722 26.1407 62.7722 26.1404 62.7722 26.14ZM51.0769 23.3245L51.0786 23.3233L50.895 23.0679L51.0756 23.3254M51.0769 23.3245C51.0765 23.3248 51.0761 23.3251 51.0756 23.3254M51.0769 23.3245L51.0756 23.3254M65.5505 48.6464C65.5651 48.7617 65.5793 48.8727 65.5929 48.9793L65.2661 48.903L65.5505 48.6464Z" fill="url(#paint6_linear_2229_3739)" stroke="white" stroke-width="0.628982"/>
<path d="M54.4509 41.4632L50.1306 40.8655V51.6973L54.4509 52.4138V41.4632Z" fill="#21C7DB" stroke="white" stroke-width="0.419321" stroke-linecap="round" stroke-linejoin="round"/>
<path d="M57.3676 39.849L53.1068 39.2512L50.1306 40.7936L54.4515 41.3914L57.3676 39.849Z" fill="#21C7DB" stroke="white" stroke-width="0.419321" stroke-linecap="round" stroke-linejoin="round"/>
<path d="M57.367 39.8494L54.4514 41.3918V52.419L57.367 50.7347V39.8494Z" fill="#069DAF" stroke="white" stroke-width="0.419321" stroke-linecap="round" stroke-linejoin="round"/>
<path d="M64.2998 36.9717L59.9795 36.3816V53.532L64.2998 54.2507V36.9717Z" fill="#21C7DB" stroke="white" stroke-width="0.419321" stroke-linecap="round" stroke-linejoin="round"/>
<path d="M67.2133 35.5024L62.9557 34.9333L59.9795 36.4022L64.3004 36.9716L67.2133 35.5024Z" fill="#21C7DB" stroke="white" stroke-width="0.419321" stroke-linecap="round" stroke-linejoin="round"/>
<path d="M67.2132 35.5024L64.3008 36.9713V54.2506L67.2132 52.7197V35.5024Z" fill="#069DAF" stroke="white" stroke-width="0.419321" stroke-linecap="round" stroke-linejoin="round"/>
<path d="M74.1465 32.7133L69.8262 31.9182V55.2987L74.1465 56.0002V32.7133Z" fill="#21C7DB" stroke="white" stroke-width="0.419321" stroke-linecap="round" stroke-linejoin="round"/>
<path d="M77.06 30.7329L72.8024 29.9658L69.8262 31.9455L74.1471 32.7126L77.06 30.7329Z" fill="#21C7DB" stroke="white" stroke-width="0.419321" stroke-linecap="round" stroke-linejoin="round"/>
<path d="M77.0595 30.7332L74.1467 32.7129V55.9998L77.0595 53.9367V30.7332Z" fill="#069DAF" stroke="white" stroke-width="0.419321" stroke-linecap="round" stroke-linejoin="round"/>
<path d="M1.3117 25.6448L1.80447 26.0812L1.80942 26.5183L1.81641 27.1351L1.14643 26.564L1.13329 25.404C2.7999 25.0595 5.18575 24.5308 7.52657 23.9407C9.73803 23.3832 11.9466 22.7618 13.4672 22.1813L13.4703 22.4514C11.4656 23.1435 6.9618 24.5124 2.53441 25.3997L1.3117 25.6448Z" fill="#C53F3F" stroke="#C53F3F" stroke-width="1.23954"/>
<path d="M14.1333 22.8666L14.3682 22.2181L15.6447 22.9568L15.6554 23.9111L15.6483 23.9111L14.1333 22.8666Z" fill="#C53F3F" stroke="#C53F3F" stroke-width="1.23954"/>
<mask id="path-33-inside-1_2229_3739" fill="white">
<path d="M2.49919 26.4998L3.13061 26.4924C3.19906 26.4916 3.25518 26.5465 3.25596 26.6149L3.27566 28.3531C3.27643 28.4215 3.22157 28.4776 3.15311 28.4784L2.5217 28.4858C2.45324 28.4866 2.39712 28.4318 2.39634 28.3633L2.37665 26.6252C2.37587 26.5567 2.43074 26.5006 2.49919 26.4998Z"/>
</mask>
<path d="M3.11656 25.253L2.48514 25.2603L2.51324 27.7392L3.14465 27.7319L3.11656 25.253ZM1.13719 26.6396L1.15689 28.3778L3.6358 28.3489L3.61611 26.6107L1.13719 26.6396ZM2.53574 29.7253L3.16716 29.7179L3.13907 27.239L2.50765 27.2463L2.53574 29.7253ZM4.51511 28.3386L4.49542 26.6005L2.0165 26.6294L2.0362 28.3675L4.51511 28.3386ZM3.16716 29.7179C3.92015 29.7091 4.52365 29.0916 4.51511 28.3386L2.0362 28.3675C2.02922 27.7514 2.52299 27.2462 3.13907 27.239L3.16716 29.7179ZM1.15689 28.3778C1.16542 29.1307 1.78275 29.734 2.53574 29.7253L2.50765 27.2463C3.12373 27.2392 3.62882 27.7328 3.6358 28.3489L1.15689 28.3778ZM2.48514 25.2603C1.73216 25.2691 1.12866 25.8866 1.13719 26.6396L3.61611 26.6107C3.62309 27.2268 3.12932 27.7321 2.51324 27.7392L2.48514 25.2603ZM3.14465 27.7319C2.52857 27.7391 2.02348 27.2455 2.0165 26.6294L4.49542 26.6005C4.48689 25.8475 3.86955 25.2442 3.11656 25.253L3.14465 27.7319Z" fill="#A23232" mask="url(#path-33-inside-1_2229_3739)"/>
<mask id="path-35-inside-2_2229_3739" fill="white">
<path d="M15.5429 22.5764L16.1743 22.5691C16.2428 22.5683 16.2989 22.6231 16.2997 22.6916L16.3194 24.4297C16.3201 24.4982 16.2653 24.5543 16.1968 24.5551L15.5654 24.5625C15.4969 24.5633 15.4408 24.5084 15.44 24.44L15.4203 22.7018C15.4196 22.6334 15.4744 22.5772 15.5429 22.5764Z"/>
</mask>
<path d="M16.1603 21.3296L15.5288 21.337L15.5569 23.8159L16.1884 23.8085L16.1603 21.3296ZM14.1809 22.7163L14.2006 24.4544L16.6795 24.4255L16.6598 22.6874L14.1809 22.7163ZM15.5794 25.8019L16.2109 25.7946L16.1828 23.3156L15.5514 23.323L15.5794 25.8019ZM17.5588 24.4153L17.5391 22.6771L15.0602 22.706L15.0799 24.4442L17.5588 24.4153ZM16.2109 25.7946C16.9638 25.7858 17.5673 25.1683 17.5588 24.4153L15.0799 24.4442C15.0729 23.8281 15.5667 23.3228 16.1828 23.3156L16.2109 25.7946ZM14.2006 24.4544C14.2091 25.2074 14.8265 25.8107 15.5794 25.8019L15.5514 23.323C16.1674 23.3158 16.6725 23.8094 16.6795 24.4255L14.2006 24.4544ZM15.5288 21.337C14.7759 21.3458 14.1724 21.9633 14.1809 22.7163L16.6598 22.6874C16.6668 23.3035 16.173 23.8087 15.5569 23.8159L15.5288 21.337ZM16.1884 23.8085C15.5723 23.8157 15.0672 23.3221 15.0602 22.706L17.5391 22.6771C17.5306 21.9241 16.9133 21.3208 16.1603 21.3296L16.1884 23.8085Z" fill="#A23232" mask="url(#path-35-inside-2_2229_3739)"/>
<ellipse cx="1.50285" cy="1.63254" rx="1.50285" ry="1.63254" transform="matrix(0.996971 -0.0777766 0.0774509 0.996996 10.4097 48.436)" fill="#425061"/>
<ellipse cx="1.26533" cy="1.63254" rx="1.26533" ry="1.63254" transform="matrix(0.996971 -0.0777766 0.0774509 0.996996 10.4097 48.436)" fill="#5D687C"/>
<g filter="url(#filter0_i_2229_3739)">
<ellipse cx="0.875896" cy="1.13009" rx="0.875896" ry="1.13009" transform="matrix(0.996971 -0.0777766 0.0774509 0.996996 10.7627 48.9126)" fill="url(#paint7_linear_2229_3739)"/>
</g>
<ellipse cx="1.50285" cy="1.63254" rx="1.50285" ry="1.63254" transform="matrix(0.996971 -0.0777766 0.0774509 0.996996 23.8679 50.1768)" fill="#425061"/>
<ellipse cx="1.26533" cy="1.63254" rx="1.26533" ry="1.63254" transform="matrix(0.996971 -0.0777766 0.0774509 0.996996 23.8679 50.1768)" fill="#5D687C"/>
<g filter="url(#filter1_i_2229_3739)">
<ellipse cx="0.875896" cy="1.13009" rx="0.875896" ry="1.13009" transform="matrix(0.996971 -0.0777766 0.0774509 0.996996 24.2207 50.6528)" fill="url(#paint8_linear_2229_3739)"/>
</g>
<ellipse cx="1.50285" cy="1.63254" rx="1.50285" ry="1.63254" transform="matrix(0.996971 -0.0777766 0.0774509 0.996996 27.4265 46.4026)" fill="#425061"/>
<ellipse cx="1.26533" cy="1.63254" rx="1.26533" ry="1.63254" transform="matrix(0.996971 -0.0777766 0.0774509 0.996996 27.4265 46.4026)" fill="#5D687C"/>
<g filter="url(#filter2_i_2229_3739)">
<ellipse cx="0.875896" cy="1.13009" rx="0.875896" ry="1.13009" transform="matrix(0.996971 -0.0777766 0.0774509 0.996996 27.8538 46.8733)" fill="url(#paint9_linear_2229_3739)"/>
</g>
<ellipse cx="1.50285" cy="1.63254" rx="1.50285" ry="1.63254" transform="matrix(0.996971 -0.0777766 0.0774509 0.996996 18.5566 44.3997)" fill="#425061"/>
<ellipse cx="1.26533" cy="1.63254" rx="1.26533" ry="1.63254" transform="matrix(0.996971 -0.0777766 0.0774509 0.996996 18.5566 44.3997)" fill="#5D687C"/>
<g filter="url(#filter3_i_2229_3739)">
<ellipse cx="0.875896" cy="1.13009" rx="0.875896" ry="1.13009" transform="matrix(0.996971 -0.0777766 0.0774509 0.996996 18.9092 44.8755)" fill="url(#paint10_linear_2229_3739)"/>
</g>
<path d="M9.0118 46.5474L12.9213 42.6816C12.9319 42.6712 12.9442 42.6628 12.9577 42.6567L19.4406 39.7416C19.5487 39.693 19.6568 39.8092 19.6005 39.9135L17.7832 43.2849C17.7441 43.3575 17.7854 43.4473 17.866 43.4648L32.8515 46.7184C32.9555 46.741 32.9845 46.8755 32.8991 46.939L29.3687 49.5636C29.3425 49.583 29.3098 49.5914 29.2775 49.5869L9.08171 46.7583C8.98009 46.7441 8.93882 46.6196 9.0118 46.5474Z" stroke="#425061" stroke-width="1.0483"/>
<path d="M17.4247 30.9046L6.28704 34.4848C6.16479 34.5241 6.17554 34.7005 6.30165 34.7245L27.905 38.8489C27.9299 38.8536 27.9556 38.8507 27.9787 38.8404L35.7968 35.3587C35.9055 35.3103 35.8903 35.1515 35.7744 35.1247L17.4906 30.9019C17.4688 30.8968 17.446 30.8978 17.4247 30.9046Z" stroke="#425061" stroke-width="0.419321"/>
<path d="M17.7343 35.0759L7.77226 38.3701C7.64818 38.4112 7.66378 38.5914 7.79306 38.6105L27.5453 41.5168C27.5643 41.5197 27.5837 41.518 27.602 41.512L34.9868 39.0838C35.1067 39.0444 35.098 38.872 34.9748 38.8449L17.7999 35.0725C17.7781 35.0678 17.7555 35.0689 17.7343 35.0759Z" stroke="#425061" stroke-width="0.419321"/>
<path d="M16.0251 22.9629C15.9215 22.9113 15.7956 22.9536 15.744 23.0572C15.6923 23.1609 15.7345 23.2868 15.8382 23.3383L16.0251 22.9629ZM15.8382 23.3383C16.4555 23.6456 17.0683 24.0794 17.5301 24.717C17.9902 25.3522 18.3095 26.2019 18.3226 27.3576L18.7419 27.3527C18.7279 26.1167 18.3843 25.1814 17.8697 24.4709C17.3568 23.7628 16.6828 23.2903 16.0251 22.9629L15.8382 23.3383Z" fill="#425061"/>
<path d="M16.0265 23.9051C15.9407 23.8274 15.8081 23.834 15.7304 23.9198C15.6526 24.0057 15.6592 24.1383 15.745 24.216L16.0265 23.9051ZM15.745 24.216C16.8326 25.201 16.8711 26.5477 16.8774 27.1016L17.2967 27.0967C17.2903 26.5354 17.2575 25.02 16.0265 23.9051L15.745 24.216Z" fill="#425061"/>
<path d="M3.04671 27.8202C2.95109 27.755 2.82063 27.7796 2.75533 27.8752C2.69003 27.9709 2.7146 28.1013 2.81022 28.1666L3.04671 27.8202ZM2.81022 28.1666C3.13897 28.391 3.52924 28.8444 3.81654 29.3866C4.10426 29.9296 4.26945 30.5252 4.19384 31.0305L4.60854 31.0924C4.70275 30.4628 4.49596 29.7731 4.18707 29.1902C3.87775 28.6064 3.44674 28.0933 3.04671 27.8202L2.81022 28.1666Z" fill="#425061"/>
<path d="M27.2875 35.3918L4.66424 31.1758C4.46482 31.1387 4.16501 31.0405 4.28826 30.8794C4.40701 30.7241 4.77362 30.5353 5.36816 30.3652C8.62067 29.4352 15.3258 27.5107 16.1262 27.2535C16.6673 27.0796 17.1014 27.0863 17.3824 27.1402C17.5845 27.179 17.7725 27.2607 17.9715 27.3128C23.6726 28.805 34.7494 31.6903 35.7104 31.8852C36.3907 32.0232 36.4323 32.3101 36.296 32.5487C36.1762 32.7584 35.9401 32.8616 35.7149 32.9489C33.6925 33.7326 30.0702 35.133 29.4306 35.3668C28.7535 35.6143 27.7197 35.4866 27.2875 35.3918Z" stroke="#425061" stroke-width="0.419321"/>
<path d="M28.2811 35.597L27.2623 42.564C27.1503 43.33 27.92 43.923 28.6321 43.6194L33.4963 41.5456C34.2547 41.2223 34.8029 40.5432 34.959 39.7337L36.3914 32.3038" stroke="#425061" stroke-width="0.419321"/>
<path d="M22.2573 34.4856L22.2573 42.412C22.2573 43.1274 22.9918 43.6072 23.6471 43.3197L29.193 40.8865C30.0121 40.5272 30.5743 39.7546 30.6642 38.8647L31.4624 30.9608" stroke="#425061" stroke-width="0.419321"/>
<path d="M16.1324 33.3551L17.6789 41.9791C17.7933 42.6171 18.4791 42.9754 19.0683 42.705L24.4686 40.2267C25.2863 39.8515 25.8367 39.0628 25.9068 38.166L26.574 29.6307" stroke="#425061" stroke-width="0.419321"/>
<path d="M10.2868 32.1502L12.9635 41.4704C13.131 42.0536 13.7784 42.3508 14.33 42.0977L19.8196 39.5784C20.6511 39.1968 21.205 38.3885 21.2607 37.4755L21.8187 28.3341" stroke="#425061" stroke-width="0.419321"/>
<path d="M4.28884 30.977L8.58342 40.9885C8.79492 41.4816 9.36029 41.7169 9.85928 41.5195L16.4179 38.9249C17.4452 38.5185 18.0799 37.4815 17.9744 36.3819L17.0789 27.055" stroke="#425061" stroke-width="0.419321"/>
<path d="M2.98748 26.8547C2.87824 26.8163 2.75856 26.8738 2.72017 26.983C2.68178 27.0923 2.73921 27.212 2.84846 27.2503L2.98748 26.8547ZM2.84846 27.2503C3.14026 27.3528 3.79613 27.7236 4.39335 28.3971C4.98625 29.0657 5.51378 30.0239 5.57342 31.3023L5.99229 31.2826C5.92739 29.8914 5.35118 28.8451 4.70712 28.1188C4.06739 27.3974 3.35308 26.983 2.98748 26.8547L2.84846 27.2503Z" fill="#425061"/>
<defs>
<filter id="filter0_i_2229_3739" x="10.8457" y="48.8423" width="1.75537" height="6.45078" filterUnits="userSpaceOnUse" color-interpolation-filters="sRGB">
<feFlood flood-opacity="0" result="BackgroundImageFix"/>
<feBlend mode="normal" in="SourceGraphic" in2="BackgroundImageFix" result="shape"/>
<feColorMatrix in="SourceAlpha" type="matrix" values="0 0 0 0 0 0 0 0 0 0 0 0 0 0 0 0 0 0 127 0" result="hardAlpha"/>
<feOffset dy="4.19321"/>
<feGaussianBlur stdDeviation="2.09661"/>
<feComposite in2="hardAlpha" operator="arithmetic" k2="-1" k3="1"/>
<feColorMatrix type="matrix" values="0 0 0 0 0 0 0 0 0 0 0 0 0 0 0 0 0 0 0.25 0"/>
<feBlend mode="normal" in2="shape" result="effect1_innerShadow_2229_3739"/>
</filter>
<filter id="filter1_i_2229_3739" x="24.3037" y="50.5825" width="1.75537" height="6.45078" filterUnits="userSpaceOnUse" color-interpolation-filters="sRGB">
<feFlood flood-opacity="0" result="BackgroundImageFix"/>
<feBlend mode="normal" in="SourceGraphic" in2="BackgroundImageFix" result="shape"/>
<feColorMatrix in="SourceAlpha" type="matrix" values="0 0 0 0 0 0 0 0 0 0 0 0 0 0 0 0 0 0 127 0" result="hardAlpha"/>
<feOffset dy="4.19321"/>
<feGaussianBlur stdDeviation="2.09661"/>
<feComposite in2="hardAlpha" operator="arithmetic" k2="-1" k3="1"/>
<feColorMatrix type="matrix" values="0 0 0 0 0 0 0 0 0 0 0 0 0 0 0 0 0 0 0.25 0"/>
<feBlend mode="normal" in2="shape" result="effect1_innerShadow_2229_3739"/>
</filter>
<filter id="filter2_i_2229_3739" x="27.9368" y="46.803" width="1.75537" height="6.45078" filterUnits="userSpaceOnUse" color-interpolation-filters="sRGB">
<feFlood flood-opacity="0" result="BackgroundImageFix"/>
<feBlend mode="normal" in="SourceGraphic" in2="BackgroundImageFix" result="shape"/>
<feColorMatrix in="SourceAlpha" type="matrix" values="0 0 0 0 0 0 0 0 0 0 0 0 0 0 0 0 0 0 127 0" result="hardAlpha"/>
<feOffset dy="4.19321"/>
<feGaussianBlur stdDeviation="2.09661"/>
<feComposite in2="hardAlpha" operator="arithmetic" k2="-1" k3="1"/>
<feColorMatrix type="matrix" values="0 0 0 0 0 0 0 0 0 0 0 0 0 0 0 0 0 0 0.25 0"/>
<feBlend mode="normal" in2="shape" result="effect1_innerShadow_2229_3739"/>
</filter>
<filter id="filter3_i_2229_3739" x="18.9922" y="44.8052" width="1.75537" height="6.45078" filterUnits="userSpaceOnUse" color-interpolation-filters="sRGB">
<feFlood flood-opacity="0" result="BackgroundImageFix"/>
<feBlend mode="normal" in="SourceGraphic" in2="BackgroundImageFix" result="shape"/>
<feColorMatrix in="SourceAlpha" type="matrix" values="0 0 0 0 0 0 0 0 0 0 0 0 0 0 0 0 0 0 127 0" result="hardAlpha"/>
<feOffset dy="4.19321"/>
<feGaussianBlur stdDeviation="2.09661"/>
<feComposite in2="hardAlpha" operator="arithmetic" k2="-1" k3="1"/>
<feColorMatrix type="matrix" values="0 0 0 0 0 0 0 0 0 0 0 0 0 0 0 0 0 0 0.25 0"/>
<feBlend mode="normal" in2="shape" result="effect1_innerShadow_2229_3739"/>
</filter>
<linearGradient id="paint0_linear_2229_3739" x1="49.1372" y1="16.0258" x2="53.1447" y2="25.3688" gradientUnits="userSpaceOnUse">
<stop stop-color="#FFD68C"/>
<stop offset="1" stop-color="#F0B756"/>
</linearGradient>
<linearGradient id="paint1_linear_2229_3739" x1="50.5685" y1="28.2277" x2="44.8815" y2="17.7279" gradientUnits="userSpaceOnUse">
<stop stop-color="#F3C16A" stop-opacity="0.96"/>
<stop offset="1" stop-color="white" stop-opacity="0.49"/>
</linearGradient>
<linearGradient id="paint2_linear_2229_3739" x1="52.2249" y1="17.2518" x2="43.9804" y2="15.6016" gradientUnits="userSpaceOnUse">
<stop stop-color="#F55A5B"/>
<stop offset="1" stop-color="#E8524E" stop-opacity="0"/>
</linearGradient>
<linearGradient id="paint3_linear_2229_3739" x1="48.1591" y1="20.6389" x2="49.2323" y2="14.1952" gradientUnits="userSpaceOnUse">
<stop stop-color="#F55A5B"/>
<stop offset="1" stop-color="white" stop-opacity="0"/>
</linearGradient>
<linearGradient id="paint4_linear_2229_3739" x1="53.6135" y1="21.9334" x2="56.5775" y2="19.8729" gradientUnits="userSpaceOnUse">
<stop stop-color="#597AFA"/>
<stop offset="1" stop-color="white"/>
</linearGradient>
<linearGradient id="paint5_linear_2229_3739" x1="55.2047" y1="19.0369" x2="52.4985" y2="21.3865" gradientUnits="userSpaceOnUse">
<stop stop-color="white" stop-opacity="0.09"/>
<stop offset="1" stop-color="#7C96F8"/>
</linearGradient>
<linearGradient id="paint6_linear_2229_3739" x1="44.9404" y1="25.1079" x2="45.7732" y2="59.0586" gradientUnits="userSpaceOnUse">
<stop stop-color="#9EB1FD"/>
<stop offset="1" stop-color="#9EB1FD" stop-opacity="0"/>
</linearGradient>
<linearGradient id="paint7_linear_2229_3739" x1="0.39017" y1="-0.0194297" x2="1.5603" y2="2.27111" gradientUnits="userSpaceOnUse">
<stop stop-color="#B2C1DD"/>
<stop offset="1" stop-color="#2A394E"/>
</linearGradient>
<linearGradient id="paint8_linear_2229_3739" x1="0.39017" y1="-0.0194297" x2="1.5603" y2="2.27111" gradientUnits="userSpaceOnUse">
<stop stop-color="#B2C1DD"/>
<stop offset="1" stop-color="#2A394E"/>
</linearGradient>
<linearGradient id="paint9_linear_2229_3739" x1="0.39017" y1="-0.0194297" x2="1.5603" y2="2.27111" gradientUnits="userSpaceOnUse">
<stop stop-color="#B2C1DD"/>
<stop offset="1" stop-color="#2A394E"/>
</linearGradient>
<linearGradient id="paint10_linear_2229_3739" x1="0.39017" y1="-0.0194297" x2="1.5603" y2="2.27111" gradientUnits="userSpaceOnUse">
<stop stop-color="#B2C1DD"/>
<stop offset="1" stop-color="#2A394E"/>
</linearGradient>
</defs>
</svg>
