<svg width="23" height="20" viewBox="0 0 23 20" fill="none" xmlns="http://www.w3.org/2000/svg"><path d="M0 .937A.932.932 0 0 1 .937 0h1.79A2.181 2.181 0 0 1 4.71 1.25H20.75a1.562 1.562 0 0 1 1.487 1.983l-1.601 5.949a2.816 2.816 0 0 1-2.717 2.082H6.693l.213 1.116a.933.933 0 0 0 .918.758h11.264a.943.943 0 0 1 0 1.88H7.798a2.815 2.815 0 0 1-2.76-2.286L3.023 2.127a.312.312 0 0 0-.297-.253H.937A.932.932 0 0 1 0 .937Zm5.003 17.189a1.874 1.874 0 1 1 3.748 0 1.874 1.874 0 0 1-3.748 0Zm13.123-1.874a1.874 1.874 0 1 1 0 3.748 1.874 1.874 0 0 1 0-3.748Z" fill="#3F5BD9"/></svg>