<svg width="25" height="24" viewBox="0 0 25 24" fill="none" xmlns="http://www.w3.org/2000/svg">
<path d="M1.00001 2.93707C0.998631 2.68807 1.09702 2.44894 1.27305 2.27289C1.44909 2.09686 1.68806 1.99865 1.93706 2.00003H3.72696C4.14214 1.99795 4.54918 2.11432 4.90057 2.33566C5.25177 2.55699 5.53275 2.87394 5.71 3.24937H21.7489C22.2348 3.25439 22.6904 3.4854 22.9819 3.87393C23.2733 4.26265 23.3674 4.76481 23.2363 5.23253L21.6349 11.182C21.4737 11.7794 21.1201 12.307 20.629 12.6834C20.1381 13.0597 19.5367 13.2639 18.918 13.2643H7.69317L7.90638 14.3798C7.94684 14.5931 8.06062 14.7861 8.22818 14.9246C8.39556 15.0631 8.60635 15.1387 8.82353 15.1384H20.0877C20.4073 15.1617 20.693 15.3457 20.8465 15.6268C20.9999 15.908 20.9999 16.2478 20.8465 16.5291C20.693 16.8103 20.4073 16.9943 20.0877 17.0174H8.79874C8.1446 17.0166 7.51118 16.7878 7.00729 16.3707C6.5034 15.9538 6.16033 15.3742 6.03722 14.7319L4.02426 4.12683C3.99642 3.98331 3.87295 3.87818 3.72684 3.87403H1.93694C1.68793 3.87524 1.44898 3.77702 1.27293 3.60099C1.0969 3.42496 0.998633 3.1859 1.00001 2.93707ZM6.00265 20.1259C6.00265 19.6289 6.20012 19.1522 6.55147 18.8008C6.90301 18.4493 7.37975 18.2518 7.87674 18.2518C8.37373 18.2518 8.85044 18.4493 9.20201 18.8008C9.55338 19.1522 9.75084 19.6289 9.75084 20.1259C9.75084 20.623 9.55336 21.0998 9.20201 21.4512C8.85047 21.8027 8.37373 22 7.87674 22C7.37975 22 6.90304 21.8027 6.55147 21.4512C6.2001 21.0998 6.00265 20.6231 6.00265 20.1259ZM19.1261 18.2518C19.7956 18.2518 20.4143 18.6091 20.7491 19.1889C21.0839 19.7689 21.0839 20.4831 20.7491 21.063C20.4143 21.6429 19.7956 22 19.1261 22C18.4565 22 17.8378 21.6429 17.5031 21.063C17.1683 20.4831 17.1683 19.7689 17.5031 19.1889C17.8378 18.6091 18.4565 18.2518 19.1261 18.2518Z" fill="#3F5BD9"/>
<path fill-rule="evenodd" clip-rule="evenodd" d="M5.66921 4.74937L7.00073 11.7643H18.9171C19.2061 11.7641 19.4871 11.6687 19.7164 11.493M6.03722 14.7319L4.02426 4.12683C3.99642 3.98331 3.87295 3.87818 3.72684 3.87403H1.93694C1.68793 3.87524 1.44898 3.77702 1.27293 3.60099C1.0969 3.42496 0.998633 3.1859 1.00001 2.93707C0.998631 2.68807 1.09702 2.44894 1.27305 2.27289C1.44909 2.09686 1.68806 1.99865 1.93706 2.00003H3.72696C4.14214 1.99795 4.54918 2.11432 4.90057 2.33566C5.25177 2.55699 5.53275 2.87394 5.71 3.24937H21.7489C22.2348 3.25439 22.6904 3.4854 22.9819 3.87393C23.2733 4.26265 23.3674 4.76481 23.2363 5.23253L21.6349 11.182C21.4737 11.7794 21.1201 12.307 20.629 12.6834C20.1381 13.0597 19.5367 13.2639 18.918 13.2643H7.69317L7.90638 14.3798C7.93296 14.52 7.9912 14.6514 8.07555 14.7643C8.11958 14.8232 8.17071 14.8771 8.22818 14.9246C8.39556 15.0631 8.60635 15.1387 8.82353 15.1384H20.0877C20.4073 15.1617 20.693 15.3457 20.8465 15.6268C20.9999 15.908 20.9999 16.2478 20.8465 16.5291C20.7316 16.7396 20.5427 16.8956 20.3209 16.9704C20.2464 16.9956 20.1681 17.0116 20.0877 17.0174H8.79874C8.48246 17.017 8.17103 16.9633 7.87674 16.8608C7.79253 16.8315 7.70972 16.7982 7.62861 16.761C7.4069 16.6592 7.19784 16.5285 7.00729 16.3707C6.5034 15.9538 6.16033 15.3742 6.03722 14.7319ZM7.45194 18.3006C7.11372 18.3793 6.80105 18.5513 6.55147 18.8008C6.20012 19.1522 6.00265 19.6289 6.00265 20.1259C6.00265 20.6231 6.2001 21.0998 6.55147 21.4512C6.90304 21.8027 7.37975 22 7.87674 22C8.37373 22 8.85047 21.8027 9.20201 21.4512C9.55336 21.0998 9.75084 20.623 9.75084 20.1259C9.75084 19.6289 9.55338 19.1522 9.20201 18.8008C9.09201 18.6908 8.96976 18.5959 8.83847 18.5174C8.82532 18.5096 8.81207 18.5019 8.79874 18.4943C8.79809 18.494 8.79744 18.4936 8.79679 18.4932C8.51836 18.3364 8.20189 18.2518 7.87674 18.2518C7.73259 18.2518 7.59013 18.2684 7.45194 18.3006ZM20.7491 21.063C21.0839 20.4832 21.0839 19.7689 20.7491 19.1889C20.5867 18.9075 20.3574 18.6786 20.0878 18.5174C20.0878 18.5174 20.0879 18.5175 20.0878 18.5174C19.8019 18.3465 19.4707 18.2518 19.1261 18.2518C18.7814 18.2518 18.4503 18.3465 18.1643 18.5174C17.8948 18.6786 17.6655 18.9075 17.5031 19.1889C17.1683 19.7689 17.1683 20.4832 17.5031 21.063C17.8378 21.6429 18.4565 22 19.1261 22C19.7956 22 20.4143 21.6429 20.7491 21.063ZM18.8021 19.9389C18.7352 20.0549 18.7354 20.1974 18.8021 20.3129C18.8688 20.4285 18.9923 20.5 19.1261 20.5C19.2599 20.5 19.3832 20.4287 19.45 20.3131C19.5167 20.1975 19.5169 20.0549 19.4501 19.9389M18.8021 19.9389C18.869 19.8232 18.9926 19.7518 19.1261 19.7518C19.2596 19.7518 19.3832 19.8232 19.4501 19.9389M8.14141 19.8615C8.07105 19.7912 7.97581 19.7518 7.87674 19.7518C7.77765 19.7518 7.68246 19.7912 7.6122 19.8614C7.61218 19.8614 7.61222 19.8614 7.6122 19.8614M7.6122 19.8614C7.54213 19.9315 7.50265 20.0268 7.50265 20.1259C7.50265 20.2254 7.54215 20.3205 7.61207 20.3905C7.61209 20.3905 7.61205 20.3904 7.61207 20.3905M7.61207 20.3905C7.68218 20.4605 7.77736 20.5 7.87674 20.5C7.97619 20.5 8.07128 20.4606 8.14129 20.3906C8.21132 20.3205 8.25083 20.2253 8.25083 20.1259C8.25083 20.0267 8.21139 19.9316 8.14141 19.8615M20.1867 10.7913C20.1867 10.7913 20.1866 10.7914 20.1867 10.7913L21.7899 4.83521L21.7919 4.82778C21.7971 4.8094 21.7934 4.7893 21.7817 4.77359C21.7704 4.7586 21.7538 4.75031 21.7359 4.74937H5.66921M20.1867 10.7913C20.1114 11.0701 19.9462 11.3168 19.7164 11.493Z" fill="#3F5BD9"/>
</svg>
