<svg width="23" height="20" viewBox="0 0 23 20" fill="none" xmlns="http://www.w3.org/2000/svg">
    <path d="M1.43923e-05 0.937074C-0.00136896 0.688072 0.0970214 0.448942 0.273054 0.272893C0.449087 0.0968612 0.688059 -0.00135386 0.937062 2.72723e-05H2.72696C3.14214 -0.00204774 3.54918 0.114324 3.90057 0.335659C4.25177 0.556994 4.53275 0.873945 4.71 1.24937H20.7489C21.2348 1.25439 21.6904 1.4854 21.9819 1.87393C22.2733 2.26265 22.3674 2.76481 22.2363 3.23253L20.6349 9.182C20.4737 9.77943 20.1201 10.307 19.629 10.6834C19.1381 11.0597 18.5367 11.2639 17.918 11.2643H6.69317L6.90638 12.3798C6.94684 12.5931 7.06062 12.7861 7.22818 12.9246C7.39556 13.0631 7.60635 13.1387 7.82353 13.1384H19.0877C19.4073 13.1617 19.693 13.3457 19.8465 13.6268C19.9999 13.908 19.9999 14.2478 19.8465 14.5291C19.693 14.8103 19.4073 14.9943 19.0877 15.0174H7.79874C7.1446 15.0166 6.51118 14.7878 6.00729 14.3707C5.5034 13.9538 5.16033 13.3742 5.03722 12.7319L3.02426 2.12683C2.99642 1.98331 2.87295 1.87818 2.72684 1.87403H0.936938C0.687935 1.87524 0.448981 1.77702 0.27293 1.60099C0.0968975 1.42496 -0.00136674 1.1859 1.43923e-05 0.937074ZM5.00265 18.1259C5.00265 17.6289 5.20012 17.1522 5.55147 16.8008C5.90301 16.4493 6.37975 16.2518 6.87674 16.2518C7.37373 16.2518 7.85044 16.4493 8.20201 16.8008C8.55338 17.1522 8.75084 17.6289 8.75084 18.1259C8.75084 18.623 8.55336 19.0998 8.20201 19.4512C7.85047 19.8027 7.37373 20 6.87674 20C6.37975 20 5.90304 19.8027 5.55147 19.4512C5.2001 19.0998 5.00265 18.6231 5.00265 18.1259ZM18.1261 16.2518C18.7956 16.2518 19.4143 16.6091 19.7491 17.1889C20.0839 17.7689 20.0839 18.4831 19.7491 19.063C19.4143 19.6429 18.7956 20 18.1261 20C17.4565 20 16.8378 19.6429 16.5031 19.063C16.1683 18.4831 16.1683 17.7689 16.5031 17.1889C16.8378 16.6091 17.4565 16.2518 18.1261 16.2518Z" fill="#3F5BD9"/>
</svg>
