<svg width="24" height="24" viewBox="0 0 24 24" fill="none" xmlns="http://www.w3.org/2000/svg">
    <mask id="path-1-inside-1_143_373" fill="white">
        <path fill-rule="evenodd" clip-rule="evenodd" d="M3.21875 3.875C3.26513 3.875 3.43584 3.90739 3.53283 4.29127L3.67544 5.03619L5.02248 12.0726L5.25565 13.2906H5.25727L5.61703 14.8561L5.62058 14.8716L5.62469 14.887C5.94728 16.0939 6.88906 16.9716 8.20518 16.9716C8.42719 16.9716 8.90471 16.9724 9.55308 16.9736H9.55314H9.55327H9.55352C11.9769 16.9778 16.7864 16.9862 19.5644 16.9708C20.0614 16.968 20.4621 16.5629 20.4594 16.0658C20.4566 15.5688 20.0514 15.1681 19.5544 15.1708C16.7848 15.1862 11.9946 15.1778 9.5668 15.1736C8.91318 15.1724 8.43079 15.1716 8.20518 15.1716C7.83038 15.1716 7.51471 14.9706 7.3674 14.436L7.10419 13.2906H18.4103C19.2899 13.3194 20.6667 12.8088 21.1351 11.1638C21.388 10.2756 22.2886 6.90201 22.7129 5.30502C22.7941 5.03481 22.8509 4.60136 22.6262 4.13489C22.2657 3.38631 21.5403 3.22647 21.1406 3.22647C21.0493 3.22647 17.6096 3.23248 13.689 3.23932L5.20341 3.25406C4.97623 2.7309 4.30141 2.01837 3.29889 2.01122C2.26143 2.00383 1.5786 2.00815 1.35938 2.01123C1.1875 2.01123 0.492226 2.1914 0.492188 2.98384C0.492153 3.68153 1.18747 3.875 1.35938 3.875H3.21875ZM18.4427 11.7906C18.7551 11.8107 19.4423 11.6315 19.6925 10.753C19.8847 10.078 20.465 7.91427 20.9152 6.22681L20.9212 6.20421L21.1406 5.38086L21.2726 4.88464C21.295 4.83192 21.3 4.72647 21.1406 4.72647L20.9015 4.72683L20.68 4.7272L19.7879 4.72872L19.7619 4.72876L13.7239 4.73926L6.67542 4.75152L5.14868 4.75415L5.43575 6.25366L6.49573 11.7906H18.4427ZM9.24536 20.1292C9.24536 21.1624 8.40778 22 7.37457 22C6.34136 22 5.50378 21.1624 5.50378 20.1292C5.50378 19.096 6.34136 18.2584 7.37457 18.2584C8.40778 18.2584 9.24536 19.096 9.24536 20.1292ZM18.6371 22C19.6704 22 20.5079 21.1624 20.5079 20.1292C20.5079 19.096 19.6704 18.2584 18.6371 18.2584C17.6039 18.2584 16.7664 19.096 16.7664 20.1292C16.7664 21.1624 17.6039 22 18.6371 22Z"/>
    </mask>
    <path fill-rule="evenodd" clip-rule="evenodd" d="M3.21875 3.875C3.26513 3.875 3.43584 3.90739 3.53283 4.29127L3.67544 5.03619L5.02248 12.0726L5.25565 13.2906H5.25727L5.61703 14.8561L5.62058 14.8716L5.62469 14.887C5.94728 16.0939 6.88906 16.9716 8.20518 16.9716C8.42719 16.9716 8.90471 16.9724 9.55308 16.9736H9.55314H9.55327H9.55352C11.9769 16.9778 16.7864 16.9862 19.5644 16.9708C20.0614 16.968 20.4621 16.5629 20.4594 16.0658C20.4566 15.5688 20.0514 15.1681 19.5544 15.1708C16.7848 15.1862 11.9946 15.1778 9.5668 15.1736C8.91318 15.1724 8.43079 15.1716 8.20518 15.1716C7.83038 15.1716 7.51471 14.9706 7.3674 14.436L7.10419 13.2906H18.4103C19.2899 13.3194 20.6667 12.8088 21.1351 11.1638C21.388 10.2756 22.2886 6.90201 22.7129 5.30502C22.7941 5.03481 22.8509 4.60136 22.6262 4.13489C22.2657 3.38631 21.5403 3.22647 21.1406 3.22647C21.0493 3.22647 17.6096 3.23248 13.689 3.23932L5.20341 3.25406C4.97623 2.7309 4.30141 2.01837 3.29889 2.01122C2.26143 2.00383 1.5786 2.00815 1.35938 2.01123C1.1875 2.01123 0.492226 2.1914 0.492188 2.98384C0.492153 3.68153 1.18747 3.875 1.35938 3.875H3.21875ZM18.4427 11.7906C18.7551 11.8107 19.4423 11.6315 19.6925 10.753C19.8847 10.078 20.465 7.91427 20.9152 6.22681L20.9212 6.20421L21.1406 5.38086L21.2726 4.88464C21.295 4.83192 21.3 4.72647 21.1406 4.72647L20.9015 4.72683L20.68 4.7272L19.7879 4.72872L19.7619 4.72876L13.7239 4.73926L6.67542 4.75152L5.14868 4.75415L5.43575 6.25366L6.49573 11.7906H18.4427ZM9.24536 20.1292C9.24536 21.1624 8.40778 22 7.37457 22C6.34136 22 5.50378 21.1624 5.50378 20.1292C5.50378 19.096 6.34136 18.2584 7.37457 18.2584C8.40778 18.2584 9.24536 19.096 9.24536 20.1292ZM18.6371 22C19.6704 22 20.5079 21.1624 20.5079 20.1292C20.5079 19.096 19.6704 18.2584 18.6371 18.2584C17.6039 18.2584 16.7664 19.096 16.7664 20.1292C16.7664 21.1624 17.6039 22 18.6371 22Z" fill="#D9D9D9"/>
    <path d="M3.53283 4.29127L5.00607 4.00923L4.99784 3.96625L4.98712 3.92382L3.53283 4.29127ZM3.67544 5.03619L5.14868 4.75415L5.14868 4.75415L3.67544 5.03619ZM5.02248 12.0726L6.49573 11.7906L6.49573 11.7906L5.02248 12.0726ZM5.25565 13.2906L3.7824 13.5726L4.01557 14.7906H5.25565V13.2906ZM5.25727 13.2906L6.71917 12.9546L6.45168 11.7906H5.25727V13.2906ZM5.61703 14.8561L7.07893 14.5202L7.07893 14.5202L5.61703 14.8561ZM5.62058 14.8716L4.15868 15.2075L4.16462 15.2334L4.17147 15.259L5.62058 14.8716ZM5.62469 14.887L7.07382 14.4996L7.07381 14.4996L5.62469 14.887ZM9.55308 16.9736L9.55045 18.4736H9.55308V16.9736ZM9.55352 16.9736L9.55614 15.4736H9.55352V16.9736ZM19.5644 16.9708L19.556 15.4708L19.556 15.4708L19.5644 16.9708ZM20.4594 16.0658L21.9593 16.0575L21.9593 16.0575L20.4594 16.0658ZM19.5544 15.1708L19.546 13.6708L19.546 13.6708L19.5544 15.1708ZM9.5668 15.1736L9.56943 13.6736L9.56943 13.6736L9.5668 15.1736ZM7.3674 14.436L5.9055 14.7719L5.91273 14.8034L5.9213 14.8345L7.3674 14.436ZM7.10419 13.2906V11.7906H5.22041L5.64229 13.6265L7.10419 13.2906ZM18.4103 13.2906L18.4595 11.7914L18.4349 11.7906H18.4103V13.2906ZM21.1351 11.1638L19.6925 10.753L19.6925 10.753L21.1351 11.1638ZM22.7129 5.30502L21.2763 4.87353L21.2694 4.89656L21.2632 4.91979L22.7129 5.30502ZM22.6262 4.13489L21.2748 4.78579L21.2748 4.78579L22.6262 4.13489ZM13.689 3.23932L13.6916 4.73932L13.6916 4.73932L13.689 3.23932ZM5.20341 3.25406L3.82753 3.85152L4.2202 4.75577L5.20601 4.75405L5.20341 3.25406ZM3.29889 2.01122L3.30959 0.511263L3.29889 2.01122ZM1.35938 2.01123V3.51123H1.36992L1.38047 3.51108L1.35938 2.01123ZM0.492188 2.98384L-1.00781 2.98377L0.492188 2.98384ZM19.6925 10.753L21.1351 11.1638L21.1351 11.1638L19.6925 10.753ZM18.4427 11.7906L18.5394 10.2937L18.4911 10.2906H18.4427V11.7906ZM20.9152 6.22681L19.4659 5.84013L19.4659 5.84016L20.9152 6.22681ZM20.9212 6.20421L22.3705 6.59089L22.3707 6.59043L20.9212 6.20421ZM21.1406 5.38086L22.5901 5.76708L22.5902 5.76637L21.1406 5.38086ZM21.2726 4.88464L19.8922 4.29768L19.8504 4.39594L19.823 4.49914L21.2726 4.88464ZM21.1406 4.72647L21.1406 3.22647L21.1384 3.22648L21.1406 4.72647ZM20.9015 4.72683L20.8992 3.22683L20.899 3.22683L20.9015 4.72683ZM20.68 4.7272L20.6775 3.2272L20.6775 3.2272L20.68 4.7272ZM19.7879 4.72872L19.7853 3.22872L19.7853 3.22872L19.7879 4.72872ZM19.7619 4.72876L19.7594 3.22876L19.7593 3.22876L19.7619 4.72876ZM13.7239 4.73926L13.7213 3.23926L13.7213 3.23926L13.7239 4.73926ZM6.67542 4.75152L6.678 6.25152L6.67803 6.25152L6.67542 4.75152ZM5.14868 4.75415L5.1461 3.25416L3.33488 3.25727L3.67544 5.03619L5.14868 4.75415ZM5.43575 6.25366L3.9625 6.5357L3.9625 6.5357L5.43575 6.25366ZM6.49573 11.7906L5.02248 12.0726L5.25565 13.2906H6.49573V11.7906ZM4.98712 3.92382C4.89307 3.55157 4.71479 3.15216 4.37566 2.8383C4.01634 2.50575 3.58937 2.375 3.21875 2.375V5.375C2.89451 5.375 2.57609 5.26045 2.33795 5.04006C2.22931 4.93951 2.16308 4.8401 2.12542 4.76939C2.10678 4.73439 2.095 4.70623 2.08806 4.68762C2.08456 4.67824 2.08218 4.67101 2.08069 4.66619C2.0792 4.66138 2.07855 4.65881 2.07853 4.65872L4.98712 3.92382ZM5.14868 4.75415L5.00607 4.00923L2.05958 4.5733L2.20219 5.31823L5.14868 4.75415ZM6.49573 11.7906L5.14868 4.75415L2.20219 5.31823L3.54924 12.3546L6.49573 11.7906ZM6.72889 13.0085L6.49573 11.7906L3.54924 12.3546L3.7824 13.5726L6.72889 13.0085ZM5.25727 11.7906H5.25565V14.7906H5.25727V11.7906ZM7.07893 14.5202L6.71917 12.9546L3.79537 13.6265L4.15513 15.1921L7.07893 14.5202ZM7.08249 14.5357L7.07893 14.5202L4.15512 15.192L4.15868 15.2075L7.08249 14.5357ZM7.07381 14.4996L7.0697 14.4842L4.17147 15.259L4.17557 15.2743L7.07381 14.4996ZM8.20518 15.4716C7.67713 15.4716 7.25078 15.1617 7.07382 14.4996L4.17556 15.2743C4.64377 17.026 6.10099 18.4716 8.20518 18.4716V15.4716ZM9.55571 15.4736C8.90828 15.4724 8.42889 15.4716 8.20518 15.4716V18.4716C8.42549 18.4716 8.90113 18.4724 9.55045 18.4736L9.55571 15.4736ZM9.55314 15.4736H9.55308V18.4736H9.55314V15.4736ZM9.55327 15.4736H9.55314V18.4736H9.55327V15.4736ZM9.55352 15.4736H9.55327V18.4736H9.55352V15.4736ZM19.556 15.4708C16.7848 15.4862 11.9819 15.4778 9.55614 15.4736L9.55089 18.4736C11.9719 18.4778 16.7879 18.4862 19.5727 18.4708L19.556 15.4708ZM18.9594 16.0741C18.9575 15.7428 19.2247 15.4727 19.556 15.4708L19.5727 18.4708C20.8982 18.4634 21.9667 17.3829 21.9593 16.0575L18.9594 16.0741ZM19.5627 16.6708C19.2313 16.6726 18.9612 16.4055 18.9594 16.0741L21.9593 16.0575C21.952 14.732 20.8715 13.6635 19.546 13.6708L19.5627 16.6708ZM9.56418 16.6736C11.9896 16.6778 16.7863 16.6862 19.5627 16.6708L19.546 13.6708C16.7832 13.6862 11.9995 13.6778 9.56943 13.6736L9.56418 16.6736ZM8.20518 16.6716C8.4291 16.6716 8.90961 16.6724 9.56418 16.6736L9.56943 13.6736C8.91675 13.6724 8.43249 13.6716 8.20518 13.6716V16.6716ZM5.9213 14.8345C6.05404 15.3162 6.3071 15.8047 6.75543 16.1687C7.21419 16.5412 7.73966 16.6716 8.20518 16.6716V13.6716C8.29589 13.6716 8.47613 13.7014 8.64653 13.8398C8.8065 13.9697 8.82806 14.0904 8.81349 14.0375L5.9213 14.8345ZM5.64229 13.6265L5.9055 14.7719L8.8293 14.1001L8.56608 12.9546L5.64229 13.6265ZM18.4103 11.7906H7.10419V14.7906H18.4103V11.7906ZM19.6925 10.753C19.5607 11.2158 19.3291 11.456 19.1156 11.5932C18.8732 11.7491 18.6123 11.7964 18.4595 11.7914L18.3611 14.7897C19.7741 14.8361 21.8814 14.0199 22.5777 11.5746L19.6925 10.753ZM21.2632 4.91979C20.8367 6.52481 19.9407 9.88114 19.6925 10.753L22.5777 11.5747C22.8353 10.6701 23.7404 7.27922 24.1626 5.69025L21.2632 4.91979ZM21.2748 4.78579C21.2804 4.79737 21.2822 4.80437 21.283 4.80769C21.2838 4.81146 21.2844 4.81579 21.2845 4.82158C21.2848 4.83547 21.2821 4.85443 21.2763 4.87353L24.1495 5.73651C24.2987 5.23991 24.4162 4.39467 23.9776 3.48399L21.2748 4.78579ZM21.1406 4.72647C21.1406 4.72647 21.1407 4.72647 21.1409 4.72648C21.1411 4.72648 21.1414 4.72648 21.1418 4.72649C21.1426 4.72651 21.1437 4.72655 21.1451 4.72662C21.1479 4.72676 21.1517 4.72702 21.1563 4.72748C21.1658 4.72841 21.1769 4.73 21.1887 4.73244C21.2137 4.73757 21.233 4.74454 21.2455 4.75057C21.2513 4.75335 21.2547 4.75548 21.2563 4.75657C21.2571 4.75713 21.2575 4.75748 21.2577 4.75764C21.2579 4.7578 21.258 4.75787 21.258 4.7579C21.258 4.75793 21.2582 4.7581 21.2586 4.75853C21.259 4.75895 21.2597 4.75988 21.2609 4.76149C21.263 4.7644 21.2681 4.77182 21.2748 4.78579L23.9776 3.48399C23.2637 2.00167 21.8321 1.72647 21.1406 1.72647V4.72647ZM13.6916 4.73932C17.6139 4.73247 21.051 4.72647 21.1406 4.72647V1.72647C21.0475 1.72647 17.6053 1.73248 13.6864 1.73932L13.6916 4.73932ZM5.20601 4.75405L13.6916 4.73932L13.6864 1.73932L5.2008 1.75406L5.20601 4.75405ZM3.2882 3.51119C3.41982 3.51213 3.5318 3.5557 3.63573 3.63448C3.68991 3.67556 3.73687 3.72304 3.77352 3.76948C3.79146 3.7922 3.80504 3.81229 3.8146 3.82808C3.82436 3.84419 3.828 3.8526 3.82753 3.85152L6.57928 2.65659C6.18002 1.73714 5.0519 0.523689 3.30959 0.511263L3.2882 3.51119ZM1.38047 3.51108C1.58577 3.50819 2.25739 3.50383 3.2882 3.51119L3.30959 0.511263C2.26547 0.503816 1.57142 0.5081 1.33828 0.511379L1.38047 3.51108ZM1.99219 2.98392C1.99219 3.01324 1.98359 3.09658 1.92949 3.19887C1.87757 3.29705 1.80882 3.3654 1.75189 3.4074C1.69943 3.44611 1.65331 3.46577 1.61837 3.47722C1.59939 3.48344 1.57466 3.4902 1.54218 3.49613C1.51728 3.50067 1.45323 3.51123 1.35938 3.51123V0.51123C0.955504 0.51123 0.426104 0.657413 -0.0292062 0.993342C-0.573038 1.39458 -1.00777 2.06974 -1.00781 2.98377L1.99219 2.98392ZM1.35938 2.375C1.46013 2.375 1.52802 2.38704 1.54932 2.39104C1.57977 2.39675 1.60095 2.40276 1.61494 2.4073C1.63944 2.41527 1.67371 2.42902 1.71666 2.45883C1.76202 2.49032 1.83608 2.55356 1.8989 2.66116C1.96703 2.77787 1.99219 2.89654 1.99219 2.98392L-1.00781 2.98377C-1.00786 3.92435 -0.503268 4.5698 0.00595331 4.92328C0.433508 5.22007 0.945427 5.375 1.35938 5.375V2.375ZM3.21875 2.375H1.35938V5.375H3.21875V2.375ZM18.2498 10.3422C18.2339 10.3979 18.2219 10.4068 18.2334 10.3915C18.2447 10.3763 18.2649 10.3562 18.293 10.3386C18.3185 10.3226 18.3457 10.3114 18.3753 10.3041C18.3993 10.2982 18.4518 10.288 18.5394 10.2937L18.3461 13.2874C19.2214 13.344 20.6551 12.8494 21.1351 11.1638L18.2498 10.3422ZM19.4659 5.84016C19.0138 7.53464 18.4377 9.68254 18.2498 10.3422L21.1351 11.1638C21.3317 10.4735 21.9162 8.29391 22.3645 6.61346L19.4659 5.84016ZM19.4719 5.81754L19.4659 5.84013L22.3645 6.61349L22.3705 6.59089L19.4719 5.81754ZM19.6912 4.99464L19.4718 5.81799L22.3707 6.59043L22.5901 5.76708L19.6912 4.99464ZM19.823 4.49914L19.691 4.99536L22.5902 5.76637L22.7222 5.27015L19.823 4.49914ZM21.1406 6.22647C20.9003 6.22647 20.2522 6.11936 19.9234 5.43668C19.6757 4.92243 19.8179 4.47243 19.8922 4.29768L22.653 5.47161C22.7497 5.24413 22.9056 4.71505 22.6262 4.13489C22.2657 3.38631 21.5403 3.22647 21.1406 3.22647V6.22647ZM20.9037 6.22683L21.1429 6.22647L21.1384 3.22648L20.8992 3.22683L20.9037 6.22683ZM20.6825 6.2272L20.9039 6.22683L20.899 3.22683L20.6775 3.2272L20.6825 6.2272ZM19.7904 6.22871L20.6826 6.2272L20.6775 3.2272L19.7853 3.22872L19.7904 6.22871ZM19.7645 6.22876L19.7904 6.22871L19.7853 3.22872L19.7594 3.22876L19.7645 6.22876ZM13.7265 6.23926L19.7645 6.22876L19.7593 3.22876L13.7213 3.23926L13.7265 6.23926ZM6.67803 6.25152L13.7265 6.23926L13.7213 3.23926L6.67281 3.25153L6.67803 6.25152ZM5.15126 6.25415L6.678 6.25152L6.67283 3.25153L5.1461 3.25416L5.15126 6.25415ZM6.90899 5.97163L6.62193 4.47212L3.67544 5.03619L3.9625 6.5357L6.90899 5.97163ZM7.96897 11.5085L6.90899 5.97163L3.9625 6.5357L5.02248 12.0726L7.96897 11.5085ZM18.4427 10.2906H6.49573V13.2906H18.4427V10.2906ZM7.37457 23.5C9.23621 23.5 10.7454 21.9908 10.7454 20.1292H7.74536C7.74536 20.334 7.57935 20.5 7.37457 20.5V23.5ZM4.00378 20.1292C4.00378 21.9908 5.51294 23.5 7.37457 23.5V20.5C7.16979 20.5 7.00378 20.334 7.00378 20.1292H4.00378ZM7.37457 16.7584C5.51294 16.7584 4.00378 18.2676 4.00378 20.1292H7.00378C7.00378 19.9244 7.16979 19.7584 7.37457 19.7584V16.7584ZM10.7454 20.1292C10.7454 18.2676 9.23621 16.7584 7.37457 16.7584V19.7584C7.57935 19.7584 7.74536 19.9244 7.74536 20.1292H10.7454ZM19.0079 20.1292C19.0079 20.334 18.8419 20.5 18.6371 20.5V23.5C20.4988 23.5 22.0079 21.9908 22.0079 20.1292H19.0079ZM18.6371 19.7584C18.8419 19.7584 19.0079 19.9244 19.0079 20.1292H22.0079C22.0079 18.2676 20.4988 16.7584 18.6371 16.7584V19.7584ZM18.2664 20.1292C18.2664 19.9244 18.4324 19.7584 18.6371 19.7584V16.7584C16.7755 16.7584 15.2664 18.2676 15.2664 20.1292H18.2664ZM18.6371 20.5C18.4324 20.5 18.2664 20.334 18.2664 20.1292H15.2664C15.2664 21.9908 16.7755 23.5 18.6371 23.5V20.5Z" fill="#425061" mask="url(#path-1-inside-1_143_373)"/>
</svg>
