<svg width="23" height="20" viewBox="0 0 23 20" fill="none" xmlns="http://www.w3.org/2000/svg">
<path fill-rule="evenodd" clip-rule="evenodd" d="M13.189 1.23932L4.70341 1.25406C4.47623 0.730901 3.80141 0.0183749 2.79889 0.0112247C1.76143 0.00382521 1.0786 0.00814725 0.859375 0.0112304C0.6875 0.0112304 -0.00777358 0.191404 -0.0078125 0.983843C-0.00784675 1.68153 0.687473 1.875 0.859375 1.875H2.71875C2.76513 1.875 2.93584 1.90739 3.03283 2.29127L4.75565 11.2906H4.75727L5.12058 12.8716L5.12469 12.887C5.35405 13.7451 5.89642 14.4368 6.6638 14.7649C6.73229 14.7942 6.80257 14.8206 6.87457 14.8439C7.13052 14.9269 7.40833 14.9716 7.70518 14.9716C7.78833 14.9716 7.90733 14.9717 8.05772 14.9719C8.30886 14.9723 8.64755 14.9729 9.05308 14.9736C10.9329 14.9768 14.2489 14.9827 16.9382 14.9779C17.3555 14.9772 17.7577 14.9762 18.1371 14.9749C18.4649 14.9737 18.7756 14.9724 19.0644 14.9708C19.1306 14.9704 19.1951 14.9629 19.2572 14.949C19.661 14.8584 19.9617 14.4966 19.9594 14.0658C19.9566 13.5688 19.5514 13.1681 19.0544 13.1708C16.2848 13.1862 11.4946 13.1778 9.0668 13.1736C8.41318 13.1724 7.93079 13.1716 7.70518 13.1716C7.42881 13.1716 7.18459 13.0623 7.01632 12.7906C6.95638 12.6938 6.90608 12.5764 6.8674 12.436L6.60419 11.2906H17.9103C18.7899 11.3194 20.1667 10.8088 20.6351 9.16384C20.8317 8.47353 21.4162 6.29393 21.8645 4.61349V4.61349C21.9449 4.31216 22.0211 4.02627 22.0901 3.76708M22.0901 3.76708C22.1342 3.60128 22.1755 3.44605 22.2129 3.30502C22.2941 3.03481 22.3509 2.60136 22.1262 2.13489C21.7657 1.38631 21.0403 1.22647 20.6406 1.22647L20.6392 1.22647C20.6226 1.22648 20.5441 1.2266 20.4109 1.22682C20.407 1.22682 20.4031 1.22683 20.3992 1.22683V1.22683C20.3366 1.22694 20.2623 1.22706 20.1775 1.2272V1.2272C20.1598 1.22723 20.1415 1.22726 20.1227 1.22729C19.916 1.22764 19.6523 1.22809 19.3404 1.22862C19.3222 1.22866 19.3038 1.22869 19.2853 1.22872C19.2767 1.22873 19.268 1.22875 19.2594 1.22876C19.2441 1.22879 19.2286 1.22882 19.2131 1.22884C17.8417 1.2312 15.6302 1.23506 13.2346 1.23924C13.2301 1.23925 13.2257 1.23925 13.2213 1.23926C13.2105 1.23928 13.1998 1.2393 13.189 1.23932M20.773 2.88475L20.7742 2.88079C20.7751 2.87849 20.7759 2.87611 20.7767 2.87365C20.7806 2.86196 20.7834 2.84859 20.784 2.8348C20.7844 2.83005 20.7846 2.8256 20.7845 2.82158C20.7844 2.81579 20.7838 2.81146 20.783 2.80769C20.7822 2.80452 20.7805 2.798 20.7755 2.78733M20.773 2.88475L20.7694 2.89656L20.7632 2.91979C20.726 3.05986 20.6852 3.21327 20.6416 3.3772L20.6406 3.38086C20.5735 3.63302 20.4997 3.90998 20.4219 4.20152L20.4212 4.20421C20.4192 4.21174 20.4172 4.21927 20.4152 4.22681C19.965 5.91443 19.3846 8.0781 19.1925 8.75302L19.191 8.75816C19.0662 9.19199 18.8346 9.45446 18.5948 9.60634C18.3599 9.75506 18.1173 9.79774 17.9595 9.79143C17.9575 9.79135 17.9535 9.79116 17.9535 9.79116C17.9499 9.79099 17.9463 9.79078 17.9427 9.79055H5.99573L4.64868 2.75415L13.1916 2.73932C13.201 2.7393 13.2105 2.73928 13.2199 2.73927L13.2239 2.73926C15.6348 2.73505 17.8592 2.73117 19.2309 2.72881C19.2413 2.7288 19.2517 2.72878 19.2619 2.72876C19.2706 2.72874 19.2792 2.72873 19.2879 2.72872C19.2981 2.7287 19.3083 2.72868 19.3184 2.72866C19.6588 2.72808 19.9428 2.7276 20.1594 2.72723C20.1663 2.72722 20.1732 2.72721 20.18 2.7272V2.7272C20.1914 2.72718 20.2031 2.72716 20.2141 2.72714C20.2773 2.72704 20.3339 2.72694 20.3838 2.72686C20.3898 2.72685 20.3957 2.72684 20.4015 2.72683L20.4043 2.72683C20.5462 2.7266 20.6278 2.72647 20.6406 2.72647C20.6846 2.72647 20.716 2.73449 20.7381 2.74721C20.756 2.75756 20.7677 2.77101 20.7748 2.78579M19.0044 16.4711C18.7451 16.3353 18.4501 16.2584 18.1371 16.2584C17.8195 16.2584 17.5203 16.3376 17.2583 16.4773C16.6681 16.7919 16.2664 17.4137 16.2664 18.1292C16.2664 19.1624 17.1039 20 18.1371 20C19.1704 20 20.0079 19.1624 20.0079 18.1292C20.0079 17.409 19.6009 16.7838 19.0044 16.4711ZM7.74266 16.4716C7.73025 16.4651 7.71775 16.4587 7.70518 16.4525C7.45492 16.3283 7.1729 16.2584 6.87457 16.2584C6.74311 16.2584 6.61482 16.272 6.49101 16.2978C5.64178 16.4747 5.00378 17.2275 5.00378 18.1292C5.00378 19.1624 5.84136 20 6.87457 20C7.90778 20 8.74536 19.1624 8.74536 18.1292C8.74536 17.4093 8.33875 16.7844 7.74266 16.4716ZM6.87457 18.5C7.07935 18.5 7.24536 18.334 7.24536 18.1292C7.24536 17.9244 7.07935 17.7584 6.87457 17.7584C6.66979 17.7584 6.50378 17.9244 6.50378 18.1292C6.50378 18.334 6.66979 18.5 6.87457 18.5ZM18.1371 18.5C18.3419 18.5 18.5079 18.334 18.5079 18.1292C18.5079 17.9244 18.3419 17.7584 18.1371 17.7584C17.9324 17.7584 17.7664 17.9244 17.7664 18.1292C17.7664 18.334 17.9324 18.5 18.1371 18.5Z" fill="#425061"/>
</svg>
