<svg width="25" height="25" xmlns="http://www.w3.org/2000/svg" fill="none" viewBox="0 0 25 25"><path stroke="#425061" fill="#425061" d="M11.434 20.797a2.203 2.203 0 1 0-4.407 0 2.203 2.203 0 0 0 4.407 0Zm-3.408 0a1.224 1.224 0 1 1 2.448 0 1.224 1.224 0 0 1-2.448 0ZM20.73 20.797a2.203 2.203 0 1 0-4.406 0 2.203 2.203 0 0 0 4.406 0Zm-3.408 0a1.224 1.224 0 1 1 2.448 0 1.224 1.224 0 0 1-2.448 0ZM24.387 4.648a.554.554 0 0 0-.443-.216H5.425l-.279-1.61a2.18 2.18 0 0 0-.76-1.306A2.252 2.252 0 0 0 2.95 1H1.057a.562.562 0 0 0-.394.16.543.543 0 0 0 0 .774c.105.103.246.16.394.16H2.95c.263.001.517.093.718.26.2.166.335.397.38.652l1.95 11.257c.13.765.534 1.46 1.137 1.96A3.378 3.378 0 0 0 9.292 17h11.393c.148 0 .29-.058.394-.16a.543.543 0 0 0 0-.774.562.562 0 0 0-.394-.16H9.295a2.252 2.252 0 0 1-1.435-.515 2.181 2.181 0 0 1-.76-1.3l-.082-.468h12.505c.73 0 1.438-.235 2.02-.668a3.282 3.282 0 0 0 1.198-1.73l1.738-6.098a.54.54 0 0 0-.092-.479Zm-2.719 6.27c-.13.46-.412.865-.799 1.154-.387.289-.86.445-1.346.445H6.83l-1.215-6.99H23.21l-1.54 5.392Z"/></svg>
