<svg width="122" height="117" viewBox="0 0 122 117" fill="none" xmlns="http://www.w3.org/2000/svg">
<path d="M121 77.4563C121 75.6596 119.498 74.2002 117.649 74.2002H4.35042C2.50151 74.2002 1 75.659 1 77.4563V99.7436C1 101.541 2.50151 103 4.35092 103H117.649C119.499 103 121 101.541 121 99.7441V77.4568V77.4563Z" fill="white" stroke="#E3E7FF"/>
<path d="M78.0879 55.6098L43.5055 55.6823C40.8409 55.6879 38.6854 57.8524 38.691 60.5169L38.7382 83.038C38.7438 85.7025 40.9083 87.858 43.5728 87.8524L78.1553 87.78C80.8198 87.7744 82.9753 85.6099 82.9697 82.9453L82.9226 60.4243C82.917 57.7598 80.7524 55.6043 78.0879 55.6098Z" fill="#7A8FEE"/>
<path d="M43.5607 88.3346C40.6381 88.3346 38.2582 85.961 38.2517 83.0353L38.2033 60.5174C38.1968 57.5885 40.5736 55.202 43.5025 55.1956L78.085 55.1245H78.0947C81.0172 55.1245 83.3972 57.498 83.4037 60.4238L83.4521 82.9417C83.4521 84.3561 82.9031 85.6866 81.9021 86.6941C80.901 87.7016 79.5673 88.2571 78.1561 88.2603L43.5736 88.3313H43.5607V88.3346ZM78.0947 56.0933H78.085L43.5025 56.1643C41.1096 56.1708 39.1656 58.1213 39.172 60.5142L39.2205 83.0321C39.2269 85.4218 41.171 87.3626 43.5607 87.3626H43.5703L78.1529 87.2915C79.3057 87.2915 80.394 86.833 81.2142 86.0095C82.0345 85.186 82.4866 84.0945 82.4833 82.9417L82.4349 60.4238C82.4317 58.0341 80.4844 56.0933 78.0947 56.0933V56.0933Z" fill="#97A8FF"/>
<path opacity="0.24" d="M78.0879 55.6098L43.5055 55.6823C40.8409 55.6879 38.6854 57.8524 38.691 60.5169L38.7382 83.038C38.7438 85.7025 40.9083 87.858 43.5728 87.8524L78.1553 87.78C80.8198 87.7744 82.9753 85.6099 82.9697 82.9453L82.9226 60.4243C82.917 57.7598 80.7524 55.6043 78.0879 55.6098Z" fill="#97A8FF"/>
<path d="M79.7353 53.5938L70.3671 53.6131C68.6297 53.6164 67.2121 55.0405 67.2153 56.7778L67.225 61.2601L43.4993 61.3085C40.8449 61.315 38.678 63.4915 38.6845 66.1428L38.7329 88.6607C38.7394 91.3151 40.9159 93.482 43.5672 93.4755L78.1497 93.4045C80.8042 93.398 82.971 91.2215 82.9645 88.5702L82.9193 66.5142V66.0524L82.9 56.7455C82.8967 55.0082 81.4726 53.5905 79.7353 53.5938V53.5938Z" fill="#C9CFEE"/>
<path d="M43.5575 93.9632C40.635 93.9632 38.255 91.5896 38.2485 88.6639L38.2001 66.146C38.1936 63.2171 40.5704 60.8306 43.4994 60.8242L66.7406 60.7757L66.7309 56.7779C66.7309 55.8091 67.1055 54.8952 67.7966 54.2041C68.4844 53.513 69.3983 53.132 70.3671 53.1287L79.7353 53.1094H79.7417C81.7471 53.1094 83.3779 54.7369 83.3844 56.7423L83.4522 88.567C83.4587 91.496 81.0819 93.8824 78.1529 93.8889L43.5704 93.9632H43.5607H43.5575ZM79.7353 54.0782L70.3671 54.0975C69.6566 54.0975 68.9882 54.3785 68.4812 54.8887C67.9742 55.3957 67.6965 56.0674 67.6997 56.7779L67.7094 61.2601C67.7094 61.3893 67.6577 61.512 67.5673 61.6024C67.4769 61.6928 67.3542 61.7445 67.225 61.7445L43.4994 61.7929C41.1065 61.7994 39.1624 63.7499 39.1689 66.1428L39.2173 88.6607C39.2238 91.0503 41.1678 92.9912 43.5575 92.9912H43.5672L78.1497 92.9169C80.5426 92.9137 82.4866 90.9599 82.4802 88.567L82.4124 56.7423C82.4124 55.2698 81.2111 54.0749 79.7385 54.0749H79.732L79.7353 54.0782Z" fill="#97A8FF"/>
<path d="M61.5128 80.1744L57.7765 76.4381C57.4601 76.1216 57.4601 75.6114 57.7765 75.2949C58.093 74.9785 58.6032 74.9785 58.9197 75.2949L61.5225 77.8977L64.1738 75.2885C64.4935 74.9752 65.0037 74.9817 65.3169 75.2982C65.6302 75.6179 65.6237 76.1281 65.3073 76.4413L61.5128 80.1712V80.1744Z" fill="white"/>
<path d="M61.5419 79.8448C61.0963 79.8448 60.7346 79.4831 60.7346 79.0375V70.8674C60.7346 70.4217 61.0963 70.0601 61.5419 70.0601C61.9876 70.0601 62.3493 70.4217 62.3493 70.8674V79.0375C62.3493 79.4831 61.9876 79.8448 61.5419 79.8448Z" fill="white"/>
<path d="M67.487 83.723H55.5063C54.5504 83.723 53.7689 82.9447 53.7689 81.9856V77.6325C53.7689 77.1869 54.1306 76.8252 54.5762 76.8252C55.0219 76.8252 55.3836 77.1869 55.3836 77.6325V81.9856C55.3836 82.0534 55.4385 82.1083 55.5063 82.1083H67.487C67.6065 82.1083 67.7033 82.0114 67.7033 81.892V77.6325C67.7033 77.1869 68.065 76.8252 68.5106 76.8252C68.9563 76.8252 69.318 77.1869 69.318 77.6325V81.892C69.318 82.8995 68.4977 83.723 67.487 83.723Z" fill="white"/>
<path fill-rule="evenodd" clip-rule="evenodd" d="M63.4839 41.9141C63.4833 42.0896 63.5868 42.2505 63.7458 42.3234L63.7456 42.3225C63.9064 42.3949 64.0915 42.3652 64.2175 42.246L75.1589 31.9597C75.2833 31.8419 75.3275 31.6595 75.27 31.4941L75.2655 31.4788C75.2033 31.3221 75.0597 31.2123 74.8931 31.1977L68.7857 30.6419L64.276 26.3858C64.1483 26.2657 63.9648 26.2318 63.8074 26.2985C63.6494 26.3663 63.5472 26.5223 63.5462 26.696L63.4839 41.9141ZM68.8795 31.5325L73.8458 31.9849L65.161 40.1502L68.8795 31.5325Z" fill="#F65E5A"/>
<path fill-rule="evenodd" clip-rule="evenodd" d="M121.07 0.571247C120.72 0.599868 120.344 0.637644 119.948 0.682778C119.805 0.699167 119.676 0.597262 119.659 0.454454C119.641 0.312163 119.742 0.183654 119.885 0.167264C120.287 0.120618 120.668 0.0826485 121.024 0.0535513C121.167 0.0422396 121.293 0.148852 121.305 0.291337C121.318 0.434575 121.212 0.559702 121.07 0.571247ZM117.706 0.996798C118.085 0.934245 118.458 0.877529 118.822 0.825713C118.964 0.8058 119.062 0.674626 119.04 0.532491C119.02 0.390071 118.888 0.291326 118.746 0.311756C118.378 0.3632 118.001 0.42133 117.617 0.484313C117.476 0.507516 117.381 0.641367 117.405 0.782889C117.43 0.924411 117.564 1.02 117.706 0.996798ZM116.592 1.19065C116.225 1.25934 115.855 1.33222 115.484 1.41L115.484 1.41023C115.343 1.43875 115.206 1.34914 115.175 1.20838C115.145 1.0681 115.234 0.930405 115.374 0.901656C115.749 0.822983 116.123 0.749203 116.493 0.680129C116.633 0.653402 116.77 0.74687 116.797 0.88777C116.825 1.02839 116.733 1.16415 116.592 1.19065ZM113.285 1.91352C113.652 1.82118 114.018 1.7327 114.384 1.64854C114.523 1.6165 114.61 1.47713 114.577 1.33775C114.544 1.19785 114.404 1.11036 114.264 1.14263C113.895 1.22745 113.525 1.31683 113.156 1.40979C113.017 1.4446 112.933 1.58613 112.969 1.72466C113.005 1.86418 113.147 1.94805 113.286 1.91324L113.285 1.91352ZM112.184 2.20049C111.821 2.30006 111.459 2.40339 111.099 2.51123C110.962 2.55182 110.817 2.47342 110.775 2.33617C110.733 2.19916 110.811 2.05453 110.948 2.01319C111.312 1.9052 111.677 1.80022 112.043 1.69976C112.181 1.66194 112.325 1.74345 112.364 1.88183C112.402 2.01974 112.322 2.16319 112.184 2.20049ZM108.944 3.20445C109.299 3.08106 109.655 2.96114 110.014 2.84522C110.15 2.80111 110.224 2.65485 110.18 2.51897C110.135 2.38235 109.988 2.30733 109.852 2.35093C109.489 2.46803 109.128 2.58861 108.77 2.71365C108.635 2.76077 108.565 2.90867 108.613 3.04416C108.66 3.17942 108.809 3.25105 108.944 3.20393L108.944 3.20445ZM107.886 3.58366C107.533 3.71664 107.183 3.85257 106.836 3.99245C106.704 4.04633 106.552 3.98219 106.497 3.84925C106.443 3.71603 106.506 3.56485 106.639 3.51097C106.99 3.36916 107.344 3.23129 107.701 3.09737C107.835 3.0465 107.985 3.11501 108.036 3.24937C108.087 3.38372 108.02 3.53326 107.886 3.58366ZM104.761 4.89357C105.098 4.73524 105.44 4.5808 105.787 4.43002C105.917 4.3729 105.976 4.21986 105.919 4.08806C105.861 3.95678 105.707 3.89626 105.576 3.9539C105.225 4.10637 104.879 4.26326 104.537 4.42329C104.407 4.48469 104.353 4.63909 104.414 4.76872C104.476 4.89859 104.63 4.95474 104.76 4.89409L104.761 4.89357ZM103.743 5.38692C103.406 5.55719 103.074 5.73182 102.747 5.91058C102.621 5.9787 102.463 5.9321 102.394 5.80658C102.324 5.68058 102.37 5.52324 102.495 5.45438C102.827 5.2734 103.164 5.09627 103.506 4.92355C103.633 4.85868 103.79 4.91017 103.855 5.03838C103.921 5.1663 103.87 5.32257 103.743 5.38692ZM100.808 7.0509C101.121 6.85054 101.44 6.65506 101.765 6.46367C101.888 6.39058 101.928 6.23166 101.855 6.10835C101.782 5.98453 101.622 5.94335 101.499 6.01593C101.169 6.21057 100.845 6.40981 100.526 6.6129C100.406 6.68919 100.371 6.8497 100.449 6.97079C100.527 7.09164 100.687 7.12822 100.808 7.0509ZM99.8657 7.6729C99.5581 7.88575 99.2537 8.10253 98.9517 8.3266C98.8365 8.41134 98.6742 8.38652 98.5884 8.27133C98.5027 8.15613 98.5261 7.9933 98.6407 7.90833C98.9477 7.68153 99.2565 7.4605 99.5691 7.24493C99.6862 7.16419 99.8482 7.19385 99.9303 7.31172C100.012 7.43012 99.9831 7.59164 99.8657 7.6729ZM97.2024 9.69907C97.4934 9.45637 97.7839 9.22029 98.076 8.9905C98.1884 8.90207 98.207 8.73892 98.1183 8.62613C98.029 8.51312 97.8657 8.49343 97.7533 8.58187C97.4573 8.81485 97.1625 9.05338 96.8683 9.299C96.7589 9.39063 96.7444 9.55439 96.8368 9.66449C96.9292 9.77459 97.0926 9.78995 97.2024 9.69907ZM96.3354 10.4374C96.0587 10.6803 95.7807 10.9301 95.4971 11.1898C95.3917 11.2864 95.2279 11.2789 95.1306 11.1728C95.0333 11.0667 95.0396 10.903 95.1451 10.8065C95.4311 10.5442 95.7115 10.2917 95.9912 10.0464C96.0988 9.95203 96.2622 9.96306 96.3575 10.0708C96.4526 10.179 96.4425 10.3428 96.3354 10.4374ZM93.8465 12.7456L94.5062 12.1114L94.6611 11.9638C94.7647 11.8658 94.7688 11.7017 94.6695 11.5972C94.5708 11.493 94.4064 11.4884 94.3025 11.5869L93.484 12.3718C93.3812 12.4708 93.379 12.6351 93.4792 12.7388C93.5797 12.842 93.7435 12.8451 93.8465 12.7456ZM93.035 13.5313L92.222 14.3206C92.1193 14.4196 91.9549 14.4162 91.8552 14.3128C91.7557 14.2088 91.7577 14.0451 91.8607 13.9455L92.671 13.1581C92.7735 13.0584 92.9375 13.061 93.038 13.1641C93.1385 13.2673 93.137 13.4313 93.035 13.5313ZM80.4198 9.7026C80.8344 9.4825 81.2861 9.42963 81.7433 9.56149C81.8809 9.60126 81.9617 9.7447 81.9231 9.88278C81.8841 10.0206 81.7412 10.1004 81.603 10.0604C81.2778 9.96695 80.964 10.0031 80.667 10.1612C80.5408 10.2286 80.3832 10.1805 80.3151 10.0533C80.2471 9.92746 80.2942 9.77023 80.4198 9.7026ZM83.7001 11.0454C83.5182 10.73 83.2293 10.4322 82.8314 10.1461C82.7142 10.0621 82.552 10.0884 82.469 10.2045C82.3859 10.3207 82.4131 10.4835 82.5299 10.5673C82.8717 10.8125 83.1097 11.0581 83.251 11.3035C83.3233 11.4282 83.482 11.4713 83.6062 11.3999C83.7302 11.329 83.7724 11.1701 83.7006 11.0456L83.7001 11.0454ZM83.8556 12.4074C83.752 12.7526 83.5492 13.1065 83.2496 13.4788C83.1607 13.5902 82.9973 13.6072 82.8853 13.5174C82.7736 13.4272 82.755 13.2635 82.8445 13.1524C83.1053 12.8278 83.2761 12.5303 83.3582 12.2555C83.3993 12.1187 83.544 12.0418 83.6812 12.0832C83.8183 12.1252 83.8962 12.2704 83.8556 12.4074ZM81.5636 15.0776C81.8937 14.8115 82.1822 14.5646 82.4362 14.3294C82.5411 14.2326 82.5464 14.0684 82.4491 13.9623C82.3514 13.8573 82.1874 13.8503 82.0817 13.9474C81.8372 14.1738 81.5575 14.4136 81.236 14.6729C81.1249 14.7626 81.1082 14.9259 81.1986 15.0376C81.289 15.1493 81.4525 15.1672 81.5634 15.0781L81.5636 15.0776ZM80.2506 16.0809L79.7629 16.4386C79.6787 16.4999 79.5696 16.503 79.4836 16.4549C79.5396 16.4659 79.5995 16.4587 79.6536 16.4304C79.7805 16.364 79.8281 16.207 79.7613 16.0799C79.7248 16.0112 79.6901 15.9414 79.657 15.8706L79.7861 15.776L80.3621 15.3475C80.4757 15.262 80.6389 15.2848 80.7259 15.3999C80.8122 15.5141 80.7906 15.6771 80.676 15.7633L80.2506 16.0809ZM79.3669 15.0737C79.4418 15.3505 79.5385 15.617 79.657 15.8706L79.4554 16.0182C79.3398 16.1027 79.3153 16.265 79.4001 16.381C79.4232 16.4124 79.4518 16.4372 79.4836 16.4549C79.409 16.4402 79.3412 16.3932 79.3028 16.3204C79.1171 15.9705 78.9718 15.5971 78.8656 15.206C78.8281 15.0678 78.9096 14.9256 79.0483 14.8887C79.1863 14.8522 79.3291 14.9347 79.3669 15.0737ZM77.9177 17.7751L78.832 17.1097C78.9474 17.0257 78.9729 16.8638 78.8878 16.7471C78.8035 16.6313 78.6414 16.6047 78.5252 16.689L77.609 17.356C77.4933 17.4405 77.4696 17.6026 77.5544 17.7186C77.64 17.8343 77.8026 17.8599 77.9177 17.7751ZM77.0119 18.4427C76.698 18.6781 76.4019 18.9055 76.1164 19.129C76.0042 19.2169 75.8411 19.1967 75.7519 19.0837C75.6631 18.9709 75.6825 18.8074 75.7946 18.7195C76.0831 18.4937 76.3816 18.2649 76.6978 18.0274C76.8116 17.9414 76.9746 17.9647 77.0616 18.0798C77.1479 18.194 77.1258 18.3567 77.0119 18.4427ZM74.3719 20.565C74.6464 20.3242 74.9311 20.0818 75.2279 19.8373C75.3376 19.7465 75.3531 19.5832 75.2612 19.472C75.1697 19.3611 75.0061 19.345 74.8958 19.4357C74.5949 19.6838 74.3063 19.9295 74.0274 20.1745C73.9203 20.2691 73.9104 20.4324 74.0055 20.5407C74.1009 20.6484 74.2643 20.6594 74.3719 20.565ZM73.5532 21.3077C73.2764 21.5704 73.0112 21.8335 72.758 22.0963C72.659 22.1995 72.4944 22.2022 72.391 22.1028C72.2872 22.003 72.2838 21.8387 72.3829 21.7355C72.6414 21.4664 72.9119 21.1983 73.1943 20.93C73.2982 20.8315 73.4623 20.8366 73.5613 20.9404C73.6603 21.0454 73.657 21.2092 73.5532 21.3077ZM71.285 23.8085C71.5041 23.5172 71.7373 23.228 71.985 22.9397C72.0782 22.8314 72.0655 22.6672 71.9563 22.5738C71.8474 22.4799 71.6838 22.4917 71.5906 22.6C71.3361 22.8964 71.0954 23.1941 70.8698 23.4943C70.784 23.6084 70.8076 23.7706 70.9221 23.8577C71.0367 23.9443 71.1989 23.9218 71.2852 23.808L71.285 23.8085ZM70.653 24.7089C70.4488 25.0267 70.2619 25.3449 70.092 25.667L70.0922 25.6665C70.0258 25.7931 69.8686 25.8408 69.7419 25.773C69.6149 25.7057 69.5667 25.5485 69.6331 25.4219C69.8097 25.0879 70.004 24.7557 70.2164 24.4266C70.293 24.3065 70.4535 24.2721 70.5744 24.3503C70.6948 24.4283 70.7302 24.589 70.653 24.7089ZM69.2481 27.7383C69.3489 27.3868 69.4699 27.0389 69.6102 26.694C69.6642 26.5619 69.5999 26.4098 69.4674 26.355C69.3347 26.3006 69.1833 26.3634 69.1293 26.4955C68.9825 26.8579 68.8556 27.2231 68.7495 27.592C68.71 27.7295 68.7901 27.8738 68.9271 27.9145C69.065 27.9544 69.2091 27.8759 69.2486 27.7385L69.2481 27.7383ZM68.8839 29.9156C68.9031 29.5458 68.9424 29.1795 69.0033 28.8168C69.027 28.6759 68.9317 28.5415 68.7901 28.5167C68.6489 28.4921 68.515 28.5869 68.4913 28.7279C68.4273 29.1103 68.3852 29.4965 68.3657 29.8866C68.3587 30.0294 68.4692 30.152 68.6119 30.1606C68.7553 30.1688 68.8772 30.0592 68.8842 29.9163L68.8839 29.9156ZM79.49 10.5814C79.28 10.8928 79.1029 11.2589 78.9671 11.6622C78.9211 11.7974 78.994 11.9452 79.1297 11.9916C79.2659 12.0382 79.4125 11.9665 79.4587 11.8308C79.5807 11.4696 79.7373 11.1453 79.9209 10.8734C80.0009 10.7543 79.9688 10.5931 79.8504 10.5123C79.731 10.4323 79.5698 10.4627 79.49 10.5814ZM78.6682 14.0153C78.6429 13.6192 78.655 13.2219 78.7024 12.832L78.7032 12.8317C78.7202 12.6902 78.8498 12.5897 78.9925 12.6081C79.1339 12.6266 79.2356 12.7564 79.2181 12.8989C79.1743 13.257 79.1633 13.6224 79.1863 13.9858C79.1956 14.1285 79.0867 14.2509 78.944 14.2592C78.8006 14.2677 78.6774 14.158 78.6682 14.0153ZM80.9123 18.0999C80.571 17.8717 80.266 17.6083 79.9988 17.3122L79.9993 17.3124C79.9028 17.2054 79.9107 17.041 80.0171 16.9453C80.1234 16.8496 80.2877 16.8591 80.3836 16.9658C80.6217 17.2295 80.8939 17.4644 81.1987 17.668C81.3186 17.7477 81.3515 17.9088 81.2725 18.0286C81.1931 18.1477 81.0322 18.1795 80.9123 18.0999ZM82.0041 18.6541C82.1366 18.704 82.2733 18.7502 82.4134 18.7916C82.7029 18.8421 82.9498 18.8721 83.199 18.8913C83.3423 18.9031 83.4663 18.7961 83.4771 18.6529C83.4872 18.51 83.3795 18.3848 83.236 18.3735C83.0013 18.3553 82.7698 18.3273 82.527 18.2867L82.3653 18.2323L82.1848 18.1682C82.0501 18.1174 81.9008 18.185 81.8508 18.3192C81.8009 18.4535 81.8695 18.6033 82.0041 18.6541ZM85.5433 18.734C85.1621 18.8193 84.7752 18.8752 84.3796 18.9018C84.2363 18.9111 84.1124 18.8029 84.1016 18.6593C84.091 18.5165 84.1986 18.3928 84.3414 18.3833C84.7104 18.359 85.0707 18.3066 85.4263 18.2272C85.5658 18.1956 85.7056 18.2837 85.7379 18.4239C85.7704 18.5635 85.6828 18.7025 85.5433 18.734ZM86.6728 18.3906C87.0264 18.2538 87.3777 18.0898 87.7297 17.8994C87.855 17.831 87.901 17.6734 87.8318 17.5476C87.7633 17.4216 87.6053 17.3745 87.4794 17.4426C87.1463 17.6229 86.8149 17.7772 86.4821 17.9066C86.3486 17.9582 86.2832 18.1089 86.336 18.2422C86.3886 18.376 86.5399 18.4424 86.6728 18.3906ZM89.6689 16.5981C89.3533 16.8484 89.0463 17.0752 88.7434 17.2815C88.6251 17.3623 88.4638 17.3311 88.3824 17.2129C88.3008 17.094 88.3311 16.9324 88.4487 16.8519C88.7415 16.6529 89.0384 16.4333 89.3451 16.1903C89.457 16.1016 89.6199 16.121 89.7099 16.2338C89.7993 16.3463 89.7808 16.5095 89.6689 16.5981ZM90.5446 15.8712C90.6778 15.7542 90.8144 15.6326 90.9548 15.5052L91.3892 15.106C91.4938 15.0085 91.4989 14.8448 91.4006 14.7396C91.3028 14.6345 91.1388 14.6275 91.0339 14.7256C90.7386 15.0005 90.4641 15.2494 90.2003 15.4802C90.093 15.574 90.0828 15.7378 90.1779 15.846C90.273 15.9542 90.4365 15.9653 90.5443 15.8717L90.5446 15.8712Z" fill="#B1BFFF"/>
<circle cx="24.4879" cy="32.8879" r="1.88794" stroke="#597AFA"/>
<path fill-rule="evenodd" clip-rule="evenodd" d="M103.473 47.7998L100.6 49.4582L102.258 52.3308L105.131 50.6725L103.473 47.7998Z" stroke="#F8BF50"/>
<circle cx="40.4273" cy="57.8646" r="7.7" fill="#F65E5A" stroke="white"/>
<path d="M38.3835 55.8081L42.6102 60.0347" stroke="white" stroke-width="1.5" stroke-linecap="round"/>
<path d="M42.6104 55.8081L38.3836 60.0347" stroke="white" stroke-width="1.5" stroke-linecap="round"/>
</svg>
