<svg width="105" height="94" viewBox="0 0 105 94" fill="none" xmlns="http://www.w3.org/2000/svg">
<path d="M35.6433 38.6795L26.2814 86.813L25.0555 93.1142L87.5549 92.8071C90.3587 92.7939 92.8448 90.3025 93.7476 86.6038L104.83 41.1603C105.516 38.3512 104.012 35.4309 101.884 35.4309L38.6272 35.4971C37.2292 35.4971 36.0087 36.8024 35.6433 38.6795V38.6795Z" fill="#597AFA"/>
<g opacity="0.5">
<path d="M35.6433 38.6795L26.2814 86.813L25.0555 93.1142L87.5549 92.8071C90.3587 92.7939 92.8448 90.3025 93.7476 86.6038L104.83 41.1603C105.516 38.3512 104.012 35.4309 101.884 35.4309L38.6272 35.4971C37.2292 35.4971 36.0087 36.8024 35.6433 38.6795V38.6795Z" fill="#445EC6"/>
</g>
<path d="M49.3788 54.1811L14.865 61.8642C13.3375 62.204 11.8233 61.2416 11.4825 59.7134L0.867117 12.0266C0.52729 10.4992 1.48978 8.98497 3.01791 8.64413L37.5317 0.961012C39.0592 0.621185 40.5734 1.58368 40.9142 3.11181L51.5296 50.7986C51.8694 52.3261 50.9069 53.8403 49.3788 54.1811V54.1811Z" fill="#DDE6F8"/>
<path d="M23.5163 15.2674L8.33986 18.7753C8.00869 18.8516 7.63319 18.4242 7.5014 17.819C7.36978 17.2145 7.53107 16.6619 7.8627 16.5854L23.0391 13.0775C23.3703 13.0012 23.7458 13.4286 23.8776 14.0338C24.0092 14.6383 23.8479 15.1909 23.5163 15.2674Z" fill="white"/>
<path d="M38.0222 19.2893L10.3482 25.4495C9.74429 25.5838 9.14524 25.2038 9.01082 24.5991C8.87657 23.9952 9.25654 23.3962 9.86124 23.2618L37.5353 17.1016C38.1392 16.9673 38.7382 17.3473 38.8726 17.952C39.0069 18.5558 38.6269 19.1549 38.0222 19.2893V19.2893Z" fill="white"/>
<path d="M39.5317 26.0701L11.8577 32.2303C11.2538 32.3645 10.6548 31.9846 10.5203 31.3799C10.3861 30.776 10.7661 30.177 11.3708 30.0425L39.0448 23.8823C39.6487 23.7481 40.2477 24.128 40.3821 24.7327C40.5164 25.3366 40.1364 25.9357 39.5317 26.0701Z" fill="white"/>
<path d="M42.5508 39.6318L14.8767 45.7921C14.2729 45.9263 13.6738 45.5463 13.5394 44.9416C13.4051 44.3378 13.7851 43.7387 14.3898 43.6043L42.0639 37.4441C42.6677 37.3098 43.2668 37.6898 43.4012 38.2945C43.5354 38.8984 43.1555 39.4974 42.5508 39.6318V39.6318Z" fill="#D5E2FF"/>
<path d="M44.06 46.4119L16.386 52.5721C15.7821 52.7063 15.1831 52.3264 15.0487 51.7217C14.9144 51.1178 15.2944 50.5188 15.8991 50.3843L43.5731 44.2241C44.177 44.0899 44.776 44.4698 44.9105 45.0745C45.0447 45.6784 44.6647 46.2775 44.06 46.4119V46.4119Z" fill="#D5E2FF"/>
<path d="M59.7657 68.4208L25.8049 58.577C24.302 58.1412 23.4365 56.5696 23.8717 55.0656L37.4728 8.14304C37.9086 6.64015 39.4802 5.77458 40.9842 6.20984L74.9449 16.0536C76.4478 16.4894 77.3134 18.0611 76.8782 19.565L63.2771 66.4876C62.8413 67.9905 61.2696 68.856 59.7657 68.4208V68.4208Z" fill="#DDE6F8"/>
<path d="M55.7796 21.8669L40.7842 17.652C40.457 17.5598 40.3331 17.0046 40.5083 16.4104C40.6832 15.8171 41.0902 15.4099 41.4178 15.5022L56.4132 19.7172C56.7404 19.8093 56.8644 20.3645 56.6892 20.9587C56.5142 21.552 56.1072 21.9592 55.7796 21.8669Z" fill="white"/>
<path d="M66.5693 32.3636L39.3389 24.4703C38.7448 24.2979 38.402 23.6769 38.5746 23.0819C38.747 22.4878 39.368 22.145 39.9629 22.3177L67.1934 30.2109C67.7875 30.3833 68.1303 31.0044 67.9577 31.5993C67.7853 32.1934 67.1643 32.5362 66.5693 32.3636V32.3636Z" fill="white"/>
<path d="M64.6355 39.0354L37.405 31.1422C36.8109 30.9698 36.4681 30.3487 36.6407 29.7538C36.8131 29.1597 37.4342 28.8169 38.0291 28.9895L65.2596 36.8828C65.8537 37.0552 66.1965 37.6762 66.0239 38.2712C65.8515 38.8653 65.2304 39.2081 64.6355 39.0354Z" fill="white"/>
<path d="M62.7015 45.7077L35.4711 37.8144C34.877 37.642 34.5342 37.021 34.7068 36.4261C34.8792 35.832 35.5002 35.4891 36.0951 35.6618L63.3256 43.555C63.9197 43.7274 64.2625 44.3485 64.0899 44.9434C63.9175 45.5375 63.2965 45.8803 62.7015 45.7077Z" fill="#D6D6D6"/>
<path d="M60.7676 52.3799L33.5371 44.4867C32.943 44.3143 32.6002 43.6932 32.7728 43.0983C32.9452 42.5042 33.5663 42.1614 34.1612 42.334L61.3916 50.2273C61.9857 50.3997 62.3286 51.0207 62.1559 51.6156C61.9835 52.2097 61.3625 52.5526 60.7676 52.3799V52.3799Z" fill="#D5E2FF"/>
<path d="M58.8339 59.0514L31.6034 51.1582C31.0093 50.9858 30.6665 50.3647 30.8391 49.7698C31.0115 49.1757 31.6326 48.8329 32.2275 49.0055L59.4579 56.8988C60.052 57.0712 60.3949 57.6922 60.2222 58.2871C60.0498 58.8812 59.4288 59.2241 58.8339 59.0514V59.0514Z" fill="#D5E2FF"/>
<path d="M81.5608 83.5511L74.9444 30.2257C74.6744 28.0415 72.9322 26.4105 70.8777 26.4185L56.3662 26.4661C55.2913 26.4688 54.2613 26.9268 53.4988 27.737L46.6098 35.0603L6.25234 35.2721C3.78742 35.2853 1.89174 37.6179 2.21739 40.2416L8.36248 89.5268C8.63518 91.7084 10.372 93.3367 12.4239 93.3314L82.7575 93.1937C90.5918 93.3552 91.3384 91.0439 91.3384 91.0439C82.3604 93.0322 81.5608 83.5591 81.5608 83.5538V83.5511Z" fill="#597AFA"/>
<path d="M37.6567 69.7114H45.9425V67.8766C45.9425 66.713 45.4507 65.5498 44.6592 64.843C43.9248 64.1851 43.4306 63.9328 43.1024 63.7666C42.7428 63.5836 42.2499 63.3321 42.2499 62.6722C42.2499 61.9981 42.7572 61.7458 43.127 61.5623C43.4512 61.4009 43.943 61.1567 44.6825 60.5494C45.4598 59.9126 45.9425 58.73 45.9425 57.4646V55.6294H37.6567V57.4646C37.6567 58.5839 38.1796 59.7782 39.0192 60.5816C39.8352 61.3615 40.2998 61.5547 40.5775 61.6702C40.8279 61.7749 41.3493 61.9922 41.3493 62.6692C41.3493 63.3382 40.8576 63.5893 40.4982 63.7733C40.1676 63.9425 39.6692 64.198 38.8633 64.8471C38.1083 65.4558 37.6569 66.5888 37.6569 67.8767V69.7115L37.6567 69.7114ZM48.9998 54.009C48.9998 54.529 48.6545 54.951 48.2298 54.951H47.4216V57.4644C47.4216 59.17 46.7532 60.7359 45.6347 61.6535C44.9965 62.1773 44.5009 62.4785 44.1388 62.6732C44.5098 62.8796 45.0158 63.2035 45.6597 63.7796C46.7637 64.766 47.4218 66.2978 47.4218 67.8765V70.4575H48.23C48.6549 70.4575 48.9999 70.8628 48.9999 71.3617C48.9999 71.8609 48.6547 72.2662 48.23 72.2662H35.3687C34.9438 72.2662 34.6 71.8609 34.6 71.3617C34.6 70.8628 34.9438 70.4575 35.3687 70.4575H36.1773V67.8765C36.1773 66.1629 36.8301 64.6143 37.9212 63.7347C38.5595 63.2203 39.0449 62.9136 39.4042 62.7117C39.0473 62.5083 38.578 62.1802 37.9837 61.6121C36.8523 60.5303 36.1774 58.9803 36.1774 57.4644V54.951H35.3687C34.9438 54.951 34.6 54.529 34.6 54.009C34.6 53.4879 34.9439 53.0662 35.3687 53.0662H48.2301C48.6549 53.0662 49 53.488 49 54.009H48.9998ZM38.1814 69.2644C38.1814 67.1542 41.7725 64.5317 41.7725 64.5317C41.7725 64.5317 45.4174 67.1541 45.4174 69.2644H38.1814ZM43.8222 59.5877C43.8222 60.7676 42.0875 60.8786 41.8144 61.5312C41.4792 60.9078 39.7765 60.7677 39.7765 59.5877H43.8222Z" fill="white"/>
</svg>
