<svg width="160" height="148" viewBox="0 0 160 148" fill="none" xmlns="http://www.w3.org/2000/svg">
<mask id="mask0_1282_213" style="mask-type:luminance" maskUnits="userSpaceOnUse" x="2" y="8" width="107" height="118">
<path fill-rule="evenodd" clip-rule="evenodd" d="M76.784 8.07323C77.656 7.81223 78.576 8.29223 78.861 9.15723L108.676 101.248C108.811 101.66 108.774 102.11 108.574 102.495C108.374 102.878 108.026 103.167 107.611 103.292L34.151 125.667C33.279 125.928 32.357 125.447 32.072 124.582L2.26404 32.4882C2.12904 32.0772 2.16604 31.6272 2.36704 31.2432C2.56704 30.8582 2.91604 30.5722 3.33104 30.4472L76.784 8.07323Z" fill="white"/>
</mask>
<g mask="url(#mask0_1282_213)">
<path d="M-6.14893 -0.331787H117.089V134.072H-6.14893V-0.331787Z" fill="#DBE3FF"/>
</g>
<mask id="mask1_1282_213" style="mask-type:luminance" maskUnits="userSpaceOnUse" x="9" y="15" width="80" height="63">
<path fill-rule="evenodd" clip-rule="evenodd" d="M74.105 15.0871C74.582 14.9451 75.083 15.2081 75.238 15.6801L88.66 57.1481C88.733 57.3731 88.713 57.6181 88.603 57.8281C88.495 58.0371 88.305 58.1951 88.078 58.2621L23.64 77.8871C23.165 78.0281 22.663 77.7671 22.508 77.2951L9.08697 35.8321C9.01297 35.6071 9.03297 35.3621 9.14197 35.1521C9.25197 34.9421 9.44197 34.7851 9.66697 34.7171L74.105 15.0871Z" fill="white"/>
</mask>
<g mask="url(#mask1_1282_213)">
<path d="M0.709961 6.71509H97.037V86.2581H0.709961V6.71509Z" fill="#EEF0FF"/>
</g>
<mask id="mask2_1282_213" style="mask-type:luminance" maskUnits="userSpaceOnUse" x="50" y="6" width="99" height="109">
<path fill-rule="evenodd" clip-rule="evenodd" d="M83.6319 6.15805C83.9939 6.01805 84.3969 6.03305 84.7469 6.19805L147.414 35.182C148.157 35.532 148.497 36.405 148.184 37.165L115.999 114.083C115.852 114.442 115.565 114.725 115.202 114.867C114.842 115.007 114.439 114.993 114.087 114.828L51.4199 85.845C50.6769 85.493 50.3369 84.622 50.6499 83.86L82.8349 6.94205C82.9819 6.58305 83.2689 6.30005 83.6319 6.15805Z" fill="white"/>
</mask>
<g mask="url(#mask2_1282_213)">
<path d="M42.2 -2.27002H156.634V123.297H42.2V-2.27002Z" fill="#DBE3FF"/>
</g>
<mask id="mask3_1282_213" style="mask-type:luminance" maskUnits="userSpaceOnUse" x="71" y="12" width="72" height="63">
<path fill-rule="evenodd" clip-rule="evenodd" d="M86.0069 12.6671C86.1949 12.5921 86.4069 12.6001 86.5899 12.6851L141.625 38.1401C142.013 38.3241 142.19 38.7801 142.027 39.1791L127.517 73.8601C127.44 74.0491 127.29 74.1971 127.1 74.2701C126.912 74.3441 126.7 74.3371 126.517 74.2491L71.4819 48.7941C71.0929 48.6101 70.9149 48.1551 71.0779 47.7571L85.5899 13.0751C85.6669 12.8871 85.8169 12.7391 86.0069 12.6651V12.6671Z" fill="white"/>
</mask>
<g mask="url(#mask3_1282_213)">
<path d="M62.6848 4.28223H150.42V82.6542H62.6848V4.28223Z" fill="#EEF0FF"/>
</g>
<mask id="mask4_1282_213" style="mask-type:luminance" maskUnits="userSpaceOnUse" x="0" y="100" width="7" height="7">
<path fill-rule="evenodd" clip-rule="evenodd" d="M3.85997 100.393C4.05497 100.405 4.23197 100.513 4.33197 100.682L6.06897 103.788C6.10197 103.843 6.12397 103.905 6.13197 103.97C6.17997 104.2 6.07197 104.433 5.86497 104.547L2.85697 106.34C2.80197 106.373 2.74197 106.398 2.67897 106.408C2.43897 106.465 2.19197 106.35 2.07897 106.132L0.341969 103.025C0.308969 102.97 0.286969 102.908 0.278969 102.845C0.229969 102.615 0.338969 102.382 0.544969 102.268L3.55697 100.472C3.64497 100.41 3.75397 100.383 3.85997 100.393ZM3.63397 101.733L1.58997 102.952L2.77897 105.077L4.82197 103.858L3.63397 101.733V101.733Z" fill="white"/>
</mask>
<g mask="url(#mask4_1282_213)">
<path d="M-8.06592 92.0581H14.4771V114.757H-8.06592V92.0581Z" fill="#F8BF50"/>
</g>
<path d="M123.513 4.39112C124.598 4.38812 125.482 5.26512 125.487 6.35012V129.761C125.483 130.848 124.6 131.726 123.513 131.723H31.2379C30.7169 131.725 30.2149 131.52 29.8449 131.151C29.4729 130.785 29.2649 130.285 29.2629 129.761V6.35012C29.2649 5.82812 29.4749 5.32812 29.8469 4.96112C30.2149 4.59512 30.7169 4.39012 31.2379 4.39112H123.513Z" fill="white" stroke="#97A8FF" stroke-width="0.914" stroke-linecap="round" stroke-linejoin="round"/>
<mask id="mask5_1282_213" style="mask-type:luminance" maskUnits="userSpaceOnUse" x="36" y="102" width="83" height="22">
<path fill-rule="evenodd" clip-rule="evenodd" d="M117.588 102.185C118.233 102.185 118.755 102.707 118.755 103.352V122.714C118.755 123.359 118.233 123.88 117.588 123.88H37.2271C36.5821 123.88 36.0601 123.359 36.0601 122.714V103.352C36.0601 102.707 36.5821 102.185 37.2271 102.185H117.588Z" fill="white"/>
</mask>
<g mask="url(#mask5_1282_213)">
<path d="M27.7271 93.8521H127.088V132.214H27.7271V93.8521Z" fill="#E3E7FF"/>
</g>
<mask id="mask6_1282_213" style="mask-type:luminance" maskUnits="userSpaceOnUse" x="35" y="74" width="32" height="8">
<path fill-rule="evenodd" clip-rule="evenodd" d="M66.0969 74.905C66.2799 74.905 66.4299 75.055 66.4299 75.239V80.827C66.4299 81.01 66.2799 81.16 66.0969 81.16H36.3249C36.1419 81.16 35.9919 81.01 35.9919 80.827V75.239C35.9919 75.055 36.1419 74.905 36.3249 74.905H66.0969Z" fill="white"/>
</mask>
<g mask="url(#mask6_1282_213)">
<path d="M27.6589 66.572H74.7639V89.494H27.6589V66.572Z" fill="#F7F8FF" fill-opacity="0.6"/>
</g>
<ellipse cx="123.525" cy="123.032" rx="19.392" ry="19.917" transform="rotate(-13.924 123.525 123.032)" fill="#8093DA" fill-opacity="0.18"/>
<mask id="mask7_1282_213" style="mask-type:luminance" maskUnits="userSpaceOnUse" x="36" y="85" width="13" height="3">
<path fill-rule="evenodd" clip-rule="evenodd" d="M47.572 85.6072C47.964 85.6072 48.281 85.9232 48.281 86.3152C48.281 86.7072 47.964 87.0252 47.572 87.0252H37.461C37.069 87.0252 36.751 86.7082 36.751 86.3152C36.751 85.9232 37.071 85.6072 37.461 85.6072H47.572V85.6072Z" fill="white"/>
</mask>
<g mask="url(#mask7_1282_213)">
<path d="M28.417 77.2732H56.614V95.3582H28.417V77.2732Z" fill="#E3E7FF"/>
</g>
<mask id="mask8_1282_213" style="mask-type:luminance" maskUnits="userSpaceOnUse" x="36" y="89" width="32" height="3">
<path fill-rule="evenodd" clip-rule="evenodd" d="M66.8959 89.6311C67.2869 89.6311 67.6039 89.9481 67.6039 90.3401C67.6039 90.7331 67.2869 91.0501 66.8959 91.0501H37.4219C37.0309 91.0501 36.7139 90.7331 36.7139 90.3411C36.7139 89.9481 37.0309 89.6311 37.4219 89.6311H66.8959Z" fill="white"/>
</mask>
<g mask="url(#mask8_1282_213)">
<path d="M28.3809 81.2981H75.9369V99.3831H28.3809V81.2981Z" fill="#E3E7FF"/>
</g>
<mask id="mask9_1282_213" style="mask-type:luminance" maskUnits="userSpaceOnUse" x="36" y="94" width="27" height="2">
<path fill-rule="evenodd" clip-rule="evenodd" d="M61.8519 94.0151C62.2439 94.0151 62.5609 94.3311 62.5609 94.7251C62.5609 95.1151 62.2439 95.4331 61.8519 95.4331H37.4319C37.0409 95.4331 36.7239 95.1161 36.7239 94.7251C36.7239 94.3331 37.0409 94.0151 37.4319 94.0151H61.8519Z" fill="white"/>
</mask>
<g mask="url(#mask9_1282_213)">
<path d="M28.3909 85.6812H70.8939V103.766H28.3909V85.6812Z" fill="#E3E7FF"/>
</g>
<mask id="mask10_1282_213" style="mask-type:luminance" maskUnits="userSpaceOnUse" x="55" y="46" width="7" height="16">
<path fill-rule="evenodd" clip-rule="evenodd" d="M55.74 46.6941H61.385V61.9891H55.74V46.6941Z" fill="white"/>
</mask>
<g mask="url(#mask10_1282_213)">
<path d="M47.407 38.3601H69.719V70.3221H47.407V38.3601Z" fill="#97A8FF"/>
</g>
<mask id="mask11_1282_213" style="mask-type:luminance" maskUnits="userSpaceOnUse" x="67" y="39" width="7" height="24">
<path fill-rule="evenodd" clip-rule="evenodd" d="M67.9341 39.2412H73.5891V62.0132H67.9341V39.2412Z" fill="white"/>
</mask>
<g mask="url(#mask11_1282_213)">
<path d="M59.6001 30.9082H81.9221V70.3462H59.6001V30.9082Z" fill="#F58852"/>
</g>
<mask id="mask12_1282_213" style="mask-type:luminance" maskUnits="userSpaceOnUse" x="80" y="41" width="6" height="22">
<path fill-rule="evenodd" clip-rule="evenodd" d="M80.1399 41.2031H85.8749V62.0071H80.1399V41.2031Z" fill="white"/>
</mask>
<g mask="url(#mask12_1282_213)">
<path d="M71.8069 32.8701H94.2089V70.3401H71.8069V32.8701Z" fill="#F8BF50"/>
</g>
<mask id="mask13_1282_213" style="mask-type:luminance" maskUnits="userSpaceOnUse" x="92" y="31" width="7" height="32">
<path fill-rule="evenodd" clip-rule="evenodd" d="M92.4219 31.3352H98.0469V62.0452H92.4219V31.3352Z" fill="white"/>
</mask>
<g mask="url(#mask13_1282_213)">
<path d="M84.0889 23.0012H106.381V70.3782H84.0889V23.0012Z" fill="#97A8FF"/>
</g>
<path d="M117.817 11.6L117.831 11.3502L117.82 11.35L117.817 11.6ZM119.072 12.853L119.322 12.8493L119.322 12.839L119.072 12.853ZM119.072 68.721L119.322 68.729V68.721H119.072ZM117.817 70.01L117.82 70.2603L117.831 70.2596L117.817 70.01ZM72.904 70.12L72.903 70.37L72.9031 70.37L72.904 70.12ZM54.937 70.048L54.938 69.798L54.9379 69.798L54.937 70.048ZM36.972 70.01L36.9633 70.26H36.972V70.01ZM35.685 68.753L35.4347 68.7558L35.4354 68.7675L35.685 68.753ZM35.685 12.885L35.435 12.8763V12.885H35.685ZM36.94 11.6L36.9368 11.3498L36.9255 11.3504L36.94 11.6ZM36.975 11.881H36.725C36.725 12.0191 36.8369 12.131 36.975 12.131V11.881ZM36.975 11.88H37.225C37.225 11.812 37.1973 11.7469 37.1483 11.6998C37.0992 11.6527 37.0331 11.6275 36.9652 11.6302L36.975 11.88ZM35.975 12.861L35.7251 12.8461L35.725 12.8582L35.975 12.861ZM35.975 68.748L35.7247 68.7508L35.7254 68.7622L35.975 68.748ZM36.955 69.726L36.9417 69.9759L36.9519 69.976L36.955 69.726ZM117.817 69.726L117.82 69.9762L117.831 69.9756L117.817 69.726ZM118.797 68.748L119.047 68.7622L119.047 68.7517L118.797 68.748ZM118.797 12.861L119.047 12.8573L119.047 12.8468L118.797 12.861ZM117.817 11.88L117.832 11.6302L117.82 11.63L117.817 11.88ZM117.803 11.8496C118.351 11.8805 118.792 12.3196 118.822 12.8671L119.322 12.839C119.276 12.0364 118.633 11.3955 117.831 11.3504L117.803 11.8496ZM118.822 12.8567C119.099 31.4776 118.822 50.0927 118.822 68.721H119.322C119.322 50.1033 119.599 31.4745 119.322 12.8493L118.822 12.8567ZM118.822 68.713C118.804 69.2738 118.361 69.7279 117.802 69.7604L117.831 70.2596C118.649 70.2121 119.296 69.5482 119.322 68.729L118.822 68.713ZM117.814 69.76C102.846 69.945 87.8757 69.925 72.9049 69.87L72.9031 70.37C87.8743 70.425 102.848 70.445 117.82 70.26L117.814 69.76ZM72.905 69.87L54.938 69.798L54.936 70.298L72.903 70.37L72.905 69.87ZM54.9379 69.798C48.9497 69.776 42.9604 69.76 36.972 69.76V70.26C42.9595 70.26 48.9482 70.276 54.9361 70.298L54.9379 69.798ZM36.9807 69.7602C36.4195 69.7406 35.9671 69.2994 35.9346 68.7385L35.4354 68.7675C35.4829 69.5866 36.1445 70.2314 36.9633 70.2599L36.9807 69.7602ZM35.935 68.7502C35.727 50.1288 35.935 31.512 35.935 12.885H35.435C35.435 31.504 35.227 50.1312 35.435 68.7558L35.935 68.7502ZM35.9348 12.8937C35.9543 12.3336 36.3954 11.8821 36.9545 11.8496L36.9255 11.3504C36.1085 11.3979 35.4636 12.0584 35.4351 12.8763L35.9348 12.8937ZM36.9431 11.85C63.896 11.508 90.8539 11.508 117.814 11.85L117.82 11.35C90.856 11.008 63.8939 11.008 36.9368 11.35L36.9431 11.85ZM37.225 11.881V11.88H36.725V11.881H37.225ZM36.9652 11.6302C36.3003 11.6562 35.7651 12.1833 35.7254 12.8461L36.2245 12.8759C36.2489 12.4687 36.5777 12.1458 36.9848 12.1298L36.9652 11.6302ZM35.725 12.8582C35.517 31.4851 35.517 50.1169 35.725 68.7508L36.225 68.7452C36.017 50.1151 36.017 31.4869 36.225 12.8638L35.725 12.8582ZM35.7254 68.7622C35.7626 69.4169 36.2859 69.9409 36.9417 69.9757L36.9682 69.4764C36.568 69.4551 36.2474 69.1351 36.2246 68.7338L35.7254 68.7622ZM36.9519 69.976C63.9059 70.31 90.863 70.31 117.82 69.976L117.814 69.476C90.8609 69.81 63.908 69.81 36.9581 69.476L36.9519 69.976ZM117.831 69.9756C118.485 69.9384 119.009 69.4177 119.047 68.7622L118.547 68.7338C118.525 69.1343 118.205 69.4536 117.803 69.4764L117.831 69.9756ZM119.047 68.7517C119.324 50.1212 119.324 31.4888 119.047 12.8573L118.547 12.8647C118.824 31.4912 118.824 50.1188 118.547 68.7443L119.047 68.7517ZM119.047 12.8468C119.009 12.1918 118.486 11.6689 117.832 11.6304L117.802 12.1296C118.204 12.1532 118.525 12.4742 118.547 12.8752L119.047 12.8468ZM117.82 11.63C90.8753 11.29 63.9155 11.631 36.975 11.631V12.131C63.9245 12.131 90.8727 11.79 117.814 12.13L117.82 11.63Z" fill="#E3E7FF"/>
<mask id="mask14_1282_213" style="mask-type:luminance" maskUnits="userSpaceOnUse" x="94" y="76" width="25" height="2">
<path fill-rule="evenodd" clip-rule="evenodd" d="M118.382 76.697V76.7C118.51 76.74 118.595 76.865 118.582 77C118.572 77.133 118.467 77.242 118.333 77.258H94.3501C94.0571 77.233 93.9881 76.727 94.3501 76.697H118.382Z" fill="white"/>
</mask>
<g mask="url(#mask14_1282_213)">
<path d="M85.77 68.363H126.917V85.592H85.77V68.363Z" fill="#E2E5FF"/>
</g>
<mask id="mask15_1282_213" style="mask-type:luminance" maskUnits="userSpaceOnUse" x="22" y="58" width="3" height="4">
<path fill-rule="evenodd" clip-rule="evenodd" d="M23.399 58.6262C24.144 58.6262 24.747 59.2302 24.747 59.9752C24.747 60.7202 24.144 61.3232 23.399 61.3232C22.654 61.3232 22.051 60.7202 22.051 59.9752C22.051 59.2302 22.654 58.6262 23.399 58.6262Z" fill="white"/>
</mask>
<g mask="url(#mask15_1282_213)">
<path d="M13.717 50.2932H33.081V69.6562H13.717V50.2932Z" fill="#597AFA"/>
</g>
<mask id="mask16_1282_213" style="mask-type:luminance" maskUnits="userSpaceOnUse" x="56" y="19" width="40" height="22">
<path fill-rule="evenodd" clip-rule="evenodd" d="M89.5569 19.5061L89.7009 19.5261L94.7439 20.3081H94.7839C95.0169 20.3311 95.2339 20.4461 95.3819 20.6301C95.5239 20.8051 95.5789 21.0331 95.5339 21.2531V21.2951L94.8539 25.6901C94.7489 26.1151 94.3359 26.3901 93.9039 26.3231C93.4709 26.2561 93.1589 25.8681 93.1869 25.4311L93.5909 22.8231L80.6559 31.4131C80.2719 31.6631 79.7659 31.5831 79.4769 31.2301L76.8109 27.8711L57.7689 40.0611C57.3869 40.3111 56.8789 40.2331 56.5909 39.8801C56.4569 39.7161 56.3969 39.5051 56.4289 39.2961C56.4619 39.0881 56.5809 38.9031 56.7569 38.7881L76.4719 26.1451C76.8559 25.8951 77.3619 25.9751 77.6509 26.3281L80.3169 29.6861L92.5769 21.5511L89.4619 21.0701C89.1689 21.0481 88.9119 20.8631 88.7959 20.5911C88.6819 20.3201 88.7309 20.0081 88.9219 19.7811C89.1119 19.5561 89.4139 19.4581 89.7009 19.5261L89.5569 19.5061V19.5061Z" fill="white"/>
</mask>
<g mask="url(#mask16_1282_213)">
<path d="M48.0869 11.1711H103.882V48.5401H48.0869V11.1711Z" fill="#597AFA"/>
</g>
<circle cx="5.66699" cy="3.33301" r="2" stroke="#597AFA" stroke-linejoin="round"/>
<path fill-rule="evenodd" clip-rule="evenodd" d="M156.017 11.374L153.705 14.851H158.601L156.017 11.374Z" stroke="#597AFA" stroke-linejoin="round"/>
<circle cx="127.567" cy="119.826" r="20" transform="rotate(-10.26 127.567 119.826)" fill="#F2F5FF"/>
<circle cx="128.073" cy="119.422" r="16" transform="rotate(-10.26 128.073 119.422)" fill="#FEFEFF"/>
<path d="M122.04 131.172C121.943 131.415 121.949 131.688 122.058 131.926C122.167 132.164 122.368 132.348 122.616 132.433C127.628 134.095 133.146 132.931 137.059 129.386C140.972 125.841 142.674 120.464 141.513 115.313C141.457 115.057 141.297 114.835 141.072 114.701C140.846 114.567 140.575 114.531 140.322 114.604C137.559 115.387 129.592 117.656 127.607 118.223C127.321 118.304 127.088 118.513 126.977 118.789C126.213 120.719 123.113 128.499 122.04 131.172V131.172Z" fill="#63E299"/>
</svg>
