<svg width="60" height="60" viewBox="0 0 60 60" fill="none" xmlns="http://www.w3.org/2000/svg">
<g id="Group 2">
<g id="Group">
<g id="Group_2">
<g id="Clipped">
<mask id="mask0_6596_227" style="mask-type:luminance" maskUnits="userSpaceOnUse" x="0" y="7" width="43" height="47">
<path id="x5td9919ma" fill-rule="evenodd" clip-rule="evenodd" d="M30.1758 7.15852C30.5168 7.05652 30.8768 7.24452 30.9883 7.58302L42.6553 43.6185C42.7078 43.78 42.6933 43.956 42.6153 44.1065C42.5368 44.2565 42.4003 44.3695 42.2383 44.4185L13.4933 53.1735C13.1518 53.276 12.7913 53.0875 12.6798 52.749L1.0158 16.7125C0.962801 16.5515 0.977301 16.3755 1.0558 16.2255C1.1343 16.075 1.2708 15.9625 1.4333 15.9135L30.1758 7.15852Z" fill="white"/>
</mask>
<g mask="url(#mask0_6596_227)">
<path id="Path" d="M-2.27661 3.87H45.9474V56.4625H-2.27661V3.87Z" fill="#DBE3FF"/>
</g>
</g>
</g>
<g id="Group_3">
<g id="Clipped_2">
<mask id="mask1_6596_227" style="mask-type:luminance" maskUnits="userSpaceOnUse" x="3" y="9" width="32" height="26">
<path id="agrizh51bc" fill-rule="evenodd" clip-rule="evenodd" d="M29.1278 9.90399C29.3143 9.84849 29.5108 9.95149 29.5713 10.136L34.8233 26.363C34.8523 26.451 34.8443 26.5465 34.8013 26.629C34.7588 26.7105 34.6843 26.7725 34.5958 26.7985L9.38079 34.478C9.19479 34.533 8.99879 34.431 8.93779 34.2465L3.68579 18.0215C3.65729 17.9335 3.66529 17.8375 3.70729 17.7555C3.75079 17.6735 3.82479 17.612 3.91279 17.5855L29.1278 9.90349V9.90399Z" fill="white"/>
</mask>
<g mask="url(#mask1_6596_227)">
<path id="Path_2" d="M0.408203 6.62799H38.1012V37.7535H0.408203V6.62799Z" fill="#EEF0FF"/>
</g>
</g>
</g>
<g id="Group_4">
<g id="Clipped_3">
<mask id="mask2_6596_227" style="mask-type:luminance" maskUnits="userSpaceOnUse" x="19" y="6" width="40" height="43">
<path id="cxjljjppee" fill-rule="evenodd" clip-rule="evenodd" d="M32.8553 6.41003C32.9968 6.35503 33.1548 6.36103 33.2918 6.42503L57.8133 17.7665C58.1043 17.9035 58.2373 18.2455 58.1148 18.543L45.5208 48.6415C45.4633 48.7815 45.3508 48.8925 45.2088 48.948C45.0683 49.003 44.9103 48.9975 44.7728 48.933L20.2508 37.5915C19.9598 37.454 19.8268 37.113 19.9498 36.815L32.5438 6.71653C32.6013 6.57653 32.7133 6.46503 32.8553 6.41003Z" fill="white"/>
</mask>
<g mask="url(#mask2_6596_227)">
<path id="Path_3" d="M16.6433 3.11151H61.4213V52.2465H16.6433V3.11151Z" fill="#DBE3FF"/>
</g>
</g>
</g>
<g id="Group_5">
<g id="Clipped_4">
<mask id="mask3_6596_227" style="mask-type:luminance" maskUnits="userSpaceOnUse" x="27" y="8" width="29" height="26">
<path id="qp4g7nf96g" fill-rule="evenodd" clip-rule="evenodd" d="M33.7854 8.95651C33.8589 8.92651 33.9419 8.93001 34.0134 8.96351L55.5489 18.924C55.7009 18.996 55.7699 19.1745 55.7064 19.3305L50.0284 32.9015C49.9984 32.975 49.9399 33.0335 49.8654 33.0615C49.7914 33.0905 49.7089 33.088 49.6369 33.0535L28.1019 23.093C27.9499 23.021 27.8799 22.843 27.9439 22.687L33.6224 9.11601C33.6524 9.04251 33.7109 8.98451 33.7854 8.95601V8.95651Z" fill="white"/>
</mask>
<g mask="url(#mask3_6596_227)">
<path id="Path_4" d="M24.6594 5.67499H58.9904V36.3425H24.6594V5.67499Z" fill="#EEF0FF"/>
</g>
</g>
</g>
<g id="Group_6">
<g id="Clipped_5">
<mask id="mask4_6596_227" style="mask-type:luminance" maskUnits="userSpaceOnUse" x="0" y="43" width="3" height="3">
<path id="fjn6mq0mpi" fill-rule="evenodd" clip-rule="evenodd" d="M1.64091 43.284C1.71691 43.2885 1.78591 43.331 1.82541 43.3965L2.50491 44.6125C2.51791 44.634 2.52641 44.658 2.52991 44.6835C2.54841 44.7735 2.50641 44.865 2.42491 44.909L1.24891 45.611C1.22691 45.624 1.20391 45.6335 1.17891 45.6375C1.08491 45.66 0.988909 45.615 0.943909 45.5295L0.263909 44.3135C0.250909 44.292 0.242409 44.2685 0.238909 44.2435C0.220409 44.1535 0.262909 44.062 0.343909 44.0175L1.52141 43.315C1.55641 43.291 1.59841 43.2805 1.64041 43.2845L1.64091 43.284ZM1.55191 43.8085L0.752409 44.285L1.21741 45.1165L2.01741 44.64L1.55241 43.8085H1.55191Z" fill="white"/>
</mask>
<g mask="url(#mask4_6596_227)">
<path id="Path_5" d="M-3.02612 40.0225H5.79488V48.9045H-3.02612V40.0225Z" fill="#F8BF50"/>
</g>
</g>
</g>
<g id="Group_7">
<g id="Clipped_6">
<mask id="mask5_6596_227" style="mask-type:luminance" maskUnits="userSpaceOnUse" x="11" y="5" width="39" height="51">
<path id="sievo600dk" fill-rule="evenodd" clip-rule="evenodd" d="M48.4618 5.71852C48.8863 5.71752 49.2318 6.06052 49.2338 6.48502V54.7765C49.2323 55.2015 48.8868 55.5455 48.4618 55.544H12.3538C12.1498 55.5445 11.9538 55.4645 11.8088 55.3205C11.6633 55.177 11.5818 54.981 11.5813 54.7765V6.48452C11.5818 6.28052 11.6638 6.08452 11.8093 5.94102C11.9533 5.79752 12.1498 5.71752 12.3543 5.71802H48.4618V5.71852Z" fill="white"/>
</mask>
<g mask="url(#mask5_6596_227)">
<path id="Path_6" d="M8.32031 2.45801H52.4948V58.805H8.32031V2.45801Z" fill="white"/>
</g>
</g>
</g>
<g id="Group_8">
<g id="Clipped_7">
<mask id="mask6_6596_227" style="mask-type:luminance" maskUnits="userSpaceOnUse" x="11" y="5" width="39" height="51">
<path id="fdplflc3am" fill-rule="evenodd" clip-rule="evenodd" d="M39.4374 5.59649L45.4609 5.64099L48.4729 5.66199C48.9134 5.68099 49.2679 6.03199 49.2894 6.47299C49.3474 22.7305 49.2994 38.7305 49.2894 54.788C49.2709 55.226 48.9214 55.5775 48.4834 55.599C36.4384 55.825 24.3899 55.676 12.3434 55.599C11.9059 55.583 11.5519 55.236 11.5279 54.799C11.4449 38.764 11.5279 22.5885 11.5279 6.48399C11.5439 6.04299 11.8934 5.68649 12.3344 5.66199C21.3669 5.49199 30.4024 5.53299 39.4374 5.59699V5.59649ZM12.3524 5.77099H12.3549C11.9684 5.78249 11.6569 6.08899 11.6369 6.47449C11.6589 22.6365 11.6194 38.6685 11.6369 54.796C11.6599 55.1715 11.9604 55.4705 12.3359 55.491C24.3814 55.717 36.4299 55.717 48.4799 55.491C48.8549 55.4695 49.1559 55.171 49.1794 54.796C49.1544 38.7175 49.1024 22.679 49.1794 6.46549C49.1564 6.09049 48.8559 5.79149 48.4799 5.77199C36.4404 5.54449 24.3954 5.77099 12.3529 5.77099H12.3524Z" fill="white"/>
</mask>
<g mask="url(#mask6_6596_227)">
<path id="Path_7" d="M8.23047 2.28052H52.5785V58.9795H8.23047V2.28052Z" fill="#597AFA"/>
</g>
</g>
</g>
<g id="Group_9">
<g id="Clipped_8">
<mask id="mask7_6596_227" style="mask-type:luminance" maskUnits="userSpaceOnUse" x="14" y="43" width="33" height="10">
<path id="nu498mbv9o" fill-rule="evenodd" clip-rule="evenodd" d="M46.143 43.9855C46.3955 43.9855 46.5995 44.1895 46.5995 44.442V52.0175C46.5995 52.27 46.3955 52.474 46.143 52.474H14.697C14.445 52.474 14.2405 52.27 14.2405 52.0175V44.4425C14.2405 44.19 14.445 43.986 14.697 43.986H46.143V43.9855Z" fill="white"/>
</mask>
<g mask="url(#mask7_6596_227)">
<path id="Path_8" d="M10.98 40.7245H49.8605V55.7355H10.98V40.7245Z" fill="#E3E7FF"/>
</g>
</g>
</g>
<g id="Group_10">
<g id="Clipped_9">
<mask id="mask8_6596_227" style="mask-type:luminance" maskUnits="userSpaceOnUse" x="14" y="43" width="33" height="10">
<path id="n8pgpcvj2q" fill-rule="evenodd" clip-rule="evenodd" d="M46.157 43.931C46.4255 43.946 46.6405 44.161 46.655 44.4295C46.692 46.9595 46.655 49.4895 46.655 52.0195C46.648 52.2935 46.4305 52.5165 46.157 52.531C35.671 52.665 25.184 52.531 14.698 52.531C14.424 52.524 14.2015 52.307 14.187 52.033C14.159 49.503 14.187 46.973 14.187 44.443C14.1955 44.169 14.412 43.9475 14.6855 43.9325C25.1745 43.7975 35.6655 43.7975 46.157 43.931ZM28.6785 43.9975L21.689 44.026C19.3585 44.035 17.029 44.041 14.699 44.041C14.4835 44.046 14.307 44.2175 14.297 44.4325C14.269 46.9645 14.269 49.497 14.297 52.029C14.309 52.24 14.477 52.408 14.688 52.4205C25.1755 52.554 35.6645 52.554 46.154 52.4205C46.365 52.408 46.533 52.24 46.5455 52.029C46.5825 49.4975 46.5825 46.965 46.5455 44.4325C46.533 44.2225 46.365 44.054 46.154 44.0415C40.3295 43.967 34.504 43.9755 28.679 43.9975H28.6785Z" fill="white"/>
</mask>
<g mask="url(#mask8_6596_227)">
<path id="Path_9" d="M10.9141 40.57H49.9321V55.8515H10.9141V40.57Z" fill="#D9E1FF"/>
</g>
</g>
</g>
<g id="Group_11">
<g id="Clipped_10">
<mask id="mask9_6596_227" style="mask-type:luminance" maskUnits="userSpaceOnUse" x="14" y="33" width="13" height="3">
<path id="ls05qd4sws" fill-rule="evenodd" clip-rule="evenodd" d="M25.9939 33.3105C26.0659 33.3105 26.1244 33.369 26.1244 33.4405V35.6275C26.1244 35.6995 26.0659 35.758 25.9944 35.758H14.3444C14.2724 35.758 14.2139 35.6995 14.2139 35.628V33.4405C14.2139 33.3685 14.2724 33.31 14.3439 33.31H25.9939V33.3105Z" fill="white"/>
</mask>
<g mask="url(#mask9_6596_227)">
<path id="Path_10" d="M10.9529 30.0495H29.3854V39.019H10.9529V30.0495Z" fill="#F7F8FF" fill-opacity="0.6"/>
</g>
</g>
</g>
<g id="Group_12">
<g id="Clipped_11">
<mask id="mask10_6596_227" style="mask-type:luminance" maskUnits="userSpaceOnUse" x="14" y="37" width="6" height="2">
<path id="gwxp8e5cru" fill-rule="evenodd" clip-rule="evenodd" d="M18.7455 37.4985C18.899 37.4985 19.023 37.722 19.023 37.9976C19.023 38.2742 18.899 38.4985 18.7455 38.4985H14.789C14.6355 38.4985 14.511 38.2751 14.511 37.9976C14.511 37.722 14.636 37.4985 14.789 37.4985H18.7455Z" fill="white"/>
</mask>
<g mask="url(#mask10_6596_227)">
<path id="Path_11" d="M11.25 31.6229H22.2835V44.3742H11.25V31.6229Z" fill="#DAE9F4"/>
</g>
</g>
</g>
<g id="Group_13">
<g id="Clipped_12">
<mask id="mask11_6596_227" style="mask-type:luminance" maskUnits="userSpaceOnUse" x="14" y="39" width="13" height="2">
<path id="zjkb1kpsow" fill-rule="evenodd" clip-rule="evenodd" d="M26.3068 39.073C26.4598 39.073 26.5838 39.2964 26.5838 39.5721C26.5838 39.8496 26.4598 40.073 26.3068 40.073H14.7738C14.6203 40.073 14.4963 39.8496 14.4963 39.5739C14.4963 39.2964 14.6203 39.073 14.7738 39.073H26.3068Z" fill="white"/>
</mask>
<g mask="url(#mask11_6596_227)">
<path id="Path_12" d="M11.2358 33.1973H29.8448V45.9487H11.2358V33.1973Z" fill="#DAE9F4"/>
</g>
</g>
</g>
<g id="Group_14">
<g id="Clipped_13">
<mask id="mask12_6596_227" style="mask-type:luminance" maskUnits="userSpaceOnUse" x="14" y="40" width="11" height="2">
<path id="4sdiagb7hy" fill-rule="evenodd" clip-rule="evenodd" d="M24.333 40.788C24.4865 40.788 24.6105 41.0114 24.6105 41.2889C24.6105 41.5637 24.4865 41.788 24.3335 41.788H14.778C14.6245 41.788 14.5005 41.5655 14.5005 41.2889C14.5005 41.0133 14.6245 40.788 14.778 40.788H24.333Z" fill="white"/>
</mask>
<g mask="url(#mask12_6596_227)">
<path id="Path_13" d="M11.2395 34.9133H27.8715V47.6637H11.2395V34.9133Z" fill="#DAE9F4"/>
</g>
</g>
</g>
<g id="Group_15">
<g id="Clipped_14">
<mask id="mask13_6596_227" style="mask-type:luminance" maskUnits="userSpaceOnUse" x="57" y="7" width="3" height="3">
<path id="ma5tpa5udA" fill-rule="evenodd" clip-rule="evenodd" d="M58.6079 7.784C58.6444 7.784 58.6779 7.804 58.6944 7.836L59.5544 9.2285C59.6349 9.371 59.5279 9.3945 59.4594 9.396L57.6749 9.3725C57.5114 9.3645 57.5494 9.26 57.5849 9.201L58.5094 7.8315C58.5534 7.773 58.5614 7.7835 58.6079 7.784ZM58.5964 8.0945L57.8814 9.1535L59.2614 9.172L58.5964 8.0945Z" fill="white"/>
</mask>
<g mask="url(#mask13_6596_227)">
<path id="Path_14" d="M54.293 4.52197H62.8445V12.657H54.293V4.52197Z" fill="#597AFA"/>
</g>
</g>
</g>
<g id="Group_16">
<g id="Clipped_15">
<mask id="mask14_6596_227" style="mask-type:luminance" maskUnits="userSpaceOnUse" x="21" y="22" width="4" height="7">
<path id="s1chx9ru9C" fill-rule="evenodd" clip-rule="evenodd" d="M21.9414 22.2715H24.1504V28.2565H21.9414V22.2715Z" fill="white"/>
</mask>
<g mask="url(#mask14_6596_227)">
<path id="Path_15" d="M18.6804 19.0105H27.4114V31.5175H18.6804V19.0105Z" fill="#97A8FF"/>
</g>
</g>
</g>
<g id="Group_17">
<g id="Clipped_16">
<mask id="mask15_6596_227" style="mask-type:luminance" maskUnits="userSpaceOnUse" x="26" y="19" width="3" height="10">
<path id="swrrtwrshE" fill-rule="evenodd" clip-rule="evenodd" d="M26.7129 19.3555H28.9259V28.266H26.7129V19.3555Z" fill="white"/>
</mask>
<g mask="url(#mask15_6596_227)">
<path id="Path_16" d="M23.4519 16.0945H32.1869V31.527H23.4519V16.0945Z" fill="#F58852"/>
</g>
</g>
</g>
<g id="Group_18">
<g id="Clipped_17">
<mask id="mask16_6596_227" style="mask-type:luminance" maskUnits="userSpaceOnUse" x="31" y="20" width="3" height="9">
<path id="dv4y80yruG" fill-rule="evenodd" clip-rule="evenodd" d="M31.4895 20.123H33.734V28.2635H31.4895V20.123Z" fill="white"/>
</mask>
<g mask="url(#mask16_6596_227)">
<path id="Path_17" d="M28.229 16.862H36.9945V31.524H28.229V16.862Z" fill="#F8BF50"/>
</g>
</g>
</g>
<g id="Group_19">
<g id="Clipped_18">
<mask id="mask17_6596_227" style="mask-type:luminance" maskUnits="userSpaceOnUse" x="36" y="16" width="3" height="13">
<path id="hksfw67coI" fill-rule="evenodd" clip-rule="evenodd" d="M36.2959 16.2615H38.4969V28.2785H36.2959V16.2615Z" fill="white"/>
</mask>
<g mask="url(#mask17_6596_227)">
<path id="Path_18" d="M33.0349 13.0005H41.7579V31.539H33.0349V13.0005Z" fill="#97A8FF"/>
</g>
</g>
</g>
<g id="Group_20">
<g id="Clipped_19">
<mask id="mask18_6596_227" style="mask-type:luminance" maskUnits="userSpaceOnUse" x="14" y="8" width="33" height="24">
<path id="s7si48fdhK" fill-rule="evenodd" clip-rule="evenodd" d="M46.2323 8.53903C46.4963 8.55403 46.7083 8.76553 46.7233 9.02953C46.8318 16.317 46.7233 23.6035 46.7233 30.891C46.7148 31.161 46.5018 31.3795 46.2323 31.395C40.3743 31.4675 34.5158 31.46 28.6573 31.438L21.6273 31.41C19.2838 31.4015 16.9403 31.395 14.5973 31.395C14.3273 31.386 14.1093 31.1735 14.0938 30.9035C14.0123 23.616 14.0938 16.3295 14.0938 9.04203C14.1028 8.77253 14.3153 8.55453 14.5848 8.53903C25.1323 8.40553 35.6818 8.40553 46.2323 8.53903ZM14.5988 8.64903C14.3888 8.65703 14.2198 8.82353 14.2073 9.03303C14.1258 16.321 14.1258 23.611 14.2073 30.9015C14.2188 31.108 14.3838 31.273 14.5908 31.2845C25.1368 31.4145 35.6848 31.4145 46.2323 31.2845C46.4388 31.2725 46.6038 31.108 46.6158 30.9015C46.7238 23.612 46.7238 16.322 46.6158 9.03303C46.6038 8.82603 46.4388 8.66103 46.2323 8.64853C35.6893 8.51553 25.1423 8.64953 14.5988 8.64953V8.64903Z" fill="white"/>
</mask>
<g mask="url(#mask18_6596_227)">
<path id="Path_19" d="M10.7964 5.17804H50.0324V34.714H10.7964V5.17804Z" fill="#96ACFF"/>
</g>
</g>
</g>
<g id="Group_21">
<g id="Clipped_20">
<mask id="mask19_6596_227" style="mask-type:luminance" maskUnits="userSpaceOnUse" x="36" y="34" width="11" height="1">
<path id="l5v6enxgmM" fill-rule="evenodd" clip-rule="evenodd" d="M46.4534 34.1525V34.1545C46.5034 34.1865 46.5369 34.2845 46.5314 34.3895C46.5279 34.4945 46.4864 34.5795 46.4344 34.5915H37.0494C36.9349 34.5715 36.9079 34.1755 37.0494 34.1515H46.4534V34.1525Z" fill="white"/>
</mask>
<g mask="url(#mask19_6596_227)">
<path id="Path_20" d="M33.6924 27.6305H49.7929V41.1135H33.6924V27.6305Z" fill="#E2E5FF"/>
</g>
</g>
</g>
<g id="Group_22">
<g id="Clipped_21">
<mask id="mask20_6596_227" style="mask-type:luminance" maskUnits="userSpaceOnUse" x="1" y="4" width="3" height="2">
<path id="ezfs4a9tfO" fill-rule="evenodd" clip-rule="evenodd" d="M2.57692 4.22902C3.05942 4.24152 3.44192 4.63852 3.43492 5.12102C3.42842 5.60352 3.03642 5.99102 2.55492 5.99102C2.07192 5.99102 1.67942 5.60302 1.67342 5.12102C1.66692 4.63852 2.04992 4.24102 2.53192 4.22852H2.57692V4.22902ZM2.58342 4.44902H2.55742C2.33142 4.46402 2.12742 4.58952 2.01342 4.78452C1.89842 4.98002 1.88842 5.21952 1.98542 5.42352C2.26442 5.93752 3.36842 5.78702 3.21442 4.98402C3.15092 4.68302 2.89092 4.46252 2.58342 4.44902Z" fill="white"/>
</mask>
<g mask="url(#mask20_6596_227)">
<path id="Path_21" d="M-1.58813 0.968018H6.69637V9.25202H-1.58813V0.968018Z" fill="#597AFA"/>
</g>
</g>
</g>
<g id="Group_23">
<g id="Clipped_22">
<mask id="mask21_6596_227" style="mask-type:luminance" maskUnits="userSpaceOnUse" x="8" y="26" width="2" height="2">
<path id="yagevinh8Q" fill-rule="evenodd" clip-rule="evenodd" d="M9.28629 26.941C9.57779 26.941 9.81379 27.177 9.81379 27.4685C9.81379 27.76 9.57829 27.996 9.28629 27.996C8.99429 27.996 8.75879 27.76 8.75879 27.4685C8.75879 27.177 8.99479 26.941 9.28629 26.941Z" fill="white"/>
</mask>
<g mask="url(#mask21_6596_227)">
<path id="Path_22" d="M5.4978 23.6801H13.0748V31.2571H5.4978V23.6801Z" fill="#597AFA"/>
</g>
</g>
</g>
<g id="Group_24">
<g id="Clipped_23">
<mask id="mask22_6596_227" style="mask-type:luminance" maskUnits="userSpaceOnUse" x="22" y="11" width="16" height="9">
<path id="3e0d85q4kS" fill-rule="evenodd" clip-rule="evenodd" d="M35.1738 11.633L35.2303 11.641L37.2038 11.947H37.2193C37.3108 11.956 37.3953 12.001 37.4538 12.0725C37.5088 12.141 37.5303 12.2305 37.5128 12.3165V12.333L37.2468 14.053C37.2058 14.219 37.0438 14.3265 36.8753 14.3005C36.7053 14.2745 36.5838 14.1225 36.5948 13.9515L36.7523 12.931L31.6908 16.2925C31.5408 16.39 31.3428 16.359 31.2298 16.2205L30.1863 14.9065L22.7353 19.6765C22.5858 19.774 22.3873 19.7435 22.2743 19.6055C22.2223 19.5415 22.1988 19.4585 22.2108 19.377C22.2238 19.2955 22.2703 19.223 22.3393 19.178L30.0543 14.2305C30.2043 14.133 30.4023 14.164 30.5153 14.3025L31.5588 15.6165L36.3558 12.4335L35.1373 12.245C35.0223 12.2365 34.9223 12.164 34.8763 12.0575C34.8318 11.9515 34.8508 11.8295 34.9258 11.7405C35.0003 11.6525 35.1183 11.614 35.2303 11.6405L35.1743 11.633H35.1738Z" fill="white"/>
</mask>
<g mask="url(#mask22_6596_227)">
<path id="Path_23" d="M18.9468 8.37152H40.7798V22.994H18.9468V8.37152Z" fill="#597AFA"/>
</g>
</g>
</g>
<g id="Group_25">
<g id="Clipped_24">
<mask id="mask23_6596_227" style="mask-type:luminance" maskUnits="userSpaceOnUse" x="35" y="36" width="21" height="20">
<path id="9j0s502zhU" fill-rule="evenodd" clip-rule="evenodd" d="M37.917 38.64C40.291 36.2655 43.8615 35.555 46.964 36.84C50.066 38.125 52.089 41.1525 52.089 44.51C52.089 46.007 51.6805 47.476 50.9055 48.7565C50.6695 49.1465 50.7335 49.6465 51.0595 49.9645C52.3405 51.2195 55.3455 54.164 55.851 54.6555C55.8575 54.734 55.827 54.8105 55.769 54.8635L54.969 55.594C54.459 56.0605 53.6745 56.049 53.179 55.5675C52.0665 54.4885 50.185 52.665 49.244 51.7565C48.9225 51.4455 48.432 51.39 48.049 51.6215C46.764 52.4005 45.2905 52.8115 43.7875 52.8115C40.4305 52.8115 37.4025 50.7895 36.118 47.687C34.833 44.585 35.5415 41.014 37.916 38.64H37.9175H37.917ZM43.7875 38.7635C40.6135 38.7635 38.041 41.3365 38.041 44.5105C38.041 47.6845 40.6135 50.2575 43.7875 50.2575C46.96 50.2525 49.531 47.6825 49.5345 44.5105C49.5345 41.3365 46.962 38.7635 43.7875 38.7635Z" fill="white"/>
</mask>
<g mask="url(#mask23_6596_227)">
<path id="Path_24" d="M32.2246 32.9475H59.1126V59.1975H32.2246V32.9475Z" fill="#8093DA" fill-opacity="0.18"/>
</g>
</g>
</g>
<g id="Group_26">
<g id="Clipped_25">
<mask id="mask24_6596_227" style="mask-type:luminance" maskUnits="userSpaceOnUse" x="36" y="35" width="21" height="21">
<path id="tb8vx00s9W" fill-rule="evenodd" clip-rule="evenodd" d="M38.7289 37.647C41.1029 35.2735 44.6739 34.5625 47.7764 35.848C50.8784 37.133 52.9009 40.1605 52.9009 43.518C52.9014 45.018 52.4909 46.4895 51.7134 47.772C51.4784 48.158 51.5389 48.6535 51.8584 48.972L55.8504 52.9735C56.0924 53.216 56.2269 53.547 56.2224 53.89C56.2174 54.233 56.0749 54.56 55.8264 54.7955L55.7404 54.8705C55.2394 55.2685 54.5104 55.234 54.0494 54.773L53.8749 54.5985L52.2099 52.9335L51.1264 51.851L50.7289 51.454L50.0559 50.783C49.7364 50.463 49.2389 50.403 48.8514 50.636C47.5684 51.411 46.0984 51.82 44.5999 51.819C41.2419 51.819 38.2149 49.7975 36.9299 46.695C35.6449 43.5925 36.3549 40.022 38.7289 37.6475H38.7294L38.7289 37.647ZM44.5989 37.7715C41.4249 37.7715 38.8524 40.344 38.8524 43.5185C38.8524 46.6925 41.4249 49.2655 44.5994 49.2655C47.7719 49.2605 50.3424 46.6905 50.3464 43.5185C50.3464 40.344 47.7734 37.7715 44.5994 37.7715H44.5989Z" fill="white"/>
</mask>
<g mask="url(#mask24_6596_227)">
<path id="Path_25" d="M33.0369 31.9555H59.4834V58.407H33.0369V31.9555Z" fill="#597AFA"/>
</g>
</g>
</g>
<g id="Group_27">
<g id="Clipped_26">
<mask id="mask25_6596_227" style="mask-type:luminance" maskUnits="userSpaceOnUse" x="36" y="36" width="21" height="20">
<path id="zmghdn7brY" fill-rule="evenodd" clip-rule="evenodd" d="M36.5299 41.5715C36.4789 41.9405 36.4544 42.313 36.4544 42.6865C36.4594 47.269 40.1734 50.9825 44.7564 50.9875C46.2544 50.9875 47.7244 50.5795 49.0074 49.8045C49.3949 49.5705 49.8914 49.631 50.2119 49.9515L50.6999 50.438L51.0799 50.817L51.7059 51.442L52.3664 52.102L53.0274 52.763L54.0314 53.767L54.2059 53.9415C54.6669 54.403 55.3959 54.437 55.8969 54.039L55.9829 53.964C56.0714 53.88 56.1479 53.7835 56.2084 53.678C56.2189 53.748 56.2234 53.8185 56.2234 53.889C56.2184 54.194 56.1054 54.486 55.9059 54.713L55.8269 54.795C55.3264 55.271 54.5379 55.2605 54.0494 54.772L53.8749 54.598L52.6534 53.376L51.1269 51.85L50.5444 51.2685L50.0574 50.782C49.7374 50.4625 49.2394 50.4015 48.8514 50.6355C47.5684 51.4105 46.0984 51.819 44.5999 51.8185C42.0559 51.8185 39.6519 50.652 38.0784 48.653C36.5534 46.717 35.9704 44.207 36.4779 41.803L36.5299 41.5715ZM52.8279 44.6205C52.6814 45.7025 52.3184 46.75 51.7594 47.694C51.6929 47.438 51.7329 47.166 51.8694 46.9395C52.2579 46.2985 52.5569 45.608 52.7579 44.8865L52.8279 44.6205ZM48.6034 38.4205C50.2034 39.8615 50.8629 42.0775 50.3114 44.1595C50.3344 43.946 50.3464 43.7315 50.3464 43.517C50.3464 40.63 48.2059 38.19 45.3429 37.817C42.4799 37.4435 39.7834 39.252 39.0439 42.043C39.2859 39.903 40.7044 38.078 42.7184 37.315C44.7324 36.552 47.0034 36.9785 48.6034 38.42V38.4205Z" fill="white"/>
</mask>
<g mask="url(#mask25_6596_227)">
<path id="Path_26" d="M33.0374 33.681H59.4839V58.406H33.0374V33.681Z" fill="#384DAE"/>
</g>
</g>
</g>
</g>
</g>
</svg>
