<svg width="100" height="101" viewBox="0 0 100 101" fill="none" xmlns="http://www.w3.org/2000/svg">
<path fill-rule="evenodd" clip-rule="evenodd" d="M37.6986 27.4789H53.672V27.9765H37.6986V27.4789ZM40.1469 41.5176H56.1203V42.0152H40.1469V41.5176ZM56.488 42.8712H40.5146V43.3688H56.488V42.8712ZM41.2484 44.2264H57.2218V44.7232H41.2484V44.2264ZM56.1203 63.3122H40.1469V63.8098H56.1203V63.3122ZM40.5146 64.6666H56.488V65.1642H40.5146V64.6666ZM57.2218 66.021H41.2484V66.5186H57.2218V66.021Z" fill="#E0E0E0"/>
<path d="M20.4922 23.3552H68.4108V87.5019H20.4922V23.3552Z" fill="#E1E6FF"/>
<path fill-rule="evenodd" clip-rule="evenodd" d="M40.7086 26.8362H24.7352V27.3329H40.7086V26.8362ZM40.7086 29.0727H24.7352V29.5703H40.7086V29.0727Z" fill="white"/>
<path d="M24.968 36.2849H41.6718V52.6944H24.968V36.2849Z" fill="#D6DCFF"/>
<path opacity="0.5" d="M25.5558 37.2781H41.1353V47.9686H25.5558V37.2781Z" fill="url(#paint0_linear_1176_54982)"/>
<path d="M25.6637 37.4033H41.0282V47.7219H25.6637V37.4033Z" fill="white"/>
<mask id="mask0_1176_54982" style="mask-type:luminance" maskUnits="userSpaceOnUse" x="25" y="37" width="17" height="11">
<path fill-rule="evenodd" clip-rule="evenodd" d="M25.6637 37.4033H41.0282V47.7219H25.6637V37.4033Z" fill="white"/>
</mask>
<g mask="url(#mask0_1176_54982)">
<path d="M24.3607 47.3495L28.2301 41.3818L29.8519 43.992L33.3468 40.3874L36.3416 43.992L38.9611 38.6467L45.7005 49.3381L23.8615 48.5909L24.3607 47.3495Z" fill="#F0F3FF"/>
</g>
<ellipse cx="27.3564" cy="38.8943" rx="1.12337" ry="1.11915" fill="#F0F3FF"/>
<path d="M24.968 58.2881H41.6718V74.6975H24.968V58.2881Z" fill="#D6DCFF"/>
<path opacity="0.5" d="M25.5558 59.2827H41.1353V69.9733H25.5558V59.2827Z" fill="white"/>
<path d="M25.6628 59.4067H41.0282V69.7254H25.6628V59.4067Z" fill="white"/>
<g opacity="0.4">
<path d="M24.3607 69.3531L28.2301 63.3854L29.8519 65.9965L33.3468 62.3911L36.3416 65.9965L38.9611 60.6504L45.6997 71.3418L23.8615 70.5962L24.3607 69.3531Z" fill="#BDBDBD"/>
<ellipse cx="27.3564" cy="60.9002" rx="1.12337" ry="1.11915" fill="#C2C6CC"/>
</g>
<path d="M22.3849 81.8831L34.4987 21.1611L80.0298 30.1751L67.916 90.8971L22.3849 81.8831Z" fill="white" stroke="#97A8FF" stroke-width="0.914" stroke-linecap="round" stroke-linejoin="round"/>
<path d="M37.697 25.2682L70.0103 31.6649L69.9124 32.1528L37.6002 25.7554L37.697 25.2682Z" fill="#E3E7FF"/>
<path d="M28.7424 70.8884L61.0555 77.2859L60.9578 77.7729L28.6455 71.3756L28.7424 70.8884Z" fill="#E3E7FF"/>
<path d="M28.2603 73.674L53.2302 78.6174L53.1324 79.1053L28.1633 74.1621L28.2603 73.674Z" fill="#E3E7FF"/>
<path opacity="0.7" d="M27.8013 76.4775L37.1028 78.3191L37.0058 78.8071L27.7035 76.9654L27.8013 76.4775Z" fill="#97A8FF"/>
<path opacity="0.7" d="M37.3363 28.0527L53.4928 31.2515L53.3952 31.7386L37.2395 28.5399L37.3363 28.0527Z" fill="#97A8FF"/>
<path d="M36.6534 30.8218L65.784 36.5886L65.6861 37.0764L36.5557 31.3088L36.6534 30.8218Z" fill="#E3E7FF"/>
<path opacity="0.7" d="M36.3021 33.6122L43.4004 35.0177L43.3034 35.5057L36.2043 34.1L36.3021 33.6122Z" fill="#1EC7B6"/>
<path d="M35.5178 36.3719L67.8311 42.7686L67.7332 43.2565L35.421 36.8591L35.5178 36.3719Z" fill="#E3E7FF"/>
<path d="M38.5406 48.1565L67.1806 53.8258L63.9457 70.0431L35.305 64.3728L38.5406 48.1565Z" fill="white"/>
<circle cx="54.6459" cy="59.9844" r="7" fill="#F65E5A" stroke="#F65E5A"/>
<path d="M52.5171 57.8423L56.9198 62.245" stroke="white" stroke-width="1.5" stroke-linecap="round"/>
<path d="M56.92 57.8423L52.5171 62.245" stroke="white" stroke-width="1.5" stroke-linecap="round"/>
<path d="M34.9732 39.1484L67.2863 45.5459L67.1886 46.033L34.8764 39.6356L34.9732 39.1484Z" fill="#E3E7FF"/>
<path d="M15.0327 70.8478C14.8184 70.755 14.7088 70.5163 14.7763 70.2945C14.7822 70.2777 14.7847 70.2608 14.7856 70.2439C14.7923 70.1419 14.7316 70.0483 14.6363 70.0137C14.541 69.9791 14.4339 70.0103 14.3723 70.0913C14.3622 70.1056 14.3537 70.12 14.347 70.136C14.2542 70.3485 14.0147 70.4581 13.7921 70.3907C13.7752 70.3856 13.7583 70.3822 13.7406 70.3814C13.6386 70.3738 13.5433 70.4354 13.5078 70.5315C13.4724 70.6277 13.5062 70.7356 13.5897 70.7955C13.604 70.8065 13.6192 70.8141 13.6344 70.8208C13.8486 70.9136 13.9582 71.1514 13.8907 71.374C13.8848 71.3909 13.8823 71.4078 13.8806 71.4247C13.8722 71.5275 13.9346 71.6228 14.0324 71.6583C14.1294 71.6928 14.2382 71.6591 14.2972 71.5756C14.3082 71.5613 14.3158 71.5461 14.3225 71.5309C14.4162 71.3175 14.6548 71.2079 14.8775 71.2762C14.8943 71.2813 14.9112 71.2847 14.9289 71.2847C15.031 71.2914 15.1246 71.2307 15.16 71.1362C15.1946 71.0409 15.1634 70.9338 15.0816 70.8731C15.0664 70.8621 15.0495 70.8537 15.0318 70.8478H15.0327Z" fill="#97A8FF"/>
<circle cx="85.9756" cy="27.4837" r="0.843369" fill="#F58852"/>
<ellipse cx="83.6884" cy="51.8893" rx="1.06855" ry="1.06433" stroke="#597AFA" stroke-width="0.64" stroke-linecap="round" stroke-linejoin="round"/>
<circle cx="7.37865" cy="32.9759" r="0.843369" stroke="#F58852" stroke-width="0.64" stroke-linecap="round" stroke-linejoin="round"/>
<mask id="mask1_1176_54982" style="mask-type:luminance" maskUnits="userSpaceOnUse" x="37" y="46" width="39" height="37">
<path fill-rule="evenodd" clip-rule="evenodd" d="M42.3363 50.7411C46.7218 46.3539 53.3178 45.0408 59.0493 47.4157C64.7809 49.7889 68.517 55.3813 68.517 61.5843C68.5178 64.3505 67.7622 67.0637 66.331 69.4302C65.895 70.1487 66.013 71.0747 66.6152 71.6609C68.9817 73.9793 74.5336 79.419 75.4672 80.3273C75.479 80.4716 75.4225 80.6141 75.3154 80.7119L73.837 82.0613C72.8966 82.9224 71.4469 82.9005 70.531 82.0115C68.4757 80.0187 65.0002 76.6502 63.2611 74.9719C62.6674 74.3976 61.7616 74.2947 61.054 74.7223C58.6808 76.1611 55.9575 76.921 53.182 76.9201C46.9799 76.9201 41.3867 73.1848 39.0134 67.4541C36.6385 61.7226 37.9482 55.1266 42.3338 50.7411H42.3354H42.3363ZM53.182 50.9684C47.3181 50.9684 42.5648 55.7208 42.5648 61.5848C42.5648 67.4487 47.3181 72.2019 53.182 72.2019C59.0417 72.1935 63.7916 67.4453 63.7983 61.5848C63.7983 55.7208 59.046 50.9684 53.182 50.9684Z" fill="white"/>
</mask>
<g mask="url(#mask1_1176_54982)">
<path d="M31.8203 40.2241H81.4922V88.7179H31.8203V40.2241Z" fill="#8093DA" fill-opacity="0.18"/>
</g>
<mask id="mask2_1176_54982" style="mask-type:luminance" maskUnits="userSpaceOnUse" x="39" y="44" width="38" height="38">
<path fill-rule="evenodd" clip-rule="evenodd" d="M43.8367 48.9069C48.2222 44.5214 54.8199 43.2083 60.5506 45.5832C66.2813 47.9565 70.0174 53.5497 70.0174 59.7527C70.0182 62.524 69.2592 65.2422 67.8229 67.6112C67.3894 68.3238 67.5016 69.2397 68.092 69.8293L75.4664 77.2205C75.9134 77.6684 76.1613 78.2798 76.1537 78.9132C76.1453 79.5466 75.8813 80.1504 75.4217 80.5864L75.2631 80.7256C74.338 81.4602 72.9903 81.3961 72.1385 80.5443L71.8171 80.2229L68.7414 77.1472L66.7392 75.1467L66.0055 74.413L64.7615 73.1732C64.1711 72.5829 63.2519 72.4707 62.5367 72.9025C60.1668 74.3337 57.4512 75.0893 54.6824 75.0877C48.4786 75.0877 42.887 71.3532 40.5138 65.6217C38.138 59.8901 39.4486 53.2942 43.8341 48.9069H43.8358H43.8367ZM54.6807 49.1363C48.8176 49.1363 44.0644 53.8896 44.0644 59.7527C44.0644 65.6166 48.8176 70.3698 54.6807 70.3698C60.5421 70.3614 65.2903 65.6132 65.2979 59.7527C65.2979 53.8896 60.5447 49.1363 54.6807 49.1363Z" fill="white"/>
</mask>
<g mask="url(#mask2_1176_54982)">
<path d="M33.3207 38.3916H82.1771V87.2573H33.3207V38.3916Z" fill="#597AFA"/>
</g>
<defs>
<linearGradient id="paint0_linear_1176_54982" x1="41.1353" y1="47.9686" x2="41.1353" y2="37.2781" gradientUnits="userSpaceOnUse">
<stop stop-color="white" stop-opacity="0.01"/>
<stop offset="0.54" stop-color="#808080" stop-opacity="0.122"/>
<stop offset="1" stop-color="#808080" stop-opacity="0.102"/>
</linearGradient>
</defs>
</svg>
