<svg width="150" height="126" viewBox="0 0 150 126" fill="none" xmlns="http://www.w3.org/2000/svg">
<path d="M122.609 56.6302L122.491 136.788H74.3353L74.453 63.4097L122.609 56.6302Z" fill="url(#paint0_linear_2530_1115)"/>
<path d="M74.3352 136.788H46.4534L46.5711 48.2162L74.453 63.4097L74.3352 136.788Z" fill="url(#paint1_linear_2530_1115)"/>
<path d="M74.453 63.4097L46.5711 48.2162L94.7266 41.4367L122.608 56.6302L74.453 63.4097Z" fill="url(#paint2_linear_2530_1115)"/>
<path style="mix-blend-mode:overlay" opacity="0.5" d="M81.8089 35.9293L50.6696 4.73361L19.5303 35.9293H36.1091V136.678H66.0599V35.9293H81.8089Z" fill="url(#paint3_linear_2530_1115)"/>
<path d="M29.4269 122.737L31.0977 122.905L30.7277 123.939L29.0569 123.77L29.4269 122.737Z" fill="#8098F1"/>
<path d="M29.4046 123.995L31.0809 124.163L28.429 131.521L26.7414 131.403L29.4046 123.995Z" fill="#8098F1"/>
<path d="M29.0569 123.77L30.7277 123.939L31.0809 124.163L29.4045 123.995L29.0569 123.77Z" fill="#3C4E8F"/>
<path d="M29.4269 122.737L31.0977 122.905L31.4509 123.13L29.7802 122.956L29.4269 122.737Z" fill="#3C4E8F"/>
<path d="M30.7726 118.99L32.4377 119.187L32.0677 120.215L30.4025 120.029L30.7726 118.99Z" fill="#8098F1"/>
<path d="M30.4025 120.029L32.0677 120.215L32.4265 120.434L30.7557 120.248L30.4025 120.029Z" fill="#3C4E8F"/>
<path d="M30.7557 120.248L32.4265 120.434L31.4509 123.13L29.7802 122.956L30.7557 120.248Z" fill="#8098F1"/>
<path d="M30.7725 118.99L32.4377 119.187L32.7965 119.406L31.1313 119.209L30.7725 118.99Z" fill="#3C4E8F"/>
<path d="M32.1294 115.227L33.7889 115.452L33.4133 116.485L31.7537 116.272L32.1294 115.227Z" fill="#8098F1"/>
<path d="M31.7537 116.272L33.4133 116.485L33.7721 116.699L32.1125 116.485L31.7537 116.272Z" fill="#3C4E8E"/>
<path d="M32.1125 116.485L33.7721 116.699L32.7965 119.406L31.1313 119.209L32.1125 116.485Z" fill="#8098F1"/>
<path d="M32.1293 115.227L33.7889 115.452L34.1477 115.659L32.4882 115.44L32.1293 115.227Z" fill="#3C4E8E"/>
<path d="M33.4862 111.458L35.1345 111.705L34.7645 112.744L33.1049 112.503L33.4862 111.458Z" fill="#8098F1"/>
<path d="M33.1049 112.503L34.7645 112.744L35.1233 112.952L33.4694 112.711L33.1049 112.503Z" fill="#3C4E8E"/>
<path d="M33.4693 112.711L35.1233 112.952L34.1477 115.659L32.4882 115.44L33.4693 112.711Z" fill="#8098F1"/>
<path d="M33.4861 111.458L35.1345 111.705L35.4989 111.907L33.845 111.666L33.4861 111.458Z" fill="#3C4E8E"/>
<path d="M34.8486 107.667L36.4913 107.936L36.1157 108.981L34.4673 108.717L34.8486 107.667Z" fill="#8098F1"/>
<path d="M34.4673 108.717L36.1157 108.981L36.4801 109.189L34.8318 108.925L34.4673 108.717Z" fill="#3C4E8E"/>
<path d="M34.8317 108.925L36.4801 109.189L35.4989 111.907L33.845 111.666L34.8317 108.925Z" fill="#8098F1"/>
<path d="M34.8486 107.667L36.4913 107.936L36.8558 108.138L35.213 107.869L34.8486 107.667Z" fill="#3C4E8E"/>
<path d="M36.211 103.87L37.8537 104.167L37.4781 105.212L35.8353 104.926L36.211 103.87Z" fill="#8098F1"/>
<path d="M36.1998 105.122L37.8425 105.414L36.8558 108.139L35.213 107.869L36.1998 105.122Z" fill="#8098F1"/>
<path d="M35.8353 104.926L37.4781 105.212L37.8425 105.414L36.1998 105.122L35.8353 104.926Z" fill="#3C4D8E"/>
<path d="M36.211 103.87L37.8537 104.167L38.2182 104.364L36.581 104.066L36.211 103.87Z" fill="#3C4D8E"/>
<path d="M37.5846 100.05L39.2218 100.376L38.8405 101.426L37.2034 101.112L37.5846 100.05Z" fill="#8098F1"/>
<path d="M37.5734 101.303L39.2106 101.623L38.2182 104.364L36.5811 104.066L37.5734 101.303Z" fill="#8098F1"/>
<path d="M37.2034 101.112L38.8405 101.426L39.2105 101.623L37.5734 101.303L37.2034 101.112Z" fill="#D5E5FF"/>
<path d="M37.5847 100.05L39.2218 100.376L39.5918 100.567L37.9547 100.247L37.5847 100.05Z" fill="#D5E5FF"/>
<path d="M38.9583 96.2253L40.5898 96.5735L40.2086 97.6295L38.577 97.2868L38.9583 96.2253Z" fill="#8098F1"/>
<path d="M38.577 97.2868L40.2086 97.6295L40.5786 97.8204L38.9471 97.4778L38.577 97.2868Z" fill="#D5E5FF"/>
<path d="M38.947 97.4778L40.5786 97.8204L39.5918 100.567L37.9547 100.247L38.947 97.4778Z" fill="#8098F1"/>
<path d="M38.9583 96.2253L40.5898 96.5735L40.9598 96.7645L39.3339 96.4106L38.9583 96.2253Z" fill="#D5E5FF"/>
<path d="M40.3431 92.3834L41.9634 92.7597L41.5822 93.8157L39.9619 93.4506L40.3431 92.3834Z" fill="#8098F1"/>
<path d="M40.3319 93.6303L41.9578 94.001L40.9599 96.7645L39.3339 96.4106L40.3319 93.6303Z" fill="#46998A"/>
<path d="M39.9619 93.4506L41.5822 93.8157L41.9578 94.001L40.3319 93.6303L39.9619 93.4506Z" fill="#D5E5FF"/>
<path d="M40.3431 92.3834L41.9634 92.7597L42.339 92.9394L40.7187 92.5631L40.3431 92.3834Z" fill="#D5E5FF"/>
<path d="M41.7279 88.5302L43.3426 88.929L42.9614 89.9962L41.3411 89.5974L41.7279 88.5302Z" fill="#8098F1"/>
<path d="M41.7223 89.7772L43.3371 90.1704L42.3391 92.9394L40.7188 92.5631L41.7223 89.7772Z" fill="#46998A"/>
<path d="M41.3411 89.5974L42.9614 89.9962L43.337 90.1704L41.7223 89.7772L41.3411 89.5974Z" fill="#D5E5FF"/>
<path d="M41.728 88.5302L43.3427 88.929L43.7239 89.1088L42.1036 88.7044L41.728 88.5302Z" fill="#D5E5FF"/>
<path d="M43.1184 84.6603L44.7275 85.0872L44.3462 86.1543L42.7371 85.7331L43.1184 84.6603Z" fill="#8098F1"/>
<path d="M42.7371 85.7331L44.3462 86.1543L44.7275 86.3285L43.1128 85.9072L42.7371 85.7331Z" fill="#D5E5FF"/>
<path d="M43.1128 85.9072L44.7275 86.3285L43.7239 89.1088L42.1036 88.7044L43.1128 85.9072Z" fill="#46998A"/>
<path d="M43.1184 84.6603L44.7275 85.0872L45.1088 85.2613L43.4997 84.8344L43.1184 84.6603Z" fill="#D5E5FF"/>
<path d="M44.5144 80.7791L46.1179 81.2284L45.7367 82.3012L44.1276 81.8575L44.5144 80.7791Z" fill="#8098F1"/>
<path d="M44.5088 82.026L46.1179 82.4697L45.1087 85.2613L43.4996 84.8344L44.5088 82.026Z" fill="#46998A"/>
<path d="M44.1276 81.8575L45.7367 82.3012L46.1179 82.4697L44.5088 82.026L44.1276 81.8575Z" fill="#D5E5FF"/>
<path d="M44.5145 80.7791L46.118 81.2284L46.5048 81.3969L44.9013 80.9419L44.5145 80.7791Z" fill="#D5E5FF"/>
<path d="M45.9161 76.881L47.514 77.364L47.1271 78.4369L45.5292 77.965L45.9161 76.881Z" fill="#8098F1"/>
<path d="M45.5292 77.965L47.1271 78.4369L47.514 78.5997L45.9105 78.1279L45.5292 77.965Z" fill="#D5E5FF"/>
<path d="M45.9105 78.1279L47.514 78.5997L46.5048 81.3969L44.9013 80.942L45.9105 78.1279Z" fill="#46998A"/>
<path d="M45.9161 76.881L47.514 77.364L47.9009 77.5213L46.303 77.0439L45.9161 76.881Z" fill="#D5E5FF"/>
<path d="M47.3234 72.9661L48.9157 73.4772L48.5288 74.5556L46.9365 74.0557L47.3234 72.9661Z" fill="#8098F1"/>
<path d="M46.9365 74.0557L48.5288 74.5556L48.9157 74.7129L47.3234 74.213L46.9365 74.0557Z" fill="#D5E5FF"/>
<path d="M47.3234 74.213L48.9157 74.7129L47.9009 77.5213L46.303 77.0439L47.3234 74.213Z" fill="#46998A"/>
<path d="M47.3234 72.9661L48.9157 73.4772L49.3025 73.6345L47.7102 73.1234L47.3234 72.9661Z" fill="#D5E5FF"/>
<path d="M48.7363 69.0456L50.3174 69.5792L49.9305 70.6632L48.3438 70.1352L48.7363 69.0456Z" fill="#8098F1"/>
<path d="M48.3438 70.1352L49.9305 70.6632L50.3174 70.8149L48.7307 70.2869L48.3438 70.1352Z" fill="#3B4C8B"/>
<path d="M48.7306 70.2869L50.3173 70.8148L49.3025 73.6345L47.7102 73.1234L48.7306 70.2869Z" fill="#46998A"/>
<path d="M48.7363 69.0456L50.3173 69.5792L50.7098 69.7308L49.1287 69.1972L48.7363 69.0456Z" fill="#3B4C8B"/>
<path d="M50.1547 65.1026L51.7302 65.6642L51.3377 66.7539L49.7623 66.1978L50.1547 65.1026Z" fill="#8098F1"/>
<path d="M49.7623 66.1978L51.3377 66.7539L51.7302 66.8999L50.1547 66.3439L49.7623 66.1978Z" fill="#3B4C8B"/>
<path d="M50.1547 66.3439L51.7302 66.8999L50.7098 69.7308L49.1287 69.1972L50.1547 66.3439Z" fill="#46998A"/>
<path d="M50.1547 65.1026L51.7302 65.6642L52.1227 65.8103L50.5472 65.2486L50.1547 65.1026Z" fill="#3B4C8B"/>
<path d="M51.5732 61.1539L53.1431 61.7437L52.7506 62.8334L51.1807 62.2492L51.5732 61.1539Z" fill="#8098F1"/>
<path d="M51.5732 62.3897L53.1487 62.9738L52.7506 62.8334L51.1807 62.2492L51.5732 62.3897Z" fill="#C7D1FF"/>
<path d="M51.5732 62.3896L53.1487 62.9738L52.1226 65.8103L50.5472 65.2486L51.5732 62.3896Z" fill="#46998A"/>
<path d="M29.7802 122.956L31.4509 123.13L38.6387 127.629L36.9679 127.483L29.7802 122.956Z" fill="#D5E5FF"/>
<path d="M51.9713 61.2944L53.5412 61.8841L53.1431 61.7437L51.5732 61.1539L51.9713 61.2944Z" fill="#C7D1FF"/>
<path d="M53.0029 57.1829L54.5672 57.8007L54.1691 58.896L52.6049 58.2838L53.0029 57.1829Z" fill="#8098F1"/>
<path d="M37.3435 127.724L36.9567 128.791L36.581 128.55L29.4045 123.995L29.0569 123.77L29.4269 122.737L29.7801 122.956L36.9679 127.483L37.3435 127.724Z" fill="#C7D1FF"/>
<path d="M53.0029 58.4186L54.5672 59.0308L54.1691 58.896L52.6049 58.2838L53.0029 58.4186Z" fill="#C7D1FF"/>
<path d="M53.0029 58.4186L54.5672 59.0308L53.5412 61.8841L51.9713 61.2944L53.0029 58.4186Z" fill="#46998A"/>
<path d="M31.1313 119.209L32.7965 119.406L40.0347 123.809L38.3695 123.635L31.1313 119.209Z" fill="#D5E5FF"/>
<path d="M53.401 57.3177L54.9653 57.9355L54.5672 57.8007L53.0029 57.1829L53.401 57.3177Z" fill="#C7D1FF"/>
<path d="M37.9827 124.702L39.6479 124.865L40.0235 125.096L38.3584 124.933L37.9827 124.702Z" fill="#3C4E8F"/>
<path d="M38.7452 123.866L40.4104 124.04L40.0235 125.096L38.3583 124.933L38.7452 123.866Z" fill="#8098F1"/>
<path d="M38.3696 123.635L40.0347 123.809L40.4104 124.04L38.7452 123.866L38.3696 123.635Z" fill="#3C4E8F"/>
<path d="M38.7452 123.866L38.3584 124.933L37.9827 124.702L30.7557 120.248L30.4025 120.029L30.7726 118.99L31.1314 119.209L38.3696 123.635L38.7452 123.866Z" fill="#C7D1FF"/>
<path d="M32.4882 115.44L34.1477 115.659L41.4364 119.967L39.7768 119.771L32.4882 115.44Z" fill="#D5E5FF"/>
<path d="M54.9653 52.9647L56.5239 53.6162L54.9653 57.9355L53.401 57.3177L54.9653 52.9647Z" fill="#46998A"/>
<path d="M54.9652 52.9646L53.401 57.3177L53.0029 57.1829L52.6048 58.2838L53.0029 58.4186L51.9713 61.2944L51.5732 61.1539L51.1808 62.2492L51.5732 62.3896L50.5472 65.2486L50.1547 65.1025L49.7623 66.1978L50.1547 66.3439L49.1287 69.1972L48.7363 69.0455L48.3438 70.1352L48.7306 70.2869L47.7102 73.1234L47.3234 72.9661L46.9365 74.0557L47.3234 74.213L46.303 77.0439L45.9161 76.881L45.5292 77.965L45.9105 78.1279L44.9013 80.9419L44.5144 80.779L44.1276 81.8575L44.5088 82.026L43.4996 84.8344L43.1184 84.6603L42.7371 85.7331L43.1128 85.9072L42.1036 88.7044L41.7279 88.5302L41.3411 89.5974L41.7223 89.7772L40.7187 92.5631L40.3431 92.3834L39.9618 93.4506L40.3319 93.6303L39.3339 96.4106L38.9583 96.2253L38.577 97.2868L38.947 97.4778L37.9547 100.247L37.5846 100.05L37.2034 101.112L37.5734 101.303L36.581 104.066L36.211 103.87L35.8354 104.926L36.1998 105.122L35.213 107.869L34.8486 107.667L34.4673 108.717L34.8318 108.925L33.845 111.666L33.4862 111.458L33.1049 112.503L33.4693 112.711L32.4882 115.44L32.1294 115.227L31.7537 116.272L32.1125 116.485L31.1314 119.209L30.7725 118.99L30.4025 120.029L30.7557 120.248L29.7802 122.956L29.427 122.737L29.0569 123.77L29.4045 123.995L26.7414 131.403L26.0461 130.937L54.1635 52.7119L54.9652 52.9646Z" fill="#C2E4DE"/>
<path d="M39.3843 120.844L41.0439 121.035L41.4252 121.259L39.7656 121.068L39.3843 120.844Z" fill="#3C4E8E"/>
<path d="M40.1581 119.996L39.7656 121.068L39.3844 120.844L32.1125 116.485L31.7537 116.272L32.1294 115.227L32.4882 115.44L39.7768 119.771L40.1581 119.996Z" fill="#C7D1FF"/>
<path d="M40.1581 119.996L41.8177 120.192L41.4252 121.259L39.7656 121.068L40.1581 119.996Z" fill="#8098F1"/>
<path d="M39.7769 119.771L41.4364 119.967L41.8177 120.192L40.1581 119.996L39.7769 119.771Z" fill="#3C4E8E"/>
<path d="M33.845 111.666L35.4989 111.907L42.838 116.114L41.1897 115.89L33.845 111.666Z" fill="#D5E5FF"/>
<path d="M40.7972 116.968L42.4512 117.187L42.8325 117.406L41.1785 117.193L40.7972 116.968Z" fill="#3C4E8E"/>
<path d="M41.1897 115.89L42.8381 116.114L43.2249 116.333L41.5709 116.114L41.1897 115.89Z" fill="#3C4E8E"/>
<path d="M41.571 116.114L41.1785 117.193L40.7972 116.968L33.4694 112.711L33.1049 112.503L33.4862 111.458L33.845 111.666L41.1897 115.89L41.571 116.114Z" fill="#C7D1FF"/>
<path d="M41.5709 116.114L43.2249 116.333L42.8324 117.406L41.1785 117.193L41.5709 116.114Z" fill="#8098F1"/>
<path d="M35.213 107.869L36.8558 108.138L44.2509 112.244L42.6082 111.997L35.213 107.869Z" fill="#D5E5FF"/>
<path d="M42.2101 113.076L43.8584 113.323L44.2453 113.536L42.5969 113.295L42.2101 113.076Z" fill="#3C4E8E"/>
<path d="M42.6082 111.997L44.2509 112.244L44.6378 112.463L42.995 112.211L42.6082 111.997Z" fill="#3C4E8E"/>
<path d="M42.9951 112.211L42.597 113.295L42.2101 113.076L34.8318 108.925L34.4673 108.717L34.8486 107.667L35.213 107.869L42.6082 111.997L42.9951 112.211Z" fill="#C7D1FF"/>
<path d="M42.9951 112.211L44.6378 112.463L44.2453 113.536L42.597 113.295L42.9951 112.211Z" fill="#8098F1"/>
<path d="M36.5811 104.066L38.2182 104.364L45.6638 108.369L44.0267 108.088L36.5811 104.066Z" fill="#D5E5FF"/>
<path d="M43.6342 109.178L45.2714 109.447L45.6582 109.655L44.0211 109.385L43.6342 109.178Z" fill="#3C4D8E"/>
<path d="M44.4191 108.301L46.0563 108.577L45.6582 109.655L44.0211 109.385L44.4191 108.301Z" fill="#8098F1"/>
<path d="M44.0267 108.088L45.6638 108.369L46.0563 108.577L44.4191 108.301L44.0267 108.088Z" fill="#3C4D8E"/>
<path d="M44.4191 108.301L44.021 109.385L43.6342 109.178L36.1998 105.122L35.8353 104.926L36.211 103.87L36.581 104.066L44.0266 108.088L44.4191 108.301Z" fill="#C7D1FF"/>
<path d="M37.9547 100.247L39.5918 100.567L47.0879 104.471L45.4563 104.167L37.9547 100.247Z" fill="#D5E5FF"/>
<path d="M45.0583 105.257L46.6954 105.555L47.0823 105.757L45.4508 105.459L45.0583 105.257Z" fill="#D5E5FF"/>
<path d="M45.4564 104.167L47.0879 104.471L47.4804 104.673L45.8488 104.37L45.4564 104.167Z" fill="#D5E5FF"/>
<path d="M45.8488 104.37L45.4508 105.459L45.0583 105.257L37.5734 101.303L37.2034 101.112L37.5846 100.05L37.9547 100.247L45.4564 104.167L45.8488 104.37Z" fill="#C7D1FF"/>
<path d="M45.8488 104.37L47.4804 104.673L47.0823 105.757L45.4507 105.459L45.8488 104.37Z" fill="#8098F1"/>
<path d="M39.3339 96.4106L40.9599 96.7645L48.512 100.561L46.8861 100.23L39.3339 96.4106Z" fill="#D5E5FF"/>
<path d="M46.488 101.325L48.1195 101.651L48.512 101.848L46.886 101.528L46.488 101.325Z" fill="#D5E5FF"/>
<path d="M46.886 100.23L48.512 100.561L48.91 100.764L47.2841 100.432L46.886 100.23Z" fill="#D5E5FF"/>
<path d="M47.2842 100.432L46.8861 101.528L46.488 101.325L38.9471 97.4778L38.577 97.2868L38.9583 96.2253L39.3339 96.4106L46.8861 100.23L47.2842 100.432Z" fill="#C7D1FF"/>
<path d="M47.2841 100.432L48.91 100.764L48.512 101.848L46.886 101.528L47.2841 100.432Z" fill="#8098F1"/>
<path d="M40.7188 92.5631L42.3391 92.9394L49.9473 96.6353L48.327 96.2758L40.7188 92.5631Z" fill="#D5E5FF"/>
<path d="M47.9289 97.3767L49.5492 97.7249L49.9417 97.9215L48.327 97.5677L47.9289 97.3767Z" fill="#D5E5FF"/>
<path d="M48.327 96.2758L49.9473 96.6353L50.3398 96.8319L48.725 96.4724L48.327 96.2758Z" fill="#D5E5FF"/>
<path d="M48.725 96.4724L48.327 97.5677L47.9289 97.3767L40.3319 93.6303L39.9619 93.4506L40.3431 92.3834L40.7188 92.5631L48.327 96.2758L48.725 96.4724Z" fill="#C2E4DE"/>
<path d="M48.725 96.4724L50.3398 96.8319L49.9417 97.9215L48.327 97.5677L48.725 96.4724Z" fill="#8098F1"/>
<path d="M42.1036 88.7044L43.7239 89.1088L51.3826 92.7035L49.7679 92.316L42.1036 88.7044Z" fill="#D5E5FF"/>
<path d="M49.3698 93.4169L50.9845 93.7932L51.3826 93.9842L49.7679 93.6078L49.3698 93.4169Z" fill="#D5E5FF"/>
<path d="M49.7679 92.316L51.3826 92.7035L51.7807 92.8889L50.1716 92.5013L49.7679 92.316Z" fill="#D5E5FF"/>
<path d="M50.1715 92.5013L49.7679 93.6078L49.3698 93.4169L41.7223 89.7772L41.3411 89.5974L41.7279 88.5302L42.1036 88.7044L49.7679 92.316L50.1715 92.5013Z" fill="#C2E4DE"/>
<path d="M50.1716 92.5013L51.7807 92.8889L51.3826 93.9842L49.7679 93.6078L50.1716 92.5013Z" fill="#8098F1"/>
<path d="M43.4996 84.8344L45.1087 85.2613L52.8235 88.7493L51.22 88.3336L43.4996 84.8344Z" fill="#D5E5FF"/>
<path d="M50.8163 89.4346L52.4255 89.8446L52.8235 90.0299L51.22 89.6199L50.8163 89.4346Z" fill="#D5E5FF"/>
<path d="M51.22 88.3336L52.8235 88.7493L53.2272 88.9347L51.6237 88.519L51.22 88.3336Z" fill="#D5E5FF"/>
<path d="M51.6237 88.519L53.2272 88.9347L52.8235 90.0299L51.22 89.6199L51.6237 88.519Z" fill="#8098F1"/>
<path d="M51.6237 88.519L51.22 89.6199L50.8163 89.4346L43.1128 85.9072L42.7371 85.7331L43.1184 84.6603L43.4996 84.8344L51.22 88.3337L51.6237 88.519Z" fill="#C2E4DE"/>
<path d="M44.9013 80.942L46.5048 81.3969L54.27 84.7838L52.6721 84.3401L44.9013 80.942Z" fill="#D5E5FF"/>
<path d="M52.2684 85.4466L53.8663 85.8847L54.2756 86.0645L52.6721 85.6264L52.2684 85.4466Z" fill="#D5E5FF"/>
<path d="M53.0814 84.5142L54.6737 84.958L54.2756 86.0645L52.6721 85.6264L53.0814 84.5142Z" fill="#8098F1"/>
<path d="M53.0814 84.5142L52.6721 85.6264L52.2684 85.4466L44.5088 82.026L44.1276 81.8575L44.5144 80.7791L44.9013 80.9419L52.6721 84.3401L53.0814 84.5142Z" fill="#C2E4DE"/>
<path d="M52.6721 84.3401L54.27 84.7838L54.6737 84.958L53.0814 84.5142L52.6721 84.3401Z" fill="#D5E5FF"/>
<path d="M46.303 77.0439L47.9009 77.5213L55.7221 80.8015L54.1299 80.3297L46.303 77.0439Z" fill="#D5E5FF"/>
<path d="M53.7262 81.4418L55.3185 81.908L55.7278 82.0822L54.1355 81.616L53.7262 81.4418Z" fill="#D5E5FF"/>
<path d="M54.5391 80.5038L54.1354 81.616L53.7262 81.4418L45.9105 78.1279L45.5292 77.965L45.9161 76.881L46.303 77.0439L54.1298 80.3297L54.5391 80.5038Z" fill="#C2E4DE"/>
<path d="M54.1298 80.3297L55.7221 80.8015L56.1314 80.9756L54.5391 80.5038L54.1298 80.3297Z" fill="#D5E5FF"/>
<path d="M54.5391 80.5038L56.1314 80.9757L55.7277 82.0822L54.1354 81.616L54.5391 80.5038Z" fill="#8098F1"/>
<path d="M47.7102 73.1234L49.3025 73.6345L57.1798 76.8024L55.5988 76.3025L47.7102 73.1234Z" fill="#D5E5FF"/>
<path d="M55.1895 77.4202L56.7762 77.9145L57.1855 78.083L55.6044 77.5887L55.1895 77.4202Z" fill="#D5E5FF"/>
<path d="M56.0081 76.471L55.6044 77.5887L55.1895 77.4202L47.3234 74.213L46.9365 74.0557L47.3234 72.9661L47.7102 73.1234L55.5988 76.3025L56.0081 76.471Z" fill="#C2E4DE"/>
<path d="M56.008 76.471L57.5947 76.9709L57.1854 78.083L55.6044 77.5887L56.008 76.471Z" fill="#8098F1"/>
<path d="M55.5988 76.3025L57.1799 76.8024L57.5948 76.9709L56.0081 76.471L55.5988 76.3025Z" fill="#D5E5FF"/>
<path d="M49.1287 69.1972L50.7098 69.7308L58.6432 72.792L57.0677 72.264L49.1287 69.1972Z" fill="#D5E5FF"/>
<path d="M56.6584 73.3873L58.2395 73.9097L58.6488 74.0726L57.0733 73.5502L56.6584 73.3873Z" fill="#3B4C8B"/>
<path d="M57.4827 72.4269L59.0581 72.9549L58.6488 74.0726L57.0734 73.5502L57.4827 72.4269Z" fill="#8098F1"/>
<path d="M57.0677 72.264L58.6432 72.792L59.0581 72.9548L57.4826 72.4269L57.0677 72.264Z" fill="#3B4C8B"/>
<path d="M57.4827 72.4269L57.0734 73.5502L56.6585 73.3873L48.7307 70.2869L48.3438 70.1352L48.7363 69.0456L49.1287 69.1972L57.0678 72.264L57.4827 72.4269Z" fill="#C2E4DE"/>
<path d="M50.5472 65.2486L52.1226 65.8103L60.1121 68.7647L58.5423 68.2087L50.5472 65.2486Z" fill="#D5E5FF"/>
<path d="M58.133 69.332L59.7029 69.8825L60.1234 70.0397L58.5535 69.4893L58.133 69.332Z" fill="#3B4C8B"/>
<path d="M59.6132 65.2711L61.1774 65.8496L53.1487 62.9738L51.5732 62.3896L59.6132 65.2711Z" fill="#C7D1FF"/>
<path d="M58.9628 68.3603L60.5326 68.922L60.1233 70.0397L58.5535 69.4893L58.9628 68.3603Z" fill="#8098F1"/>
<path d="M58.5423 68.2087L60.1122 68.7647L60.5327 68.922L58.9628 68.3603L58.5423 68.2087Z" fill="#3B4C8B"/>
<path d="M58.9628 68.3603L58.5535 69.4893L58.133 69.332L50.1547 66.3439L49.7623 66.1978L50.1547 65.1026L50.5472 65.2486L58.5423 68.2087L58.9628 68.3603Z" fill="#C2E4DE"/>
<path d="M60.0337 65.4227L61.5979 66.0012L61.1774 65.8496L59.6132 65.2711L60.0337 65.4227Z" fill="#C7D1FF"/>
<path d="M61.0989 61.1877L62.6576 61.7943L54.5672 59.0308L53.0029 58.4186L61.0989 61.1877Z" fill="#C7D1FF"/>
<path d="M60.4486 64.2881L62.0072 64.8779L61.5867 64.7262L60.0281 64.1421L60.4486 64.2881Z" fill="#C7D1FF"/>
<path d="M60.4485 64.2881L60.0336 65.4227L59.6131 65.2711L51.5732 62.3896L51.1807 62.2492L51.5732 61.1539L51.9713 61.2944L60.028 64.1421L60.4485 64.2881Z" fill="#C2E4DE"/>
<path d="M60.4485 64.2881L62.0072 64.8779L61.5979 66.0012L60.0336 65.4227L60.4485 64.2881Z" fill="#8098F1"/>
<path d="M61.525 61.3337L63.0781 61.9403L62.6576 61.7943L61.0989 61.1877L61.525 61.3337Z" fill="#C7D1FF"/>
<path d="M61.9399 60.1935L63.4929 60.8113L63.0668 60.6709L61.5138 60.0531L61.9399 60.1935Z" fill="#C7D1FF"/>
<path d="M61.9399 60.1935L61.525 61.3337L61.0989 61.1877L53.0029 58.4186L52.6049 58.2838L53.0029 57.1829L53.401 57.3177L61.5138 60.0531L61.9399 60.1935Z" fill="#C2E4DE"/>
<path d="M61.9399 60.1935L63.493 60.8113L63.0781 61.9403L61.525 61.3337L61.9399 60.1935Z" fill="#8098F1"/>
<path d="M63.9975 55.8517L34.5514 136.649L33.8113 136.15L36.581 128.55L36.9567 128.791L37.3435 127.724L36.9679 127.483L37.9827 124.702L38.3583 124.933L38.7452 123.866L38.3695 123.635L39.3843 120.844L39.7656 121.068L40.1581 119.996L39.7768 119.771L40.7972 116.968L41.1785 117.193L41.5709 116.114L41.1897 115.89L42.2101 113.076L42.597 113.295L42.995 112.211L42.6082 111.997L43.6342 109.178L44.021 109.385L44.4191 108.301L44.0267 108.088L45.0583 105.257L45.4507 105.459L45.8488 104.37L45.4564 104.167L46.488 101.325L46.886 101.528L47.2841 100.432L46.886 100.23L47.9289 97.3767L48.327 97.5677L48.725 96.4724L48.327 96.2758L49.3698 93.4169L49.7679 93.6078L50.1715 92.5013L49.7679 92.316L50.8163 89.4345L51.22 89.6199L51.6237 88.519L51.22 88.3337L52.2684 85.4466L52.6721 85.6264L53.0814 84.5142L52.6721 84.3401L53.7262 81.4418L54.1354 81.616L54.5391 80.5038L54.1298 80.3297L55.1895 77.4202L55.6044 77.5887L56.0081 76.471L55.5988 76.3025L56.6584 73.3873L57.0733 73.5502L57.4826 72.4269L57.0677 72.264L58.133 69.332L58.5535 69.4893L58.9628 68.3603L58.5423 68.2087L59.6131 65.2711L60.0336 65.4227L60.4485 64.2881L60.028 64.1421L61.0989 61.1877L61.525 61.3337L61.9399 60.1935L61.5138 60.0531L63.1397 55.5821L63.9975 55.8517Z" fill="#C2E4DE"/>
<path d="M63.9976 55.8517L65.5394 56.5032L36.2391 136.734L34.5515 136.649L63.9976 55.8517Z" fill="#46998A"/>
<path d="M80.9847 6.83713H77.6376C66.3177 6.83713 57.1396 16.3801 57.1396 28.1529C57.1396 39.9257 66.3177 49.4687 77.6376 49.4687H80.9847C92.3046 49.4687 101.483 39.9257 101.483 28.1529C101.483 16.3801 92.3046 6.83713 80.9847 6.83713Z" fill="url(#paint4_linear_2530_1115)"/>
<path d="M77.6376 49.4687C88.9582 49.4687 98.1355 39.9253 98.1355 28.1529C98.1355 16.3805 88.9582 6.83713 77.6376 6.83713C66.3169 6.83713 57.1396 16.3805 57.1396 28.1529C57.1396 39.9253 66.3169 49.4687 77.6376 49.4687Z" fill="url(#paint5_linear_2530_1115)"/>
<path d="M77.6376 45.7672C86.992 45.7672 94.5753 37.881 94.5753 28.1529C94.5753 18.4248 86.992 10.5386 77.6376 10.5386C68.2831 10.5386 60.6999 18.4248 60.6999 28.1529C60.6999 37.881 68.2831 45.7672 77.6376 45.7672Z" fill="url(#paint6_linear_2530_1115)"/>
<path d="M61.9615 28.1529C61.9615 18.6437 69.2052 10.9037 78.2712 10.5555C78.0637 10.5498 77.8507 10.5386 77.6433 10.5386C68.2914 10.5386 60.7056 18.4246 60.7056 28.1529C60.7056 37.8812 68.2914 45.7672 77.6433 45.7672C77.8563 45.7672 78.0637 45.756 78.2712 45.7503C69.2108 45.4077 61.9615 37.6621 61.9615 28.1529Z" fill="url(#paint7_linear_2530_1115)"/>
<path d="M87.6675 22.7203L86.7913 25.881H70.0539L70.9301 22.7203H87.6675ZM79.567 42.2739L70.5725 31.6846L70.5546 29.0239H74.8283C75.937 29.0239 76.849 28.8275 77.5642 28.4346C78.2914 28.0298 78.8339 27.4882 79.1915 26.8096C79.5491 26.1191 79.7279 25.3513 79.7279 24.506C79.7279 23.5894 79.561 22.7798 79.2273 22.0775C78.8935 21.3751 78.363 20.8275 77.6358 20.4346C76.9086 20.0418 75.9489 19.8453 74.7568 19.8453H70.0718L71.0374 16.2739H74.7568C76.8669 16.2739 78.6193 16.5894 80.0141 17.2203C81.4088 17.8513 82.4519 18.7679 83.1434 19.9703C83.8467 21.1727 84.1984 22.6251 84.1984 24.3275C84.1984 25.8156 83.9421 27.131 83.4295 28.2739C82.9169 29.4048 82.0883 30.3215 80.9439 31.0239C79.7995 31.7144 78.2795 32.1429 76.384 32.3096L84.6097 42.0418V42.2739H79.567ZM87.6853 16.2739L86.7913 19.4346H73.1117L73.9879 16.2739H87.6853Z" fill="url(#paint8_linear_2530_1115)"/>
<path d="M85.0674 22.7203L84.1912 25.881H67.4539L68.3301 22.7203H85.0674ZM76.967 42.2739L67.9724 31.6846L67.9545 29.0239H72.2283C73.337 29.0239 74.2489 28.8275 74.9642 28.4346C75.6914 28.0298 76.2338 27.4882 76.5915 26.8096C76.9491 26.1191 77.1279 25.3513 77.1279 24.506C77.1279 23.5894 76.961 22.7798 76.6272 22.0775C76.2934 21.3751 75.7629 20.8275 75.0357 20.4346C74.3085 20.0418 73.3489 19.8453 72.1568 19.8453H67.4717L68.4374 16.2739H72.1568C74.2668 16.2739 76.0192 16.5894 77.414 17.2203C78.8088 17.8513 79.8519 18.7679 80.5433 19.9703C81.2467 21.1727 81.5984 22.6251 81.5984 24.3275C81.5984 25.8156 81.3421 27.131 80.8294 28.2739C80.3168 29.4048 79.4883 30.3215 78.3439 31.0239C77.1994 31.7144 75.6795 32.1429 73.784 32.3096L82.0096 42.0418V42.2739H76.967ZM85.0853 16.2739L84.1912 19.4346H70.5116L71.3879 16.2739H85.0853Z" fill="url(#paint9_linear_2530_1115)"/>
<path d="M102.587 48.6261C102.587 47.4802 99.9128 46.5591 96.6105 46.5591C93.3082 46.5591 90.6338 47.4859 90.6338 48.6261V50.693C90.6338 51.8389 93.3082 52.76 96.6105 52.76C99.9128 52.76 102.587 51.8333 102.587 50.693V48.6261Z" fill="url(#paint10_linear_2530_1115)"/>
<path d="M102.587 48.6261C102.587 49.7719 99.9128 50.693 96.6105 50.693C93.3082 50.693 90.6338 49.7663 90.6338 48.6261C90.6338 47.4859 93.3082 46.5591 96.6105 46.5591C99.9128 46.5591 102.587 47.4859 102.587 48.6261Z" fill="url(#paint11_linear_2530_1115)"/>
<path d="M101.477 48.553C101.477 49.4068 99.296 50.0977 96.6048 50.0977C93.9137 50.0977 91.7327 49.4068 91.7327 48.553C91.7327 47.6993 93.9137 47.0084 96.6048 47.0084C99.296 47.0084 101.477 47.6993 101.477 48.553Z" fill="url(#paint12_linear_2530_1115)"/>
<path d="M96.6105 47.2275C99.1839 47.2275 101.286 47.8622 101.466 48.6654C101.471 48.6261 101.483 48.5924 101.483 48.553C101.483 47.6993 99.3017 47.0084 96.6105 47.0084C93.9193 47.0084 91.7383 47.6993 91.7383 48.553C91.7383 48.5924 91.7495 48.6261 91.7551 48.6654C91.9345 47.8622 94.037 47.2275 96.6105 47.2275Z" fill="url(#paint13_linear_2530_1115)"/>
<path d="M100.905 46.1547C100.905 45.0089 98.2308 44.0877 94.9285 44.0877C91.6262 44.0877 88.9518 45.0145 88.9518 46.1547V48.2217C88.9518 49.3675 91.6262 50.2886 94.9285 50.2886C98.2308 50.2886 100.905 49.3619 100.905 48.2217V46.1547Z" fill="url(#paint14_linear_2530_1115)"/>
<path d="M100.905 46.1547C100.905 47.3005 98.2308 48.2217 94.9285 48.2217C91.6262 48.2217 88.9518 47.2949 88.9518 46.1547C88.9518 45.0145 91.6262 44.0877 94.9285 44.0877C98.2308 44.0877 100.905 45.0145 100.905 46.1547Z" fill="url(#paint15_linear_2530_1115)"/>
<path d="M99.795 46.0817C99.795 46.9354 97.614 47.6263 94.9228 47.6263C92.2316 47.6263 90.0507 46.9354 90.0507 46.0817C90.0507 45.2279 92.2316 44.537 94.9228 44.537C97.614 44.537 99.795 45.2279 99.795 46.0817Z" fill="url(#paint16_linear_2530_1115)"/>
<path d="M94.9284 44.7561C97.5019 44.7561 99.6044 45.3908 99.7838 46.194C99.7894 46.1547 99.8006 46.121 99.8006 46.0817C99.8006 45.2279 97.6196 44.537 94.9284 44.537C92.2373 44.537 90.0563 45.2279 90.0563 46.0817C90.0563 46.121 90.0675 46.1547 90.0731 46.194C90.2525 45.3908 92.355 44.7561 94.9284 44.7561Z" fill="url(#paint17_linear_2530_1115)"/>
<path d="M102.587 43.6889C102.587 42.5431 99.9128 41.6219 96.6105 41.6219C93.3082 41.6219 90.6338 42.5487 90.6338 43.6889V45.7559C90.6338 46.9017 93.3082 47.8229 96.6105 47.8229C99.9128 47.8229 102.587 46.8961 102.587 45.7559V43.6889Z" fill="url(#paint18_linear_2530_1115)"/>
<path d="M102.587 43.6889C102.587 44.8347 99.9128 45.7559 96.6105 45.7559C93.3082 45.7559 90.6338 44.8291 90.6338 43.6889C90.6338 42.5487 93.3082 41.6219 96.6105 41.6219C99.9128 41.6219 102.587 42.5487 102.587 43.6889Z" fill="url(#paint19_linear_2530_1115)"/>
<path d="M101.477 43.6103C101.477 44.464 99.296 45.1549 96.6048 45.1549C93.9137 45.1549 91.7327 44.464 91.7327 43.6103C91.7327 42.7565 93.9137 42.0656 96.6048 42.0656C99.296 42.0656 101.477 42.7565 101.477 43.6103Z" fill="url(#paint20_linear_2530_1115)"/>
<path d="M96.6105 42.2847C99.1839 42.2847 101.286 42.9194 101.466 43.7226C101.471 43.6833 101.483 43.6496 101.483 43.6103C101.483 42.7565 99.3017 42.0656 96.6105 42.0656C93.9193 42.0656 91.7383 42.7565 91.7383 43.6103C91.7383 43.6496 91.7495 43.6833 91.7551 43.7226C91.9345 42.9194 94.037 42.2847 96.6105 42.2847Z" fill="url(#paint21_linear_2530_1115)"/>
<path d="M102.587 41.2175C102.587 40.0717 99.9128 39.1505 96.6105 39.1505C93.3082 39.1505 90.6338 40.0773 90.6338 41.2175V43.2845C90.6338 44.4303 93.3082 45.3515 96.6105 45.3515C99.9128 45.3515 102.587 44.4247 102.587 43.2845V41.2175Z" fill="url(#paint22_linear_2530_1115)"/>
<path d="M102.587 41.2175C102.587 42.3633 99.9128 43.2845 96.6105 43.2845C93.3082 43.2845 90.6338 42.3577 90.6338 41.2175C90.6338 40.0773 93.3082 39.1505 96.6105 39.1505C99.9128 39.1505 102.587 40.0773 102.587 41.2175Z" fill="url(#paint23_linear_2530_1115)"/>
<path d="M101.477 41.1445C101.477 41.9982 99.296 42.6891 96.6048 42.6891C93.9137 42.6891 91.7327 41.9982 91.7327 41.1445C91.7327 40.2907 93.9137 39.5999 96.6048 39.5999C99.296 39.5999 101.477 40.2907 101.477 41.1445Z" fill="url(#paint24_linear_2530_1115)"/>
<path d="M96.6105 39.8189C99.1839 39.8189 101.286 40.4536 101.466 41.2568C101.471 41.2175 101.483 41.1838 101.483 41.1445C101.483 40.2907 99.3017 39.5999 96.6105 39.5999C93.9193 39.5999 91.7383 40.2907 91.7383 41.1445C91.7383 41.1838 91.7495 41.2175 91.7551 41.2568C91.9345 40.4536 94.037 39.8189 96.6105 39.8189Z" fill="url(#paint25_linear_2530_1115)"/>
<path d="M103.148 38.7461C103.148 37.6003 100.473 36.6791 97.1711 36.6791C93.8688 36.6791 91.1945 37.6059 91.1945 38.7461V40.8131C91.1945 41.9589 93.8688 42.8801 97.1711 42.8801C100.473 42.8801 103.148 41.9533 103.148 40.8131V38.7461Z" fill="url(#paint26_linear_2530_1115)"/>
<path d="M103.148 38.7461C103.148 39.8919 100.473 40.8131 97.1711 40.8131C93.8688 40.8131 91.1945 39.8863 91.1945 38.7461C91.1945 37.6059 93.8688 36.6791 97.1711 36.6791C100.473 36.6791 103.148 37.6059 103.148 38.7461Z" fill="url(#paint27_linear_2530_1115)"/>
<path d="M102.038 38.6731C102.038 39.5268 99.8567 40.2177 97.1655 40.2177C94.4743 40.2177 92.2933 39.5268 92.2933 38.6731C92.2933 37.8193 94.4743 37.1285 97.1655 37.1285C99.8567 37.1285 102.038 37.8193 102.038 38.6731Z" fill="url(#paint28_linear_2530_1115)"/>
<path d="M97.1711 37.3475C99.7446 37.3475 101.847 37.9822 102.026 38.7854C102.032 38.7461 102.043 38.7124 102.043 38.6731C102.043 37.8193 99.8623 37.1285 97.1711 37.1285C94.4799 37.1285 92.299 37.8193 92.299 38.6731C92.299 38.7124 92.3102 38.7461 92.3158 38.7854C92.4952 37.9822 94.5977 37.3475 97.1711 37.3475Z" fill="url(#paint29_linear_2530_1115)"/>
<path d="M102.026 36.2803C102.026 35.1401 99.3521 34.2133 96.0498 34.2133C92.7475 34.2133 90.0731 35.1401 90.0731 36.2803V38.3473C90.0731 39.4931 92.7475 40.4143 96.0498 40.4143C99.3521 40.4143 102.026 39.4875 102.026 38.3473V36.2803Z" fill="url(#paint30_linear_2530_1115)"/>
<path d="M102.026 36.2803C102.026 37.4205 99.3521 38.3473 96.0498 38.3473C92.7475 38.3473 90.0731 37.4205 90.0731 36.2803C90.0731 35.1401 92.7475 34.2133 96.0498 34.2133C99.3521 34.2133 102.026 35.1401 102.026 36.2803Z" fill="url(#paint31_linear_2530_1115)"/>
<path d="M100.916 36.2017C100.916 37.0554 98.7354 37.7463 96.0442 37.7463C93.353 37.7463 91.172 37.0554 91.172 36.2017C91.172 35.3479 93.353 34.6571 96.0442 34.6571C98.7354 34.6571 100.916 35.3479 100.916 36.2017Z" fill="url(#paint32_linear_2530_1115)"/>
<path d="M96.0498 34.8817C98.6232 34.8817 100.726 35.5164 100.905 36.3196C100.911 36.2803 100.922 36.2466 100.922 36.2073C100.922 35.3536 98.741 34.6627 96.0498 34.6627C93.3586 34.6627 91.1776 35.3536 91.1776 36.2073C91.1776 36.2466 91.1888 36.2803 91.1944 36.3196C91.3738 35.5164 93.4763 34.8817 96.0498 34.8817Z" fill="url(#paint33_linear_2530_1115)"/>
<path d="M89.6751 55.7875C89.6751 54.6417 87.0007 53.7205 83.6984 53.7205C80.396 53.7205 77.7217 54.6473 77.7217 55.7875V57.8545C77.7217 59.0003 80.396 59.9215 83.6984 59.9215C87.0007 59.9215 89.6751 58.9947 89.6751 57.8545V55.7875Z" fill="url(#paint34_linear_2530_1115)"/>
<path d="M89.6751 55.7875C89.6751 56.9333 87.0007 57.8545 83.6984 57.8545C80.396 57.8545 77.7217 56.9277 77.7217 55.7875C77.7217 54.6473 80.396 53.7205 83.6984 53.7205C87.0007 53.7205 89.6751 54.6473 89.6751 55.7875Z" fill="url(#paint35_linear_2530_1115)"/>
<path d="M88.5705 55.7145C88.5705 56.5682 86.3895 57.2591 83.6983 57.2591C81.0072 57.2591 78.8262 56.5682 78.8262 55.7145C78.8262 54.8607 81.0072 54.1698 83.6983 54.1698C86.3895 54.1698 88.5705 54.8607 88.5705 55.7145Z" fill="url(#paint36_linear_2530_1115)"/>
<path d="M83.6983 54.3889C86.2718 54.3889 88.3743 55.0236 88.5537 55.8268C88.5593 55.7875 88.5705 55.7538 88.5705 55.7145C88.5705 54.8607 86.3895 54.1698 83.6983 54.1698C81.0072 54.1698 78.8262 54.8607 78.8262 55.7145C78.8262 55.7538 78.8374 55.7875 78.843 55.8268C79.0224 55.0236 81.1249 54.3889 83.6983 54.3889Z" fill="url(#paint37_linear_2530_1115)"/>
<path d="M90.2357 53.3161C90.2357 52.1703 87.5613 51.2491 84.259 51.2491C80.9567 51.2491 78.2823 52.1759 78.2823 53.3161V55.3831C78.2823 56.5289 80.9567 57.4501 84.259 57.4501C87.5613 57.4501 90.2357 56.5233 90.2357 55.3831V53.3161Z" fill="url(#paint38_linear_2530_1115)"/>
<path d="M90.2357 53.3161C90.2357 54.4619 87.5613 55.3831 84.259 55.3831C80.9567 55.3831 78.2823 54.4563 78.2823 53.3161C78.2823 52.1759 80.9567 51.2491 84.259 51.2491C87.5613 51.2491 90.2357 52.1759 90.2357 53.3161Z" fill="url(#paint39_linear_2530_1115)"/>
<path d="M89.1312 53.2431C89.1312 54.0968 86.9502 54.7877 84.259 54.7877C81.5678 54.7877 79.3868 54.0968 79.3868 53.2431C79.3868 52.3893 81.5678 51.6985 84.259 51.6985C86.9502 51.6985 89.1312 52.3893 89.1312 53.2431Z" fill="url(#paint40_linear_2530_1115)"/>
<path d="M84.259 51.9175C86.8325 51.9175 88.935 52.5522 89.1144 53.3554C89.12 53.3161 89.1312 53.2824 89.1312 53.2431C89.1312 52.3893 86.9502 51.6985 84.259 51.6985C81.5678 51.6985 79.3868 52.3893 79.3868 53.2431C79.3868 53.2824 79.3981 53.3161 79.4037 53.3554C79.5831 52.5522 81.6856 51.9175 84.259 51.9175Z" fill="url(#paint41_linear_2530_1115)"/>
<path d="M107.454 53.4172C107.454 52.2714 104.779 51.3502 101.477 51.3502C98.1747 51.3502 95.5004 52.277 95.5004 53.4172V55.4842C95.5004 56.63 98.1747 57.5512 101.477 57.5512C104.779 57.5512 107.454 56.6244 107.454 55.4842V53.4172Z" fill="url(#paint42_linear_2530_1115)"/>
<path d="M107.454 53.4172C107.454 54.563 104.779 55.4842 101.477 55.4842C98.1747 55.4842 95.5004 54.5574 95.5004 53.4172C95.5004 52.277 98.1747 51.3502 101.477 51.3502C104.779 51.3502 107.454 52.277 107.454 53.4172Z" fill="url(#paint43_linear_2530_1115)"/>
<path d="M106.349 53.3442C106.349 54.1979 104.168 54.8888 101.477 54.8888C98.7858 54.8888 96.6049 54.1979 96.6049 53.3442C96.6049 52.4904 98.7858 51.7996 101.477 51.7996C104.168 51.7996 106.349 52.4904 106.349 53.3442Z" fill="url(#paint44_linear_2530_1115)"/>
<path d="M101.477 52.0186C104.05 52.0186 106.153 52.6533 106.332 53.4565C106.338 53.4172 106.349 53.3835 106.349 53.3442C106.349 52.4904 104.168 51.7996 101.477 51.7996C98.7858 51.7996 96.6049 52.4904 96.6049 53.3442C96.6049 53.3835 96.6161 53.4172 96.6217 53.4565C96.8011 52.6533 98.9036 52.0186 101.477 52.0186Z" fill="url(#paint45_linear_2530_1115)"/>
<g style="mix-blend-mode:overlay" opacity="0.6">
<path d="M129.088 61.4731L129.251 117.259H117L116.838 63.7367L110.054 64.9892L122.742 49.2734L135.53 60.2823L129.088 61.4731Z" fill="url(#paint46_linear_2530_1115)"/>
</g>
<g style="mix-blend-mode:overlay" opacity="0.6">
<path d="M138.088 18.4731L138.251 74.2592H126L125.838 20.7367L119.054 21.9892L131.742 6.27341L144.53 17.2823L138.088 18.4731Z" fill="url(#paint47_linear_2530_1115)"/>
</g>
<g style="mix-blend-mode:overlay" opacity="0.6">
<path d="M27.0883 55.4731L27.2509 111.259H15.0003L14.8378 57.7367L8.05371 58.9892L20.7416 43.2734L33.5303 54.2823L27.0883 55.4731Z" fill="url(#paint48_linear_2530_1115)"/>
</g>
<g style="mix-blend-mode:overlay" opacity="0.6">
<path d="M102.29 82.0119L102.565 107.259H81.6519L81.3772 85.8762L69.7994 88.0162L91.4579 61.1848L113.29 79.9786L102.29 82.0119Z" fill="url(#paint49_linear_2530_1115)"/>
</g>
<defs>
<linearGradient id="paint0_linear_2530_1115" x1="98.4719" y1="136.788" x2="98.4719" y2="56.6302" gradientUnits="userSpaceOnUse">
<stop offset="0.317708" stop-color="#008F75"/>
<stop offset="1" stop-color="#DEA073"/>
</linearGradient>
<linearGradient id="paint1_linear_2530_1115" x1="60.4532" y1="136.788" x2="60.4532" y2="48.2162" gradientUnits="userSpaceOnUse">
<stop stop-color="#008F75"/>
<stop offset="1" stop-color="#F6CD91"/>
</linearGradient>
<linearGradient id="paint2_linear_2530_1115" x1="84.5898" y1="63.4097" x2="84.5898" y2="17.4002" gradientUnits="userSpaceOnUse">
<stop stop-color="#F6CD91"/>
<stop offset="1"/>
</linearGradient>
<linearGradient id="paint3_linear_2530_1115" x1="50.6696" y1="136.678" x2="50.6696" y2="4.73361" gradientUnits="userSpaceOnUse">
<stop offset="0.4" stop-color="white" stop-opacity="0"/>
<stop offset="1" stop-color="white"/>
</linearGradient>
<linearGradient id="paint4_linear_2530_1115" x1="63.6994" y1="12.5157" x2="94.9737" y2="43.7279" gradientUnits="userSpaceOnUse">
<stop stop-color="#FFD930"/>
<stop offset="1" stop-color="#FFA015"/>
</linearGradient>
<linearGradient id="paint5_linear_2530_1115" x1="62.864" y1="13.3526" x2="92.4589" y2="42.894" gradientUnits="userSpaceOnUse">
<stop stop-color="#FDF8B6"/>
<stop offset="1" stop-color="#FFDC52"/>
</linearGradient>
<linearGradient id="paint6_linear_2530_1115" x1="65.4319" y1="15.9251" x2="89.8874" y2="40.3364" gradientUnits="userSpaceOnUse">
<stop stop-color="#FFE85E"/>
<stop offset="1" stop-color="#FFBF24"/>
</linearGradient>
<linearGradient id="paint7_linear_2530_1115" x1="63.8733" y1="17.481" x2="85.2171" y2="38.7806" gradientUnits="userSpaceOnUse">
<stop stop-color="#FFD930"/>
<stop offset="1" stop-color="#FFA015"/>
</linearGradient>
<linearGradient id="paint8_linear_2530_1115" x1="70.634" y1="22.2496" x2="84.8288" y2="38.5329" gradientUnits="userSpaceOnUse">
<stop stop-color="#FFD930"/>
<stop offset="1" stop-color="#FFA015"/>
</linearGradient>
<linearGradient id="paint9_linear_2530_1115" x1="67.932" y1="22.3497" x2="81.8597" y2="38.782" gradientUnits="userSpaceOnUse">
<stop stop-color="#FDF8DB"/>
<stop offset="0.29" stop-color="#FDF8B6"/>
<stop offset="1" stop-color="#FFE060"/>
</linearGradient>
<linearGradient id="paint10_linear_2530_1115" x1="90.6338" y1="49.6596" x2="102.587" y2="49.6596" gradientUnits="userSpaceOnUse">
<stop stop-color="#FFD930"/>
<stop offset="1" stop-color="#FFA015"/>
</linearGradient>
<linearGradient id="paint11_linear_2530_1115" x1="90.6338" y1="48.6261" x2="102.587" y2="48.6261" gradientUnits="userSpaceOnUse">
<stop stop-color="#FDF8B6"/>
<stop offset="1" stop-color="#FFDC52"/>
</linearGradient>
<linearGradient id="paint12_linear_2530_1115" x1="91.7383" y1="48.553" x2="101.477" y2="48.553" gradientUnits="userSpaceOnUse">
<stop stop-color="#FFE85E"/>
<stop offset="1" stop-color="#FFBF24"/>
</linearGradient>
<linearGradient id="paint13_linear_2530_1115" x1="91.7383" y1="47.8341" x2="101.477" y2="47.8341" gradientUnits="userSpaceOnUse">
<stop stop-color="#FFD930"/>
<stop offset="1" stop-color="#FFA015"/>
</linearGradient>
<linearGradient id="paint14_linear_2530_1115" x1="88.9518" y1="47.1882" x2="100.905" y2="47.1882" gradientUnits="userSpaceOnUse">
<stop stop-color="#FFD930"/>
<stop offset="1" stop-color="#FFA015"/>
</linearGradient>
<linearGradient id="paint15_linear_2530_1115" x1="88.9518" y1="46.1547" x2="100.905" y2="46.1547" gradientUnits="userSpaceOnUse">
<stop stop-color="#FDF8B6"/>
<stop offset="1" stop-color="#FFDC52"/>
</linearGradient>
<linearGradient id="paint16_linear_2530_1115" x1="90.0563" y1="46.0817" x2="99.795" y2="46.0817" gradientUnits="userSpaceOnUse">
<stop stop-color="#FFE85E"/>
<stop offset="1" stop-color="#FFBF24"/>
</linearGradient>
<linearGradient id="paint17_linear_2530_1115" x1="90.0563" y1="45.3627" x2="99.795" y2="45.3627" gradientUnits="userSpaceOnUse">
<stop stop-color="#FFD930"/>
<stop offset="1" stop-color="#FFA015"/>
</linearGradient>
<linearGradient id="paint18_linear_2530_1115" x1="90.6338" y1="44.7224" x2="102.587" y2="44.7224" gradientUnits="userSpaceOnUse">
<stop stop-color="#FFD930"/>
<stop offset="1" stop-color="#FFA015"/>
</linearGradient>
<linearGradient id="paint19_linear_2530_1115" x1="90.6338" y1="43.6889" x2="102.587" y2="43.6889" gradientUnits="userSpaceOnUse">
<stop stop-color="#FDF8B6"/>
<stop offset="1" stop-color="#FFDC52"/>
</linearGradient>
<linearGradient id="paint20_linear_2530_1115" x1="91.7383" y1="43.6103" x2="101.477" y2="43.6103" gradientUnits="userSpaceOnUse">
<stop stop-color="#FFE85E"/>
<stop offset="1" stop-color="#FFBF24"/>
</linearGradient>
<linearGradient id="paint21_linear_2530_1115" x1="91.7383" y1="42.8969" x2="101.477" y2="42.8969" gradientUnits="userSpaceOnUse">
<stop stop-color="#FFD930"/>
<stop offset="1" stop-color="#FFA015"/>
</linearGradient>
<linearGradient id="paint22_linear_2530_1115" x1="90.6338" y1="42.251" x2="102.587" y2="42.251" gradientUnits="userSpaceOnUse">
<stop stop-color="#FFD930"/>
<stop offset="1" stop-color="#FFA015"/>
</linearGradient>
<linearGradient id="paint23_linear_2530_1115" x1="90.6338" y1="41.2175" x2="102.587" y2="41.2175" gradientUnits="userSpaceOnUse">
<stop stop-color="#FDF8B6"/>
<stop offset="1" stop-color="#FFDC52"/>
</linearGradient>
<linearGradient id="paint24_linear_2530_1115" x1="91.7383" y1="41.1445" x2="101.477" y2="41.1445" gradientUnits="userSpaceOnUse">
<stop stop-color="#FFE85E"/>
<stop offset="1" stop-color="#FFBF24"/>
</linearGradient>
<linearGradient id="paint25_linear_2530_1115" x1="91.7383" y1="40.4255" x2="101.477" y2="40.4255" gradientUnits="userSpaceOnUse">
<stop stop-color="#FFD930"/>
<stop offset="1" stop-color="#FFA015"/>
</linearGradient>
<linearGradient id="paint26_linear_2530_1115" x1="91.1945" y1="39.7796" x2="103.148" y2="39.7796" gradientUnits="userSpaceOnUse">
<stop stop-color="#FFD930"/>
<stop offset="1" stop-color="#FFA015"/>
</linearGradient>
<linearGradient id="paint27_linear_2530_1115" x1="91.1945" y1="38.7461" x2="103.148" y2="38.7461" gradientUnits="userSpaceOnUse">
<stop stop-color="#FDF8B6"/>
<stop offset="1" stop-color="#FFDC52"/>
</linearGradient>
<linearGradient id="paint28_linear_2530_1115" x1="92.2989" y1="38.6731" x2="102.038" y2="38.6731" gradientUnits="userSpaceOnUse">
<stop stop-color="#FFE85E"/>
<stop offset="1" stop-color="#FFBF24"/>
</linearGradient>
<linearGradient id="paint29_linear_2530_1115" x1="92.299" y1="37.9541" x2="102.038" y2="37.9541" gradientUnits="userSpaceOnUse">
<stop stop-color="#FFD930"/>
<stop offset="1" stop-color="#FFA015"/>
</linearGradient>
<linearGradient id="paint30_linear_2530_1115" x1="90.0731" y1="37.3138" x2="102.026" y2="37.3138" gradientUnits="userSpaceOnUse">
<stop stop-color="#FFD930"/>
<stop offset="1" stop-color="#FFA015"/>
</linearGradient>
<linearGradient id="paint31_linear_2530_1115" x1="90.0731" y1="36.2803" x2="102.026" y2="36.2803" gradientUnits="userSpaceOnUse">
<stop stop-color="#FDF8B6"/>
<stop offset="1" stop-color="#FFDC52"/>
</linearGradient>
<linearGradient id="paint32_linear_2530_1115" x1="91.1776" y1="36.2017" x2="100.916" y2="36.2017" gradientUnits="userSpaceOnUse">
<stop stop-color="#FFE85E"/>
<stop offset="1" stop-color="#FFBF24"/>
</linearGradient>
<linearGradient id="paint33_linear_2530_1115" x1="91.1776" y1="35.4884" x2="100.916" y2="35.4884" gradientUnits="userSpaceOnUse">
<stop stop-color="#FFD930"/>
<stop offset="1" stop-color="#FFA015"/>
</linearGradient>
<linearGradient id="paint34_linear_2530_1115" x1="77.7217" y1="56.821" x2="89.6751" y2="56.821" gradientUnits="userSpaceOnUse">
<stop stop-color="#FFD930"/>
<stop offset="1" stop-color="#FFA015"/>
</linearGradient>
<linearGradient id="paint35_linear_2530_1115" x1="77.7217" y1="55.7875" x2="89.6751" y2="55.7875" gradientUnits="userSpaceOnUse">
<stop stop-color="#FDF8B6"/>
<stop offset="1" stop-color="#FFDC52"/>
</linearGradient>
<linearGradient id="paint36_linear_2530_1115" x1="78.8262" y1="55.7145" x2="88.5705" y2="55.7145" gradientUnits="userSpaceOnUse">
<stop stop-color="#FFE85E"/>
<stop offset="1" stop-color="#FFBF24"/>
</linearGradient>
<linearGradient id="paint37_linear_2530_1115" x1="78.8262" y1="54.9955" x2="88.5705" y2="54.9955" gradientUnits="userSpaceOnUse">
<stop stop-color="#FFD930"/>
<stop offset="1" stop-color="#FFA015"/>
</linearGradient>
<linearGradient id="paint38_linear_2530_1115" x1="78.2823" y1="54.3496" x2="90.2357" y2="54.3496" gradientUnits="userSpaceOnUse">
<stop stop-color="#FFD930"/>
<stop offset="1" stop-color="#FFA015"/>
</linearGradient>
<linearGradient id="paint39_linear_2530_1115" x1="78.2823" y1="53.3161" x2="90.2357" y2="53.3161" gradientUnits="userSpaceOnUse">
<stop stop-color="#FDF8B6"/>
<stop offset="1" stop-color="#FFDC52"/>
</linearGradient>
<linearGradient id="paint40_linear_2530_1115" x1="79.3868" y1="53.2431" x2="89.1312" y2="53.2431" gradientUnits="userSpaceOnUse">
<stop stop-color="#FFE85E"/>
<stop offset="1" stop-color="#FFBF24"/>
</linearGradient>
<linearGradient id="paint41_linear_2530_1115" x1="79.3868" y1="52.5241" x2="89.1312" y2="52.5241" gradientUnits="userSpaceOnUse">
<stop stop-color="#FFD930"/>
<stop offset="1" stop-color="#FFA015"/>
</linearGradient>
<linearGradient id="paint42_linear_2530_1115" x1="95.5004" y1="54.4507" x2="107.454" y2="54.4507" gradientUnits="userSpaceOnUse">
<stop stop-color="#FFD930"/>
<stop offset="1" stop-color="#FFA015"/>
</linearGradient>
<linearGradient id="paint43_linear_2530_1115" x1="95.5004" y1="53.4172" x2="107.454" y2="53.4172" gradientUnits="userSpaceOnUse">
<stop stop-color="#FDF8B6"/>
<stop offset="1" stop-color="#FFDC52"/>
</linearGradient>
<linearGradient id="paint44_linear_2530_1115" x1="96.6105" y1="53.3442" x2="106.349" y2="53.3442" gradientUnits="userSpaceOnUse">
<stop stop-color="#FFE85E"/>
<stop offset="1" stop-color="#FFBF24"/>
</linearGradient>
<linearGradient id="paint45_linear_2530_1115" x1="96.6105" y1="52.6252" x2="106.349" y2="52.6252" gradientUnits="userSpaceOnUse">
<stop stop-color="#FFD930"/>
<stop offset="1" stop-color="#FFA015"/>
</linearGradient>
<linearGradient id="paint46_linear_2530_1115" x1="122.792" y1="117.259" x2="122.792" y2="49.2734" gradientUnits="userSpaceOnUse">
<stop offset="0.2" stop-color="white" stop-opacity="0"/>
<stop offset="1" stop-color="white"/>
</linearGradient>
<linearGradient id="paint47_linear_2530_1115" x1="131.792" y1="74.2592" x2="131.792" y2="6.27341" gradientUnits="userSpaceOnUse">
<stop offset="0.2" stop-color="white" stop-opacity="0"/>
<stop offset="1" stop-color="white"/>
</linearGradient>
<linearGradient id="paint48_linear_2530_1115" x1="20.792" y1="111.259" x2="20.792" y2="43.2734" gradientUnits="userSpaceOnUse">
<stop offset="0.2" stop-color="white" stop-opacity="0"/>
<stop offset="1" stop-color="white"/>
</linearGradient>
<linearGradient id="paint49_linear_2530_1115" x1="91.542" y1="107.259" x2="91.542" y2="61.1848" gradientUnits="userSpaceOnUse">
<stop stop-color="white" stop-opacity="0"/>
<stop offset="1" stop-color="white"/>
</linearGradient>
</defs>
</svg>
