
<svg width="15" height="20" xmlns="http://www.w3.org/2000/svg" fill="none" viewBox="0 0 14 19"><path fill="#3F5BD9" stroke="#3F5BD9" stroke-linecap="round" stroke-linejoin="round" stroke-width="1.5" d="M11.105 2.842h-8.42C1.754 2.842 1 3.596 1 4.526v11.79C1 17.246 1.754 18 2.684 18h8.421c.93 0 1.684-.754 1.684-1.684V4.526c0-.93-.754-1.684-1.684-1.684Z"/><path fill="#fff" stroke="#3F5BD9" stroke-linecap="round" stroke-linejoin="round" stroke-width="1.5" d="M8.7 1.25H5.09c-.243 0-.49.025-.698.079a1.324 1.324 0 0 0-.359.146c-.083.051-.414.27-.414.712v1.31c0 .441.33.661.414.712.127.078.26.12.359.146.208.054.455.08.698.08H8.7c.243 0 .49-.026.698-.08.099-.025.232-.068.359-.146.083-.051.414-.27.414-.712v-1.31c0-.441-.33-.66-.414-.712a1.324 1.324 0 0 0-.359-.146A2.867 2.867 0 0 0 8.7 1.25Z"/></svg>