<svg width="15" height="20" viewBox="0 0 15 20" fill="none" xmlns="http://www.w3.org/2000/svg"><path d="M12.237 2.895H3.289A1.79 1.79 0 0 0 1.5 4.685V17.21c0 .988.801 1.789 1.79 1.789h8.947a1.79 1.79 0 0 0 1.79-1.79V4.684a1.79 1.79 0 0 0-1.79-1.79Z" stroke="#425061" stroke-width="1.5" stroke-linecap="round" stroke-linejoin="round"/><path d="M9.68 1.25H5.846a3 3 0 0 0-.73.082 1.36 1.36 0 0 0-.369.15c-.086.053-.418.274-.418.717V3.59c0 .443.332.664.418.716.13.08.266.124.368.15a3 3 0 0 0 .73.082H9.68c.257 0 .515-.026.731-.082.103-.026.24-.07.368-.15.086-.052.418-.273.418-.716V2.199c0-.443-.332-.664-.418-.717a1.36 1.36 0 0 0-.368-.15 3 3 0 0 0-.73-.082Z" fill="#fff" stroke="#425061" stroke-width="1.5" stroke-linecap="round" stroke-linejoin="round"/></svg>
