<svg xmlns="http://www.w3.org/2000/svg" fill="none"><path fill="#2A394E" fill-rule="evenodd" d="M4.952 5.357a2.667 2.667 0 1 0 0-5.333 2.667 2.667 0 0 0 0 5.333Zm6.857 1.524a1.905 1.905 0 1 0 0-3.81 1.905 1.905 0 0 0 0 3.81ZM4.954 6.12A4.953 4.953 0 0 0 0 11.07v1.524a.38.38 0 0 0 .381.38h9.143a.38.38 0 0 0 .38-.38v-1.524A4.953 4.953 0 0 0 4.954 6.12Zm10.666 6.857h-5.018c.043-.121.066-.25.066-.381V11.07a5.686 5.686 0 0 0-.816-2.943A4.19 4.19 0 0 1 16 11.833v.762a.38.38 0 0 1-.381.38Z" clip-rule="evenodd"/></svg>