<svg width="17" height="13" viewBox="0 0 17 13" fill="none" xmlns="http://www.w3.org/2000/svg">
<path fill-rule="evenodd" clip-rule="evenodd" d="M5.45238 5.33331C6.9251 5.33331 8.11897 4.13941 8.11897 2.66659C8.11897 1.19387 6.9251 0 5.45238 0C3.97952 0 2.78566 1.19387 2.78566 2.66659C2.78566 4.13945 3.97955 5.33331 5.45238 5.33331ZM12.3095 6.85717C13.3615 6.85717 14.2143 6.00437 14.2143 4.95232C14.2143 3.90026 13.3615 3.04746 12.3095 3.04746C11.2574 3.04746 10.4046 3.90026 10.4046 4.95232C10.4046 6.00437 11.2574 6.85717 12.3095 6.85717ZM5.45251 6.09453C2.71715 6.09453 0.5 8.31214 0.5 11.047V12.5709C0.5 12.6722 0.540052 12.769 0.611609 12.8402C0.68291 12.9118 0.779975 12.9518 0.880997 12.9518H10.0239C10.1248 12.9518 10.222 12.9118 10.2932 12.8402C10.3648 12.769 10.4048 12.6722 10.4048 12.5709V11.047C10.4048 8.31221 8.18768 6.09453 5.45258 6.09453H5.45251ZM16.119 12.9517H11.1012L11.1011 12.9517C11.1441 12.8306 11.1667 12.7018 11.1667 12.5708V11.0469C11.1667 9.97079 10.8691 8.96351 10.3514 8.10408C10.9495 7.78788 11.6208 7.61836 12.3095 7.61836C13.4208 7.61836 14.4866 8.05996 15.2726 8.84579C16.0584 9.63176 16.5 10.6976 16.5 11.8088V12.5708C16.5 12.6721 16.4599 12.7689 16.3884 12.8401C16.3171 12.9117 16.22 12.9517 16.119 12.9517Z" fill="var(--BODY)"/>
</svg>
