<svg width="92" height="80" viewBox="0 0 92 80" fill="none" xmlns="http://www.w3.org/2000/svg">
<path d="M85.8582 18.8066C85.8373 20.537 85.8475 23.4709 85.8565 24.948L85.8238 24.9503C85.7588 28.0492 85.7969 45.8481 85.8248 53.5923L59.9924 71.8891L59.9834 71.8955L59.9752 71.9028C59.4481 72.3706 57.9167 73.2343 56.0989 72.8695C54.2019 72.4888 21.2938 65.9715 4.76746 62.734C4.10762 62.6048 3.58577 62.2842 3.39526 61.9027C3.3041 61.7202 3.28372 61.5161 3.36593 61.2882C3.45024 61.0544 3.64731 60.7835 4.01502 60.4904L3.89036 60.334L4.01503 60.4904C4.33147 60.2382 5.29654 59.6047 6.71156 58.7031C8.12095 57.8051 9.96381 56.649 12.0247 55.3561L12.0277 55.3543C17.6092 51.8527 24.7888 47.3486 29.2597 44.2677L62.2815 49.8718L62.2816 49.8719L62.3151 49.6747L62.3486 49.4775L62.3486 49.4775L29.3934 43.8688V13.7446C29.4696 13.2138 29.7011 12.6656 30.1132 12.2799C30.5224 11.8968 31.1269 11.6574 31.9886 11.7735L32.0153 11.5753L31.9886 11.7735C33.7653 12.0129 49.4159 14.7771 64.1622 17.4007L64.2586 17.4179L64.3312 17.3523L67.7673 14.2534C68.1754 13.9673 69.2597 13.4685 70.3643 13.7202C71.5577 13.9923 79.4016 15.5036 83.1692 16.2244L83.1734 16.2251C83.6294 16.3023 84.3162 16.5289 84.881 16.9514C85.4412 17.3705 85.8684 17.9704 85.8582 18.8066Z" fill="#9EB1FD" stroke="#3F5BD9" stroke-width="0.4"/>
<path d="M23.4342 16.5852V47.678C23.4342 48.4695 23.9913 49.1452 24.7519 49.2768L75.515 58.0573C76.4795 58.2242 77.3587 57.4618 77.3587 56.4587V25.7991C77.3587 25.0125 76.8085 24.3396 76.0534 24.2026L25.2903 14.9888C24.3222 14.813 23.4342 15.5768 23.4342 16.5852Z" fill="white" stroke="#C1CBFF" stroke-width="0.4"/>
<path d="M21.4805 18.1182V49.2112C21.4805 50.0025 22.0376 50.6782 22.7982 50.8099L73.5613 59.5904C74.5257 59.7572 75.405 58.9948 75.405 57.9917V27.3321C75.405 26.5458 74.8548 25.8726 74.0997 25.7356L23.3366 16.5218C22.3685 16.3461 21.4805 17.1099 21.4805 18.1182Z" fill="white" stroke="#C1CBFF" stroke-width="0.4"/>
<path d="M11.5084 39.3632L31.7462 18.1139L40.5691 30.4468L56.231 14.4036L67.7272 33.6026L87.6078 6.95117" stroke="#78D1C1" stroke-width="5.42784"/>
<path d="M80.3765 7.70711L89.5043 4.13489V13.0267" stroke="#78D1C1" stroke-width="4.70358"/>
<path d="M79.6021 5.68909L78.142 8.18745L85.358 9.88658L89.5597 15.7259L91.5577 13.0417L79.6021 5.68909Z" fill="#78D1C1"/>
<path d="M9.24652 41.7851L30.1765 19.7189L39.1858 32.3657L54.616 16.1259L66.1736 35.607L86.8395 7.73901" stroke="#40AB97" stroke-width="5.42784"/>
<path d="M78.7533 9.77104L87.9478 5.8136L87.942 15.7281" stroke="#40AB97" stroke-width="3.7009"/>
<path d="M19.4559 19.544V50.6368C19.4559 51.4283 20.013 52.104 20.7738 52.2356L71.537 61.0161C72.5014 61.183 73.3804 60.4206 73.3804 59.4175V28.7578C73.3804 27.9713 72.8302 27.2984 72.0751 27.1614L21.312 17.9475C20.3439 17.7718 19.4559 18.5354 19.4559 19.544Z" fill="white" stroke="#C1CBFF" stroke-width="0.4"/>
<path d="M17.4722 21.3256V52.4186C17.4722 53.2099 18.029 53.8856 18.7899 54.0172L69.553 62.7977C70.5174 62.9646 71.3967 62.2022 71.3967 61.1991V30.5394C71.3967 29.7529 70.8463 29.08 70.0914 28.943L19.3283 19.7291C18.3602 19.5535 17.4722 20.3173 17.4722 21.3256Z" fill="white" stroke="#C1CBFF" stroke-width="0.4"/>
<path d="M27.6645 43.1276L24.8133 42.6831V50.7381L27.6645 51.2709V43.1276Z" stroke="#CBD5FF" stroke-width="0.196791" stroke-linecap="round" stroke-linejoin="round"/>
<path d="M29.5887 41.9269L26.7772 41.4824L24.8133 42.6294L27.6645 43.0739L29.5887 41.9269Z" stroke="#CBD5FF" stroke-width="0.196791" stroke-linecap="round" stroke-linejoin="round"/>
<path d="M29.5887 41.9269L27.6646 43.0739V51.2743L29.5887 50.0217V41.9269Z" fill="#CBD5FF" stroke="#CBD5FF" stroke-width="0.196791" stroke-linecap="round" stroke-linejoin="round"/>
<path d="M33.1691 39.4156L30.3179 38.9768V51.7306L33.1691 52.2651V39.4156Z" stroke="#CBD5FF" stroke-width="0.196791" stroke-linecap="round" stroke-linejoin="round"/>
<path d="M35.0912 38.323L32.2818 37.8998L30.3179 38.9921L33.1691 39.4155L35.0912 38.323Z" stroke="#CBD5FF" stroke-width="0.196791" stroke-linecap="round" stroke-linejoin="round"/>
<path d="M35.0912 38.323L33.1691 39.4153V52.265L35.0912 51.1265V38.323Z" fill="#CBD5FF" stroke="#CBD5FF" stroke-width="0.196791" stroke-linecap="round" stroke-linejoin="round"/>
<path d="M38.6717 35.9438L35.8205 35.3525V52.7393L38.6717 53.261V35.9438Z" stroke="#CBD5FF" stroke-width="0.196791" stroke-linecap="round" stroke-linejoin="round"/>
<path d="M40.5938 34.4715L37.7844 33.9011L35.8205 35.3733L38.6717 35.9438L40.5938 34.4715Z" stroke="#CBD5FF" stroke-width="0.196791" stroke-linecap="round" stroke-linejoin="round"/>
<path d="M40.5938 34.4716L38.6715 35.9438V53.261L40.5938 51.7268V34.4716Z" fill="#CBD5FF" stroke="#CBD5FF" stroke-width="0.196791" stroke-linecap="round" stroke-linejoin="round"/>
<path d="M59.8816 31.1092L27.1628 24.898C26.9934 24.8658 26.8374 24.9991 26.8374 25.1756C26.8374 25.3129 26.9281 25.4291 27.0599 25.4528C38.0255 27.427 59.5776 31.6191 59.8079 31.6453C60.0976 31.6782 60.1396 31.4505 60.1396 31.4273C60.1396 31.2714 60.0311 31.1376 59.8816 31.1092Z" fill="#CBD5FF" stroke="#CBD5FF" stroke-width="0.219215"/>
<path d="M59.8816 33.3618L27.1628 27.1506C26.9934 27.1184 26.8374 27.2516 26.8374 27.4282C26.8374 27.5655 26.9281 27.6819 27.0599 27.7056C38.0255 29.6796 59.5776 33.8716 59.8079 33.8979C60.0976 33.9308 60.1396 33.7031 60.1396 33.6799C60.1396 33.5239 60.0311 33.3902 59.8816 33.3618Z" fill="#CBD5FF" stroke="#CBD5FF" stroke-width="0.219215"/>
<path d="M53.2291 38.2324C50.9339 38.9103 48.7339 40.3619 47.9206 41.0029C47.2553 45.9769 47.3857 55.9937 53.2291 56.2696C59.0725 56.5456 61.8914 53.4892 62.9267 50.1801L55.3183 46.06L53.2291 38.2324Z" fill="url(#paint0_linear_1310_13242)"/>
<path d="M60.0468 52.0222L62.8574 50.235C60.5501 56.4775 54.1201 56.6988 51.1934 56.0292L60.0468 52.0222Z" fill="#F0B756"/>
<path d="M50.5842 39.671C50.5851 39.6707 50.5858 39.671 50.5858 39.671C50.5858 39.671 50.5867 39.671 50.5874 39.6714C50.5881 39.6719 50.5888 39.6724 50.5893 39.6728C50.5897 39.6736 50.5902 39.6743 50.5904 39.6755L52.8965 47.6993C52.9178 47.7733 52.9667 47.8356 53.0327 47.8725L60.201 51.8967C60.2021 51.8974 60.2026 51.8979 60.2031 51.8986C60.2035 51.8991 60.204 51.8998 60.2042 51.9005C60.2044 51.9012 60.2044 51.9019 60.2044 51.9019C60.2044 51.9019 60.2042 51.9024 60.204 51.9031C59.5728 53.0624 58.5962 54.0115 57.5199 54.7574C56.4112 55.5254 55.1385 55.9962 53.8143 56.1283C52.4902 56.2601 51.1554 56.0492 49.9279 55.5138C48.7002 54.9787 47.6178 54.1356 46.7767 53.0591C45.9355 51.9824 45.3616 50.7057 45.1059 49.3419C44.8502 47.9783 44.9206 46.5695 45.311 45.241C45.7015 43.9124 46.3996 42.7051 47.3437 41.7259C48.2534 40.782 49.3643 40.0781 50.5842 39.671Z" fill="#FDC970" stroke="url(#paint1_linear_1310_13242)" stroke-width="0.307239"/>
<path d="M53.9428 36.6757L51.8982 38.0099L54.1642 45.5961L55.8569 45.0671C57.7307 44.4346 58.7828 44.1461 61.0751 43.3717L62.451 42.3425C61.415 37.545 56.2286 36.5015 53.9428 36.6757Z" fill="url(#paint2_linear_1310_13242)"/>
<path d="M57.1619 38.6832H57.1621C58.1835 39.1318 60.4594 40.5919 60.96 43.2549C60.9602 43.2561 60.9602 43.2573 60.9593 43.2589C60.9584 43.2608 60.9567 43.262 60.9549 43.2627L54.1113 45.6121C54.1063 45.6138 54.1009 45.6109 54.0993 45.6057L52.0016 38.1178C52.0007 38.1149 52.0011 38.1128 52.0021 38.1114C52.0025 38.1107 52.0028 38.1102 52.003 38.1102C52.003 38.1102 52.0032 38.11 52.0041 38.1097C53.5425 37.7216 55.7175 38.0489 57.1619 38.6832Z" fill="#F65E5A"/>
<path d="M54.0993 45.6057C54.1009 45.6109 54.1063 45.6138 54.1113 45.6121L60.9549 43.2627C60.9567 43.262 60.9584 43.2608 60.9593 43.2589C60.9602 43.2573 60.9602 43.2561 60.96 43.2549C60.4594 40.5919 58.1835 39.1318 57.1621 38.6832H57.1619C55.7175 38.0489 53.5425 37.7216 52.0041 38.1097C52.0032 38.11 52.003 38.1102 52.003 38.1102C52.0028 38.1102 52.0025 38.1107 52.0021 38.1114C52.0011 38.1128 52.0007 38.1149 52.0016 38.1178L54.0993 45.6057ZM54.0993 45.6057L53.9664 45.645" stroke="url(#paint3_linear_1310_13242)" stroke-width="0.307239"/>
<path d="M56.084 46.5387L55.0206 47.3084L61.9528 51.1847L63.288 50.1466C64.1913 47.2533 63.5617 44.7063 63.288 44.1122L56.084 46.5387Z" fill="url(#paint4_linear_1310_13242)"/>
<path d="M61.9218 51.0603C61.916 51.0724 61.9001 51.0798 61.8844 51.0712L55.0981 47.4513C55.0741 47.4385 55.0771 47.4025 55.1027 47.3942L62.5158 44.9682C62.5333 44.9623 62.5493 44.9734 62.5525 44.9885C62.9974 47.1225 62.612 49.6066 61.9218 51.0603Z" fill="#7B96FF" stroke="url(#paint5_linear_1310_13242)" stroke-width="0.256033"/>
<path d="M65.6664 1.26661L69.0516 1M66.8676 1.172C67.2008 1.22086 67.9981 1.60119 68.0519 2.31796C68.1188 3.21395 67.6065 3.70494 66.7328 3.77375L66.2962 3.80814L68.4546 6.22927M65.7587 2.49858L69.1437 2.23197" stroke="#F7F8FF" stroke-width="0.607533"/>
<path d="M11.7427 76.3157L10.2759 79.4947L13.6936 79.2076L11.7427 76.3157Z" fill="#9EB1FD"/>
<path d="M43.4885 5.48889L40.5191 7.24733L43.4885 9.00578V5.48889Z" fill="#9EB1FD"/>
<path d="M3.11427 44.7021L0.306921 42.6831L0.0055542 46.1861L3.11427 44.7021Z" fill="#F6F8FF"/>
<path d="M90.6976 35.3641C91.2361 35.3641 91.6726 34.9164 91.6726 34.3641C91.6726 33.8119 91.2361 33.3641 90.6976 33.3641C90.1591 33.3641 89.7226 33.8119 89.7226 34.3641C89.7226 34.9164 90.1591 35.3641 90.6976 35.3641Z" stroke="#F6F8FF" stroke-width="0.512066"/>
<path d="M10.8051 7.55894L8.69919 7.24906L12.2512 6.77332L15.5337 8.45001L15.9262 12.7291L13.2592 16.4281L8.47541 17.7587L8.2243 17.0016L9.74464 15.4251C10.559 15.3774 11.1511 15.2319 11.521 14.9888C12.0757 14.6242 12.9379 14.031 13.263 13.2312C13.5883 12.4313 13.6591 10.9888 13.6591 10.9888C13.6591 10.9888 13.4202 9.75784 12.8349 8.98209C12.4446 8.46485 11.768 7.99052 10.8051 7.55894Z" fill="white" fill-opacity="0.01"/>
<mask id="mask0_1310_13242" style="mask-type:luminance" maskUnits="userSpaceOnUse" x="5" y="1" width="10" height="14">
<path fill-rule="evenodd" clip-rule="evenodd" d="M11.7188 2.35572L14.3214 1.97943L9.93472 1.38074L5.87473 3.4419L5.37714 8.72697L8.66099 13.3049L14.5669 14.9634L14.8793 14.029L13.0058 12.0767C11.9999 12.0152 11.2689 11.8336 10.8126 11.5321C10.1284 11.0801 9.06496 10.3445 8.66569 9.35546C8.26617 8.36635 8.18301 6.58402 8.18301 6.58402C8.18301 6.58402 8.48172 5.06409 9.20702 4.10755C9.69074 3.46977 10.528 2.88593 11.7188 2.35572Z" fill="white"/>
</mask>
<g mask="url(#mask0_1310_13242)">
<path fill-rule="evenodd" clip-rule="evenodd" d="M13.3915 2.24967C8.66329 1.73697 6.42573 5.13041 6.42273 7.63409C6.41983 10.0864 8.25119 12.5968 10.7798 12.7025L13.0358 14.1996C13.098 14.2413 13.175 14.2522 13.2464 14.2303L14.6466 13.7972C14.6831 13.7861 14.7165 13.7666 14.7444 13.7405C14.8478 13.6438 14.8551 13.4797 14.7608 13.3736L13.5184 11.9777C14.8148 11.1707 15.6729 9.77111 15.6749 8.1784C15.678 5.67445 15.5284 3.69267 13.3912 2.24941L13.3915 2.24967Z" fill="white" stroke="#BDC8FE" stroke-width="0.555345"/>
</g>
<path fill-rule="evenodd" clip-rule="evenodd" d="M12.9167 2.24878C10.3049 2.24551 8.18523 4.44282 8.18201 7.15677C8.17876 9.87075 10.2933 12.0733 12.9049 12.0766C12.9257 12.0767 12.9467 12.0767 12.9677 12.0762L14.5215 13.6636C14.5602 13.7031 14.61 13.7286 14.6642 13.7364C14.8026 13.7568 14.9308 13.6584 14.9505 13.5161L15.2402 11.4399C16.6707 10.5966 17.6372 9.00018 17.6395 7.16861C17.6426 4.45466 15.5281 2.25206 12.9167 2.24878Z" fill="white" stroke="#BDC8FE" stroke-width="0.555345"/>
<path d="M14.6691 6.48314C14.6321 6.4239 14.5684 6.38866 14.5002 6.38858L13.0879 6.38679L13.0906 4.11059C13.0907 4.01293 13.0242 3.9284 12.931 3.90802C12.8362 3.8872 12.7434 3.93717 12.7045 4.02609L11.0861 7.74877C11.0581 7.81248 11.0641 7.88699 11.1012 7.94538C11.1382 8.00418 11.2019 8.03985 11.2701 8.03994L12.6824 8.04172L12.6797 10.3179C12.6796 10.4156 12.7461 10.5001 12.8392 10.5205C12.8534 10.5234 12.8675 10.5251 12.8812 10.5251C12.9595 10.5252 13.0326 10.4785 13.0658 10.4024L14.6842 6.67975C14.7117 6.61563 14.7066 6.54194 14.6691 6.48314Z" fill="#9EB1FD"/>
<path d="M75.1846 73.9717C74.6127 71.7021 72.3548 70.3378 70.1422 70.9248C67.9291 71.5116 66.5989 73.8273 67.1712 76.097C67.7433 78.3663 70.0012 79.7306 72.2138 79.1439C74.4267 78.5569 75.7569 76.2411 75.1846 73.9717Z" fill="white"/>
<path d="M69.5242 72.7383H72.9193M70.729 72.7383C71.0574 72.8131 71.8243 73.255 71.8243 73.9738C71.8243 74.8725 71.2767 75.3218 70.4004 75.3218H69.9624L71.9337 77.9052M69.5242 73.9738H72.9193" stroke="#8A9CE8" stroke-width="0.607533"/>
<defs>
<linearGradient id="paint0_linear_1310_13242" x1="55.2869" y1="38.2324" x2="60.9697" y2="51.3099" gradientUnits="userSpaceOnUse">
<stop stop-color="#FEE4B6"/>
<stop offset="1" stop-color="#F0B756"/>
</linearGradient>
<linearGradient id="paint1_linear_1310_13242" x1="57.2512" y1="55.39" x2="49.2036" y2="40.7224" gradientUnits="userSpaceOnUse">
<stop stop-color="#F3C16A" stop-opacity="0.96"/>
<stop offset="1" stop-color="white" stop-opacity="0.49"/>
</linearGradient>
<linearGradient id="paint2_linear_1310_13242" x1="61.6047" y1="42.7293" x2="48.0719" y2="37.7636" gradientUnits="userSpaceOnUse">
<stop stop-color="#E8524E"/>
<stop offset="1" stop-color="#E8524E" stop-opacity="0"/>
</linearGradient>
<linearGradient id="paint3_linear_1310_13242" x1="54.809" y1="43.4892" x2="55.4271" y2="35.6565" gradientUnits="userSpaceOnUse">
<stop stop-color="#F65E5A"/>
<stop offset="1" stop-color="white" stop-opacity="0"/>
</linearGradient>
<linearGradient id="paint4_linear_1310_13242" x1="61.7079" y1="48.5347" x2="66.1019" y2="42.3919" gradientUnits="userSpaceOnUse">
<stop stop-color="#597AFA"/>
<stop offset="1" stop-color="white"/>
</linearGradient>
<linearGradient id="paint5_linear_1310_13242" x1="63.8146" y1="43.0564" x2="59.5028" y2="48.8591" gradientUnits="userSpaceOnUse">
<stop stop-color="white" stop-opacity="0.09"/>
<stop offset="1" stop-color="#7B96FF"/>
</linearGradient>
</defs>
</svg>
