<svg width="244" height="146" viewBox="0 0 243 140" fill="none" xmlns="http://www.w3.org/2000/svg">
<path d="M16.3119 125.056H198.522H219.959L219.939 10.467C143.447 101.182 59.5237 116.526 16.3119 125.056Z" fill="url(#paint0_linear_2728_1133)"/>
<path d="M17.0523 124.948C67.9465 122.799 129.177 119.167 219.998 69.4087" stroke="#008F75" stroke-width="0.73248"/>
<path d="M16.3119 124.746C67.1625 116.152 146.801 96.2585 219.387 10.9304" stroke="#008F75" stroke-width="0.73248"/>
<path d="M3.04949 139.689C2.48949 139.689 1.99749 139.581 1.57349 139.365C1.14949 139.141 0.817492 138.829 0.577492 138.429C0.345492 138.021 0.229492 137.553 0.229492 137.025V133.725C0.229492 133.205 0.345492 132.745 0.577492 132.345C0.817492 131.945 1.14949 131.637 1.57349 131.421C1.99749 131.197 2.48949 131.085 3.04949 131.085C3.60949 131.085 4.10149 131.193 4.52549 131.409C4.94949 131.625 5.27749 131.929 5.50949 132.321C5.74949 132.713 5.86949 133.165 5.86949 133.677C5.86949 133.717 5.85749 133.749 5.83349 133.773C5.80949 133.797 5.78149 133.809 5.74949 133.809L5.13749 133.845C5.05749 133.845 5.01749 133.809 5.01749 133.737V133.701C5.01749 133.133 4.83749 132.681 4.47749 132.345C4.11749 132.001 3.64149 131.829 3.04949 131.829C2.45749 131.829 1.98149 132.001 1.62149 132.345C1.26149 132.689 1.08149 133.141 1.08149 133.701V137.061C1.08149 137.621 1.26149 138.073 1.62149 138.417C1.98149 138.761 2.45749 138.933 3.04949 138.933C3.64149 138.933 4.11749 138.765 4.47749 138.429C4.83749 138.085 5.01749 137.629 5.01749 137.061V137.037C5.01749 136.965 5.05749 136.929 5.13749 136.929L5.74949 136.965C5.82949 136.965 5.86949 137.001 5.86949 137.073C5.86949 137.593 5.74949 138.053 5.50949 138.453C5.27749 138.845 4.94949 139.149 4.52549 139.365C4.10149 139.581 3.60949 139.689 3.04949 139.689Z" fill="#2A394E"/>
<path d="M11.2866 133.629C11.2866 133.549 11.3266 133.509 11.4066 133.509H12.0186C12.0986 133.509 12.1386 133.549 12.1386 133.629V139.461C12.1386 139.541 12.0986 139.581 12.0186 139.581H11.4066C11.3266 139.581 11.2866 139.541 11.2866 139.461V138.945C11.2866 138.929 11.2786 138.917 11.2626 138.909C11.2466 138.901 11.2346 138.905 11.2266 138.921C10.8906 139.417 10.3586 139.665 9.63056 139.665C9.24656 139.665 8.89055 139.589 8.56255 139.437C8.24255 139.277 7.98655 139.049 7.79455 138.753C7.61055 138.457 7.51855 138.101 7.51855 137.685V133.629C7.51855 133.549 7.55855 133.509 7.63855 133.509H8.25056C8.33056 133.509 8.37055 133.549 8.37055 133.629V137.433C8.37055 137.889 8.49855 138.253 8.75455 138.525C9.01055 138.789 9.35856 138.921 9.79856 138.921C10.2546 138.921 10.6146 138.785 10.8786 138.513C11.1506 138.241 11.2866 137.881 11.2866 137.433V133.629Z" fill="#2A394E"/>
<path d="M16.4961 133.449C16.7601 133.449 16.9881 133.501 17.1801 133.605C17.2441 133.637 17.2681 133.689 17.2521 133.761L17.1201 134.349C17.0961 134.429 17.0441 134.453 16.9641 134.421C16.8281 134.365 16.6721 134.337 16.4961 134.337L16.3401 134.349C15.9241 134.365 15.5801 134.521 15.3081 134.817C15.0361 135.105 14.9001 135.473 14.9001 135.921V139.461C14.9001 139.541 14.8601 139.581 14.7801 139.581H14.1681C14.0881 139.581 14.0481 139.541 14.0481 139.461V133.629C14.0481 133.549 14.0881 133.509 14.1681 133.509H14.7801C14.8601 133.509 14.9001 133.549 14.9001 133.629V134.361C14.9001 134.385 14.9041 134.401 14.9121 134.409C14.9281 134.409 14.9401 134.401 14.9481 134.385C15.1161 134.089 15.3281 133.861 15.5841 133.701C15.8481 133.533 16.1521 133.449 16.4961 133.449Z" fill="#2A394E"/>
<path d="M20.8672 133.449C21.1312 133.449 21.3592 133.501 21.5512 133.605C21.6152 133.637 21.6392 133.689 21.6232 133.761L21.4912 134.349C21.4672 134.429 21.4152 134.453 21.3352 134.421C21.1992 134.365 21.0432 134.337 20.8672 134.337L20.7112 134.349C20.2952 134.365 19.9512 134.521 19.6792 134.817C19.4072 135.105 19.2712 135.473 19.2712 135.921V139.461C19.2712 139.541 19.2312 139.581 19.1512 139.581H18.5392C18.4592 139.581 18.4192 139.541 18.4192 139.461V133.629C18.4192 133.549 18.4592 133.509 18.5392 133.509H19.1512C19.2312 133.509 19.2712 133.549 19.2712 133.629V134.361C19.2712 134.385 19.2752 134.401 19.2832 134.409C19.2992 134.409 19.3112 134.401 19.3192 134.385C19.4872 134.089 19.6992 133.861 19.9552 133.701C20.2192 133.533 20.5232 133.449 20.8672 133.449Z" fill="#2A394E"/>
<path d="M27.3877 135.525C27.4197 135.749 27.4357 136.029 27.4357 136.365V136.749C27.4357 136.829 27.3957 136.869 27.3157 136.869H23.4397C23.4077 136.869 23.3917 136.885 23.3917 136.917C23.4077 137.357 23.4317 137.641 23.4637 137.769C23.5517 138.129 23.7397 138.413 24.0277 138.621C24.3157 138.829 24.6837 138.933 25.1317 138.933C25.4677 138.933 25.7637 138.857 26.0197 138.705C26.2757 138.553 26.4757 138.337 26.6197 138.057C26.6677 137.985 26.7237 137.969 26.7877 138.009L27.2557 138.285C27.3197 138.325 27.3357 138.381 27.3037 138.453C27.1037 138.837 26.8037 139.141 26.4037 139.365C26.0037 139.581 25.5437 139.689 25.0237 139.689C24.4557 139.681 23.9797 139.545 23.5957 139.281C23.2117 139.017 22.9357 138.649 22.7677 138.177C22.6237 137.793 22.5517 137.241 22.5517 136.521C22.5517 136.185 22.5557 135.913 22.5637 135.705C22.5797 135.489 22.6117 135.297 22.6597 135.129C22.7957 134.609 23.0677 134.193 23.4757 133.881C23.8917 133.569 24.3917 133.413 24.9757 133.413C25.7037 133.413 26.2637 133.597 26.6557 133.965C27.0477 134.333 27.2917 134.853 27.3877 135.525ZM24.9757 134.157C24.5837 134.157 24.2557 134.261 23.9917 134.469C23.7357 134.669 23.5677 134.941 23.4877 135.285C23.4397 135.453 23.4077 135.725 23.3917 136.101C23.3917 136.133 23.4077 136.149 23.4397 136.149H26.5477C26.5797 136.149 26.5957 136.133 26.5957 136.101C26.5797 135.741 26.5557 135.485 26.5237 135.333C26.4357 134.973 26.2557 134.689 25.9837 134.481C25.7197 134.265 25.3837 134.157 24.9757 134.157Z" fill="#2A394E"/>
<path d="M31.6502 133.425C32.2902 133.425 32.7982 133.613 33.1742 133.989C33.5582 134.365 33.7502 134.869 33.7502 135.501V139.461C33.7502 139.541 33.7102 139.581 33.6302 139.581H33.0182C32.9382 139.581 32.8982 139.541 32.8982 139.461V135.669C32.8982 135.229 32.7622 134.869 32.4902 134.589C32.2262 134.309 31.8822 134.169 31.4582 134.169C31.0182 134.169 30.6622 134.305 30.3902 134.577C30.1182 134.849 29.9822 135.205 29.9822 135.645V139.461C29.9822 139.541 29.9422 139.581 29.8622 139.581H29.2502C29.1702 139.581 29.1302 139.541 29.1302 139.461V133.629C29.1302 133.549 29.1702 133.509 29.2502 133.509H29.8622C29.9422 133.509 29.9822 133.549 29.9822 133.629V134.145C29.9822 134.161 29.9862 134.173 29.9942 134.181C30.0102 134.189 30.0222 134.185 30.0302 134.169C30.3822 133.673 30.9222 133.425 31.6502 133.425Z" fill="#2A394E"/>
<path d="M38.3229 134.097C38.3229 134.177 38.2829 134.217 38.2029 134.217H36.8469C36.8149 134.217 36.7989 134.233 36.7989 134.265V137.805C36.7989 138.189 36.8829 138.461 37.0509 138.621C37.2269 138.773 37.4989 138.849 37.8669 138.849H38.1669C38.2469 138.849 38.2869 138.889 38.2869 138.969V139.461C38.2869 139.541 38.2469 139.581 38.1669 139.581C38.0709 139.589 37.9229 139.593 37.7229 139.593C37.1469 139.593 36.7109 139.485 36.4149 139.269C36.1189 139.053 35.9709 138.653 35.9709 138.069V134.265C35.9709 134.233 35.9549 134.217 35.9229 134.217H35.1909C35.1109 134.217 35.0709 134.177 35.0709 134.097V133.629C35.0709 133.549 35.1109 133.509 35.1909 133.509H35.9229C35.9549 133.509 35.9709 133.493 35.9709 133.461V132.069C35.9709 131.989 36.0109 131.949 36.0909 131.949H36.6789C36.7589 131.949 36.7989 131.989 36.7989 132.069V133.461C36.7989 133.493 36.8149 133.509 36.8469 133.509H38.2029C38.2829 133.509 38.3229 133.549 38.3229 133.629V134.097Z" fill="#2A394E"/>
<path d="M44.6044 139.581C44.5324 139.581 44.4844 139.549 44.4604 139.485L41.8444 131.313L41.8324 131.265C41.8324 131.209 41.8684 131.181 41.9404 131.181H42.5884C42.6604 131.181 42.7084 131.213 42.7324 131.277L44.9164 138.309C44.9244 138.325 44.9364 138.333 44.9524 138.333C44.9684 138.333 44.9804 138.325 44.9884 138.309L47.1724 131.277C47.1964 131.213 47.2444 131.181 47.3164 131.181H47.9524C48.0404 131.181 48.0724 131.225 48.0484 131.313L45.4084 139.485C45.3844 139.549 45.3364 139.581 45.2644 139.581H44.6044Z" fill="#2A394E"/>
<path d="M50.9646 133.413C51.6846 133.413 52.2406 133.597 52.6326 133.965C53.0246 134.333 53.2206 134.821 53.2206 135.429V139.461C53.2206 139.541 53.1806 139.581 53.1006 139.581H52.4886C52.4086 139.581 52.3686 139.541 52.3686 139.461V138.969C52.3686 138.953 52.3606 138.941 52.3446 138.933C52.3366 138.925 52.3246 138.929 52.3086 138.945C52.1086 139.185 51.8486 139.369 51.5286 139.497C51.2086 139.617 50.8526 139.677 50.4606 139.677C49.8926 139.677 49.4166 139.533 49.0326 139.245C48.6486 138.957 48.4566 138.517 48.4566 137.925C48.4566 137.325 48.6726 136.853 49.1046 136.509C49.5446 136.157 50.1526 135.981 50.9286 135.981H52.3206C52.3526 135.981 52.3686 135.965 52.3686 135.933V135.477C52.3686 135.069 52.2526 134.749 52.0206 134.517C51.7966 134.277 51.4446 134.157 50.9646 134.157C50.5806 134.157 50.2686 134.233 50.0286 134.385C49.7886 134.529 49.6406 134.733 49.5846 134.997C49.5606 135.077 49.5126 135.113 49.4406 135.105L48.7926 135.021C48.7046 135.005 48.6686 134.973 48.6846 134.925C48.7486 134.477 48.9886 134.113 49.4046 133.833C49.8206 133.553 50.3406 133.413 50.9646 133.413ZM50.6286 138.945C51.1006 138.945 51.5086 138.829 51.8526 138.597C52.1966 138.357 52.3686 138.037 52.3686 137.637V136.701C52.3686 136.669 52.3526 136.653 52.3206 136.653H51.0606C50.5326 136.653 50.1086 136.761 49.7886 136.977C49.4686 137.193 49.3086 137.493 49.3086 137.877C49.3086 138.229 49.4286 138.497 49.6686 138.681C49.9166 138.857 50.2366 138.945 50.6286 138.945Z" fill="#2A394E"/>
<path d="M55.1135 139.581C55.0335 139.581 54.9935 139.541 54.9935 139.461V131.301C54.9935 131.221 55.0335 131.181 55.1135 131.181H55.7255C55.8055 131.181 55.8455 131.221 55.8455 131.301V139.461C55.8455 139.541 55.8055 139.581 55.7255 139.581H55.1135Z" fill="#2A394E"/>
<path d="M61.4311 133.629C61.4311 133.549 61.4711 133.509 61.5511 133.509H62.1631C62.2431 133.509 62.2831 133.549 62.2831 133.629V139.461C62.2831 139.541 62.2431 139.581 62.1631 139.581H61.5511C61.4711 139.581 61.4311 139.541 61.4311 139.461V138.945C61.4311 138.929 61.4231 138.917 61.4071 138.909C61.3911 138.901 61.3791 138.905 61.3711 138.921C61.0351 139.417 60.5031 139.665 59.7751 139.665C59.3911 139.665 59.0351 139.589 58.7071 139.437C58.3871 139.277 58.1311 139.049 57.9391 138.753C57.7551 138.457 57.6631 138.101 57.6631 137.685V133.629C57.6631 133.549 57.7031 133.509 57.7831 133.509H58.3951C58.4751 133.509 58.5151 133.549 58.5151 133.629V137.433C58.5151 137.889 58.6431 138.253 58.8991 138.525C59.1551 138.789 59.5031 138.921 59.9431 138.921C60.3991 138.921 60.7591 138.785 61.0231 138.513C61.2951 138.241 61.4311 137.881 61.4311 137.433V133.629Z" fill="#2A394E"/>
<path d="M68.8487 135.525C68.8807 135.749 68.8967 136.029 68.8967 136.365V136.749C68.8967 136.829 68.8567 136.869 68.7767 136.869H64.9007C64.8687 136.869 64.8527 136.885 64.8527 136.917C64.8687 137.357 64.8927 137.641 64.9247 137.769C65.0127 138.129 65.2007 138.413 65.4887 138.621C65.7767 138.829 66.1447 138.933 66.5927 138.933C66.9287 138.933 67.2247 138.857 67.4807 138.705C67.7367 138.553 67.9367 138.337 68.0807 138.057C68.1287 137.985 68.1847 137.969 68.2487 138.009L68.7167 138.285C68.7807 138.325 68.7967 138.381 68.7647 138.453C68.5647 138.837 68.2647 139.141 67.8647 139.365C67.4647 139.581 67.0047 139.689 66.4847 139.689C65.9167 139.681 65.4407 139.545 65.0567 139.281C64.6727 139.017 64.3967 138.649 64.2287 138.177C64.0847 137.793 64.0127 137.241 64.0127 136.521C64.0127 136.185 64.0167 135.913 64.0247 135.705C64.0407 135.489 64.0727 135.297 64.1207 135.129C64.2567 134.609 64.5287 134.193 64.9367 133.881C65.3527 133.569 65.8527 133.413 66.4367 133.413C67.1647 133.413 67.7247 133.597 68.1167 133.965C68.5087 134.333 68.7527 134.853 68.8487 135.525ZM66.4367 134.157C66.0447 134.157 65.7167 134.261 65.4527 134.469C65.1967 134.669 65.0287 134.941 64.9487 135.285C64.9007 135.453 64.8687 135.725 64.8527 136.101C64.8527 136.133 64.8687 136.149 64.9007 136.149H68.0087C68.0407 136.149 68.0567 136.133 68.0567 136.101C68.0407 135.741 68.0167 135.485 67.9847 135.333C67.8967 134.973 67.7167 134.689 67.4447 134.481C67.1807 134.265 66.8447 134.157 66.4367 134.157Z" fill="#2A394E"/>
<path d="M183.595 139.581C183.523 139.581 183.475 139.549 183.451 139.485L182.971 137.973C182.963 137.949 182.947 137.937 182.923 137.937H179.335C179.311 137.937 179.295 137.949 179.287 137.973L178.807 139.485C178.783 139.549 178.735 139.581 178.663 139.581H178.015C177.927 139.581 177.895 139.537 177.919 139.449L180.571 131.277C180.595 131.213 180.643 131.181 180.715 131.181H181.531C181.603 131.181 181.651 131.213 181.675 131.277L184.339 139.449L184.351 139.497C184.351 139.553 184.315 139.581 184.243 139.581H183.595ZM179.527 137.181C179.519 137.197 179.519 137.213 179.527 137.229C179.543 137.237 179.559 137.241 179.575 137.241H182.671C182.687 137.241 182.699 137.237 182.707 137.229C182.723 137.213 182.727 137.197 182.719 137.181L181.159 132.285C181.151 132.269 181.139 132.261 181.123 132.261C181.107 132.261 181.095 132.269 181.087 132.285L179.527 137.181Z" fill="#2A394E"/>
<path d="M187.995 131.925C187.555 131.925 187.255 132.025 187.095 132.225C186.935 132.417 186.855 132.749 186.855 133.221V133.461C186.855 133.493 186.871 133.509 186.903 133.509H188.247C188.327 133.509 188.367 133.549 188.367 133.629V134.169C188.367 134.249 188.327 134.289 188.247 134.289H186.903C186.871 134.289 186.855 134.305 186.855 134.337V139.461C186.855 139.541 186.815 139.581 186.735 139.581H186.135C186.055 139.581 186.015 139.541 186.015 139.461V134.337C186.015 134.305 185.999 134.289 185.967 134.289H185.163C185.083 134.289 185.043 134.249 185.043 134.169V133.629C185.043 133.549 185.083 133.509 185.163 133.509H185.967C185.999 133.509 186.015 133.493 186.015 133.461V133.173C186.015 132.677 186.071 132.289 186.183 132.009C186.295 131.721 186.487 131.513 186.759 131.385C187.039 131.249 187.427 131.181 187.923 131.181H188.271C188.351 131.181 188.391 131.221 188.391 131.301V131.805C188.391 131.885 188.351 131.925 188.271 131.925H187.995Z" fill="#2A394E"/>
<path d="M192.596 134.097C192.596 134.177 192.556 134.217 192.476 134.217H191.12C191.088 134.217 191.072 134.233 191.072 134.265V137.805C191.072 138.189 191.156 138.461 191.324 138.621C191.5 138.773 191.772 138.849 192.14 138.849H192.44C192.52 138.849 192.56 138.889 192.56 138.969V139.461C192.56 139.541 192.52 139.581 192.44 139.581C192.344 139.589 192.196 139.593 191.996 139.593C191.42 139.593 190.984 139.485 190.688 139.269C190.392 139.053 190.244 138.653 190.244 138.069V134.265C190.244 134.233 190.228 134.217 190.196 134.217H189.464C189.384 134.217 189.344 134.177 189.344 134.097V133.629C189.344 133.549 189.384 133.509 189.464 133.509H190.196C190.228 133.509 190.244 133.493 190.244 133.461V132.069C190.244 131.989 190.284 131.949 190.364 131.949H190.952C191.032 131.949 191.072 131.989 191.072 132.069V133.461C191.072 133.493 191.088 133.509 191.12 133.509H192.476C192.556 133.509 192.596 133.549 192.596 133.629V134.097Z" fill="#2A394E"/>
<path d="M198.724 135.525C198.756 135.749 198.772 136.029 198.772 136.365V136.749C198.772 136.829 198.732 136.869 198.652 136.869H194.776C194.744 136.869 194.728 136.885 194.728 136.917C194.744 137.357 194.768 137.641 194.8 137.769C194.888 138.129 195.076 138.413 195.364 138.621C195.652 138.829 196.02 138.933 196.468 138.933C196.804 138.933 197.1 138.857 197.356 138.705C197.612 138.553 197.812 138.337 197.956 138.057C198.004 137.985 198.06 137.969 198.124 138.009L198.592 138.285C198.656 138.325 198.672 138.381 198.64 138.453C198.44 138.837 198.14 139.141 197.74 139.365C197.34 139.581 196.88 139.689 196.36 139.689C195.792 139.681 195.316 139.545 194.932 139.281C194.548 139.017 194.272 138.649 194.104 138.177C193.96 137.793 193.888 137.241 193.888 136.521C193.888 136.185 193.892 135.913 193.9 135.705C193.916 135.489 193.948 135.297 193.996 135.129C194.132 134.609 194.404 134.193 194.812 133.881C195.228 133.569 195.728 133.413 196.312 133.413C197.04 133.413 197.6 133.597 197.992 133.965C198.384 134.333 198.628 134.853 198.724 135.525ZM196.312 134.157C195.92 134.157 195.592 134.261 195.328 134.469C195.072 134.669 194.904 134.941 194.824 135.285C194.776 135.453 194.744 135.725 194.728 136.101C194.728 136.133 194.744 136.149 194.776 136.149H197.884C197.916 136.149 197.932 136.133 197.932 136.101C197.916 135.741 197.892 135.485 197.86 135.333C197.772 134.973 197.592 134.689 197.32 134.481C197.056 134.265 196.72 134.157 196.312 134.157Z" fill="#2A394E"/>
<path d="M202.914 133.449C203.178 133.449 203.406 133.501 203.598 133.605C203.662 133.637 203.686 133.689 203.67 133.761L203.538 134.349C203.514 134.429 203.462 134.453 203.382 134.421C203.246 134.365 203.09 134.337 202.914 134.337L202.758 134.349C202.342 134.365 201.998 134.521 201.726 134.817C201.454 135.105 201.318 135.473 201.318 135.921V139.461C201.318 139.541 201.278 139.581 201.198 139.581H200.586C200.506 139.581 200.466 139.541 200.466 139.461V133.629C200.466 133.549 200.506 133.509 200.586 133.509H201.198C201.278 133.509 201.318 133.549 201.318 133.629V134.361C201.318 134.385 201.322 134.401 201.33 134.409C201.346 134.409 201.358 134.401 201.366 134.385C201.534 134.089 201.746 133.861 202.002 133.701C202.266 133.533 202.57 133.449 202.914 133.449Z" fill="#2A394E"/>
<path d="M211.44 135.609C211.6 136.001 211.68 136.469 211.68 137.013C211.68 137.453 211.62 137.841 211.5 138.177C211.34 138.657 211.068 139.029 210.684 139.293C210.308 139.549 209.84 139.677 209.28 139.677C208.72 139.677 208.24 139.533 207.84 139.245C207.44 138.949 207.164 138.553 207.012 138.057C206.94 137.833 206.896 137.529 206.88 137.145C206.88 137.065 206.92 137.025 207 137.025H207.612C207.692 137.025 207.732 137.065 207.732 137.145C207.748 137.377 207.776 137.593 207.816 137.793C207.904 138.145 208.072 138.425 208.32 138.633C208.576 138.833 208.892 138.933 209.268 138.933C209.988 138.933 210.456 138.613 210.672 137.973C210.768 137.709 210.816 137.381 210.816 136.989C210.816 136.509 210.752 136.117 210.624 135.813C210.368 135.237 209.916 134.949 209.268 134.949C209.148 134.949 209 134.993 208.824 135.081C208.792 135.097 208.768 135.105 208.752 135.105C208.72 135.105 208.692 135.085 208.668 135.045L208.356 134.625C208.316 134.561 208.32 134.505 208.368 134.457L210.48 131.985C210.504 131.945 210.496 131.925 210.456 131.925H207.072C206.992 131.925 206.952 131.885 206.952 131.805V131.301C206.952 131.221 206.992 131.181 207.072 131.181H211.512C211.592 131.181 211.632 131.221 211.632 131.301V131.889C211.632 131.929 211.612 131.977 211.572 132.033L209.652 134.337C209.636 134.353 209.632 134.369 209.64 134.385C209.648 134.393 209.664 134.397 209.688 134.397C210.544 134.453 211.128 134.857 211.44 135.609Z" fill="#2A394E"/>
<path d="M217.954 139.569C217.874 139.569 217.834 139.529 217.834 139.449V135.897C217.834 135.865 217.83 135.845 217.822 135.837L215.326 131.325C215.31 131.293 215.302 131.269 215.302 131.253C215.302 131.205 215.338 131.181 215.41 131.181H216.058C216.13 131.181 216.178 131.209 216.202 131.265L218.218 134.925C218.226 134.933 218.238 134.937 218.254 134.937C218.27 134.937 218.282 134.933 218.29 134.925L220.318 131.265C220.35 131.209 220.398 131.181 220.462 131.181H221.11C221.158 131.181 221.19 131.197 221.206 131.229C221.222 131.253 221.218 131.285 221.194 131.325L218.698 135.837C218.69 135.845 218.686 135.865 218.686 135.897V139.449C218.686 139.529 218.646 139.569 218.566 139.569H217.954Z" fill="#2A394E"/>
<path d="M226.544 135.525C226.576 135.749 226.592 136.029 226.592 136.365V136.749C226.592 136.829 226.552 136.869 226.472 136.869H222.596C222.564 136.869 222.548 136.885 222.548 136.917C222.564 137.357 222.588 137.641 222.62 137.769C222.708 138.129 222.896 138.413 223.184 138.621C223.472 138.829 223.84 138.933 224.288 138.933C224.624 138.933 224.92 138.857 225.176 138.705C225.432 138.553 225.632 138.337 225.776 138.057C225.824 137.985 225.88 137.969 225.944 138.009L226.412 138.285C226.476 138.325 226.492 138.381 226.46 138.453C226.26 138.837 225.96 139.141 225.56 139.365C225.16 139.581 224.7 139.689 224.18 139.689C223.612 139.681 223.136 139.545 222.752 139.281C222.368 139.017 222.092 138.649 221.924 138.177C221.78 137.793 221.708 137.241 221.708 136.521C221.708 136.185 221.712 135.913 221.72 135.705C221.736 135.489 221.768 135.297 221.816 135.129C221.952 134.609 222.224 134.193 222.632 133.881C223.048 133.569 223.548 133.413 224.132 133.413C224.86 133.413 225.42 133.597 225.812 133.965C226.204 134.333 226.448 134.853 226.544 135.525ZM224.132 134.157C223.74 134.157 223.412 134.261 223.148 134.469C222.892 134.669 222.724 134.941 222.644 135.285C222.596 135.453 222.564 135.725 222.548 136.101C222.548 136.133 222.564 136.149 222.596 136.149H225.704C225.736 136.149 225.752 136.133 225.752 136.101C225.736 135.741 225.712 135.485 225.68 135.333C225.592 134.973 225.412 134.689 225.14 134.481C224.876 134.265 224.54 134.157 224.132 134.157Z" fill="#2A394E"/>
<path d="M230.328 133.413C231.048 133.413 231.604 133.597 231.996 133.965C232.388 134.333 232.584 134.821 232.584 135.429V139.461C232.584 139.541 232.544 139.581 232.464 139.581H231.852C231.772 139.581 231.732 139.541 231.732 139.461V138.969C231.732 138.953 231.724 138.941 231.708 138.933C231.7 138.925 231.688 138.929 231.672 138.945C231.472 139.185 231.212 139.369 230.892 139.497C230.572 139.617 230.216 139.677 229.824 139.677C229.256 139.677 228.78 139.533 228.396 139.245C228.012 138.957 227.82 138.517 227.82 137.925C227.82 137.325 228.036 136.853 228.468 136.509C228.908 136.157 229.516 135.981 230.292 135.981H231.684C231.716 135.981 231.732 135.965 231.732 135.933V135.477C231.732 135.069 231.616 134.749 231.384 134.517C231.16 134.277 230.808 134.157 230.328 134.157C229.944 134.157 229.632 134.233 229.392 134.385C229.152 134.529 229.004 134.733 228.948 134.997C228.924 135.077 228.876 135.113 228.804 135.105L228.156 135.021C228.068 135.005 228.032 134.973 228.048 134.925C228.112 134.477 228.352 134.113 228.768 133.833C229.184 133.553 229.704 133.413 230.328 133.413ZM229.992 138.945C230.464 138.945 230.872 138.829 231.216 138.597C231.56 138.357 231.732 138.037 231.732 137.637V136.701C231.732 136.669 231.716 136.653 231.684 136.653H230.424C229.896 136.653 229.472 136.761 229.152 136.977C228.832 137.193 228.672 137.493 228.672 137.877C228.672 138.229 228.792 138.497 229.032 138.681C229.28 138.857 229.6 138.945 229.992 138.945Z" fill="#2A394E"/>
<path d="M236.805 133.449C237.069 133.449 237.297 133.501 237.489 133.605C237.553 133.637 237.577 133.689 237.561 133.761L237.429 134.349C237.405 134.429 237.353 134.453 237.273 134.421C237.137 134.365 236.981 134.337 236.805 134.337L236.649 134.349C236.233 134.365 235.889 134.521 235.617 134.817C235.345 135.105 235.209 135.473 235.209 135.921V139.461C235.209 139.541 235.169 139.581 235.089 139.581H234.477C234.397 139.581 234.357 139.541 234.357 139.461V133.629C234.357 133.549 234.397 133.509 234.477 133.509H235.089C235.169 133.509 235.209 133.549 235.209 133.629V134.361C235.209 134.385 235.213 134.401 235.221 134.409C235.237 134.409 235.249 134.401 235.257 134.385C235.425 134.089 235.637 133.861 235.893 133.701C236.157 133.533 236.461 133.449 236.805 133.449Z" fill="#2A394E"/>
<path d="M240.685 139.641C240.237 139.641 239.837 139.569 239.485 139.425C239.141 139.281 238.873 139.089 238.681 138.849C238.497 138.609 238.405 138.341 238.405 138.045V137.901C238.405 137.821 238.445 137.781 238.525 137.781H239.101C239.181 137.781 239.221 137.821 239.221 137.901V137.997C239.221 138.261 239.357 138.493 239.629 138.693C239.909 138.885 240.257 138.981 240.673 138.981C241.089 138.981 241.425 138.889 241.681 138.705C241.937 138.513 242.065 138.273 242.065 137.985C242.065 137.785 241.997 137.621 241.861 137.493C241.733 137.365 241.577 137.265 241.393 137.193C241.217 137.121 240.941 137.029 240.565 136.917C240.117 136.789 239.749 136.661 239.461 136.533C239.173 136.405 238.929 136.229 238.729 136.005C238.537 135.773 238.441 135.481 238.441 135.129C238.441 134.617 238.641 134.209 239.041 133.905C239.441 133.601 239.969 133.449 240.625 133.449C241.065 133.449 241.453 133.521 241.789 133.665C242.133 133.809 242.397 134.009 242.581 134.265C242.765 134.513 242.857 134.793 242.857 135.105V135.141C242.857 135.221 242.817 135.261 242.737 135.261H242.173C242.093 135.261 242.053 135.221 242.053 135.141V135.105C242.053 134.833 241.921 134.605 241.657 134.421C241.401 134.237 241.053 134.145 240.613 134.145C240.205 134.145 239.877 134.229 239.629 134.397C239.381 134.557 239.257 134.781 239.257 135.069C239.257 135.341 239.377 135.549 239.617 135.693C239.857 135.837 240.229 135.981 240.733 136.125C241.197 136.261 241.573 136.389 241.861 136.509C242.149 136.629 242.397 136.805 242.605 137.037C242.813 137.261 242.917 137.557 242.917 137.925C242.917 138.445 242.713 138.861 242.305 139.173C241.897 139.485 241.357 139.641 240.685 139.641Z" fill="#2A394E"/>
<path d="M3.61792 58.563C4.20458 58.563 4.67458 58.743 5.02792 59.103C5.38792 59.463 5.56791 59.9364 5.56791 60.523C5.56791 61.103 5.38458 61.5697 5.01791 61.923C4.65791 62.2764 4.18125 62.453 3.58792 62.453H1.63792C1.61125 62.453 1.59792 62.4664 1.59792 62.493V65.473C1.59792 65.5397 1.56458 65.573 1.49792 65.573H0.987915C0.921248 65.573 0.887915 65.5397 0.887915 65.473V58.663C0.887915 58.5964 0.921248 58.563 0.987915 58.563H3.61792ZM3.53792 61.863C3.93125 61.863 4.25125 61.743 4.49792 61.503C4.74458 61.2564 4.86792 60.933 4.86792 60.533C4.86792 60.1264 4.74458 59.7997 4.49792 59.553C4.25125 59.3064 3.93125 59.183 3.53792 59.183H1.63792C1.61125 59.183 1.59792 59.1964 1.59792 59.223V61.823C1.59792 61.8497 1.61125 61.863 1.63792 61.863H3.53792Z" fill="#2A394E"/>
<path d="M8.77588 60.463C8.99588 60.463 9.18588 60.5064 9.34588 60.593C9.39922 60.6197 9.41922 60.663 9.40588 60.723L9.29588 61.213C9.27588 61.2797 9.23255 61.2997 9.16588 61.273C9.05255 61.2264 8.92255 61.203 8.77588 61.203L8.64588 61.213C8.29922 61.2264 8.01255 61.3564 7.78588 61.603C7.55922 61.843 7.44588 62.1497 7.44588 62.523V65.473C7.44588 65.5397 7.41255 65.573 7.34588 65.573H6.83588C6.76922 65.573 6.73588 65.5397 6.73588 65.473V60.613C6.73588 60.5464 6.76922 60.513 6.83588 60.513H7.34588C7.41255 60.513 7.44588 60.5464 7.44588 60.613V61.223C7.44588 61.243 7.44922 61.2564 7.45588 61.263C7.46922 61.263 7.47922 61.2564 7.48588 61.243C7.62588 60.9964 7.80255 60.8064 8.01588 60.673C8.23588 60.533 8.48922 60.463 8.77588 60.463Z" fill="#2A394E"/>
<path d="M12.2596 65.653C11.7796 65.653 11.3663 65.5297 11.0196 65.283C10.673 65.0364 10.433 64.6964 10.2996 64.263C10.2063 63.9564 10.1596 63.5464 10.1596 63.033C10.1596 62.5197 10.2063 62.113 10.2996 61.813C10.4263 61.3864 10.663 61.0497 11.0096 60.803C11.3563 60.5564 11.7763 60.433 12.2696 60.433C12.743 60.433 13.1496 60.5564 13.4896 60.803C13.8363 61.0497 14.073 61.383 14.1996 61.803C14.293 62.0897 14.3396 62.4997 14.3396 63.033C14.3396 63.573 14.293 63.983 14.1996 64.263C14.073 64.6964 13.8363 65.0364 13.4896 65.283C13.1496 65.5297 12.7396 65.653 12.2596 65.653ZM12.2596 65.033C12.5796 65.033 12.853 64.9464 13.0796 64.773C13.3063 64.593 13.4596 64.353 13.5396 64.053C13.5996 63.813 13.6296 63.4764 13.6296 63.043C13.6296 62.603 13.603 62.2664 13.5496 62.033C13.4696 61.733 13.313 61.4964 13.0796 61.323C12.853 61.143 12.5763 61.053 12.2496 61.053C11.923 61.053 11.6463 61.143 11.4196 61.323C11.193 61.4964 11.0396 61.733 10.9596 62.033C10.9063 62.2664 10.8796 62.603 10.8796 63.043C10.8796 63.483 10.9063 63.8197 10.9596 64.053C11.033 64.353 11.183 64.593 11.4096 64.773C11.643 64.9464 11.9263 65.033 12.2596 65.033Z" fill="#2A394E"/>
<path d="M16.1589 59.593C15.9922 59.593 15.8555 59.5397 15.7489 59.433C15.6489 59.3264 15.5989 59.193 15.5989 59.033C15.5989 58.8664 15.6489 58.733 15.7489 58.633C15.8555 58.5264 15.9922 58.473 16.1589 58.473C16.3189 58.473 16.4522 58.5264 16.5589 58.633C16.6655 58.733 16.7189 58.8664 16.7189 59.033C16.7189 59.193 16.6655 59.3264 16.5589 59.433C16.4522 59.5397 16.3189 59.593 16.1589 59.593ZM14.7289 67.653C14.6622 67.653 14.6289 67.6197 14.6289 67.553V67.143C14.6289 67.0764 14.6622 67.043 14.7289 67.043C15.4422 67.0364 15.7989 66.693 15.7989 66.013V60.613C15.7989 60.5464 15.8322 60.513 15.8989 60.513H16.4089C16.4755 60.513 16.5089 60.5464 16.5089 60.613V66.013C16.5089 66.5797 16.3689 66.993 16.0889 67.253C15.8089 67.513 15.3555 67.6464 14.7289 67.653Z" fill="#2A394E"/>
<path d="M22.11 62.193C22.1367 62.3797 22.15 62.613 22.15 62.893V63.213C22.15 63.2797 22.1167 63.313 22.05 63.313H18.82C18.7934 63.313 18.78 63.3264 18.78 63.353C18.7934 63.7197 18.8134 63.9564 18.84 64.063C18.9134 64.363 19.07 64.5997 19.31 64.773C19.55 64.9464 19.8567 65.033 20.23 65.033C20.51 65.033 20.7567 64.9697 20.97 64.843C21.1834 64.7164 21.35 64.5364 21.47 64.303C21.51 64.243 21.5567 64.2297 21.61 64.263L22 64.493C22.0534 64.5264 22.0667 64.573 22.04 64.633C21.8734 64.953 21.6234 65.2064 21.29 65.393C20.9567 65.573 20.5734 65.663 20.14 65.663C19.6667 65.6564 19.27 65.543 18.95 65.323C18.63 65.103 18.4 64.7964 18.26 64.403C18.14 64.083 18.08 63.623 18.08 63.023C18.08 62.743 18.0834 62.5164 18.09 62.343C18.1034 62.163 18.13 62.003 18.17 61.863C18.2834 61.4297 18.51 61.083 18.85 60.823C19.1967 60.563 19.6134 60.433 20.1 60.433C20.7067 60.433 21.1734 60.5864 21.5 60.893C21.8267 61.1997 22.03 61.633 22.11 62.193ZM20.1 61.053C19.7734 61.053 19.5 61.1397 19.28 61.313C19.0667 61.4797 18.9267 61.7064 18.86 61.993C18.82 62.133 18.7934 62.3597 18.78 62.673C18.78 62.6997 18.7934 62.713 18.82 62.713H21.41C21.4367 62.713 21.45 62.6997 21.45 62.673C21.4367 62.373 21.4167 62.1597 21.39 62.033C21.3167 61.733 21.1667 61.4964 20.94 61.323C20.72 61.143 20.44 61.053 20.1 61.053Z" fill="#2A394E"/>
<path d="M25.4721 65.653C24.9921 65.653 24.5787 65.5297 24.2321 65.283C23.8921 65.0297 23.6587 64.6897 23.5321 64.263C23.4454 63.9697 23.4021 63.5564 23.4021 63.023C23.4021 62.543 23.4454 62.1364 23.5321 61.803C23.6521 61.3897 23.8854 61.0597 24.2321 60.813C24.5787 60.5597 24.9921 60.433 25.4721 60.433C25.9587 60.433 26.3787 60.5564 26.7321 60.803C27.0921 61.0497 27.3254 61.3564 27.4321 61.723C27.4654 61.843 27.4854 61.943 27.4921 62.023V62.043C27.4921 62.0897 27.4621 62.1197 27.4021 62.133L26.9021 62.203H26.8821C26.8354 62.203 26.8054 62.173 26.7921 62.113L26.7621 61.963C26.7021 61.7097 26.5554 61.4964 26.3221 61.323C26.0887 61.143 25.8054 61.053 25.4721 61.053C25.1387 61.053 24.8587 61.143 24.6321 61.323C24.4121 61.4964 24.2687 61.7297 24.2021 62.023C24.1421 62.2764 24.1121 62.613 24.1121 63.033C24.1121 63.473 24.1421 63.813 24.2021 64.053C24.2687 64.353 24.4121 64.593 24.6321 64.773C24.8587 64.9464 25.1387 65.033 25.4721 65.033C25.7987 65.033 26.0787 64.9497 26.3121 64.783C26.5521 64.6097 26.7021 64.3897 26.7621 64.123V64.083L26.7721 64.043C26.7787 63.9764 26.8187 63.9497 26.8921 63.963L27.3821 64.043C27.4487 64.0564 27.4787 64.093 27.4721 64.153L27.4321 64.353C27.3321 64.7397 27.1021 65.053 26.7421 65.293C26.3821 65.533 25.9587 65.653 25.4721 65.653Z" fill="#2A394E"/>
<path d="M31.0274 61.003C31.0274 61.0697 30.994 61.103 30.9274 61.103H29.7974C29.7707 61.103 29.7574 61.1164 29.7574 61.143V64.093C29.7574 64.413 29.8274 64.6397 29.9674 64.773C30.114 64.8997 30.3407 64.963 30.6474 64.963H30.8974C30.964 64.963 30.9974 64.9964 30.9974 65.063V65.473C30.9974 65.5397 30.964 65.573 30.8974 65.573C30.8174 65.5797 30.694 65.583 30.5274 65.583C30.0474 65.583 29.684 65.493 29.4374 65.313C29.1907 65.133 29.0674 64.7997 29.0674 64.313V61.143C29.0674 61.1164 29.054 61.103 29.0274 61.103H28.4174C28.3507 61.103 28.3174 61.0697 28.3174 61.003V60.613C28.3174 60.5464 28.3507 60.513 28.4174 60.513H29.0274C29.054 60.513 29.0674 60.4997 29.0674 60.473V59.313C29.0674 59.2464 29.1007 59.213 29.1674 59.213H29.6574C29.724 59.213 29.7574 59.2464 29.7574 59.313V60.473C29.7574 60.4997 29.7707 60.513 29.7974 60.513H30.9274C30.994 60.513 31.0274 60.5464 31.0274 60.613V61.003Z" fill="#2A394E"/>
<path d="M36.1335 62.193C36.1601 62.3797 36.1735 62.613 36.1735 62.893V63.213C36.1735 63.2797 36.1401 63.313 36.0735 63.313H32.8435C32.8168 63.313 32.8035 63.3264 32.8035 63.353C32.8168 63.7197 32.8368 63.9564 32.8635 64.063C32.9368 64.363 33.0935 64.5997 33.3335 64.773C33.5735 64.9464 33.8801 65.033 34.2535 65.033C34.5335 65.033 34.7801 64.9697 34.9935 64.843C35.2068 64.7164 35.3735 64.5364 35.4935 64.303C35.5335 64.243 35.5801 64.2297 35.6335 64.263L36.0235 64.493C36.0768 64.5264 36.0901 64.573 36.0635 64.633C35.8968 64.953 35.6468 65.2064 35.3135 65.393C34.9801 65.573 34.5968 65.663 34.1635 65.663C33.6901 65.6564 33.2935 65.543 32.9735 65.323C32.6535 65.103 32.4235 64.7964 32.2835 64.403C32.1635 64.083 32.1035 63.623 32.1035 63.023C32.1035 62.743 32.1068 62.5164 32.1135 62.343C32.1268 62.163 32.1535 62.003 32.1935 61.863C32.3068 61.4297 32.5335 61.083 32.8735 60.823C33.2201 60.563 33.6368 60.433 34.1235 60.433C34.7301 60.433 35.1968 60.5864 35.5235 60.893C35.8501 61.1997 36.0535 61.633 36.1335 62.193ZM34.1235 61.053C33.7968 61.053 33.5235 61.1397 33.3035 61.313C33.0901 61.4797 32.9501 61.7064 32.8835 61.993C32.8435 62.133 32.8168 62.3597 32.8035 62.673C32.8035 62.6997 32.8168 62.713 32.8435 62.713H35.4335C35.4601 62.713 35.4735 62.6997 35.4735 62.673C35.4601 62.373 35.4401 62.1597 35.4135 62.033C35.3401 61.733 35.1901 61.4964 34.9635 61.323C34.7435 61.143 34.4635 61.053 34.1235 61.053Z" fill="#2A394E"/>
<path d="M40.7255 58.673C40.7255 58.6064 40.7588 58.573 40.8255 58.573H41.3355C41.4022 58.573 41.4355 58.6064 41.4355 58.673V65.473C41.4355 65.5397 41.4022 65.573 41.3355 65.573H40.8255C40.7588 65.573 40.7255 65.5397 40.7255 65.473V65.053C40.7255 65.0397 40.7188 65.033 40.7055 65.033C40.6988 65.0264 40.6888 65.0297 40.6755 65.043C40.5288 65.2364 40.3455 65.3864 40.1255 65.493C39.9122 65.5997 39.6722 65.653 39.4055 65.653C38.9388 65.653 38.5455 65.533 38.2255 65.293C37.9122 65.053 37.6955 64.7264 37.5755 64.313C37.4822 64.013 37.4355 63.5897 37.4355 63.043C37.4355 62.4897 37.4755 62.0764 37.5555 61.803C37.6755 61.3764 37.8955 61.043 38.2155 60.803C38.5355 60.5564 38.9322 60.433 39.4055 60.433C39.6655 60.433 39.9055 60.4864 40.1255 60.593C40.3455 60.693 40.5288 60.8397 40.6755 61.033C40.6888 61.0464 40.6988 61.053 40.7055 61.053C40.7188 61.0464 40.7255 61.0364 40.7255 61.023V58.673ZM40.5455 64.263C40.6055 64.1297 40.6488 63.973 40.6755 63.793C40.7022 63.613 40.7155 63.363 40.7155 63.043C40.7155 62.723 40.7022 62.473 40.6755 62.293C40.6488 62.1064 40.6022 61.943 40.5355 61.803C40.4555 61.5764 40.3222 61.3964 40.1355 61.263C39.9555 61.123 39.7388 61.053 39.4855 61.053C39.2188 61.053 38.9888 61.1197 38.7955 61.253C38.6022 61.3864 38.4622 61.563 38.3755 61.783C38.2955 61.9297 38.2355 62.0964 38.1955 62.283C38.1622 62.463 38.1455 62.7164 38.1455 63.043C38.1455 63.3564 38.1588 63.603 38.1855 63.783C38.2122 63.9564 38.2588 64.113 38.3255 64.253C38.4055 64.493 38.5455 64.683 38.7455 64.823C38.9522 64.963 39.1955 65.033 39.4755 65.033C39.7422 65.033 39.9655 64.963 40.1455 64.823C40.3255 64.683 40.4588 64.4964 40.5455 64.263Z" fill="#2A394E"/>
<path d="M46.3364 65.573C46.2764 65.573 46.2364 65.5464 46.2164 65.493L44.5764 60.623L44.5664 60.583C44.5664 60.5364 44.5964 60.513 44.6564 60.513H45.2264C45.2864 60.513 45.3264 60.5397 45.3464 60.593L46.5964 64.513C46.6031 64.5264 46.6131 64.533 46.6264 64.533C46.6398 64.533 46.6498 64.5264 46.6564 64.513L47.9064 60.593C47.9264 60.5397 47.9664 60.513 48.0264 60.513L48.5964 60.523C48.6698 60.523 48.6964 60.5597 48.6764 60.633L47.0364 65.493C47.0164 65.5464 46.9764 65.573 46.9164 65.573H46.3364Z" fill="#2A394E"/>
<path d="M51.5425 60.433C52.1425 60.433 52.6059 60.5864 52.9325 60.893C53.2592 61.1997 53.4225 61.6064 53.4225 62.113V65.473C53.4225 65.5397 53.3892 65.573 53.3225 65.573H52.8125C52.7459 65.573 52.7125 65.5397 52.7125 65.473V65.063C52.7125 65.0497 52.7059 65.0397 52.6925 65.033C52.6859 65.0264 52.6759 65.0297 52.6625 65.043C52.4959 65.243 52.2792 65.3964 52.0125 65.503C51.7459 65.603 51.4492 65.653 51.1225 65.653C50.6492 65.653 50.2525 65.533 49.9325 65.293C49.6125 65.053 49.4525 64.6864 49.4525 64.193C49.4525 63.693 49.6325 63.2997 49.9925 63.013C50.3592 62.7197 50.8659 62.573 51.5125 62.573H52.6725C52.6992 62.573 52.7125 62.5597 52.7125 62.533V62.153C52.7125 61.813 52.6159 61.5464 52.4225 61.353C52.2359 61.153 51.9425 61.053 51.5425 61.053C51.2225 61.053 50.9625 61.1164 50.7625 61.243C50.5625 61.363 50.4392 61.533 50.3925 61.753C50.3725 61.8197 50.3325 61.8497 50.2725 61.843L49.7325 61.773C49.6592 61.7597 49.6292 61.733 49.6425 61.693C49.6959 61.3197 49.8959 61.0164 50.2425 60.783C50.5892 60.5497 51.0225 60.433 51.5425 60.433ZM51.2625 65.043C51.6559 65.043 51.9959 64.9464 52.2825 64.753C52.5692 64.553 52.7125 64.2864 52.7125 63.953V63.173C52.7125 63.1464 52.6992 63.133 52.6725 63.133H51.6225C51.1825 63.133 50.8292 63.223 50.5625 63.403C50.2959 63.583 50.1625 63.833 50.1625 64.153C50.1625 64.4464 50.2625 64.6697 50.4625 64.823C50.6692 64.9697 50.9359 65.043 51.2625 65.043Z" fill="#2A394E"/>
<path d="M54.9999 65.573C54.9333 65.573 54.8999 65.5397 54.8999 65.473V58.673C54.8999 58.6064 54.9333 58.573 54.9999 58.573H55.5099C55.5766 58.573 55.6099 58.6064 55.6099 58.673V65.473C55.6099 65.5397 55.5766 65.573 55.5099 65.573H54.9999Z" fill="#2A394E"/>
<path d="M60.2646 60.613C60.2646 60.5464 60.298 60.513 60.3646 60.513H60.8746C60.9413 60.513 60.9746 60.5464 60.9746 60.613V65.473C60.9746 65.5397 60.9413 65.573 60.8746 65.573H60.3646C60.298 65.573 60.2646 65.5397 60.2646 65.473V65.043C60.2646 65.0297 60.258 65.0197 60.2446 65.013C60.2313 65.0064 60.2213 65.0097 60.2146 65.023C59.9346 65.4364 59.4913 65.643 58.8846 65.643C58.5646 65.643 58.268 65.5797 57.9946 65.453C57.728 65.3197 57.5146 65.1297 57.3546 64.883C57.2013 64.6364 57.1246 64.3397 57.1246 63.993V60.613C57.1246 60.5464 57.158 60.513 57.2246 60.513H57.7346C57.8013 60.513 57.8346 60.5464 57.8346 60.613V63.783C57.8346 64.163 57.9413 64.4664 58.1546 64.693C58.368 64.913 58.658 65.023 59.0246 65.023C59.4046 65.023 59.7046 64.9097 59.9246 64.683C60.1513 64.4564 60.2646 64.1564 60.2646 63.783V60.613Z" fill="#2A394E"/>
<path d="M66.446 62.193C66.4726 62.3797 66.486 62.613 66.486 62.893V63.213C66.486 63.2797 66.4526 63.313 66.386 63.313H63.156C63.1293 63.313 63.116 63.3264 63.116 63.353C63.1293 63.7197 63.1493 63.9564 63.176 64.063C63.2493 64.363 63.406 64.5997 63.646 64.773C63.886 64.9464 64.1926 65.033 64.566 65.033C64.846 65.033 65.0926 64.9697 65.306 64.843C65.5193 64.7164 65.686 64.5364 65.806 64.303C65.846 64.243 65.8926 64.2297 65.946 64.263L66.336 64.493C66.3893 64.5264 66.4026 64.573 66.376 64.633C66.2093 64.953 65.9593 65.2064 65.626 65.393C65.2926 65.573 64.9093 65.663 64.476 65.663C64.0026 65.6564 63.606 65.543 63.286 65.323C62.966 65.103 62.736 64.7964 62.596 64.403C62.476 64.083 62.416 63.623 62.416 63.023C62.416 62.743 62.4193 62.5164 62.426 62.343C62.4393 62.163 62.466 62.003 62.506 61.863C62.6193 61.4297 62.846 61.083 63.186 60.823C63.5326 60.563 63.9493 60.433 64.436 60.433C65.0426 60.433 65.5093 60.5864 65.836 60.893C66.1626 61.1997 66.366 61.633 66.446 62.193ZM64.436 61.053C64.1093 61.053 63.836 61.1397 63.616 61.313C63.4026 61.4797 63.2626 61.7064 63.196 61.993C63.156 62.133 63.1293 62.3597 63.116 62.673C63.116 62.6997 63.1293 62.713 63.156 62.713H65.746C65.7726 62.713 65.786 62.6997 65.786 62.673C65.7726 62.373 65.7526 62.1597 65.726 62.033C65.6526 61.733 65.5026 61.4964 65.276 61.323C65.056 61.143 64.776 61.053 64.436 61.053Z" fill="#2A394E"/>
<path d="M1.29792 71.593C1.13792 71.593 1.00458 71.5397 0.897915 71.433C0.791248 71.3264 0.737915 71.193 0.737915 71.033C0.737915 70.8664 0.791248 70.733 0.897915 70.633C1.00458 70.5264 1.13792 70.473 1.29792 70.473C1.45792 70.473 1.59125 70.5264 1.69792 70.633C1.80458 70.733 1.85792 70.8664 1.85792 71.033C1.85792 71.193 1.80458 71.3264 1.69792 71.433C1.59125 71.5397 1.45792 71.593 1.29792 71.593ZM1.01792 77.563C0.951248 77.563 0.917915 77.5297 0.917915 77.463V72.603C0.917915 72.5364 0.951248 72.503 1.01792 72.503H1.52792C1.59458 72.503 1.62792 72.5364 1.62792 72.603V77.463C1.62792 77.5297 1.59458 77.563 1.52792 77.563H1.01792Z" fill="#2A394E"/>
<path d="M5.36674 71.193C5.00008 71.193 4.75008 71.2764 4.61674 71.443C4.48341 71.603 4.41674 71.8797 4.41674 72.273V72.473C4.41674 72.4997 4.43008 72.513 4.45674 72.513H5.57674C5.64341 72.513 5.67674 72.5464 5.67674 72.613V73.063C5.67674 73.1297 5.64341 73.163 5.57674 73.163H4.45674C4.43008 73.163 4.41674 73.1764 4.41674 73.203V77.473C4.41674 77.5397 4.38341 77.573 4.31674 77.573H3.81674C3.75008 77.573 3.71674 77.5397 3.71674 77.473V73.203C3.71674 73.1764 3.70341 73.163 3.67674 73.163H3.00674C2.94008 73.163 2.90674 73.1297 2.90674 73.063V72.613C2.90674 72.5464 2.94008 72.513 3.00674 72.513H3.67674C3.70341 72.513 3.71674 72.4997 3.71674 72.473V72.233C3.71674 71.8197 3.76341 71.4964 3.85674 71.263C3.95008 71.023 4.11008 70.8497 4.33674 70.743C4.57008 70.6297 4.89341 70.573 5.30674 70.573H5.59674C5.66341 70.573 5.69674 70.6064 5.69674 70.673V71.093C5.69674 71.1597 5.66341 71.193 5.59674 71.193H5.36674Z" fill="#2A394E"/>
<path d="M8.70315 79.573C8.65648 79.573 8.63315 79.5397 8.63315 79.473V79.073C8.63315 79.0064 8.66648 78.973 8.73315 78.973H8.77315C9.03315 78.9664 9.23315 78.9264 9.37315 78.853C9.51982 78.7864 9.64315 78.6564 9.74315 78.463C9.84982 78.2764 9.96315 77.9897 10.0831 77.603C10.0965 77.5764 10.0965 77.5564 10.0831 77.543L8.39315 72.623L8.38315 72.583C8.38315 72.5364 8.41315 72.513 8.47315 72.513H9.00315C9.06315 72.513 9.10315 72.5397 9.12315 72.593L10.4231 76.633C10.4298 76.6464 10.4398 76.653 10.4531 76.653C10.4665 76.653 10.4765 76.6464 10.4831 76.633L11.7631 72.593C11.7831 72.5397 11.8232 72.513 11.8832 72.513H12.4031C12.4765 72.513 12.5031 72.5497 12.4831 72.623L10.6331 78.013C10.4731 78.4597 10.3231 78.7897 10.1831 79.003C10.0431 79.2164 9.86648 79.363 9.65315 79.443C9.44648 79.5297 9.15315 79.573 8.77315 79.573H8.70315Z" fill="#2A394E"/>
<path d="M15.3065 77.653C14.8265 77.653 14.4132 77.5297 14.0665 77.283C13.7198 77.0364 13.4798 76.6964 13.3465 76.263C13.2532 75.9564 13.2065 75.5464 13.2065 75.033C13.2065 74.5197 13.2532 74.113 13.3465 73.813C13.4732 73.3864 13.7098 73.0497 14.0565 72.803C14.4032 72.5564 14.8232 72.433 15.3165 72.433C15.7898 72.433 16.1965 72.5564 16.5365 72.803C16.8832 73.0497 17.1198 73.383 17.2465 73.803C17.3398 74.0897 17.3865 74.4997 17.3865 75.033C17.3865 75.573 17.3398 75.983 17.2465 76.263C17.1198 76.6964 16.8832 77.0364 16.5365 77.283C16.1965 77.5297 15.7865 77.653 15.3065 77.653ZM15.3065 77.033C15.6265 77.033 15.8998 76.9464 16.1265 76.773C16.3532 76.593 16.5065 76.353 16.5865 76.053C16.6465 75.813 16.6765 75.4764 16.6765 75.043C16.6765 74.603 16.6498 74.2664 16.5965 74.033C16.5165 73.733 16.3598 73.4964 16.1265 73.323C15.8998 73.143 15.6232 73.053 15.2965 73.053C14.9698 73.053 14.6932 73.143 14.4665 73.323C14.2398 73.4964 14.0865 73.733 14.0065 74.033C13.9532 74.2664 13.9265 74.603 13.9265 75.043C13.9265 75.483 13.9532 75.8197 14.0065 76.053C14.0798 76.353 14.2298 76.593 14.4565 76.773C14.6898 76.9464 14.9732 77.033 15.3065 77.033Z" fill="#2A394E"/>
<path d="M21.8857 72.613C21.8857 72.5464 21.9191 72.513 21.9857 72.513H22.4957C22.5624 72.513 22.5957 72.5464 22.5957 72.613V77.473C22.5957 77.5397 22.5624 77.573 22.4957 77.573H21.9857C21.9191 77.573 21.8857 77.5397 21.8857 77.473V77.043C21.8857 77.0297 21.8791 77.0197 21.8657 77.013C21.8524 77.0064 21.8424 77.0097 21.8357 77.023C21.5557 77.4364 21.1124 77.643 20.5057 77.643C20.1857 77.643 19.8891 77.5797 19.6157 77.453C19.3491 77.3197 19.1357 77.1297 18.9757 76.883C18.8224 76.6364 18.7457 76.3397 18.7457 75.993V72.613C18.7457 72.5464 18.7791 72.513 18.8457 72.513H19.3557C19.4224 72.513 19.4557 72.5464 19.4557 72.613V75.783C19.4557 76.163 19.5624 76.4664 19.7757 76.693C19.9891 76.913 20.2791 77.023 20.6457 77.023C21.0257 77.023 21.3257 76.9097 21.5457 76.683C21.7724 76.4564 21.8857 76.1564 21.8857 75.783V72.613Z" fill="#2A394E"/>
<path d="M29.329 70.673C29.329 70.6064 29.3623 70.573 29.429 70.573H29.939C30.0057 70.573 30.039 70.6064 30.039 70.673V77.473C30.039 77.5397 30.0057 77.573 29.939 77.573H29.429C29.3623 77.573 29.329 77.5397 29.329 77.473V77.053C29.329 77.0397 29.3223 77.033 29.309 77.033C29.3023 77.0264 29.2923 77.0297 29.279 77.043C29.1323 77.2364 28.949 77.3864 28.729 77.493C28.5157 77.5997 28.2757 77.653 28.009 77.653C27.5423 77.653 27.149 77.533 26.829 77.293C26.5157 77.053 26.299 76.7264 26.179 76.313C26.0857 76.013 26.039 75.5897 26.039 75.043C26.039 74.4897 26.079 74.0764 26.159 73.803C26.279 73.3764 26.499 73.043 26.819 72.803C27.139 72.5564 27.5357 72.433 28.009 72.433C28.269 72.433 28.509 72.4864 28.729 72.593C28.949 72.693 29.1323 72.8397 29.279 73.033C29.2923 73.0464 29.3023 73.053 29.309 73.053C29.3223 73.0464 29.329 73.0364 29.329 73.023V70.673ZM29.149 76.263C29.209 76.1297 29.2523 75.973 29.279 75.793C29.3057 75.613 29.319 75.363 29.319 75.043C29.319 74.723 29.3057 74.473 29.279 74.293C29.2523 74.1064 29.2057 73.943 29.139 73.803C29.059 73.5764 28.9257 73.3964 28.739 73.263C28.559 73.123 28.3423 73.053 28.089 73.053C27.8223 73.053 27.5923 73.1197 27.399 73.253C27.2057 73.3864 27.0657 73.563 26.979 73.783C26.899 73.9297 26.839 74.0964 26.799 74.283C26.7657 74.463 26.749 74.7164 26.749 75.043C26.749 75.3564 26.7623 75.603 26.789 75.783C26.8157 75.9564 26.8623 76.113 26.929 76.253C27.009 76.493 27.149 76.683 27.349 76.823C27.5557 76.963 27.799 77.033 28.079 77.033C28.3457 77.033 28.569 76.963 28.749 76.823C28.929 76.683 29.0623 76.4964 29.149 76.263Z" fill="#2A394E"/>
<path d="M33.578 77.653C33.098 77.653 32.6847 77.5297 32.338 77.283C31.9913 77.0364 31.7513 76.6964 31.618 76.263C31.5247 75.9564 31.478 75.5464 31.478 75.033C31.478 74.5197 31.5247 74.113 31.618 73.813C31.7447 73.3864 31.9813 73.0497 32.328 72.803C32.6747 72.5564 33.0947 72.433 33.588 72.433C34.0613 72.433 34.468 72.5564 34.808 72.803C35.1547 73.0497 35.3913 73.383 35.518 73.803C35.6113 74.0897 35.658 74.4997 35.658 75.033C35.658 75.573 35.6113 75.983 35.518 76.263C35.3913 76.6964 35.1547 77.0364 34.808 77.283C34.468 77.5297 34.058 77.653 33.578 77.653ZM33.578 77.033C33.898 77.033 34.1713 76.9464 34.398 76.773C34.6247 76.593 34.778 76.353 34.858 76.053C34.918 75.813 34.948 75.4764 34.948 75.043C34.948 74.603 34.9213 74.2664 34.868 74.033C34.788 73.733 34.6313 73.4964 34.398 73.323C34.1713 73.143 33.8947 73.053 33.568 73.053C33.2413 73.053 32.9647 73.143 32.738 73.323C32.5113 73.4964 32.358 73.733 32.278 74.033C32.2247 74.2664 32.198 74.603 32.198 75.043C32.198 75.483 32.2247 75.8197 32.278 76.053C32.3513 76.353 32.5013 76.593 32.728 76.773C32.9613 76.9464 33.2447 77.033 33.578 77.033Z" fill="#2A394E"/>
<path d="M41.1992 72.443C41.7325 72.443 42.1558 72.5997 42.4692 72.913C42.7892 73.2264 42.9492 73.6464 42.9492 74.173V77.473C42.9492 77.5397 42.9158 77.573 42.8492 77.573H42.3392C42.2725 77.573 42.2392 77.5397 42.2392 77.473V74.313C42.2392 73.9464 42.1258 73.6464 41.8992 73.413C41.6792 73.1797 41.3925 73.063 41.0392 73.063C40.6725 73.063 40.3758 73.1764 40.1492 73.403C39.9225 73.6297 39.8092 73.9264 39.8092 74.293V77.473C39.8092 77.5397 39.7758 77.573 39.7092 77.573H39.1992C39.1325 77.573 39.0992 77.5397 39.0992 77.473V72.613C39.0992 72.5464 39.1325 72.513 39.1992 72.513H39.7092C39.7758 72.513 39.8092 72.5464 39.8092 72.613V73.043C39.8092 73.0564 39.8125 73.0664 39.8192 73.073C39.8325 73.0797 39.8425 73.0764 39.8492 73.063C40.1425 72.6497 40.5925 72.443 41.1992 72.443Z" fill="#2A394E"/>
<path d="M46.3514 77.653C45.8714 77.653 45.4581 77.5297 45.1114 77.283C44.7648 77.0364 44.5248 76.6964 44.3914 76.263C44.2981 75.9564 44.2514 75.5464 44.2514 75.033C44.2514 74.5197 44.2981 74.113 44.3914 73.813C44.5181 73.3864 44.7548 73.0497 45.1014 72.803C45.4481 72.5564 45.8681 72.433 46.3614 72.433C46.8348 72.433 47.2414 72.5564 47.5814 72.803C47.9281 73.0497 48.1648 73.383 48.2914 73.803C48.3848 74.0897 48.4314 74.4997 48.4314 75.033C48.4314 75.573 48.3848 75.983 48.2914 76.263C48.1648 76.6964 47.9281 77.0364 47.5814 77.283C47.2414 77.5297 46.8314 77.653 46.3514 77.653ZM46.3514 77.033C46.6714 77.033 46.9448 76.9464 47.1714 76.773C47.3981 76.593 47.5514 76.353 47.6314 76.053C47.6914 75.813 47.7214 75.4764 47.7214 75.043C47.7214 74.603 47.6948 74.2664 47.6414 74.033C47.5614 73.733 47.4048 73.4964 47.1714 73.323C46.9448 73.143 46.6681 73.053 46.3414 73.053C46.0148 73.053 45.7381 73.143 45.5114 73.323C45.2848 73.4964 45.1314 73.733 45.0514 74.033C44.9981 74.2664 44.9714 74.603 44.9714 75.043C44.9714 75.483 44.9981 75.8197 45.0514 76.053C45.1248 76.353 45.2748 76.593 45.5014 76.773C45.7348 76.9464 46.0181 77.033 46.3514 77.033Z" fill="#2A394E"/>
<path d="M52.0821 73.003C52.0821 73.0697 52.0487 73.103 51.9821 73.103H50.8521C50.8254 73.103 50.8121 73.1164 50.8121 73.143V76.093C50.8121 76.413 50.8821 76.6397 51.0221 76.773C51.1687 76.8997 51.3954 76.963 51.7021 76.963H51.9521C52.0187 76.963 52.0521 76.9964 52.0521 77.063V77.473C52.0521 77.5397 52.0187 77.573 51.9521 77.573C51.8721 77.5797 51.7487 77.583 51.5821 77.583C51.1021 77.583 50.7387 77.493 50.4921 77.313C50.2454 77.133 50.1221 76.7997 50.1221 76.313V73.143C50.1221 73.1164 50.1087 73.103 50.0821 73.103H49.4721C49.4054 73.103 49.3721 73.0697 49.3721 73.003V72.613C49.3721 72.5464 49.4054 72.513 49.4721 72.513H50.0821C50.1087 72.513 50.1221 72.4997 50.1221 72.473V71.313C50.1221 71.2464 50.1554 71.213 50.2221 71.213H50.7121C50.7787 71.213 50.8121 71.2464 50.8121 71.313V72.473C50.8121 72.4997 50.8254 72.513 50.8521 72.513H51.9821C52.0487 72.513 52.0821 72.5464 52.0821 72.613V73.003Z" fill="#2A394E"/>
<path d="M55.9366 71.593C55.7766 71.593 55.6433 71.5397 55.5366 71.433C55.4299 71.3264 55.3766 71.193 55.3766 71.033C55.3766 70.8664 55.4299 70.733 55.5366 70.633C55.6433 70.5264 55.7766 70.473 55.9366 70.473C56.0966 70.473 56.2299 70.5264 56.3366 70.633C56.4433 70.733 56.4966 70.8664 56.4966 71.033C56.4966 71.193 56.4433 71.3264 56.3366 71.433C56.2299 71.5397 56.0966 71.593 55.9366 71.593ZM55.6566 77.563C55.5899 77.563 55.5566 77.5297 55.5566 77.463V72.603C55.5566 72.5364 55.5899 72.503 55.6566 72.503H56.1666C56.2333 72.503 56.2666 72.5364 56.2666 72.603V77.463C56.2666 77.5297 56.2333 77.563 56.1666 77.563H55.6566Z" fill="#2A394E"/>
<path d="M60.1054 72.443C60.6387 72.443 61.0621 72.5997 61.3754 72.913C61.6954 73.2264 61.8554 73.6464 61.8554 74.173V77.473C61.8554 77.5397 61.8221 77.573 61.7554 77.573H61.2454C61.1787 77.573 61.1454 77.5397 61.1454 77.473V74.313C61.1454 73.9464 61.0321 73.6464 60.8054 73.413C60.5854 73.1797 60.2987 73.063 59.9454 73.063C59.5787 73.063 59.2821 73.1764 59.0554 73.403C58.8287 73.6297 58.7154 73.9264 58.7154 74.293V77.473C58.7154 77.5397 58.6821 77.573 58.6154 77.573H58.1054C58.0387 77.573 58.0054 77.5397 58.0054 77.473V72.613C58.0054 72.5464 58.0387 72.513 58.1054 72.513H58.6154C58.6821 72.513 58.7154 72.5464 58.7154 72.613V73.043C58.7154 73.0564 58.7187 73.0664 58.7254 73.073C58.7387 73.0797 58.7488 73.0764 58.7554 73.063C59.0488 72.6497 59.4987 72.443 60.1054 72.443Z" fill="#2A394E"/>
<path d="M64.5981 77.573C64.5381 77.573 64.4981 77.5464 64.4781 77.493L62.8382 72.623L62.8281 72.583C62.8281 72.5364 62.8581 72.513 62.9181 72.513H63.4881C63.5481 72.513 63.5882 72.5397 63.6082 72.593L64.8581 76.513C64.8648 76.5264 64.8748 76.533 64.8882 76.533C64.9015 76.533 64.9115 76.5264 64.9182 76.513L66.1682 72.593C66.1882 72.5397 66.2281 72.513 66.2881 72.513L66.8581 72.523C66.9315 72.523 66.9581 72.5597 66.9381 72.633L65.2981 77.493C65.2781 77.5464 65.2381 77.573 65.1781 77.573H64.5981Z" fill="#2A394E"/>
<path d="M71.7682 74.193C71.7949 74.3797 71.8082 74.613 71.8082 74.893V75.213C71.8082 75.2797 71.7749 75.313 71.7082 75.313H68.4782C68.4516 75.313 68.4382 75.3264 68.4382 75.353C68.4516 75.7197 68.4716 75.9564 68.4982 76.063C68.5716 76.363 68.7282 76.5997 68.9682 76.773C69.2082 76.9464 69.5149 77.033 69.8882 77.033C70.1682 77.033 70.4149 76.9697 70.6282 76.843C70.8416 76.7164 71.0082 76.5364 71.1282 76.303C71.1682 76.243 71.2149 76.2297 71.2682 76.263L71.6582 76.493C71.7116 76.5264 71.7249 76.573 71.6982 76.633C71.5316 76.953 71.2816 77.2064 70.9482 77.393C70.6149 77.573 70.2316 77.663 69.7982 77.663C69.3249 77.6564 68.9282 77.543 68.6082 77.323C68.2882 77.103 68.0582 76.7964 67.9182 76.403C67.7982 76.083 67.7382 75.623 67.7382 75.023C67.7382 74.743 67.7416 74.5164 67.7482 74.343C67.7616 74.163 67.7882 74.003 67.8282 73.863C67.9416 73.4297 68.1682 73.083 68.5082 72.823C68.8549 72.563 69.2716 72.433 69.7582 72.433C70.3649 72.433 70.8316 72.5864 71.1582 72.893C71.4849 73.1997 71.6882 73.633 71.7682 74.193ZM69.7582 73.053C69.4316 73.053 69.1582 73.1397 68.9382 73.313C68.7249 73.4797 68.5849 73.7064 68.5182 73.993C68.4782 74.133 68.4516 74.3597 68.4382 74.673C68.4382 74.6997 68.4516 74.713 68.4782 74.713H71.0682C71.0949 74.713 71.1082 74.6997 71.1082 74.673C71.0949 74.373 71.0749 74.1597 71.0482 74.033C70.9749 73.733 70.8249 73.4964 70.5982 73.323C70.3782 73.143 70.0982 73.053 69.7582 73.053Z" fill="#2A394E"/>
<path d="M74.7924 77.623C74.419 77.623 74.0857 77.563 73.7924 77.443C73.5057 77.323 73.2824 77.163 73.1224 76.963C72.969 76.763 72.8924 76.5397 72.8924 76.293V76.173C72.8924 76.1064 72.9257 76.073 72.9924 76.073H73.4724C73.539 76.073 73.5724 76.1064 73.5724 76.173V76.253C73.5724 76.473 73.6857 76.6664 73.9124 76.833C74.1457 76.993 74.4357 77.073 74.7824 77.073C75.129 77.073 75.409 76.9964 75.6224 76.843C75.8357 76.683 75.9424 76.483 75.9424 76.243C75.9424 76.0764 75.8857 75.9397 75.7724 75.833C75.6657 75.7264 75.5357 75.643 75.3824 75.583C75.2357 75.523 75.0057 75.4464 74.6924 75.353C74.319 75.2464 74.0124 75.1397 73.7724 75.033C73.5324 74.9264 73.329 74.7797 73.1624 74.593C73.0024 74.3997 72.9224 74.1564 72.9224 73.863C72.9224 73.4364 73.089 73.0964 73.4224 72.843C73.7557 72.5897 74.1957 72.463 74.7424 72.463C75.109 72.463 75.4324 72.523 75.7124 72.643C75.999 72.763 76.219 72.9297 76.3724 73.143C76.5257 73.3497 76.6024 73.583 76.6024 73.843V73.873C76.6024 73.9397 76.569 73.973 76.5024 73.973H76.0324C75.9657 73.973 75.9324 73.9397 75.9324 73.873V73.843C75.9324 73.6164 75.8224 73.4264 75.6024 73.273C75.389 73.1197 75.099 73.043 74.7324 73.043C74.3924 73.043 74.119 73.113 73.9124 73.253C73.7057 73.3864 73.6024 73.573 73.6024 73.813C73.6024 74.0397 73.7024 74.213 73.9024 74.333C74.1024 74.453 74.4124 74.573 74.8324 74.693C75.219 74.8064 75.5324 74.913 75.7724 75.013C76.0124 75.113 76.219 75.2597 76.3924 75.453C76.5657 75.6397 76.6524 75.8864 76.6524 76.193C76.6524 76.6264 76.4824 76.973 76.1424 77.233C75.8024 77.493 75.3524 77.623 74.7924 77.623Z" fill="#2A394E"/>
<path d="M80.2071 73.003C80.2071 73.0697 80.1737 73.103 80.1071 73.103H78.9771C78.9504 73.103 78.9371 73.1164 78.9371 73.143V76.093C78.9371 76.413 79.0071 76.6397 79.1471 76.773C79.2937 76.8997 79.5204 76.963 79.8271 76.963H80.0771C80.1437 76.963 80.1771 76.9964 80.1771 77.063V77.473C80.1771 77.5397 80.1437 77.573 80.0771 77.573C79.9971 77.5797 79.8737 77.583 79.7071 77.583C79.2271 77.583 78.8637 77.493 78.6171 77.313C78.3704 77.133 78.2471 76.7997 78.2471 76.313V73.143C78.2471 73.1164 78.2337 73.103 78.2071 73.103H77.5971C77.5304 73.103 77.4971 73.0697 77.4971 73.003V72.613C77.4971 72.5464 77.5304 72.513 77.5971 72.513H78.2071C78.2337 72.513 78.2471 72.4997 78.2471 72.473V71.313C78.2471 71.2464 78.2804 71.213 78.3471 71.213H78.8371C78.9037 71.213 78.9371 71.2464 78.9371 71.313V72.473C78.9371 72.4997 78.9504 72.513 78.9771 72.513H80.1071C80.1737 72.513 80.2071 72.5464 80.2071 72.613V73.003Z" fill="#2A394E"/>
<path d="M2.97302 0.425571C3.55968 0.425571 4.02968 0.605571 4.38302 0.965572C4.74302 1.32557 4.92302 1.7989 4.92302 2.38557C4.92302 2.96557 4.73968 3.43224 4.37302 3.78557C4.01302 4.1389 3.53635 4.31557 2.94302 4.31557H0.993018C0.966351 4.31557 0.953018 4.3289 0.953018 4.35557V7.33557C0.953018 7.40224 0.919684 7.43557 0.853018 7.43557H0.343018C0.276351 7.43557 0.243018 7.40224 0.243018 7.33557V0.525571C0.243018 0.458905 0.276351 0.425571 0.343018 0.425571H2.97302ZM2.89302 3.72557C3.28635 3.72557 3.60635 3.60557 3.85302 3.36557C4.09968 3.1189 4.22302 2.79557 4.22302 2.39557C4.22302 1.98891 4.09968 1.66224 3.85302 1.41557C3.60635 1.1689 3.28635 1.04557 2.89302 1.04557H0.993018C0.966351 1.04557 0.953018 1.0589 0.953018 1.08557V3.68557C0.953018 3.71224 0.966351 3.72557 0.993018 3.72557H2.89302Z" fill="#2A394E"/>
<path d="M8.13099 2.32557C8.35099 2.32557 8.54099 2.3689 8.70099 2.45557C8.75432 2.48224 8.77432 2.52557 8.76099 2.58557L8.65099 3.07557C8.63099 3.14224 8.58765 3.16224 8.52099 3.13557C8.40765 3.0889 8.27765 3.06557 8.13099 3.06557L8.00099 3.07557C7.65432 3.0889 7.36765 3.2189 7.14099 3.46557C6.91432 3.70557 6.80099 4.01224 6.80099 4.38557V7.33557C6.80099 7.40224 6.76765 7.43557 6.70099 7.43557H6.19099C6.12432 7.43557 6.09099 7.40224 6.09099 7.33557V2.47557C6.09099 2.4089 6.12432 2.37557 6.19099 2.37557H6.70099C6.76765 2.37557 6.80099 2.4089 6.80099 2.47557V3.08557C6.80099 3.10557 6.80432 3.1189 6.81099 3.12557C6.82432 3.12557 6.83432 3.1189 6.84099 3.10557C6.98099 2.8589 7.15765 2.6689 7.37099 2.53557C7.59099 2.39557 7.84432 2.32557 8.13099 2.32557Z" fill="#2A394E"/>
<path d="M11.6147 7.51557C11.1347 7.51557 10.7214 7.39224 10.3747 7.14557C10.0281 6.89891 9.78807 6.55891 9.65474 6.12557C9.5614 5.81891 9.51474 5.40891 9.51474 4.89557C9.51474 4.38224 9.5614 3.97557 9.65474 3.67557C9.7814 3.2489 10.0181 2.91224 10.3647 2.66557C10.7114 2.4189 11.1314 2.29557 11.6247 2.29557C12.0981 2.29557 12.5047 2.4189 12.8447 2.66557C13.1914 2.91224 13.4281 3.24557 13.5547 3.66557C13.6481 3.95224 13.6947 4.36224 13.6947 4.89557C13.6947 5.43557 13.6481 5.84557 13.5547 6.12557C13.4281 6.55891 13.1914 6.89891 12.8447 7.14557C12.5047 7.39224 12.0947 7.51557 11.6147 7.51557ZM11.6147 6.89557C11.9347 6.89557 12.2081 6.8089 12.4347 6.63557C12.6614 6.45557 12.8147 6.21557 12.8947 5.91557C12.9547 5.67557 12.9847 5.3389 12.9847 4.90557C12.9847 4.46557 12.9581 4.12891 12.9047 3.89557C12.8247 3.59557 12.6681 3.3589 12.4347 3.18557C12.2081 3.00557 11.9314 2.91557 11.6047 2.91557C11.2781 2.91557 11.0014 3.00557 10.7747 3.18557C10.5481 3.3589 10.3947 3.59557 10.3147 3.89557C10.2614 4.12891 10.2347 4.46557 10.2347 4.90557C10.2347 5.34557 10.2614 5.68224 10.3147 5.91557C10.3881 6.21557 10.5381 6.45557 10.7647 6.63557C10.9981 6.8089 11.2814 6.89557 11.6147 6.89557Z" fill="#2A394E"/>
<path d="M15.514 1.45557C15.3473 1.45557 15.2106 1.40224 15.104 1.29557C15.004 1.1889 14.954 1.05557 14.954 0.895571C14.954 0.728905 15.004 0.595572 15.104 0.495572C15.2106 0.388905 15.3473 0.335571 15.514 0.335571C15.674 0.335571 15.8073 0.388905 15.914 0.495572C16.0206 0.595572 16.074 0.728905 16.074 0.895571C16.074 1.05557 16.0206 1.1889 15.914 1.29557C15.8073 1.40224 15.674 1.45557 15.514 1.45557ZM14.084 9.51557C14.0173 9.51557 13.984 9.48224 13.984 9.41557V9.00557C13.984 8.9389 14.0173 8.90557 14.084 8.90557C14.7973 8.89891 15.154 8.55557 15.154 7.87557V2.47557C15.154 2.4089 15.1873 2.37557 15.254 2.37557H15.764C15.8306 2.37557 15.864 2.4089 15.864 2.47557V7.87557C15.864 8.44224 15.724 8.85557 15.444 9.11557C15.164 9.37557 14.7106 9.50891 14.084 9.51557Z" fill="#2A394E"/>
<path d="M21.4651 4.05557C21.4918 4.24224 21.5051 4.47557 21.5051 4.75557V5.07557C21.5051 5.14224 21.4718 5.17557 21.4051 5.17557H18.1751C18.1485 5.17557 18.1351 5.1889 18.1351 5.21557C18.1485 5.58224 18.1685 5.8189 18.1951 5.92557C18.2685 6.22557 18.4251 6.46224 18.6651 6.63557C18.9051 6.8089 19.2118 6.89557 19.5851 6.89557C19.8651 6.89557 20.1118 6.83224 20.3251 6.70557C20.5385 6.5789 20.7051 6.3989 20.8251 6.16557C20.8651 6.10557 20.9118 6.09224 20.9651 6.12557L21.3551 6.35557C21.4085 6.38891 21.4218 6.43557 21.3951 6.49557C21.2285 6.81557 20.9785 7.06891 20.6451 7.25557C20.3118 7.43557 19.9285 7.52557 19.4951 7.52557C19.0218 7.51891 18.6251 7.40557 18.3051 7.18557C17.9851 6.96557 17.7551 6.6589 17.6151 6.26557C17.4951 5.94557 17.4351 5.48557 17.4351 4.88557C17.4351 4.60557 17.4385 4.3789 17.4451 4.20557C17.4585 4.02557 17.4851 3.86557 17.5251 3.72557C17.6385 3.29224 17.8651 2.94557 18.2051 2.68557C18.5518 2.42557 18.9685 2.29557 19.4551 2.29557C20.0618 2.29557 20.5285 2.4489 20.8551 2.75557C21.1818 3.06224 21.3851 3.49557 21.4651 4.05557ZM19.4551 2.91557C19.1285 2.91557 18.8551 3.00224 18.6351 3.17557C18.4218 3.34224 18.2818 3.5689 18.2151 3.85557C18.1751 3.99557 18.1485 4.22224 18.1351 4.53557C18.1351 4.56224 18.1485 4.57557 18.1751 4.57557H20.7651C20.7918 4.57557 20.8051 4.56224 20.8051 4.53557C20.7918 4.23557 20.7718 4.02224 20.7451 3.89557C20.6718 3.59557 20.5218 3.3589 20.2951 3.18557C20.0751 3.00557 19.7951 2.91557 19.4551 2.91557Z" fill="#2A394E"/>
<path d="M24.8272 7.51557C24.3472 7.51557 23.9338 7.39224 23.5872 7.14557C23.2472 6.89224 23.0138 6.55224 22.8872 6.12557C22.8005 5.83224 22.7572 5.4189 22.7572 4.88557C22.7572 4.40557 22.8005 3.9989 22.8872 3.66557C23.0072 3.25224 23.2405 2.92224 23.5872 2.67557C23.9338 2.42224 24.3472 2.29557 24.8272 2.29557C25.3138 2.29557 25.7338 2.4189 26.0872 2.66557C26.4472 2.91224 26.6805 3.2189 26.7872 3.58557C26.8205 3.70557 26.8405 3.80557 26.8472 3.88557V3.90557C26.8472 3.95224 26.8172 3.98224 26.7572 3.99557L26.2572 4.06557H26.2372C26.1905 4.06557 26.1605 4.03557 26.1472 3.97557L26.1172 3.82557C26.0572 3.57224 25.9105 3.3589 25.6772 3.18557C25.4438 3.00557 25.1605 2.91557 24.8272 2.91557C24.4938 2.91557 24.2138 3.00557 23.9872 3.18557C23.7672 3.3589 23.6238 3.59224 23.5572 3.88557C23.4972 4.1389 23.4672 4.47557 23.4672 4.89557C23.4672 5.33557 23.4972 5.67557 23.5572 5.91557C23.6238 6.21557 23.7672 6.45557 23.9872 6.63557C24.2138 6.8089 24.4938 6.89557 24.8272 6.89557C25.1538 6.89557 25.4338 6.81224 25.6672 6.64557C25.9072 6.47224 26.0572 6.25224 26.1172 5.98557V5.94557L26.1272 5.90557C26.1338 5.8389 26.1738 5.81224 26.2472 5.82557L26.7372 5.90557C26.8038 5.9189 26.8338 5.95557 26.8272 6.01557L26.7872 6.21557C26.6872 6.60224 26.4572 6.91557 26.0972 7.15557C25.7372 7.39557 25.3138 7.51557 24.8272 7.51557Z" fill="#2A394E"/>
<path d="M30.3825 2.86557C30.3825 2.93224 30.3491 2.96557 30.2825 2.96557H29.1525C29.1258 2.96557 29.1125 2.9789 29.1125 3.00557V5.95557C29.1125 6.27557 29.1825 6.50224 29.3225 6.63557C29.4691 6.76224 29.6958 6.82557 30.0025 6.82557H30.2525C30.3191 6.82557 30.3525 6.8589 30.3525 6.92557V7.33557C30.3525 7.40224 30.3191 7.43557 30.2525 7.43557C30.1725 7.44224 30.0491 7.44557 29.8825 7.44557C29.4025 7.44557 29.0391 7.35557 28.7925 7.17557C28.5458 6.99557 28.4225 6.66224 28.4225 6.17557V3.00557C28.4225 2.9789 28.4091 2.96557 28.3825 2.96557H27.7725C27.7058 2.96557 27.6725 2.93224 27.6725 2.86557V2.47557C27.6725 2.4089 27.7058 2.37557 27.7725 2.37557H28.3825C28.4091 2.37557 28.4225 2.36224 28.4225 2.33557V1.17557C28.4225 1.1089 28.4558 1.07557 28.5225 1.07557H29.0125C29.0791 1.07557 29.1125 1.1089 29.1125 1.17557V2.33557C29.1125 2.36224 29.1258 2.37557 29.1525 2.37557H30.2825C30.3491 2.37557 30.3825 2.4089 30.3825 2.47557V2.86557Z" fill="#2A394E"/>
<path d="M35.4886 4.05557C35.5152 4.24224 35.5286 4.47557 35.5286 4.75557V5.07557C35.5286 5.14224 35.4952 5.17557 35.4286 5.17557H32.1986C32.1719 5.17557 32.1586 5.1889 32.1586 5.21557C32.1719 5.58224 32.1919 5.8189 32.2186 5.92557C32.2919 6.22557 32.4486 6.46224 32.6886 6.63557C32.9286 6.8089 33.2352 6.89557 33.6086 6.89557C33.8886 6.89557 34.1352 6.83224 34.3486 6.70557C34.5619 6.5789 34.7286 6.3989 34.8486 6.16557C34.8886 6.10557 34.9352 6.09224 34.9886 6.12557L35.3786 6.35557C35.4319 6.38891 35.4452 6.43557 35.4186 6.49557C35.2519 6.81557 35.0019 7.06891 34.6686 7.25557C34.3352 7.43557 33.9519 7.52557 33.5186 7.52557C33.0452 7.51891 32.6486 7.40557 32.3286 7.18557C32.0086 6.96557 31.7786 6.6589 31.6386 6.26557C31.5186 5.94557 31.4586 5.48557 31.4586 4.88557C31.4586 4.60557 31.4619 4.3789 31.4686 4.20557C31.4819 4.02557 31.5086 3.86557 31.5486 3.72557C31.6619 3.29224 31.8886 2.94557 32.2286 2.68557C32.5752 2.42557 32.9919 2.29557 33.4786 2.29557C34.0852 2.29557 34.5519 2.4489 34.8786 2.75557C35.2052 3.06224 35.4086 3.49557 35.4886 4.05557ZM33.4786 2.91557C33.1519 2.91557 32.8786 3.00224 32.6586 3.17557C32.4452 3.34224 32.3052 3.5689 32.2386 3.85557C32.1986 3.99557 32.1719 4.22224 32.1586 4.53557C32.1586 4.56224 32.1719 4.57557 32.1986 4.57557H34.7886C34.8152 4.57557 34.8286 4.56224 34.8286 4.53557C34.8152 4.23557 34.7952 4.02224 34.7686 3.89557C34.6952 3.59557 34.5452 3.3589 34.3186 3.18557C34.0986 3.00557 33.8186 2.91557 33.4786 2.91557Z" fill="#2A394E"/>
<path d="M40.0806 0.535571C40.0806 0.468904 40.1139 0.435571 40.1806 0.435571H40.6906C40.7573 0.435571 40.7906 0.468904 40.7906 0.535571V7.33557C40.7906 7.40224 40.7573 7.43557 40.6906 7.43557H40.1806C40.1139 7.43557 40.0806 7.40224 40.0806 7.33557V6.91557C40.0806 6.90224 40.0739 6.89557 40.0606 6.89557C40.0539 6.88891 40.0439 6.89224 40.0306 6.90557C39.8839 7.0989 39.7006 7.24891 39.4806 7.35557C39.2673 7.46224 39.0273 7.51557 38.7606 7.51557C38.2939 7.51557 37.9006 7.39557 37.5806 7.15557C37.2673 6.91557 37.0506 6.5889 36.9306 6.17557C36.8373 5.87557 36.7906 5.45224 36.7906 4.90557C36.7906 4.35224 36.8306 3.9389 36.9106 3.66557C37.0306 3.2389 37.2506 2.90557 37.5706 2.66557C37.8906 2.4189 38.2873 2.29557 38.7606 2.29557C39.0206 2.29557 39.2606 2.3489 39.4806 2.45557C39.7006 2.55557 39.8839 2.70224 40.0306 2.89557C40.0439 2.9089 40.0539 2.91557 40.0606 2.91557C40.0739 2.9089 40.0806 2.8989 40.0806 2.88557V0.535571ZM39.9006 6.12557C39.9606 5.99224 40.0039 5.83557 40.0306 5.65557C40.0573 5.47557 40.0706 5.22557 40.0706 4.90557C40.0706 4.58557 40.0573 4.33557 40.0306 4.15557C40.0039 3.9689 39.9573 3.80557 39.8906 3.66557C39.8106 3.4389 39.6773 3.2589 39.4906 3.12557C39.3106 2.98557 39.0939 2.91557 38.8406 2.91557C38.5739 2.91557 38.3439 2.98224 38.1506 3.11557C37.9573 3.2489 37.8173 3.42557 37.7306 3.64557C37.6506 3.79224 37.5906 3.9589 37.5506 4.14557C37.5173 4.32557 37.5006 4.5789 37.5006 4.90557C37.5006 5.2189 37.5139 5.46557 37.5406 5.64557C37.5673 5.8189 37.6139 5.97557 37.6806 6.11557C37.7606 6.35557 37.9006 6.54557 38.1006 6.68557C38.3073 6.82557 38.5506 6.89557 38.8306 6.89557C39.0973 6.89557 39.3206 6.82557 39.5006 6.68557C39.6806 6.54557 39.8139 6.35891 39.9006 6.12557Z" fill="#2A394E"/>
<path d="M45.6915 7.43557C45.6315 7.43557 45.5915 7.40891 45.5715 7.35557L43.9315 2.48557L43.9215 2.44557C43.9215 2.3989 43.9515 2.37557 44.0115 2.37557H44.5815C44.6415 2.37557 44.6815 2.40224 44.7015 2.45557L45.9515 6.37557C45.9582 6.38891 45.9682 6.39557 45.9815 6.39557C45.9949 6.39557 46.0049 6.38891 46.0115 6.37557L47.2615 2.45557C47.2815 2.40224 47.3215 2.37557 47.3815 2.37557L47.9515 2.38557C48.0249 2.38557 48.0515 2.42224 48.0315 2.49557L46.3915 7.35557C46.3715 7.40891 46.3315 7.43557 46.2715 7.43557H45.6915Z" fill="#2A394E"/>
<path d="M50.8976 2.29557C51.4976 2.29557 51.961 2.4489 52.2876 2.75557C52.6143 3.06224 52.7776 3.4689 52.7776 3.97557V7.33557C52.7776 7.40224 52.7443 7.43557 52.6776 7.43557H52.1676C52.101 7.43557 52.0676 7.40224 52.0676 7.33557V6.92557C52.0676 6.91224 52.061 6.90224 52.0476 6.89557C52.041 6.88891 52.031 6.89224 52.0176 6.90557C51.851 7.10557 51.6343 7.2589 51.3676 7.36557C51.101 7.46557 50.8043 7.51557 50.4776 7.51557C50.0043 7.51557 49.6076 7.39557 49.2876 7.15557C48.9676 6.91557 48.8076 6.5489 48.8076 6.05557C48.8076 5.55557 48.9876 5.16224 49.3476 4.87557C49.7143 4.58224 50.221 4.43557 50.8676 4.43557H52.0276C52.0543 4.43557 52.0676 4.42224 52.0676 4.39557V4.01557C52.0676 3.67557 51.971 3.4089 51.7776 3.21557C51.591 3.01557 51.2976 2.91557 50.8976 2.91557C50.5776 2.91557 50.3176 2.9789 50.1176 3.10557C49.9176 3.22557 49.7943 3.39557 49.7476 3.61557C49.7276 3.68224 49.6876 3.71224 49.6276 3.70557L49.0876 3.63557C49.0143 3.62224 48.9843 3.59557 48.9976 3.55557C49.051 3.18224 49.251 2.8789 49.5976 2.64557C49.9443 2.41224 50.3776 2.29557 50.8976 2.29557ZM50.6176 6.90557C51.011 6.90557 51.351 6.8089 51.6376 6.61557C51.9243 6.41557 52.0676 6.14891 52.0676 5.81557V5.03557C52.0676 5.0089 52.0543 4.99557 52.0276 4.99557H50.9776C50.5376 4.99557 50.1843 5.08557 49.9176 5.26557C49.651 5.44557 49.5176 5.69557 49.5176 6.01557C49.5176 6.3089 49.6176 6.53224 49.8176 6.68557C50.0243 6.83224 50.291 6.90557 50.6176 6.90557Z" fill="#2A394E"/>
<path d="M54.355 7.43557C54.2884 7.43557 54.2551 7.40224 54.2551 7.33557V0.535571C54.2551 0.468904 54.2884 0.435571 54.355 0.435571H54.865C54.9317 0.435571 54.965 0.468904 54.965 0.535571V7.33557C54.965 7.40224 54.9317 7.43557 54.865 7.43557H54.355Z" fill="#2A394E"/>
<path d="M59.6197 2.47557C59.6197 2.4089 59.6531 2.37557 59.7197 2.37557H60.2297C60.2964 2.37557 60.3297 2.4089 60.3297 2.47557V7.33557C60.3297 7.40224 60.2964 7.43557 60.2297 7.43557H59.7197C59.6531 7.43557 59.6197 7.40224 59.6197 7.33557V6.90557C59.6197 6.89224 59.6131 6.88224 59.5997 6.87557C59.5864 6.86891 59.5764 6.87224 59.5697 6.88557C59.2897 7.2989 58.8464 7.50557 58.2397 7.50557C57.9197 7.50557 57.6231 7.44224 57.3497 7.31557C57.0831 7.18224 56.8697 6.99224 56.7097 6.74557C56.5564 6.4989 56.4797 6.20224 56.4797 5.85557V2.47557C56.4797 2.4089 56.5131 2.37557 56.5797 2.37557H57.0897C57.1564 2.37557 57.1897 2.4089 57.1897 2.47557V5.64557C57.1897 6.02557 57.2964 6.3289 57.5097 6.55557C57.7231 6.77557 58.0131 6.88557 58.3797 6.88557C58.7597 6.88557 59.0597 6.77224 59.2797 6.54557C59.5064 6.31891 59.6197 6.01891 59.6197 5.64557V2.47557Z" fill="#2A394E"/>
<path d="M65.8011 4.05557C65.8277 4.24224 65.8411 4.47557 65.8411 4.75557V5.07557C65.8411 5.14224 65.8077 5.17557 65.7411 5.17557H62.5111C62.4844 5.17557 62.4711 5.1889 62.4711 5.21557C62.4844 5.58224 62.5044 5.8189 62.5311 5.92557C62.6044 6.22557 62.7611 6.46224 63.0011 6.63557C63.2411 6.8089 63.5477 6.89557 63.9211 6.89557C64.2011 6.89557 64.4477 6.83224 64.6611 6.70557C64.8744 6.5789 65.0411 6.3989 65.1611 6.16557C65.2011 6.10557 65.2477 6.09224 65.3011 6.12557L65.6911 6.35557C65.7444 6.38891 65.7577 6.43557 65.7311 6.49557C65.5644 6.81557 65.3144 7.06891 64.9811 7.25557C64.6477 7.43557 64.2644 7.52557 63.8311 7.52557C63.3577 7.51891 62.9611 7.40557 62.6411 7.18557C62.3211 6.96557 62.0911 6.6589 61.9511 6.26557C61.8311 5.94557 61.7711 5.48557 61.7711 4.88557C61.7711 4.60557 61.7744 4.3789 61.7811 4.20557C61.7944 4.02557 61.8211 3.86557 61.8611 3.72557C61.9744 3.29224 62.2011 2.94557 62.5411 2.68557C62.8877 2.42557 63.3044 2.29557 63.7911 2.29557C64.3977 2.29557 64.8644 2.4489 65.1911 2.75557C65.5177 3.06224 65.7211 3.49557 65.8011 4.05557ZM63.7911 2.91557C63.4644 2.91557 63.1911 3.00224 62.9711 3.17557C62.7577 3.34224 62.6177 3.5689 62.5511 3.85557C62.5111 3.99557 62.4844 4.22224 62.4711 4.53557C62.4711 4.56224 62.4844 4.57557 62.5111 4.57557H65.1011C65.1277 4.57557 65.1411 4.56224 65.1411 4.53557C65.1277 4.23557 65.1077 4.02224 65.0811 3.89557C65.0077 3.59557 64.8577 3.3589 64.6311 3.18557C64.4111 3.00557 64.1311 2.91557 63.7911 2.91557Z" fill="#2A394E"/>
<path d="M0.653018 13.4556C0.493018 13.4556 0.359684 13.4022 0.253018 13.2956C0.146351 13.1889 0.0930176 13.0556 0.0930176 12.8956C0.0930176 12.7289 0.146351 12.5956 0.253018 12.4956C0.359684 12.3889 0.493018 12.3356 0.653018 12.3356C0.813018 12.3356 0.946351 12.3889 1.05302 12.4956C1.15968 12.5956 1.21302 12.7289 1.21302 12.8956C1.21302 13.0556 1.15968 13.1889 1.05302 13.2956C0.946351 13.4022 0.813018 13.4556 0.653018 13.4556ZM0.373018 19.4256C0.306351 19.4256 0.273018 19.3922 0.273018 19.3256V14.4656C0.273018 14.3989 0.306351 14.3656 0.373018 14.3656H0.883018C0.949684 14.3656 0.983018 14.3989 0.983018 14.4656V19.3256C0.983018 19.3922 0.949684 19.4256 0.883018 19.4256H0.373018Z" fill="#2A394E"/>
<path d="M4.72185 13.0556C4.35518 13.0556 4.10518 13.1389 3.97185 13.3056C3.83851 13.4656 3.77185 13.7422 3.77185 14.1356V14.3356C3.77185 14.3622 3.78518 14.3756 3.81185 14.3756H4.93185C4.99851 14.3756 5.03185 14.4089 5.03185 14.4756V14.9256C5.03185 14.9922 4.99851 15.0256 4.93185 15.0256H3.81185C3.78518 15.0256 3.77185 15.0389 3.77185 15.0656V19.3356C3.77185 19.4022 3.73851 19.4356 3.67185 19.4356H3.17185C3.10518 19.4356 3.07185 19.4022 3.07185 19.3356V15.0656C3.07185 15.0389 3.05851 15.0256 3.03185 15.0256H2.36185C2.29518 15.0256 2.26185 14.9922 2.26185 14.9256V14.4756C2.26185 14.4089 2.29518 14.3756 2.36185 14.3756H3.03185C3.05851 14.3756 3.07185 14.3622 3.07185 14.3356V14.0956C3.07185 13.6822 3.11851 13.3589 3.21185 13.1256C3.30518 12.8856 3.46518 12.7122 3.69185 12.6056C3.92518 12.4922 4.24851 12.4356 4.66185 12.4356H4.95185C5.01851 12.4356 5.05185 12.4689 5.05185 12.5356V12.9556C5.05185 13.0222 5.01851 13.0556 4.95185 13.0556H4.72185Z" fill="#2A394E"/>
<path d="M8.05825 21.4356C8.01159 21.4356 7.98825 21.4022 7.98825 21.3356V20.9356C7.98825 20.8689 8.02159 20.8356 8.08825 20.8356H8.12825C8.38825 20.8289 8.58825 20.7889 8.72825 20.7156C8.87492 20.6489 8.99825 20.5189 9.09825 20.3256C9.20492 20.1389 9.31825 19.8522 9.43825 19.4656C9.45159 19.4389 9.45159 19.4189 9.43825 19.4056L7.74825 14.4856L7.73825 14.4456C7.73825 14.3989 7.76825 14.3756 7.82825 14.3756H8.35825C8.41825 14.3756 8.45825 14.4022 8.47825 14.4556L9.77825 18.4956C9.78492 18.5089 9.79492 18.5156 9.80825 18.5156C9.82159 18.5156 9.83159 18.5089 9.83825 18.4956L11.1183 14.4556C11.1383 14.4022 11.1783 14.3756 11.2383 14.3756H11.7583C11.8316 14.3756 11.8583 14.4122 11.8383 14.4856L9.98825 19.8756C9.82825 20.3222 9.67825 20.6522 9.53825 20.8656C9.39825 21.0789 9.22159 21.2256 9.00825 21.3056C8.80159 21.3922 8.50825 21.4356 8.12825 21.4356H8.05825Z" fill="#2A394E"/>
<path d="M14.6616 19.5156C14.1816 19.5156 13.7683 19.3922 13.4216 19.1456C13.0749 18.8989 12.8349 18.5589 12.7016 18.1256C12.6083 17.8189 12.5616 17.4089 12.5616 16.8956C12.5616 16.3822 12.6083 15.9756 12.7016 15.6756C12.8283 15.2489 13.0649 14.9122 13.4116 14.6656C13.7583 14.4189 14.1783 14.2956 14.6716 14.2956C15.1449 14.2956 15.5516 14.4189 15.8916 14.6656C16.2383 14.9122 16.4749 15.2456 16.6016 15.6656C16.6949 15.9522 16.7416 16.3622 16.7416 16.8956C16.7416 17.4356 16.6949 17.8456 16.6016 18.1256C16.4749 18.5589 16.2383 18.8989 15.8916 19.1456C15.5516 19.3922 15.1416 19.5156 14.6616 19.5156ZM14.6616 18.8956C14.9816 18.8956 15.2549 18.8089 15.4816 18.6356C15.7083 18.4556 15.8616 18.2156 15.9416 17.9156C16.0016 17.6756 16.0316 17.3389 16.0316 16.9056C16.0316 16.4656 16.0049 16.1289 15.9516 15.8956C15.8716 15.5956 15.7149 15.3589 15.4816 15.1856C15.2549 15.0056 14.9783 14.9156 14.6516 14.9156C14.3249 14.9156 14.0483 15.0056 13.8216 15.1856C13.5949 15.3589 13.4416 15.5956 13.3616 15.8956C13.3083 16.1289 13.2816 16.4656 13.2816 16.9056C13.2816 17.3456 13.3083 17.6822 13.3616 17.9156C13.4349 18.2156 13.5849 18.4556 13.8116 18.6356C14.0449 18.8089 14.3283 18.8956 14.6616 18.8956Z" fill="#2A394E"/>
<path d="M21.2408 14.4756C21.2408 14.4089 21.2742 14.3756 21.3408 14.3756H21.8508C21.9175 14.3756 21.9508 14.4089 21.9508 14.4756V19.3356C21.9508 19.4022 21.9175 19.4356 21.8508 19.4356H21.3408C21.2742 19.4356 21.2408 19.4022 21.2408 19.3356V18.9056C21.2408 18.8922 21.2342 18.8822 21.2208 18.8756C21.2075 18.8689 21.1975 18.8722 21.1908 18.8856C20.9108 19.2989 20.4675 19.5056 19.8608 19.5056C19.5408 19.5056 19.2442 19.4422 18.9708 19.3156C18.7042 19.1822 18.4908 18.9922 18.3308 18.7456C18.1775 18.4989 18.1008 18.2022 18.1008 17.8556V14.4756C18.1008 14.4089 18.1342 14.3756 18.2008 14.3756H18.7108C18.7775 14.3756 18.8108 14.4089 18.8108 14.4756V17.6456C18.8108 18.0256 18.9175 18.3289 19.1308 18.5556C19.3442 18.7756 19.6342 18.8856 20.0008 18.8856C20.3808 18.8856 20.6808 18.7722 20.9008 18.5456C21.1275 18.3189 21.2408 18.0189 21.2408 17.6456V14.4756Z" fill="#2A394E"/>
<path d="M26.0241 13.4556C25.8641 13.4556 25.7308 13.4022 25.6241 13.2956C25.5174 13.1889 25.4641 13.0556 25.4641 12.8956C25.4641 12.7289 25.5174 12.5956 25.6241 12.4956C25.7308 12.3889 25.8641 12.3356 26.0241 12.3356C26.1841 12.3356 26.3174 12.3889 26.4241 12.4956C26.5308 12.5956 26.5841 12.7289 26.5841 12.8956C26.5841 13.0556 26.5308 13.1889 26.4241 13.2956C26.3174 13.4022 26.1841 13.4556 26.0241 13.4556ZM25.7441 19.4256C25.6774 19.4256 25.6441 19.3922 25.6441 19.3256V14.4656C25.6441 14.3989 25.6774 14.3656 25.7441 14.3656H26.2541C26.3208 14.3656 26.3541 14.3989 26.3541 14.4656V19.3256C26.3541 19.3922 26.3208 19.4256 26.2541 19.4256H25.7441Z" fill="#2A394E"/>
<path d="M30.1929 14.3056C30.7263 14.3056 31.1496 14.4622 31.4629 14.7756C31.7829 15.0889 31.9429 15.5089 31.9429 16.0356V19.3356C31.9429 19.4022 31.9096 19.4356 31.8429 19.4356H31.3329C31.2663 19.4356 31.2329 19.4022 31.2329 19.3356V16.1756C31.2329 15.8089 31.1196 15.5089 30.8929 15.2756C30.6729 15.0422 30.3863 14.9256 30.0329 14.9256C29.6663 14.9256 29.3696 15.0389 29.1429 15.2656C28.9163 15.4922 28.8029 15.7889 28.8029 16.1556V19.3356C28.8029 19.4022 28.7696 19.4356 28.7029 19.4356H28.1929C28.1263 19.4356 28.0929 19.4022 28.0929 19.3356V14.4756C28.0929 14.4089 28.1263 14.3756 28.1929 14.3756H28.7029C28.7696 14.3756 28.8029 14.4089 28.8029 14.4756V14.9056C28.8029 14.9189 28.8063 14.9289 28.8129 14.9356C28.8263 14.9422 28.8363 14.9389 28.8429 14.9256C29.1363 14.5122 29.5863 14.3056 30.1929 14.3056Z" fill="#2A394E"/>
<path d="M34.6857 19.4356C34.6257 19.4356 34.5857 19.4089 34.5657 19.3556L32.9257 14.4856L32.9157 14.4456C32.9157 14.3989 32.9457 14.3756 33.0057 14.3756H33.5757C33.6357 14.3756 33.6757 14.4022 33.6957 14.4556L34.9457 18.3756C34.9523 18.3889 34.9623 18.3956 34.9757 18.3956C34.989 18.3956 34.999 18.3889 35.0057 18.3756L36.2557 14.4556C36.2757 14.4022 36.3157 14.3756 36.3757 14.3756L36.9457 14.3856C37.019 14.3856 37.0457 14.4222 37.0257 14.4956L35.3857 19.3556C35.3657 19.4089 35.3257 19.4356 35.2657 19.4356H34.6857Z" fill="#2A394E"/>
<path d="M41.8558 16.0556C41.8824 16.2422 41.8958 16.4756 41.8958 16.7556V17.0756C41.8958 17.1422 41.8624 17.1756 41.7958 17.1756H38.5658C38.5391 17.1756 38.5258 17.1889 38.5258 17.2156C38.5391 17.5822 38.5591 17.8189 38.5858 17.9256C38.6591 18.2256 38.8158 18.4622 39.0558 18.6356C39.2958 18.8089 39.6024 18.8956 39.9758 18.8956C40.2558 18.8956 40.5024 18.8322 40.7158 18.7056C40.9291 18.5789 41.0958 18.3989 41.2158 18.1656C41.2558 18.1056 41.3024 18.0922 41.3558 18.1256L41.7458 18.3556C41.7991 18.3889 41.8124 18.4356 41.7858 18.4956C41.6191 18.8156 41.3691 19.0689 41.0358 19.2556C40.7024 19.4356 40.3191 19.5256 39.8858 19.5256C39.4124 19.5189 39.0158 19.4056 38.6958 19.1856C38.3758 18.9656 38.1458 18.6589 38.0058 18.2656C37.8858 17.9456 37.8258 17.4856 37.8258 16.8856C37.8258 16.6056 37.8291 16.3789 37.8358 16.2056C37.8491 16.0256 37.8758 15.8656 37.9158 15.7256C38.0291 15.2922 38.2558 14.9456 38.5958 14.6856C38.9424 14.4256 39.3591 14.2956 39.8458 14.2956C40.4524 14.2956 40.9191 14.4489 41.2458 14.7556C41.5724 15.0622 41.7758 15.4956 41.8558 16.0556ZM39.8458 14.9156C39.5191 14.9156 39.2458 15.0022 39.0258 15.1756C38.8124 15.3422 38.6724 15.5689 38.6058 15.8556C38.5658 15.9956 38.5391 16.2222 38.5258 16.5356C38.5258 16.5622 38.5391 16.5756 38.5658 16.5756H41.1558C41.1824 16.5756 41.1958 16.5622 41.1958 16.5356C41.1824 16.2356 41.1624 16.0222 41.1358 15.8956C41.0624 15.5956 40.9124 15.3589 40.6858 15.1856C40.4658 15.0056 40.1858 14.9156 39.8458 14.9156Z" fill="#2A394E"/>
<path d="M44.8799 19.4856C44.5066 19.4856 44.1732 19.4256 43.8799 19.3056C43.5932 19.1856 43.3699 19.0256 43.2099 18.8256C43.0566 18.6256 42.9799 18.4022 42.9799 18.1556V18.0356C42.9799 17.9689 43.0132 17.9356 43.0799 17.9356H43.5599C43.6266 17.9356 43.6599 17.9689 43.6599 18.0356V18.1156C43.6599 18.3356 43.7732 18.5289 43.9999 18.6956C44.2332 18.8556 44.5232 18.9356 44.8699 18.9356C45.2166 18.9356 45.4966 18.8589 45.7099 18.7056C45.9232 18.5456 46.0299 18.3456 46.0299 18.1056C46.0299 17.9389 45.9732 17.8022 45.8599 17.6956C45.7532 17.5889 45.6232 17.5056 45.4699 17.4456C45.3232 17.3856 45.0932 17.3089 44.7799 17.2156C44.4066 17.1089 44.0999 17.0022 43.8599 16.8956C43.6199 16.7889 43.4166 16.6422 43.2499 16.4556C43.0899 16.2622 43.0099 16.0189 43.0099 15.7256C43.0099 15.2989 43.1766 14.9589 43.5099 14.7056C43.8432 14.4522 44.2832 14.3256 44.8299 14.3256C45.1966 14.3256 45.5199 14.3856 45.7999 14.5056C46.0866 14.6256 46.3066 14.7922 46.4599 15.0056C46.6132 15.2122 46.6899 15.4456 46.6899 15.7056V15.7356C46.6899 15.8022 46.6566 15.8356 46.5899 15.8356H46.1199C46.0532 15.8356 46.0199 15.8022 46.0199 15.7356V15.7056C46.0199 15.4789 45.9099 15.2889 45.6899 15.1356C45.4766 14.9822 45.1866 14.9056 44.8199 14.9056C44.4799 14.9056 44.2066 14.9756 43.9999 15.1156C43.7932 15.2489 43.6899 15.4356 43.6899 15.6756C43.6899 15.9022 43.7899 16.0756 43.9899 16.1956C44.1899 16.3156 44.4999 16.4356 44.9199 16.5556C45.3066 16.6689 45.6199 16.7756 45.8599 16.8756C46.0999 16.9756 46.3066 17.1222 46.4799 17.3156C46.6532 17.5022 46.7399 17.7489 46.7399 18.0556C46.7399 18.4889 46.5699 18.8356 46.2299 19.0956C45.8899 19.3556 45.4399 19.4856 44.8799 19.4856Z" fill="#2A394E"/>
<path d="M50.2946 14.8656C50.2946 14.9322 50.2612 14.9656 50.1946 14.9656H49.0646C49.0379 14.9656 49.0246 14.9789 49.0246 15.0056V17.9556C49.0246 18.2756 49.0946 18.5022 49.2346 18.6356C49.3812 18.7622 49.6079 18.8256 49.9146 18.8256H50.1646C50.2312 18.8256 50.2646 18.8589 50.2646 18.9256V19.3356C50.2646 19.4022 50.2312 19.4356 50.1646 19.4356C50.0846 19.4422 49.9612 19.4456 49.7946 19.4456C49.3146 19.4456 48.9512 19.3556 48.7046 19.1756C48.4579 18.9956 48.3346 18.6622 48.3346 18.1756V15.0056C48.3346 14.9789 48.3212 14.9656 48.2946 14.9656H47.6846C47.6179 14.9656 47.5846 14.9322 47.5846 14.8656V14.4756C47.5846 14.4089 47.6179 14.3756 47.6846 14.3756H48.2946C48.3212 14.3756 48.3346 14.3622 48.3346 14.3356V13.1756C48.3346 13.1089 48.3679 13.0756 48.4346 13.0756H48.9246C48.9912 13.0756 49.0246 13.1089 49.0246 13.1756V14.3356C49.0246 14.3622 49.0379 14.3756 49.0646 14.3756H50.1946C50.2612 14.3756 50.2946 14.4089 50.2946 14.4756V14.8656Z" fill="#2A394E"/>
<path d="M55.7691 14.3056C56.3024 14.3056 56.7258 14.4622 57.0391 14.7756C57.3591 15.0889 57.5191 15.5089 57.5191 16.0356V19.3356C57.5191 19.4022 57.4858 19.4356 57.4191 19.4356H56.9091C56.8424 19.4356 56.8091 19.4022 56.8091 19.3356V16.1756C56.8091 15.8089 56.6958 15.5089 56.4691 15.2756C56.2491 15.0422 55.9624 14.9256 55.6091 14.9256C55.2424 14.9256 54.9458 15.0389 54.7191 15.2656C54.4924 15.4922 54.3791 15.7889 54.3791 16.1556V19.3356C54.3791 19.4022 54.3458 19.4356 54.2791 19.4356H53.7691C53.7024 19.4356 53.6691 19.4022 53.6691 19.3356V14.4756C53.6691 14.4089 53.7024 14.3756 53.7691 14.3756H54.2791C54.3458 14.3756 54.3791 14.4089 54.3791 14.4756V14.9056C54.3791 14.9189 54.3824 14.9289 54.3891 14.9356C54.4024 14.9422 54.4124 14.9389 54.4191 14.9256C54.7124 14.5122 55.1624 14.3056 55.7691 14.3056Z" fill="#2A394E"/>
<path d="M60.9214 19.5156C60.4414 19.5156 60.028 19.3922 59.6814 19.1456C59.3347 18.8989 59.0947 18.5589 58.9614 18.1256C58.868 17.8189 58.8214 17.4089 58.8214 16.8956C58.8214 16.3822 58.868 15.9756 58.9614 15.6756C59.088 15.2489 59.3247 14.9122 59.6714 14.6656C60.018 14.4189 60.438 14.2956 60.9314 14.2956C61.4047 14.2956 61.8114 14.4189 62.1514 14.6656C62.498 14.9122 62.7347 15.2456 62.8614 15.6656C62.9547 15.9522 63.0014 16.3622 63.0014 16.8956C63.0014 17.4356 62.9547 17.8456 62.8614 18.1256C62.7347 18.5589 62.498 18.8989 62.1514 19.1456C61.8114 19.3922 61.4014 19.5156 60.9214 19.5156ZM60.9214 18.8956C61.2414 18.8956 61.5147 18.8089 61.7414 18.6356C61.968 18.4556 62.1214 18.2156 62.2014 17.9156C62.2614 17.6756 62.2914 17.3389 62.2914 16.9056C62.2914 16.4656 62.2647 16.1289 62.2114 15.8956C62.1314 15.5956 61.9747 15.3589 61.7414 15.1856C61.5147 15.0056 61.238 14.9156 60.9114 14.9156C60.5847 14.9156 60.308 15.0056 60.0814 15.1856C59.8547 15.3589 59.7014 15.5956 59.6214 15.8956C59.568 16.1289 59.5414 16.4656 59.5414 16.9056C59.5414 17.3456 59.568 17.6822 59.6214 17.9156C59.6947 18.2156 59.8447 18.4556 60.0714 18.6356C60.3047 18.8089 60.588 18.8956 60.9214 18.8956Z" fill="#2A394E"/>
<path d="M65.2953 19.4356C65.2419 19.4356 65.2053 19.4089 65.1853 19.3556L63.7653 14.4856L63.7553 14.4556C63.7553 14.4022 63.7886 14.3756 63.8553 14.3756H64.3753C64.4353 14.3756 64.4719 14.4056 64.4853 14.4656L65.5453 18.4056C65.5519 18.4189 65.5586 18.4256 65.5653 18.4256C65.5786 18.4256 65.5886 18.4189 65.5953 18.4056L66.6753 14.4656C66.6886 14.4056 66.7253 14.3756 66.7853 14.3756H67.2653C67.3253 14.3756 67.3619 14.4022 67.3753 14.4556L68.4653 18.3956C68.472 18.4089 68.482 18.4156 68.4953 18.4156C68.5086 18.4156 68.5186 18.4089 68.5253 18.3956L69.6153 14.4656C69.6286 14.4056 69.6653 14.3756 69.7253 14.3756L70.2453 14.3856C70.2786 14.3856 70.302 14.3956 70.3153 14.4156C70.3353 14.4356 70.3419 14.4622 70.3353 14.4956L68.8953 19.3556C68.8753 19.4089 68.8386 19.4356 68.7853 19.4356H68.2553C68.202 19.4356 68.1653 19.4089 68.1453 19.3556L67.0553 15.6156C67.0486 15.6022 67.0386 15.5956 67.0253 15.5956C67.0186 15.5956 67.0119 15.6022 67.0053 15.6156L65.9453 19.3556C65.9253 19.4089 65.8886 19.4356 65.8353 19.4356H65.2953Z" fill="#2A394E"/>
<line x1="218.607" y1="10.9799" x2="82.4215" y2="10.9799" stroke="#008F75" stroke-dasharray="2 2"/>
<line x1="219.959" y1="69.3297" x2="82.4215" y2="69.3297" stroke="#008F75" stroke-dasharray="2 2"/>
<path d="M17.073 125.081L219.976 125.436" stroke="#008F75" stroke-dasharray="2 2"/>
<circle cx="219.237" cy="10.2239" r="3.6" fill="white" stroke="#008F75" stroke-width="0.8"/>
<circle cx="220.27" cy="68.952" r="2.6" fill="white" stroke="#008F75" stroke-width="0.8"/>
<circle cx="17.0753" cy="124.7" r="1.6" fill="white" stroke="#008F75" stroke-width="0.8"/>
<defs>
<linearGradient id="paint0_linear_2728_1133" x1="118.135" y1="19.1302" x2="118.135" y2="125.057" gradientUnits="userSpaceOnUse">
<stop stop-color="#008F75"/>
<stop offset="0.75" stop-color="#78B8AC" stop-opacity="0.447917"/>
<stop offset="1" stop-color="#D9D9D9" stop-opacity="0"/>
</linearGradient>
</defs>
</svg>
