<svg width="24" height="24" xmlns="http://www.w3.org/2000/svg" fill="none" viewBox="0 0 24 24"><circle cx="12" cy="12" r="10" fill="#3F5BD9"/><path stroke="#fff" stroke-linecap="round" stroke-width="1.5" d="M9.775 8.5H14.324M9.674 10.884l1.162.008 1.162.01 2.324.016"/><path fill="#fff" d="M9.674 13.482v-.75a.75.75 0 0 0-.488 1.32l.488-.57Zm3.038 3.588a.75.75 0 0 0 .975-1.14l-.975 1.14Zm-.263-6.297c0 .742-.366 1.197-.91 1.505-.58.327-1.324.454-1.865.454v1.5c.715 0 1.734-.157 2.603-.649.904-.511 1.672-1.411 1.672-2.81h-1.5ZM10.925 9.25c.842 0 1.524.682 1.524 1.523h1.5a3.024 3.024 0 0 0-3.024-3.023v1.5Zm-1.739 4.802 3.526 3.018.975-1.14-3.525-3.018-.976 1.14Z"/></svg>
