<svg xmlns="http://www.w3.org/2000/svg" width="24" height="24" viewBox="0 0 24 24" fill="none">
<path d="M20.1569 16.3335H20.5267H21.1939C21.4505 16.3335 21.6584 16.1256 21.6584 15.869V13.49C21.6584 13.2338 21.4505 13.0254 21.1933 13.0252H20.487H20.4857H20.1233L20.0106 12.6808C19.5735 11.3459 18.7196 10.154 17.5676 9.22362L17.3897 9.07994L17.3821 8.85141L20.1569 16.3335ZM20.1569 16.3335L20.0486 16.6869C19.6615 17.9499 18.9031 19.0896 17.8718 20.0076M20.1569 16.3335L17.8718 20.0076M17.8718 20.0076C17.8717 20.0076 17.8717 20.0076 17.8717 20.0077L17.8699 20.009L17.8579 20.0197C17.8199 20.0534 17.7809 20.0871 17.741 20.1211L17.7352 20.1261L17.7295 20.1312C16.6072 21.1481 16.4972 22.3463 16.4893 22.6792L16.4892 22.6792V22.691V23.4779C16.4892 23.4902 16.4792 23.5001 16.467 23.5001H13.2822C13.2699 23.5001 13.26 23.4901 13.26 23.4779V22.7276V22.172L12.7075 22.2303C12.3607 22.267 12.0082 22.2862 11.6505 22.2862C11.192 22.2862 10.7421 22.2551 10.3033 22.1958L9.73627 22.1192V22.6913V23.4779C9.73627 23.4902 9.72626 23.5001 9.71405 23.5001H6.52897C6.52521 23.5001 6.52289 23.4995 6.52119 23.4988C6.5192 23.498 6.51689 23.4966 6.51463 23.4945C6.51001 23.4901 6.50785 23.4852 6.50748 23.4797L6.50738 23.4783L6.50675 23.4688V23.4686L17.8718 20.0076ZM6.01642 23.5093L6.00861 23.5132C6.01123 23.5119 6.01383 23.5106 6.01642 23.5093ZM12.9691 6.4814C12.9691 9.56388 10.4703 12.0624 7.38808 12.0624C4.30586 12.0624 1.80676 9.56355 1.80676 6.4814C1.80676 3.39892 4.30556 0.900391 7.38777 0.900391C10.47 0.900391 12.9691 3.39895 12.9691 6.4814Z" stroke="#425061"/>
<path d="M5.43726 3.48145H7.41435H9.39143" stroke="#425061" stroke-linecap="round"/>
<path d="M5.34851 5.55371L6.35858 5.56119L7.36865 5.56866L9.38879 5.58362" stroke="#425061" stroke-linecap="round"/>
<path d="M5.34851 7.81209V7.31209C5.13921 7.31209 4.95206 7.44245 4.87951 7.63877C4.80696 7.83509 4.86436 8.05582 5.02336 8.19193L5.34851 7.81209ZM8.08784 10.8152C8.29761 10.9948 8.61325 10.9703 8.79282 10.7605C8.9724 10.5507 8.94792 10.2351 8.73814 10.0555L8.08784 10.8152ZM7.91299 5.4572C7.91299 6.16885 7.5536 6.60911 7.04407 6.89729C6.51079 7.1989 5.83646 7.31209 5.34851 7.31209V8.31209C5.95248 8.31209 6.81038 8.17832 7.53636 7.76772C8.28609 7.34369 8.91299 6.60651 8.91299 5.4572H7.91299ZM6.43589 3.98145C7.25199 3.98145 7.91299 4.64248 7.91299 5.4572H8.91299C8.91299 4.08956 7.80363 2.98145 6.43589 2.98145V3.98145ZM5.02336 8.19193L8.08784 10.8152L8.73814 10.0555L5.67366 7.43225L5.02336 8.19193Z" fill="#425061"/>
</svg>
