<svg width="24" height="24" viewBox="0 0 24 24" fill="none" xmlns="http://www.w3.org/2000/svg">
<rect width="24" height="24" fill="white"/>
<circle cx="7.5" cy="6.5" r="4.1" fill="#3F5BD9" stroke="#3F5BD9" stroke-width="0.8"/>
<path d="M6.38928 4.56006H7.62157H8.85386" stroke="white" stroke-width="0.8" stroke-linecap="round"/>
<path d="M6.33423 5.85107L6.96379 5.85573L7.59335 5.86039L8.85247 5.86971" stroke="white" stroke-width="0.8" stroke-linecap="round"/>
<path d="M6.33423 7.25928V6.85928C6.16679 6.85928 6.01707 6.96357 5.95903 7.12062C5.90099 7.27768 5.94691 7.45427 6.07411 7.56315L6.33423 7.25928ZM7.98415 9.1982C8.15197 9.34186 8.40448 9.32227 8.54814 9.15445C8.6918 8.98662 8.67221 8.73412 8.50439 8.59045L7.98415 9.1982ZM7.84427 5.79152C7.84427 6.1964 7.64391 6.44458 7.34755 6.61219C7.03219 6.79055 6.62811 6.85928 6.33423 6.85928V7.65928C6.72092 7.65928 7.27186 7.57408 7.74138 7.30853C8.2299 7.03224 8.64427 6.54653 8.64427 5.79152H7.84427ZM7.01198 4.96006C7.47189 4.96006 7.84427 5.33257 7.84427 5.79152H8.64427C8.64427 4.89023 7.91321 4.16006 7.01198 4.16006V4.96006ZM6.07411 7.56315L7.98415 9.1982L8.50439 8.59045L6.59435 6.95541L6.07411 7.56315Z" fill="white"/>
<path fill-rule="evenodd" clip-rule="evenodd" d="M7.6345 13.2286C11.2251 13.2286 14.1359 10.3178 14.1359 6.7272C14.1359 6.18301 14.069 5.65443 13.9431 5.14923C13.9183 5.04989 13.9693 4.94606 14.0659 4.91226C14.803 4.65444 15.5872 4.58524 15.955 4.56666C16.0708 4.56081 16.1627 4.65767 16.1572 4.77344C16.1392 5.15758 16.1116 6.0234 16.1618 7.07108C16.1658 7.15559 16.2234 7.2277 16.3037 7.25428C18.8714 8.10418 20.6148 11.2235 20.9428 11.849C20.9783 11.9167 21.0473 11.9586 21.1237 11.9586H22.2544C22.3649 11.9586 22.4544 12.0482 22.4544 12.1586V15.889C22.4544 15.9994 22.3649 16.089 22.2544 16.089H20.7005C20.6302 16.089 20.565 16.1259 20.5289 16.1863L17.1089 21.9026C17.0727 21.9629 17.0076 21.9999 16.9372 21.9999H14.5924C14.4545 21.9999 14.3266 21.857 14.3308 21.7191C14.3379 21.4871 14.3396 21.0682 14.319 20.3167C14.3151 20.1726 14.1638 20.0796 14.0302 20.1338C11.9232 20.9878 9.60369 20.368 8.81785 20.1096C8.68323 20.0653 8.54021 20.1654 8.54021 20.3071V21.7999C8.54021 21.9103 8.45067 21.9999 8.34021 21.9999H5.83197C5.77435 21.9999 5.72036 21.976 5.68322 21.9319C5.11096 21.2532 0.543817 15.6269 2.47174 11.1263C2.52894 10.9928 2.70684 10.9709 2.8041 11.0788C3.99404 12.3988 5.71737 13.2286 7.6345 13.2286Z" fill="#3F5BD9"/>
<path d="M2.8041 11.0788L2.507 11.3466L2.8041 11.0788ZM5.68322 21.9319L5.37742 22.1898L5.68322 21.9319ZM8.81785 20.1096L8.94282 19.7296L8.81785 20.1096ZM14.319 20.3167L13.9192 20.3276L14.319 20.3167ZM14.0302 20.1338L14.1805 20.5045L14.0302 20.1338ZM14.3308 21.7191L14.7306 21.7314L14.3308 21.7191ZM20.5289 16.1863L20.8722 16.3917L20.5289 16.1863ZM20.9428 11.849L20.5885 12.0347L20.9428 11.849ZM16.1618 7.07108L15.7622 7.09022L16.1618 7.07108ZM16.3037 7.25428L16.178 7.63402L16.3037 7.25428ZM16.1572 4.77344L16.5568 4.79222L16.1572 4.77344ZM13.9431 5.14923L14.3312 5.05247L13.9431 5.14923ZM14.0659 4.91226L14.198 5.28983L14.0659 4.91226ZM13.7359 6.7272C13.7359 10.0969 11.0042 12.8286 7.6345 12.8286V13.6286C11.446 13.6286 14.5359 10.5387 14.5359 6.7272H13.7359ZM13.555 5.246C13.6731 5.7198 13.7359 6.21589 13.7359 6.7272H14.5359C14.5359 6.15013 14.465 5.58906 14.3312 5.05247L13.555 5.246ZM15.9349 4.16717C15.553 4.18645 14.7243 4.25819 13.9338 4.53469L14.198 5.28983C14.8817 5.05069 15.6213 4.98402 15.9752 4.96615L15.9349 4.16717ZM16.5613 7.05195C16.5119 6.02068 16.5391 5.16818 16.5568 4.79222L15.7577 4.75466C15.7392 5.14698 15.7113 6.02612 15.7622 7.09022L16.5613 7.05195ZM21.297 11.6632C21.1262 11.3374 20.5936 10.3746 19.7713 9.38081C18.9546 8.39371 17.818 7.33418 16.4294 6.87454L16.178 7.63402C17.357 8.02427 18.376 8.94938 19.155 9.8908C19.9284 10.8256 20.4315 11.7352 20.5885 12.0347L21.297 11.6632ZM22.2544 11.5586H21.1237V12.3586H22.2544V11.5586ZM22.8544 15.889V12.1586H22.0544V15.889H22.8544ZM20.7005 16.489H22.2544V15.689H20.7005V16.489ZM17.4521 22.1079L20.8722 16.3917L20.1857 15.9809L16.7656 21.6972L17.4521 22.1079ZM14.5924 22.3999H16.9372V21.5999H14.5924V22.3999ZM13.9192 20.3276C13.9396 21.0757 13.9378 21.486 13.931 21.7069L14.7306 21.7314C14.7381 21.4883 14.7395 21.0607 14.7189 20.3057L13.9192 20.3276ZM8.69289 20.4895C9.49421 20.7531 11.9334 21.4153 14.1805 20.5045L13.8799 19.7631C11.9131 20.5603 9.71316 19.9829 8.94282 19.7296L8.69289 20.4895ZM8.94021 21.7999V20.3071H8.14021V21.7999H8.94021ZM5.83197 22.3999H8.34021V21.5999H5.83197V22.3999ZM2.10405 10.9688C1.0707 13.3811 1.79162 16.049 2.77837 18.1335C3.77206 20.2326 5.08187 21.8393 5.37742 22.1898L5.98902 21.6741C5.71231 21.3459 4.45241 19.8001 3.50145 17.7912C2.54354 15.7677 1.94485 13.3721 2.83942 11.2838L2.10405 10.9688ZM7.6345 12.8286C5.83535 12.8286 4.2185 12.0504 3.1012 10.8109L2.507 11.3466C3.76958 12.7472 5.59939 13.6286 7.6345 13.6286V12.8286ZM2.83942 11.2838C2.80785 11.3575 2.73977 11.3998 2.67687 11.4084C2.61656 11.4166 2.55156 11.396 2.507 11.3466L3.1012 10.8109C2.82794 10.5078 2.28744 10.5407 2.10405 10.9688L2.83942 11.2838ZM5.83197 21.5999C5.88659 21.5999 5.94658 21.6237 5.98902 21.6741L5.37742 22.1898C5.49414 22.3282 5.66212 22.3999 5.83197 22.3999V21.5999ZM8.14021 21.7999C8.14021 21.6894 8.22975 21.5999 8.34021 21.5999V22.3999C8.67158 22.3999 8.94021 22.1313 8.94021 21.7999H8.14021ZM8.94282 19.7296C8.55876 19.6033 8.14021 19.8834 8.14021 20.3071H8.94021C8.94021 20.4475 8.8077 20.5273 8.69289 20.4895L8.94282 19.7296ZM14.7189 20.3057C14.7068 19.8646 14.2552 19.611 13.8799 19.7631L14.1805 20.5045C14.0723 20.5483 13.9234 20.4806 13.9192 20.3276L14.7189 20.3057ZM14.5924 21.5999C14.6614 21.5999 14.6953 21.6323 14.7028 21.6405C14.7103 21.6487 14.7323 21.6762 14.7306 21.7314L13.931 21.7069C13.9251 21.8999 14.0089 22.0678 14.1139 22.1819C14.2187 22.296 14.3856 22.3999 14.5924 22.3999V21.5999ZM16.7656 21.6972C16.8017 21.6368 16.8669 21.5999 16.9372 21.5999V22.3999C17.1483 22.3999 17.3438 22.289 17.4521 22.1079L16.7656 21.6972ZM20.7005 15.689C20.4895 15.689 20.294 15.7998 20.1857 15.9809L20.8722 16.3917C20.836 16.452 20.7709 16.489 20.7005 16.489V15.689ZM22.0544 15.889C22.0544 15.7785 22.144 15.689 22.2544 15.689V16.489C22.5858 16.489 22.8544 16.2204 22.8544 15.889H22.0544ZM22.2544 12.3586C22.144 12.3586 22.0544 12.2691 22.0544 12.1586H22.8544C22.8544 11.8272 22.5858 11.5586 22.2544 11.5586V12.3586ZM20.5885 12.0347C20.6928 12.2336 20.8979 12.3586 21.1237 12.3586V11.5586C21.1967 11.5586 21.2638 11.5998 21.297 11.6632L20.5885 12.0347ZM15.7622 7.09022C15.7746 7.34868 15.949 7.55823 16.178 7.63402L16.4294 6.87454C16.4977 6.89716 16.557 6.9625 16.5613 7.05195L15.7622 7.09022ZM15.9752 4.96615C15.841 4.97293 15.7527 4.86073 15.7577 4.75466L16.5568 4.79222C16.5727 4.45461 16.3006 4.1487 15.9349 4.16717L15.9752 4.96615ZM14.3312 5.05247C14.3523 5.13702 14.3122 5.24989 14.198 5.28983L13.9338 4.53469C13.6264 4.64224 13.4843 4.96275 13.555 5.246L14.3312 5.05247Z" fill="#3F5BD9"/>
</svg>
