<svg width="24" height="24" viewBox="0 0 24 24" fill="none" xmlns="http://www.w3.org/2000/svg">
    <path d="M12.25 7C12.25 9.34721 10.3472 11.25 8 11.25C5.65279 11.25 3.75 9.34721 3.75 7C3.75 4.65279 5.65279 2.75 8 2.75C10.3472 2.75 12.25 4.65279 12.25 7Z" stroke="#425061" stroke-width="1.5"/>
    <mask id="path-2-inside-1_114_6" fill="white">
        <path fill-rule="evenodd" clip-rule="evenodd" d="M10.734 12.4164C13.6977 10.9342 14.8987 7.32999 13.4164 4.36627C13.3999 4.33331 13.3832 4.30056 13.3662 4.26803L13.8043 2.07722C13.6372 1.91013 17.2097 2.04539 17.4722 2.18861C17.7348 2.35569 17.9019 2.61825 17.9019 2.92855V5.50642C19.334 6.34184 20.432 7.60691 21.1003 9.11066H22.7712C23.2486 9.11066 23.6305 9.49257 23.6305 9.94608V13.5981C23.6305 14.0754 23.2486 14.4574 22.7712 14.4574H21.4822C20.981 16.2714 19.8353 17.8229 18.2838 18.8731V21.1168C18.2838 21.5942 17.9019 21.9761 17.4245 21.9761H13.8441C13.6293 21.9761 13.4145 21.8807 13.2474 21.7136C13.1042 21.5704 13.0087 21.3317 13.0087 21.1168V20.2337H8.80772V21.1407C8.80772 21.6181 8.42581 22 7.94843 22H4.12936C3.65198 22 3.27007 21.6181 3.27007 21.1407V18.7299C1.21733 17.2262 0 14.8631 0 12.3091C0 10.2683 0.776346 8.40465 2.04909 6.99809C2.04036 7.91832 2.24393 8.85436 2.68386 9.73398C4.16611 12.6977 7.77027 13.8987 10.734 12.4164Z"/>
    </mask>
    <path d="M13.4164 4.36627L12.0748 5.03723L12.0748 5.03724L13.4164 4.36627ZM10.734 12.4164L11.405 13.758L10.734 12.4164ZM13.3662 4.26803L11.8953 3.97386L11.7914 4.49349L12.0369 4.96308L13.3662 4.26803ZM13.8043 2.07722L15.2752 2.37139L15.4326 1.58419L14.865 1.01655L13.8043 2.07722ZM17.4722 2.18861L18.2775 0.923117L18.2349 0.895975L18.1905 0.871766L17.4722 2.18861ZM17.9019 5.50642H16.4019V6.36798L17.1461 6.80209L17.9019 5.50642ZM21.1003 9.11066L19.7296 9.71987L20.1255 10.6107H21.1003V9.11066ZM21.4822 14.4574V12.9574H20.3405L20.0364 14.0578L21.4822 14.4574ZM18.2838 18.8731L17.4429 17.631L16.7838 18.0772V18.8731H18.2838ZM13.0087 20.2337H14.5087V18.7337H13.0087V20.2337ZM8.80772 20.2337V18.7337H7.30772V20.2337H8.80772ZM3.27007 18.7299H4.77007V17.9693L4.15651 17.5199L3.27007 18.7299ZM2.04909 6.99809L3.54902 7.01231L3.58647 3.06343L0.936837 5.99166L2.04909 6.99809ZM2.68386 9.73398L4.02542 9.06302L2.68386 9.73398ZM12.0748 5.03724C13.1865 7.26002 12.2858 9.96315 10.063 11.0748L11.405 13.758C15.1096 11.9052 16.6108 7.39995 14.758 3.69531L12.0748 5.03724ZM12.0369 4.96308C12.0497 4.98761 12.0624 5.01233 12.0748 5.03723L14.758 3.69531C14.7375 3.65429 14.7166 3.61351 14.6954 3.57298L12.0369 4.96308ZM12.3335 1.78304L11.8953 3.97386L14.837 4.56221L15.2752 2.37139L12.3335 1.78304ZM18.1905 0.871766C17.9666 0.749642 17.7472 0.705421 17.7046 0.696173C17.6124 0.676121 17.5195 0.66137 17.4395 0.650222C17.2766 0.627511 17.0844 0.608419 16.8872 0.592284C16.4882 0.559642 15.9976 0.533411 15.5282 0.517421C15.0624 0.50155 14.5888 0.494774 14.2293 0.504548C14.0631 0.509066 13.8615 0.518313 13.6863 0.543919C13.6417 0.550442 13.4096 0.580604 13.1681 0.696081C13.0999 0.728683 12.6335 0.941827 12.4079 1.50242C12.0865 2.30101 12.5284 2.92257 12.7437 3.13789L14.865 1.01655C15.0699 1.22142 15.5086 1.83313 15.1909 2.62244C14.9691 3.17375 14.5133 3.37819 14.4621 3.40264C14.3338 3.46401 14.2298 3.48945 14.1992 3.49676C14.1567 3.50695 14.1275 3.51131 14.1201 3.5124C14.1092 3.51398 14.1615 3.5075 14.3108 3.50344C14.5823 3.49606 14.9869 3.50072 15.4261 3.51568C15.8618 3.53052 16.303 3.55452 16.6425 3.58229C16.8146 3.59637 16.9432 3.61003 17.0252 3.62148C17.0678 3.62741 17.0783 3.63009 17.0672 3.62767C17.0615 3.62644 17.0354 3.62069 16.9967 3.60879C16.9697 3.60047 16.8728 3.57027 16.7539 3.50545L18.1905 0.871766ZM19.4019 2.92855C19.4019 2.02837 18.9035 1.32147 18.2775 0.923117L16.6669 3.4541C16.6204 3.42452 16.5537 3.36803 16.4966 3.2721C16.4368 3.17175 16.4019 3.05085 16.4019 2.92855H19.4019ZM19.4019 5.50642V2.92855H16.4019V5.50642H19.4019ZM22.4711 8.50145C21.6813 6.72458 20.3752 5.21264 18.6577 4.21075L17.1461 6.80209C18.2928 7.47104 19.1827 8.48923 19.7296 9.71987L22.4711 8.50145ZM22.7712 7.61066H21.1003V10.6107H22.7712V7.61066ZM25.1305 9.94608C25.1305 8.63682 24.0494 7.61066 22.7712 7.61066V10.6107C22.4477 10.6107 22.1305 10.3483 22.1305 9.94608H25.1305ZM25.1305 13.5981V9.94608H22.1305V13.5981H25.1305ZM22.7712 15.9574C24.077 15.9574 25.1305 14.9039 25.1305 13.5981H22.1305C22.1305 13.247 22.4201 12.9574 22.7712 12.9574V15.9574ZM21.4822 15.9574H22.7712V12.9574H21.4822V15.9574ZM19.1246 20.1153C20.9598 18.873 22.3281 17.0283 22.9281 14.8569L20.0364 14.0578C19.6339 15.5145 18.7107 16.7728 17.4429 17.631L19.1246 20.1153ZM19.7838 21.1168V18.8731H16.7838V21.1168H19.7838ZM17.4245 23.4761C18.7303 23.4761 19.7838 22.4226 19.7838 21.1168H16.7838C16.7838 20.7658 17.0734 20.4761 17.4245 20.4761V23.4761ZM13.8441 23.4761H17.4245V20.4761H13.8441V23.4761ZM12.1867 22.7742C12.5993 23.1868 13.1835 23.4761 13.8441 23.4761V20.4761C14.0751 20.4761 14.2297 20.5745 14.308 20.6529L12.1867 22.7742ZM11.5087 21.1168C11.5087 21.7027 11.7438 22.3313 12.1867 22.7742L14.308 20.6529C14.4047 20.7495 14.4475 20.836 14.467 20.885C14.4875 20.9362 14.5087 21.0115 14.5087 21.1168H11.5087ZM11.5087 20.2337V21.1168H14.5087V20.2337H11.5087ZM8.80772 21.7337H13.0087V18.7337H8.80772V21.7337ZM10.3077 21.1407V20.2337H7.30772V21.1407H10.3077ZM7.94843 23.5C9.25424 23.5 10.3077 22.4465 10.3077 21.1407H7.30772C7.30772 20.7897 7.59738 20.5 7.94843 20.5V23.5ZM4.12936 23.5H7.94843V20.5H4.12936V23.5ZM1.77007 21.1407C1.77007 22.4465 2.82355 23.5 4.12936 23.5V20.5C4.48041 20.5 4.77007 20.7897 4.77007 21.1407H1.77007ZM1.77007 18.7299V21.1407H4.77007V18.7299H1.77007ZM-1.5 12.3091C-1.5 15.348 -0.0492812 18.1577 2.38364 19.94L4.15651 17.5199C2.48393 16.2946 1.5 14.3783 1.5 12.3091H-1.5ZM0.936837 5.99166C-0.574709 7.66213 -1.5 9.88064 -1.5 12.3091H1.5C1.5 10.656 2.1274 9.14716 3.16134 8.00452L0.936837 5.99166ZM4.02542 9.06302C3.69428 8.40091 3.54249 7.70036 3.54902 7.01231L0.549154 6.98386C0.538224 8.13628 0.793572 9.30781 1.34229 10.4049L4.02542 9.06302ZM10.063 11.0748C7.84024 12.1865 5.13711 11.2858 4.02542 9.06302L1.34229 10.4049C3.1951 14.1096 7.70031 15.6108 11.405 13.758L10.063 11.0748Z" fill="#425061" mask="url(#path-2-inside-1_114_6)"/>
    <path d="M7.05505 5H8.28734H9.51963" stroke="#425061" stroke-width="0.8" stroke-linecap="round"/>
    <path d="M7 6.29123L7.62956 6.29589L8.25912 6.30055L9.51824 6.30987" stroke="#425061" stroke-width="0.8" stroke-linecap="round"/>
    <path d="M7 7.69922V7.29922C6.83256 7.29922 6.68284 7.40351 6.6248 7.56057C6.56676 7.71762 6.61268 7.89421 6.73988 8.00309L7 7.69922ZM8.64992 9.63814C8.81774 9.7818 9.07025 9.76221 9.21391 9.59439C9.35757 9.42656 9.33798 9.17406 9.17016 9.0304L8.64992 9.63814ZM8.51004 6.23146C8.51004 6.63634 8.30968 6.88452 8.01332 7.05213C7.69796 7.23049 7.29388 7.29922 7 7.29922V8.09922C7.38669 8.09922 7.93763 8.01402 8.40715 7.74848C8.89567 7.47218 9.31004 6.98647 9.31004 6.23146H8.51004ZM7.67775 5.4C8.13766 5.4 8.51004 5.77251 8.51004 6.23146H9.31004C9.31004 5.33017 8.57898 4.6 7.67775 4.6V5.4ZM6.73988 8.00309L8.64992 9.63814L9.17016 9.0304L7.26012 7.39535L6.73988 8.00309Z" fill="#425061"/>
</svg>
