<svg width="24" height="24" viewBox="0 0 24 24" fill="none" xmlns="http://www.w3.org/2000/svg">
<rect width="24" height="24" fill="white"/>
<circle cx="6.75" cy="5.5" r="4.75" stroke="#425061" stroke-width="1.5"/>
<path d="M6 4H7.23229H8.46458" stroke="#425061" stroke-width="0.8" stroke-linecap="round"/>
<path d="M6 5.29102L6.62956 5.29568L7.25912 5.30034L8.51824 5.30966" stroke="#425061" stroke-width="0.8" stroke-linecap="round"/>
<path d="M6 6.69922V6.29922C5.83256 6.29922 5.68284 6.40351 5.6248 6.56057C5.56676 6.71762 5.61268 6.89421 5.73988 7.00309L6 6.69922ZM7.64992 8.63814C7.81774 8.7818 8.07025 8.76221 8.21391 8.59439C8.35757 8.42656 8.33798 8.17406 8.17016 8.0304L7.64992 8.63814ZM7.51004 5.23146C7.51004 5.63634 7.30968 5.88452 7.01332 6.05213C6.69796 6.23049 6.29388 6.29922 6 6.29922V7.09922C6.38669 7.09922 6.93763 7.01402 7.40715 6.74848C7.89567 6.47218 8.31004 5.98647 8.31004 5.23146H7.51004ZM6.67775 4.4C7.13766 4.4 7.51004 4.77251 7.51004 5.23146H8.31004C8.31004 4.33017 7.57898 3.6 6.67775 3.6V4.4ZM5.73988 7.00309L7.64992 8.63814L8.17016 8.0304L6.26012 6.39535L5.73988 7.00309Z" fill="#425061"/>
<path d="M13.8971 4.97481L13.6212 4.27739C13.2642 4.41862 13.0715 4.80668 13.1747 5.17649L13.8971 4.97481ZM16.169 4.55957L16.9172 4.61139C16.9315 4.40398 16.8591 4.1999 16.7173 4.04789C16.5755 3.89588 16.3769 3.80957 16.169 3.80957L16.169 4.55957ZM16.169 7.21175L15.42 7.25209C15.4371 7.56888 15.6516 7.84067 15.9558 7.93083L16.169 7.21175ZM20.9989 11.9583L20.3251 12.2877C20.4509 12.5451 20.7124 12.7083 20.9989 12.7083V11.9583ZM22.4544 11.9583H23.2044C23.2044 11.5441 22.8686 11.2083 22.4544 11.2083V11.9583ZM22.4544 16.0887V16.8387C22.8686 16.8387 23.2044 16.5029 23.2044 16.0887H22.4544ZM20.5871 16.0887V15.3387C20.3234 15.3387 20.079 15.4773 19.9435 15.7037L20.5871 16.0887ZM17.0506 21.9996V22.7496C17.3144 22.7496 17.5588 22.611 17.6942 22.3847L17.0506 21.9996ZM14.31 21.9996L13.6025 21.7506C13.5218 21.9801 13.5573 22.2345 13.6979 22.433C13.8385 22.6316 14.0667 22.7496 14.31 22.7496V21.9996ZM14.31 20.0106L15.0596 19.9869C15.0516 19.7341 14.9167 19.5023 14.7008 19.3705C14.4849 19.2387 14.2171 19.2246 13.9886 19.333L14.31 20.0106ZM8.54021 20.0106L8.82055 19.315C8.5894 19.2218 8.32708 19.2496 8.12054 19.389C7.914 19.5285 7.79021 19.7614 7.79021 20.0106H8.54021ZM8.54021 21.9996V22.7496C8.95443 22.7496 9.29021 22.4138 9.29021 21.9996H8.54021ZM5.74131 21.9996L5.17724 22.4939C5.31964 22.6564 5.52523 22.7496 5.74131 22.7496V21.9996ZM2.60216 10.8435L3.1824 10.3683C3.02101 10.1712 2.77065 10.0696 2.51757 10.0983C2.26449 10.127 2.04328 10.2822 1.93017 10.5104L2.60216 10.8435ZM13.3859 6.72693C13.3859 9.90334 10.8109 12.4783 7.6345 12.4783V13.9783C11.6393 13.9783 14.8859 10.7318 14.8859 6.72693H13.3859ZM13.1747 5.17649C13.3122 5.66888 13.3859 6.18869 13.3859 6.72693H14.8859C14.8859 6.05104 14.7932 5.39558 14.6194 4.77313L13.1747 5.17649ZM16.169 4.55957C16.169 3.80957 16.1688 3.80957 16.1687 3.80957C16.1686 3.80957 16.1685 3.80957 16.1684 3.80957C16.1682 3.80957 16.168 3.80957 16.1677 3.80957C16.1672 3.80957 16.1667 3.80957 16.1661 3.80957C16.1648 3.80958 16.1632 3.80958 16.1614 3.80959C16.1576 3.80961 16.1527 3.80965 16.1467 3.80972C16.1347 3.80985 16.1181 3.8101 16.0972 3.81058C16.0557 3.81153 15.9971 3.81338 15.9245 3.81698C15.7795 3.82416 15.5765 3.83839 15.3382 3.86672C14.8687 3.92252 14.2299 4.03661 13.6212 4.27739L14.1729 5.67223C14.614 5.49777 15.1112 5.40425 15.5152 5.35624C15.7136 5.33265 15.8818 5.32093 15.9987 5.31514C16.057 5.31225 16.1022 5.31086 16.1315 5.31019C16.1462 5.30985 16.1569 5.3097 16.1632 5.30963C16.1664 5.30959 16.1685 5.30958 16.1695 5.30957C16.17 5.30957 16.1702 5.30957 16.1701 5.30957C16.17 5.30957 16.1699 5.30957 16.1697 5.30957C16.1696 5.30957 16.1695 5.30957 16.1694 5.30957C16.1693 5.30957 16.1692 5.30957 16.1692 5.30957C16.1691 5.30957 16.169 5.30957 16.169 4.55957ZM16.9179 7.17142C16.8789 6.44838 16.8789 5.80462 16.8887 5.34197C16.8935 5.11097 16.9008 4.92596 16.9068 4.79977C16.9098 4.7367 16.9125 4.68838 16.9144 4.65644C16.9153 4.64047 16.916 4.62859 16.9165 4.62102C16.9168 4.61723 16.917 4.61452 16.9171 4.6129C16.9171 4.6121 16.9171 4.61157 16.9172 4.61131C16.9172 4.61119 16.9172 4.61113 16.9172 4.61114C16.9172 4.61115 16.9172 4.61117 16.9172 4.61122C16.9172 4.61124 16.9172 4.61128 16.9172 4.61129C16.9172 4.61134 16.9172 4.61139 16.169 4.55957C15.4207 4.50775 15.4207 4.50781 15.4207 4.50788C15.4207 4.5079 15.4207 4.50798 15.4207 4.50803C15.4207 4.50814 15.4207 4.50827 15.4207 4.50842C15.4207 4.50872 15.4207 4.50908 15.4206 4.50952C15.4206 4.51039 15.4205 4.51155 15.4204 4.51298C15.4202 4.51585 15.4199 4.51984 15.4196 4.52491C15.419 4.53506 15.4181 4.54957 15.417 4.56823C15.4148 4.60556 15.4118 4.65955 15.4085 4.72855C15.4019 4.86653 15.3942 5.06481 15.389 5.31036C15.3786 5.8008 15.3786 6.48313 15.42 7.25209L16.9179 7.17142ZM20.9989 11.9583C21.6727 11.629 21.6726 11.6288 21.6725 11.6286C21.6725 11.6285 21.6724 11.6283 21.6723 11.6281C21.6721 11.6278 21.6719 11.6274 21.6717 11.6269C21.6712 11.626 21.6706 11.6248 21.67 11.6234C21.6686 11.6206 21.6667 11.6169 21.6644 11.6122C21.6598 11.6029 21.6533 11.59 21.645 11.5737C21.6283 11.5411 21.6044 11.4949 21.5732 11.4366C21.511 11.3202 21.4201 11.1556 21.3021 10.9566C21.0667 10.5594 20.7204 10.02 20.276 9.45007C19.4056 8.33396 18.0775 6.99518 16.3821 6.49267L15.9558 7.93083C17.1956 8.2983 18.2824 9.33281 19.0932 10.3725C19.4894 10.8805 19.8003 11.3646 20.0118 11.7215C20.1173 11.8994 20.1973 12.0445 20.2502 12.1435C20.2767 12.193 20.2963 12.2308 20.3088 12.2554C20.3151 12.2677 20.3196 12.2767 20.3223 12.2822C20.3237 12.2849 20.3246 12.2867 20.325 12.2876C20.3253 12.2881 20.3254 12.2883 20.3254 12.2884C20.3254 12.2884 20.3254 12.2883 20.3253 12.2882C20.3253 12.2881 20.3252 12.288 20.3252 12.288C20.3251 12.2878 20.3251 12.2877 20.9989 11.9583ZM22.4544 11.2083H20.9989V12.7083H22.4544V11.2083ZM23.2044 16.0887V11.9583H21.7044V16.0887H23.2044ZM20.5871 16.8387H22.4544V15.3387H20.5871V16.8387ZM17.6942 22.3847L21.2307 16.4738L19.9435 15.7037L16.407 21.6145L17.6942 22.3847ZM14.31 22.7496H17.0506V21.2496H14.31V22.7496ZM13.5604 20.0343C13.589 20.9407 13.5886 21.4214 13.5819 21.6694C13.5786 21.7937 13.5739 21.8507 13.572 21.8688C13.5711 21.8776 13.5715 21.871 13.5745 21.8546C13.576 21.8461 13.5786 21.8331 13.5827 21.8167C13.5848 21.8083 13.5874 21.7986 13.5905 21.7878C13.5921 21.7823 13.5939 21.7765 13.5959 21.7703C13.5969 21.7672 13.5979 21.7641 13.599 21.7608C13.5996 21.7591 13.6002 21.7575 13.6007 21.7558C13.601 21.7549 13.6015 21.7536 13.6016 21.7532C13.6021 21.7519 13.6025 21.7506 14.31 21.9996C15.0174 22.2486 15.0179 22.2473 15.0183 22.246C15.0185 22.2456 15.0189 22.2443 15.0192 22.2435C15.0198 22.2418 15.0204 22.2401 15.021 22.2384C15.0221 22.2351 15.0231 22.2318 15.0242 22.2286C15.0262 22.2223 15.0281 22.2162 15.0298 22.2104C15.0332 22.1988 15.0361 22.188 15.0385 22.178C15.0434 22.1583 15.0472 22.1399 15.0502 22.1234C15.0561 22.091 15.0606 22.0573 15.0642 22.0221C15.0713 21.9524 15.0775 21.8544 15.0814 21.7096C15.0892 21.4193 15.0887 20.9055 15.0596 19.9869L13.5604 20.0343ZM8.54021 20.0106C8.25988 20.7063 8.26011 20.7064 8.26035 20.7065C8.26045 20.7065 8.2607 20.7066 8.26089 20.7067C8.26128 20.7068 8.26172 20.707 8.2622 20.7072C8.26317 20.7076 8.26433 20.708 8.26567 20.7086C8.26837 20.7097 8.27184 20.711 8.27605 20.7127C8.28447 20.716 8.29589 20.7204 8.3102 20.7258C8.33881 20.7366 8.37901 20.7515 8.4299 20.7695C8.53164 20.8053 8.67651 20.8537 8.85738 20.9069C9.21825 21.0131 9.72722 21.1399 10.3262 21.2247C11.5111 21.3922 13.1205 21.4049 14.6314 20.6883L13.9886 19.333C12.8492 19.8734 11.5737 19.8861 10.5363 19.7394C10.0241 19.667 9.58755 19.5582 9.2807 19.4679C9.12771 19.4229 9.00817 19.3829 8.92895 19.3549C8.88938 19.3409 8.85997 19.33 8.84159 19.3231C8.8324 19.3196 8.82598 19.3171 8.82244 19.3157C8.82066 19.315 8.81961 19.3146 8.81929 19.3145C8.81913 19.3144 8.81915 19.3144 8.81936 19.3145C8.81947 19.3146 8.81962 19.3146 8.81982 19.3147C8.81991 19.3147 8.8201 19.3148 8.82015 19.3148C8.82034 19.3149 8.82055 19.315 8.54021 20.0106ZM9.29021 21.9996V20.0106H7.79021V21.9996H9.29021ZM5.74131 22.7496H8.54021V21.2496H5.74131V22.7496ZM1.93017 10.5104C0.567246 13.2602 1.49218 16.3362 2.60083 18.5692C3.16637 19.7082 3.80742 20.6849 4.30528 21.3754C4.55483 21.7215 4.76994 21.9978 4.9239 22.189C5.00091 22.2847 5.06273 22.3592 5.10604 22.4106C5.1277 22.4363 5.14473 22.4563 5.15673 22.4702C5.16273 22.4772 5.16748 22.4827 5.17091 22.4866C5.17263 22.4886 5.17402 22.4902 5.17507 22.4914C5.1756 22.492 5.17605 22.4925 5.17641 22.493C5.17659 22.4932 5.17679 22.4934 5.17688 22.4935C5.17707 22.4937 5.17724 22.4939 5.74131 21.9996C6.30538 21.5053 6.3055 21.5055 6.3056 21.5056C6.30561 21.5056 6.30569 21.5057 6.3057 21.5057C6.30573 21.5057 6.30567 21.5057 6.30553 21.5055C6.30524 21.5052 6.30463 21.5045 6.3037 21.5034C6.30183 21.5012 6.29866 21.4976 6.29426 21.4925C6.28546 21.4822 6.27169 21.4661 6.25338 21.4444C6.21675 21.4009 6.16196 21.3349 6.09226 21.2483C5.95278 21.0751 5.75406 20.82 5.52199 20.4981C5.05662 19.8527 4.46331 18.9474 3.94435 17.9021C2.884 15.7664 2.23935 13.2643 3.27415 11.1766L1.93017 10.5104ZM7.6345 12.4783C5.84028 12.4783 4.23834 11.6576 3.1824 10.3683L2.02192 11.3187C3.35054 12.941 5.37168 13.9783 7.6345 13.9783V12.4783Z" fill="#425061"/>
</svg>
