<svg width="25" height="24" viewBox="0 0 25 24" fill="none" xmlns="http://www.w3.org/2000/svg">
<path d="M22.9084 13.49V15.869C22.9084 16.4017 22.4767 16.8335 21.9439 16.8335H21.2767C20.8604 18.1915 20.0478 19.4077 18.9541 20.3811L18.9556 20.3802C18.9501 20.3849 18.9451 20.3895 18.9395 20.3939C18.8986 20.4301 18.8571 20.4661 18.8152 20.5017C17.8346 21.3903 17.7454 22.4294 17.7392 22.691V23.4779C17.7392 23.7661 17.5055 24.0001 17.217 24.0001H14.0322C13.744 24.0001 13.51 23.7664 13.51 23.4779V22.7276C13.1461 22.766 12.7761 22.7862 12.4005 22.7862C11.9195 22.7862 11.4471 22.7536 10.9863 22.6913V23.4779C10.9863 23.7661 10.7526 24.0001 10.4641 24.0001H7.27897C7.00252 24.0001 6.77689 23.785 6.75861 23.5132C6.75861 23.5132 6.75799 23.512 6.7583 23.5086C6.75768 23.4984 6.75675 23.4881 6.75675 23.4779V23.2405C6.73227 22.6901 6.56181 21.4113 5.56014 20.3802C4.87025 19.6699 4.36538 18.7943 4.01858 18.0468C3.75607 17.5373 3.55276 16.9996 3.41578 16.4402C3.41144 16.4244 3.40927 16.4157 3.40927 16.4157C3.2791 15.8764 3.21061 15.3179 3.21061 14.7446C3.21061 13.9577 3.34046 13.1977 3.58097 12.479C4.84638 13.442 6.42513 14.0138 8.13777 14.0138C12.1212 14.0138 15.3822 10.9214 15.6519 7.00641C16.1326 6.37819 16.9882 5.69078 18.4793 5.50545C18.9628 5.44532 19.2978 5.97157 19.039 6.38408C18.6699 6.97262 18.3544 7.79485 18.6098 8.69301C18.6234 8.74105 18.6302 8.78847 18.6318 8.83464C19.8516 9.81989 20.7659 11.0903 21.2357 12.5252H21.237H21.9436C22.4767 12.5255 22.9084 12.9576 22.9084 13.49ZM14.2191 6.4814C14.2191 9.84004 11.4964 12.5624 8.13808 12.5624C4.77975 12.5624 2.05676 9.83973 2.05676 6.4814C2.05676 3.12276 4.77944 0.400391 8.13777 0.400391C11.4961 0.400391 14.2191 3.12276 14.2191 6.4814Z" fill="#3F5BD9"/>
<path d="M6.18726 3.48145H8.16435H10.1414" stroke="white" stroke-linecap="round"/>
<path d="M6.09851 5.55371L7.10858 5.56119L8.11865 5.56866L10.1388 5.58362" stroke="white" stroke-linecap="round"/>
<path d="M6.09851 7.81209V7.31209C5.88921 7.31209 5.70206 7.44245 5.62951 7.63877C5.55696 7.83509 5.61436 8.05582 5.77336 8.19193L6.09851 7.81209ZM8.83784 10.8152C9.04761 10.9948 9.36325 10.9703 9.54282 10.7605C9.7224 10.5507 9.69792 10.2351 9.48814 10.0555L8.83784 10.8152ZM8.66299 5.4572C8.66299 6.16885 8.3036 6.60911 7.79407 6.89729C7.26079 7.1989 6.58646 7.31209 6.09851 7.31209V8.31209C6.70248 8.31209 7.56038 8.17832 8.28636 7.76772C9.03609 7.34369 9.66299 6.60651 9.66299 5.4572H8.66299ZM7.18589 3.98145C8.00199 3.98145 8.66299 4.64248 8.66299 5.4572H9.66299C9.66299 4.08956 8.55363 2.98145 7.18589 2.98145V3.98145ZM5.77336 8.19193L8.83784 10.8152L9.48814 10.0555L6.42366 7.43225L5.77336 8.19193Z" fill="white"/>
</svg>
