<svg width="24" height="20" viewBox="0 0 24 20" fill="none" xmlns="http://www.w3.org/2000/svg">
    <circle cx="7.97998" cy="4.99994" r="4.25" fill="white" stroke="#425061" stroke-width="1.5"/>
    <path d="M6.77515 2.83279H8.00744H9.23972" fill="#D9D9D9"/>
    <path d="M6.77515 2.83279H8.00744H9.23972" stroke="#425061" stroke-width="0.8" stroke-linecap="round"/>
    <path d="M6.72021 4.12402L7.34978 4.12868L7.97934 4.13334L9.23846 4.14266" fill="#D9D9D9"/>
    <path d="M6.72021 4.12402L7.34978 4.12868L7.97934 4.13334L9.23846 4.14266" stroke="#425061" stroke-width="0.8" stroke-linecap="round"/>
    <path d="M6.72021 5.53202V5.13202C6.55278 5.13202 6.40306 5.2363 6.34502 5.39336C6.28697 5.55042 6.3329 5.727 6.46009 5.83589L6.72021 5.53202ZM8.37013 7.47093C8.53796 7.61459 8.79046 7.595 8.93412 7.42718C9.07779 7.25936 9.0582 7.00685 8.89038 6.86319L8.37013 7.47093ZM8.23025 4.06425C8.23025 4.46914 8.02989 4.71731 7.73353 4.88493C7.41818 5.06329 7.0141 5.13202 6.72021 5.13202V5.93202C7.10691 5.93202 7.65785 5.84682 8.12737 5.58127C8.61588 5.30498 9.03025 4.81927 9.03025 4.06425H8.23025ZM7.39796 3.23279C7.85788 3.23279 8.23025 3.60531 8.23025 4.06425H9.03025C9.03025 3.16297 8.2992 2.43279 7.39796 2.43279V3.23279ZM6.46009 5.83589L8.37013 7.47093L8.89038 6.86319L6.98034 5.22815L6.46009 5.83589Z" fill="#425061"/>
    <path fill-rule="evenodd" clip-rule="evenodd" d="M0.808586 6.81538C0.810913 6.82592 0.813263 6.83645 0.815637 6.84696C0.304877 7.89364 0.0180664 9.06863 0.0180664 10.3091C0.0180664 12.8631 1.23539 15.2261 3.28814 16.7299V19.1406C3.28814 19.618 3.67005 19.9999 4.14743 19.9999H7.96649C8.44388 19.9999 8.82578 19.618 8.82578 19.1406V18.2336H10.3258H11.5268H13.0268V19.1168C13.0268 19.3316 13.1222 19.5703 13.2654 19.7135C13.4325 19.8806 13.6474 19.9761 13.8622 19.9761H17.4425C17.9199 19.9761 18.3018 19.5942 18.3018 19.1168V16.8731C19.8533 15.8228 20.9991 14.2713 21.5003 12.4573H22.7892C23.2666 12.4573 23.6485 12.0754 23.6485 11.598V7.94602C23.6485 7.49251 23.2666 7.1106 22.7892 7.1106H21.1184C20.4501 5.60685 19.3521 4.34178 17.9199 3.50636V0.928491C17.9199 0.618192 17.7528 0.355631 17.4903 0.188547C17.3527 0.113495 16.3061 0.0406272 15.3651 0.0123135L15.3199 0.0109855C14.6397 -0.00851359 14.0237 -0.00419833 13.8594 0.0401161C13.8249 0.0494288 13.8103 0.0605083 13.8193 0.0735045L13.825 0.0766617L13.7684 0.34729L13.7398 0.490314L13.7387 0.489127L13.3299 2.44212C13.8329 3.28672 14.1187 4.26198 14.1187 5.29256C14.1187 8.4219 11.4841 11.0412 8.13086 11.0412C5.4396 11.0412 3.21127 9.35398 2.43635 7.07002C2.2045 6.6949 2.0542 5.55137 2.008 5.0259C1.35975 5.78228 0.946478 6.51754 0.808586 6.81538ZM1.66348 8.94794C1.56824 9.38686 1.51807 9.84227 1.51807 10.3091C1.51807 12.3782 2.502 14.2945 4.17458 15.5198L4.78814 15.9693V16.7299V18.4999H7.32578V18.2336V16.7336H8.82578H13.0268H14.5268V18.2336V18.4761H16.8018V16.8731V16.0771L17.461 15.6309C18.7288 14.7727 19.652 13.5145 20.0545 12.0578L20.3586 10.9573H21.5003H22.1485V8.6106H21.1184H20.1436L19.7477 7.71981C19.2007 6.48917 18.3109 5.47098 17.1641 4.80203L16.4199 4.36792V3.50636V1.5643C16.1249 1.54423 15.7828 1.52716 15.4442 1.51562C15.3144 1.5112 15.1877 1.50768 15.0665 1.5051L14.9209 2.23301C15.3686 3.16255 15.6187 4.19929 15.6187 5.29256C15.6187 9.29585 12.2663 12.5412 8.13086 12.5412C5.37259 12.5412 2.96266 11.0974 1.66348 8.94794Z" fill="#425061"/>
</svg>
