<svg width="352" height="76" viewBox="0 0 352 76" fill="none" xmlns="http://www.w3.org/2000/svg">
<g clip-path="url(#clip0_576_3575)" filter="url(#filter0_d_576_3575)">
<g clip-path="url(#clip1_576_3575)">
<g filter="url(#filter1_d_576_3575)">
<rect x="4" y="3" width="344" height="68" rx="8" fill="#FEF7EA" shape-rendering="crispEdges"/>
<circle cx="324" cy="31" r="2" fill="#FEEED4"/>
<circle cx="326" cy="12" r="2" fill="#F9BA4D"/>
<circle cx="346" cy="24" r="2" fill="#FEEED4"/>
<circle cx="300" cy="18" r="1" fill="#F9BA4D"/>
<path fill-rule="evenodd" clip-rule="evenodd" d="M305 3C305 5.20914 306.791 7 309 7C311.209 7 313 5.20914 313 3H305Z" fill="#FEEED4"/>
<circle cx="28" cy="43" r="2" transform="rotate(-180 28 43)" fill="#FEEED4"/>
<circle cx="26" cy="62" r="2" transform="rotate(-180 26 62)" fill="#F9BA4D"/>
<circle cx="6" cy="50" r="2" transform="rotate(-180 6 50)" fill="#FEEED4"/>
<circle cx="52" cy="56" r="1" transform="rotate(-180 52 56)" fill="#F9BA4D"/>
<path fill-rule="evenodd" clip-rule="evenodd" d="M47 71C47 68.7909 45.2091 67 43 67C40.7909 67 39 68.7909 39 71L47 71Z" fill="#FEEED4"/>
</g>
</g>
</g>
<defs>
<filter id="filter0_d_576_3575" x="0" y="0" width="352" height="76" filterUnits="userSpaceOnUse" color-interpolation-filters="sRGB">
<feFlood flood-opacity="0" result="BackgroundImageFix"/>
<feColorMatrix in="SourceAlpha" type="matrix" values="0 0 0 0 0 0 0 0 0 0 0 0 0 0 0 0 0 0 127 0" result="hardAlpha"/>
<feOffset dy="1"/>
<feGaussianBlur stdDeviation="2"/>
<feComposite in2="hardAlpha" operator="out"/>
<feColorMatrix type="matrix" values="0 0 0 0 0.0941176 0 0 0 0 0.121569 0 0 0 0 0.160784 0 0 0 0.08 0"/>
<feBlend mode="normal" in2="BackgroundImageFix" result="effect1_dropShadow_576_3575"/>
<feBlend mode="normal" in="SourceGraphic" in2="effect1_dropShadow_576_3575" result="shape"/>
</filter>
<filter id="filter1_d_576_3575" x="-2" y="0" width="356" height="80" filterUnits="userSpaceOnUse" color-interpolation-filters="sRGB">
<feFlood flood-opacity="0" result="BackgroundImageFix"/>
<feColorMatrix in="SourceAlpha" type="matrix" values="0 0 0 0 0 0 0 0 0 0 0 0 0 0 0 0 0 0 127 0" result="hardAlpha"/>
<feOffset dy="3"/>
<feGaussianBlur stdDeviation="3"/>
<feComposite in2="hardAlpha" operator="out"/>
<feColorMatrix type="matrix" values="0 0 0 0 0.568627 0 0 0 0 0.568627 0 0 0 0 0.568627 0 0 0 0.04 0"/>
<feBlend mode="normal" in2="BackgroundImageFix" result="effect1_dropShadow_576_3575"/>
<feBlend mode="normal" in="SourceGraphic" in2="effect1_dropShadow_576_3575" result="shape"/>
</filter>
<clipPath id="clip0_576_3575">
<rect width="344" height="68" fill="white" transform="translate(4 3)"/>
</clipPath>
<clipPath id="clip1_576_3575">
<rect width="344" height="68" fill="white" transform="translate(4 3)"/>
</clipPath>
</defs>
</svg>
